<svg width="586" height="162" viewBox="0 0 586 162" fill="none" xmlns="http://www.w3.org/2000/svg">
<g clip-path="url(#clip0_5868_168)">
<path d="M201.4 41.1L201.2 40.9C201 41.1 200.8 41.4 200.6 41.6C200.7 41.7 200.9 41.8 201 41.9C201.1 41.6 201.3 41.4 201.4 41.1Z" fill="#C99FAF"/>
<path d="M197.3 44.6C197.9 44.9 198.4 45.2 199.1 45.5C199.4 44.9 199.6 44.5 199.9 43.8C198.9 44 198.1 44.1 197.3 44.3C197.4 44.4 197.3 44.5 197.3 44.6Z" fill="#C99FAF"/>
<path d="M263.8 28.6C263.9 28.7 263.9 28.6 263.8 28.6Z" fill="#BABD58"/>
<path d="M424 149.6H424.3H424.2C425.1 149 424.1 147.8 425.3 147.3C426 147.9 426.2 148.5 425.8 149.4C425.7 149.5 425.7 149.6 425.6 149.7H426.2L427.4 149.8C427.3 148.8 427.5 148 428.4 147.4C429.4 146.6 429.3 146.5 428.5 145.5C428.2 145.2 427.9 144.5 428.1 144.2C428.4 143.4 428.7 142.7 427.8 142.1C427 141.7 425.6 142 425 142.8C424.8 143 424.7 143.3 424.5 143.6C424.5 143.2 424.5 142.8 424.5 142.5C424.5 142 424.4 141.4 423.7 141.4C423.1 141.4 422.3 142.2 422.4 142.7C422.5 143.2 422.6 143.8 422.7 144.4C422.2 144.6 421.8 144.7 421.5 144.8C420.8 145.1 420.5 145.4 420.9 146.2C421.1 146.5 421 146.9 421 147.3C421 148.2 421 149 421 150L422.3 149.8L424 149.6Z" fill="#CF7850"/>
<path d="M132.8 30.9C133 30.9 133.3 30.9 133.5 30.9C133.7 31.3 133.8 31.6 134 32C134.9 33.8 136.3 34.8 138.4 34.7C139 34.7 139.6 34.9 140.4 35C140.5 38.1 140.6 41.1 140.7 44.3C139.4 44.3 138.4 44.3 137.3 44.3C135.4 44.3 134.4 45 134.3 46.4C134.3 47.8 135.4 48.6 137.2 48.5C138.2 48.5 139.1 48.5 140.3 48.5C140 51.6 139.8 54.6 139.6 57.7C138.7 57.7 138 57.7 137.2 57.7C136.7 57.7 136.2 57.7 135.7 57.8C134.8 58.1 134.3 59.1 134.4 60C134.5 61 135.3 61.8 136.4 61.8C137.3 61.9 138.2 61.8 139.2 61.8C139.4 64.5 139.6 66.9 139.9 69.6C138.8 69.7 138 69.7 137.2 69.8C135.7 70 134.9 70.9 134.9 72.1C135 73.4 136.1 74.2 137.6 74.1C138.3 74 138.9 73.9 139.7 73.8C140.7 76.6 140 79.4 140.4 82.3C139.1 82.6 137.9 82.5 136.7 82.4C134.8 82.3 133.8 83.1 133.8 84.5C133.8 85.9 134.9 86.6 136.7 86.6C137.8 86.6 138.9 86.6 140 86.6C139.9 89 139.9 91.3 139.9 93.8C138.6 93.8 137.6 93.8 136.6 93.8C135.5 93.9 134.8 94.4 134.6 95.3C134.3 96.2 134.6 97 135.3 97.4C135.8 97.7 136.4 97.9 137.1 97.9C137.9 98 138.8 97.9 139.8 97.9C140.6 101 139.1 103.9 139.6 107C138 107.1 136.6 107.3 135.2 107.3C133.7 107.3 132.7 108 132.7 109.3C132.6 110.5 133.5 111.6 134.9 111.7C135.8 111.8 136.7 111.6 137.6 111.5C138.2 111.4 138.8 111.4 139.7 111.3V119.2C138.5 119.2 137.4 119.2 136.2 119.2C134.3 119.2 133.2 120.1 133.3 121.5C133.4 122.9 134.8 123.8 136.5 123.6C137.7 123.5 138.9 123.4 140.3 123.2C140.4 124.3 140.4 125.1 140.5 125.9C140.7 127.5 140.9 129.1 141.2 130.6C141.2 130.7 141.2 130.8 141.2 130.9C141.3 131.4 141.6 131.9 142.1 131.7C142.4 131.6 142.7 131 142.6 130.6C142.5 129.6 142.2 128.6 142.1 127.6C141.9 126.3 141.9 125 141.8 123.6C142.6 123.6 143.2 123.6 143.7 123.6C146.4 123.7 149.1 123.9 151.8 124C153.3 124.1 154.8 124.3 156.3 124.2C160 124.1 163.7 123.8 167.5 123.8C171.2 123.8 174.9 123.9 178.8 124C179 126.8 179.3 129.6 179.5 132.5C179.3 132.6 179.2 132.6 179 132.6C176.1 132.6 173.3 132.5 170.4 132.5C170.1 132.5 169.8 132.5 169.5 132.5C166.3 132.5 163.1 132.6 159.9 132.6C156 132.6 152.1 132.6 148.2 132.7C145.5 132.7 142.8 132.7 140.1 132.7C139.2 132.7 138.4 132.5 137.5 132.4C136.5 132.3 135.6 132.2 134.6 132.2C133.2 132.3 132.4 133.3 132.4 134.4C132.4 135.5 133.4 136.5 134.7 136.5C137.3 136.5 139.8 137 142.4 136.7C144.4 136.5 146.5 136.8 148.6 136.9C149.1 136.9 149.5 137 150 136.9C153.8 136.8 157.5 136.6 161.3 136.6C164.3 136.6 167.4 136.7 170.4 136.7C171.7 136.7 173 136.6 174.4 136.6C175.7 136.6 177 136.7 178.4 136.8C179 138.9 178.7 141 178.4 143C179.3 143.5 179.8 143.3 179.9 142.4C180 141.4 180.1 140.3 180.1 139.3C180.1 138.5 180.1 137.7 180.1 136.8C180.6 136.7 181 136.5 181.3 136.6C183.7 137.3 186.1 136.9 188.5 136.8C189.3 136.8 190.1 136.6 190.8 137.1C191 137.2 191.7 137 191.9 136.7C192.5 136.1 193 135.4 193.4 134.6C194.1 133.5 194.1 132.3 193.8 131.1C193.6 130.5 193.5 129.9 194 129.3C195.4 127.4 195 125.3 194.8 123.2C194.7 121.9 194.4 120.6 194.3 119.2C195.1 119.1 195.8 119.1 196.5 119.1C196.5 119.6 196.6 120.1 196.6 120.6C195.8 120.7 194.9 120.8 195 121.8C195.1 122.8 196.1 122.1 196.8 122.5C196.8 128 196.5 133.7 196.3 139.4C197.1 139.5 197.7 139.3 197.8 138.3C197.9 138 198 137.6 198 137.3C198.1 134.6 198.3 131.9 198.3 129.3C198.3 126 198.2 122.7 198.1 119.4C198.1 118.1 197.9 116.8 197.9 115.4C197.9 114.9 198 114.4 198.2 113.9C198.5 113.2 198.6 112.6 197.8 112.3C196.9 112 196.6 112.6 196.6 113.5C196.1 113.3 195.7 113 195.3 113C195 113 194.7 113.3 194.3 113.5C194.5 113.8 194.6 114.2 194.8 114.3C195.2 114.5 195.7 114.6 196.5 114.8C196.2 115.1 196.1 115.4 195.8 115.6C195.7 115.7 195.3 115.5 195.1 115.6C194.8 115.8 194.5 116 194.2 116.2C194.5 116.5 194.7 116.8 195 116.9C195.4 117.1 195.9 117.1 196.3 117.3C195.5 117.5 194.7 117.7 193.9 117.9C191.5 115.9 189.6 116 189.3 119.5C187.4 120 183 119.8 180.2 119.2C180.1 118.9 180 118.5 180 118.1C180.1 116.3 180.1 114.6 180.2 112.8C180.3 111.6 180.4 111.5 181.6 111.5C184.3 111.6 187 111.6 189.7 111.6C191.5 111.6 193.2 111.7 195 111.8C196.3 111.9 197.2 111.3 198.1 110.6C198.7 110.1 199 109.3 198.7 108.6C198.3 107.7 198.5 106.8 198.6 105.9C198.8 104.5 198 103.4 196.8 103.3C195.6 103.1 194.6 103.9 194.4 105.2C194.3 105.9 194.2 106.5 194 107.4C189 107.5 184 107.8 178.9 107C179 104.3 179.1 101.7 179.2 99C180.3 99 181.3 99.1 182.3 99C184.4 98.9 186.4 98.7 188.4 98.5C189.2 98.4 189.9 98.4 190.7 98.7C192 99.3 193.2 98.9 193.7 97.7C194.2 96.6 193.8 95.3 192.5 94.7C191 93.9 189.4 93.8 187.8 94.2C185.8 94.7 183.8 95 181.7 94.9C180.9 94.8 180.1 94.7 179.3 94.6V87C179.6 86.9 180 86.8 180.4 86.8C182.6 86.6 184.7 86.4 186.9 86.3C188 86.2 189.2 86 190 87C190.9 86.7 191.6 86.4 192.4 86.1C193.7 85.6 194.2 84.2 193.5 83C192.7 81.7 192.2 80.5 192.1 79C192.1 78.5 191.9 78 191.3 78.1C191 78.2 190.5 78.6 190.4 79C190.2 80 190.1 81 189.9 82.1C189.5 82.1 189.1 82.2 188.8 82.2C188.3 81.5 187.9 80.9 187.3 80.1C187.8 78.6 188.4 76.9 189 75.2C189.4 74.1 190.5 74.2 191.3 74C192 73.9 192.8 74 193.5 74.1C194.2 74.2 194.9 74.4 195.5 74.4C197.2 74.5 197.5 74.2 197.6 72.5C197.6 71.9 197.7 71.4 197.8 70.8C198 68.6 197.2 67 195.2 66C194.6 65.7 194 65.5 193.5 65.3C193.2 65.1 192.8 64.9 192.6 64.6C192 63.4 191.1 62.6 189.9 61.8C190.5 61.8 191.1 61.7 191.7 61.7C193 61.6 193.8 60.6 193.7 59.3C193.5 57.8 193.3 56.4 193.2 54.9C193.1 53.7 192.7 53.1 192.1 53.3C191.1 53.6 191.5 54.5 191.5 55.2C191.5 55.9 191.7 56.5 191.9 57.4C190.2 57.6 188.7 57.8 187.2 57.9C186.2 58 185.1 58 184.1 58.3C182.7 58.7 181.4 58.5 180 58C179.5 54.7 181.2 51.6 180.5 48.2C182.5 48.2 184.2 48.2 186 48.2C188 48.2 190 48.4 192 48.4C192.6 48.4 193.3 48.1 194.1 47.9C194.3 48.5 194.5 49.2 194.9 49.8C195.2 50.3 195.6 50.7 196 51.1C196.5 51.6 197 52.3 197.7 51.7C198.5 51 197.5 50.5 197.2 50C197.2 49.9 197.2 49.9 197.1 49.6C197.4 49.3 197.8 49 198.3 48.6C198.9 48.2 199.5 47.9 200 47.4C201.7 46 201.9 45 201.2 42.8C202.5 42.3 203 41.2 203 39.8C203 39 202.7 38.6 201.8 38.7C200.8 38.8 199.9 38.8 198.9 38.8C197.7 38.8 196.6 38.8 196.1 37.4C195.9 36.8 195.3 36.7 194.7 36.7C193.5 36.7 192.2 37.1 191 36.6C190.4 36.4 189.9 36.8 189.7 37.4C189.4 38.2 189.1 39.1 188.5 39.9C188.5 39.4 188.5 38.9 188.3 38.5C188.2 38.1 187.9 37.8 187.6 37.4C187.3 37.6 187 37.8 186.8 38.1C186.5 38.5 186.2 38.9 185.9 39.4C186.5 41.1 186.3 43.4 189.4 43.8C188.8 44.1 188.6 44.2 188.4 44.2C183.4 44.1 178.4 44 173.2 43.9C173.2 42.8 173.2 41.9 173.2 40.9C173.2 39.2 173.1 37.6 173.2 35.9C173.2 35.2 173.5 34.5 173.8 33.8C174.1 33.2 174.6 32.9 175.3 33C177 33.1 178.7 33.1 180.5 33C184.1 32.7 187.8 32.3 191.7 31.9C191.8 32 192 32.3 192.3 32.6C193.6 33.9 195.4 33.5 195.9 31.8C196.9 28.6 195.9 27.3 192.6 27.5C189.6 27.7 186.7 28.3 183.7 28.6C180.6 29 177.4 29.2 174.3 28.5C172.7 28.1 172 28.5 170.8 30.5C168.7 30.5 166.6 30.5 164.5 30.5C164.2 30.5 163.8 30.3 163.5 30.4C159.7 30.8 155.9 30 152 29.9C149 29.8 145.9 30.1 142.9 30.2C141.2 30.3 139.5 29.9 137.8 29.5C137.7 28.8 137.7 28.3 137.6 27.7C137.4 26.2 136.4 25.5 135 25.6C133.8 25.7 132.6 25.6 131.6 26.4C130.6 27.2 130.2 28 130.5 29C130.8 30.5 131.5 30.9 132.8 30.9ZM193 124C193.2 125.6 193.4 127.1 192.5 128.5C191.9 129.6 191.9 129.6 190.5 129.3C190.3 127.9 190.2 126.5 190 124.9C191 124.7 192 124.4 193 124ZM180.1 124.3C182.8 124.4 185.5 124.5 188.2 124.6C188.9 126.2 189.1 127.9 189 129.5C188.9 130.6 188.6 131.7 188.4 132.9C185.8 133.2 183.1 133.2 180.3 132.5C180.6 129.7 179.4 127 180.1 124.3ZM201.1 40.9C201.1 40.9 201.3 41 201.3 41.1C201.2 41.4 201 41.6 200.9 41.9C200.8 41.8 200.6 41.7 200.5 41.6C200.8 41.4 201 41.2 201.1 40.9ZM195.9 49.1C195.7 48 195.5 47 195.3 46.1C195.4 46 195.5 45.9 195.6 45.8C196.6 46.2 197.6 46.6 198.8 47.2C197.7 47.9 196.9 48.5 195.9 49.1ZM191.2 39C192.4 39.2 193.7 38.7 195 39.1C195 39.2 195 39.4 195 39.5C194.7 39.5 194.4 39.5 194.1 39.7C193.8 39.8 193.4 40 193.4 40.3C193.3 40.5 193.6 40.9 193.8 41.1C194.1 41.4 194.6 41.6 195 41.8C195.3 41.4 195.6 41 195.9 40.6C198.4 41.2 198.4 41.2 198.6 42.4C196.5 42.6 194.8 44.3 192.4 43.8C192.2 43.4 192 42.9 191.8 42.4C191.6 42 191.5 41.5 191.2 41.2C190.3 40.5 190.6 39.8 191.2 39ZM140.7 107C140.9 104.2 141.2 101.3 141.4 98.3C142.1 98.3 142.6 98.4 143.2 98.4C147.7 98.5 152.1 98.8 156.6 98.6C161.5 98.4 166.4 98 171.4 98.5C173.4 98.7 175.3 99 177.5 99.4C177.4 102.2 177.3 104.9 177.2 107.7C175.3 107.9 173.5 108.2 171.6 108.2C165.4 108.3 159.2 108.2 153 108.2C152 108.2 150.9 108.1 149.9 107.8C147.8 107.2 145.7 107.1 143.6 107.4C142.7 107.5 141.8 107.6 140.7 107ZM141.8 86.7C144.2 86.6 146.5 86.5 148.8 86.4C154.7 86.2 160.5 86.9 166.3 87.5C169.5 87.8 172.7 88.3 175.9 87.7C176.4 87.6 177 87.7 177.7 87.7C177.6 90.2 178 92.6 177.6 95.1C176 94.8 174.7 94.4 173.3 94.4C168 94.3 162.6 94.2 157.3 94.4C152.3 94.6 147.3 94.6 142.4 94.1C142.1 94.1 141.8 93.9 141.3 93.8C141.8 91.4 140.7 89.1 141.8 86.7ZM141.4 73.9C141.8 73.9 142.1 73.9 142.5 73.9C146.3 74.2 150 74.6 153.8 74.7C158.9 74.9 164 74.9 169 75.7C170.8 76 172.8 76 174.6 75.4C175.7 75 176.7 75.1 177.9 75.3C177.8 78 178.5 80.5 178.1 83.3C175.6 83.5 173.3 83.8 171 83.7C167 83.5 163 82.9 159 82.5C154.7 82.1 150.4 82 146.1 82.4C144.7 82.5 143.3 82.4 141.7 82.4C141.7 79.5 141.5 76.7 141.4 73.9ZM178.2 120C177.6 120 177.1 120 176.7 120C173.8 119.9 171 119.8 168.1 119.8C164.9 119.8 161.7 120.2 158.5 120.2C153.9 120.2 149.2 119.9 144.6 119.7C143.5 119.7 142.4 119.5 141.1 119.5C141 116.9 140.9 114.4 140.8 111.9C142.2 111.8 143.4 111.7 144.6 111.7C145.8 111.7 147.1 111.8 148.3 111.9C149.8 112 151.2 112.4 152.7 112.4C157.6 112.5 162.4 112.5 167.3 112.4C170.3 112.4 173.3 112.6 176.2 112C176.4 111.9 176.7 112.1 177 112.1C177.1 113.5 177.1 114.8 177.2 116.1C177.2 116.5 177.3 117.2 177.6 117.4C178.6 118 178.3 118.9 178.2 120ZM187.3 67.1C187.5 66.2 187.6 65.2 187.7 64.3C190 64.1 190.2 64.2 191.3 66.1C191.6 66.5 192.1 66.9 192.5 67.2C193 67.5 193.7 67.6 194.3 67.8C196 68.6 196.6 69.6 196.3 71.5C196.2 72.1 196.1 72.7 196 73.5C195.4 73.4 194.8 73.3 194.3 73.3C192.9 73.2 191.6 73.2 190.2 73.2C189.9 73.2 189.6 73.3 189.4 73.2C188.7 72.9 188.3 73.1 187.9 73.6C187.5 74.1 187.1 74.5 186.6 75.1C186.3 75 185.9 74.9 185.6 74.9C184.9 74.8 184.5 74.4 184.5 73.8C184.6 72 183.6 70.7 182.9 69.1C182.7 68.6 182.2 68.1 182.4 67.3C183 67.7 183.5 68.1 184 68.4C185.6 69.4 186.9 68.8 187.3 67.1ZM180 63.2C182.1 63.1 184 63 186 62.9C186.2 64.4 186.1 65.8 185.4 67.3C185 67.1 184.7 67 184.4 66.8C183.8 66.4 183.3 65.8 182.6 65.4C181.5 64.7 180.6 65.2 180.7 66.4C180.7 67.3 180.9 68.2 181.2 69C181.8 70.6 182.8 72.1 182.9 74C183 75.2 183.8 76.2 185.2 76.5C185.7 76.6 186.3 76.8 186.7 76.9C186.3 78.9 185.9 80.8 185.5 82.9C184.4 83 183.2 83.2 181.9 83.3C181.4 82.1 182.3 80.9 181.4 79.9C180.9 80.2 180.3 80.4 179.8 80.7C179.5 78.8 179.3 77 179 75.1C179 74.9 179 74.6 179.1 74.4C179.9 71.7 180 69 179.7 66.3C179.6 65.2 179.6 64.1 180 63.2ZM144 34.9C144.6 34.9 145.1 34.9 145.7 34.9C148.2 34.9 150.7 34.7 153.2 34.8C155.5 34.9 157.8 35.2 160 35.3C162.8 35.4 165.7 35.4 168.6 35.4C169.6 35.4 170.5 35.5 171.5 35.6C172.1 38.6 171.8 41.5 171.6 44.6C161.7 46.1 151.9 45.5 142.1 44C142 41 141.9 38.2 141.8 35.2C142.7 35 143.4 34.9 144 34.9ZM142.2 48.4C142.4 48.4 142.6 48.3 142.8 48.3C147.2 48.7 151.7 49.2 156.1 49.5C158.7 49.7 161.4 49.6 164 49.5C168.5 49.3 172.9 49 177.4 48.8C177.9 48.8 178.4 48.9 178.9 48.9C179.6 52.2 178.3 55.1 178.3 58.3C176.8 58.3 175.5 58.3 174.3 58.3C170 58.4 165.7 58.4 161.4 58.5C158.5 58.6 155.6 58.8 152.6 58.7C149.1 58.6 145.6 58.2 142.2 57.9C141.9 57.9 141.6 57.8 141.3 57.7C141 56 141.7 49.4 142.2 48.4ZM142.6 62.1C148.4 62.8 154.1 63 159.9 62.9C165.2 62.8 170.4 62.6 175.7 62.5C176.5 62.5 177.4 62.7 178.3 62.7V70.9C176.6 71.1 175.2 71.1 173.8 71.4C172.2 71.7 170.6 71.8 169 71.6C166.9 71.3 164.8 71 162.7 70.9C159 70.7 155.4 70.6 151.7 70.5C149.7 70.4 147.7 70.4 145.7 70.2C144.2 70.1 142.7 69.8 141 69.6C141.4 67 140.2 64.7 140.9 62C141.5 62 142 62 142.6 62.1Z" fill="#C99FAF"/>
<path d="M431.2 119.8C431.3 118.5 430.3 117.6 428.7 117.6C425.3 117.6 421.9 117.7 418.6 117.6C414.5 117.5 410.5 117.1 406.4 116.8C402.2 116.5 398 116.1 393.7 115.9C389.7 115.7 385.7 115.3 381.7 115.5C375.8 115.9 369.9 115.9 364 115.9C363.2 115.9 362.4 115.8 361.6 115.8C360.3 115.8 359.4 116.7 359.3 117.9C359.3 119.1 360.1 120.1 361.4 120.2C361.9 120.2 362.3 120.1 362.8 120.1C367.4 120.1 372.1 120.1 377 120.1C377.1 121.3 377.4 122.6 377.4 123.9C377.4 126.8 377.2 129.7 377.1 132.7C377.1 133.5 377.2 134.2 378.5 134.2C378.4 129.5 379.5 124.8 378.4 120C383.6 119.3 388.6 119.5 393.8 120.1C393.6 121.2 393 122.3 393.8 123.3C394.2 123.9 394.6 124.4 395.4 124.4C395.7 123.7 395.6 123.1 395.2 122.5C395 122.2 395.1 121.8 395 121.5L395.3 121.4C395.9 122.3 396.4 123.2 397 124C398.7 126.6 400.5 129.2 402.2 131.8C403.5 133.8 404.7 135.9 405.8 138C406.3 138.9 406.9 139.3 408.1 139.2C407.3 137.6 406.6 136.1 405.7 134.6C404.3 132.3 402.8 130.1 401.4 127.8C400.8 126.8 400.1 125.9 399.5 124.9C398.5 123.4 397.5 121.9 396.5 120.4C396.6 120.3 396.7 120.2 396.7 120C403 120.6 409.4 121.2 415.6 121.8C415.3 123.1 415.1 124.5 414.8 125.8C414.6 127.2 414 128.4 413.2 129.5C411.1 132.3 409.9 135.5 409.1 138.8C410.5 139.2 410.6 139.1 410.8 138.1C411.5 135.4 412.6 132.8 414.2 130.5C414.9 129.4 415.5 128.2 416 127C416.3 126.3 416.7 126.1 417.5 126C417.9 127.7 416.3 128.7 416.2 130.2C416 131.7 415.5 133.1 415.1 134.5C414.7 135.9 414.1 137.2 413.6 138.6C414.4 139 415 138.9 415.3 138.2C415.8 136.9 416.4 135.7 416.7 134.3C417.3 132.1 417.8 130 418.9 128C419.9 126.1 420.6 123.9 421.5 121.7C423.6 121.7 425.7 121.7 427.8 121.7C428 121.7 428.2 121.8 428.5 121.8C429.9 122.1 431.1 121.2 431.2 119.8ZM418.5 123.8C418.7 123.1 418.9 122.5 419.1 121.6C419.7 122.8 419.7 123 418.5 123.8Z" fill="#C99FAF"/>
<path d="M199.6 122.5C199.5 124.8 199.6 127.1 199.7 129.4C199.7 130.4 199.6 131.2 199 132C198.1 133.1 198.1 134.3 198.3 135.6C198.4 136.4 198.8 136.9 199.5 137.1C200.7 137.6 202 138.1 203.3 137.8C205.8 137.2 207.4 138.8 209.1 140C209.4 140.2 209.4 140.8 209.4 141.2C209.5 143.3 209.5 145.3 209.5 147.4C209.5 147.7 209.5 148.1 209.6 148.4C209.7 149 210.1 149.4 210.7 149.2C211.3 149.1 211.2 148.6 211.2 148.1C211.1 146.6 211 145 210.9 143.5C210.9 142.8 211 142.4 211.7 141.8C212.6 141 213 139.7 213.6 138.7C216 138.6 218.4 138.4 220.7 138.3C221.8 138.2 222.7 137.9 223.2 136.8C224 135.4 225.3 134.4 226.6 133.5C227.2 133.1 227.7 132.5 228.2 132C228.4 131.8 228.3 131.3 228.2 131.1C228.1 130.9 227.6 130.8 227.3 130.8C226.8 130.8 226.3 131 225.6 131.1C225.6 130.2 225.6 129.4 225.6 128.6C225.6 127.3 225 126.4 223.8 126C223 125.7 222.7 125.3 222.5 124.5C221.5 120.8 220 117.2 217.5 114.2C216.7 113.2 215.6 112.4 214.6 111.6C213.5 110.8 212.9 111.1 212.3 112.3C212.1 112.8 211.9 113.3 211.7 113.7C211.1 115.3 210.7 115.5 209 115.3C208.3 115.2 207.6 115.2 206.9 115.1C205.5 115 204.5 115.7 204 116.9C203.5 118 202.8 118.8 201.6 119.3C200.4 119.8 199.7 121 199.6 122.5ZM211.2 139.6C210.1 138.8 209 138.1 208 137.4C207.8 137.2 207.5 136.9 207.4 136.6C207.3 135.6 207.4 134.6 207.4 133.5C208.4 133.3 209.2 133.5 209.7 134.2C210.4 135.1 211 135.9 211.6 136.8C212.4 138.1 212.4 138.2 211.2 139.6ZM202.4 120.6C203.9 120 204.9 119 205.5 117.6C205.8 116.8 206.5 116.6 207.3 116.7C208.1 116.8 209 116.9 209.9 117C211.5 117.2 212.4 116.3 212.9 115C213.2 114.4 213.4 113.7 213.7 112.9C218.1 115.7 219.4 120.2 220.9 124.5C220.6 124.7 220.4 124.8 220.2 124.9C219.7 125.2 219.3 125.6 219.6 126.1C219.8 126.4 220.3 126.5 220.7 126.6C221.7 126.9 222.7 127.2 223.6 127.6C223.8 127.7 224 128.1 224.1 128.4C224.2 129 224.3 129.6 224.2 130.1C224 131.2 224 132.1 225 132.7C223.9 134 222.9 135.2 221.8 136.4C221.6 136.6 221.4 136.8 221.1 136.9C218.8 137.1 216.4 137.2 214.3 137.4C213.9 136.6 213.7 135.6 213.2 135.5C212.1 135.2 211.7 134.3 211.1 133.6C210.5 132.8 209.8 132.3 208.9 132.1C207 131.5 205.9 132.4 205.6 134.4C205.5 135.1 205.2 135.8 204.9 136.4C203.5 136.6 202.2 136.8 200.9 136.3C200.3 136.1 199.5 136 199.5 135.1C199.4 134.2 199.6 133.4 200.3 132.8C201 132.2 201.3 131.1 201.2 130.1C201 128 200.9 125.9 200.8 123.8C200.8 123.4 200.9 123 200.9 122.6C201.3 121.5 201.7 120.9 202.4 120.6Z" fill="#C99FAF"/>
<path d="M352.5 13.6C353.4 13.6 354.2 13.5 355.1 13.6C358.6 13.8 362.2 13.9 365.7 14.1C366.2 14.1 366.7 14.4 367.2 14.5C368.4 14.8 369.5 14.3 369.9 13.2C370.3 12.1 369.8 11 368.7 10.5C368.1 10.2 367.4 10.1 366.7 10C363 9.7 359.3 9.5 355.6 9.3C354.6 9.3 353.5 9.3 352.5 9.3C350.9 9.3 349.9 10.1 349.9 11.4C349.8 12.9 350.8 13.7 352.5 13.6Z" fill="#C99FAF"/>
<path d="M435.4 121.6C436.7 121.7 437.7 120.8 437.7 119.4C437.7 117.1 437.6 114.7 437.5 112.4C437.5 111.3 436.9 110.5 435.8 110.3C434.8 110 433.8 110.2 433.1 111C432.4 111.8 432.4 112.7 432.8 113.7C433.1 114.3 433.2 115 433.2 115.7C433.3 117.5 433.2 119.3 433.2 121.4C434 121.4 434.7 121.6 435.4 121.6Z" fill="#C99FAF"/>
<path d="M344.9 13.9C345 14.4 345.1 15 345.3 15.5C346.3 15.7 346.8 15.2 347.1 14.6C347.9 13 348.6 11.4 348.4 9.6C348.2 8.2 347.4 7.3 346.1 7.4C344.9 7.5 344.2 8.6 344.4 10C344.5 11.3 344.7 12.6 344.9 13.9Z" fill="#C99FAF"/>
<path d="M398.6 131.9C399.6 133.8 400.6 135.7 401.7 137.6C402.1 138.4 402.7 138.6 403.7 138.1C403.2 137.1 402.6 136.2 402.1 135.3C400.4 131.9 398.8 128.6 397.2 125.2C396.8 124.4 396.3 124.1 395.5 124.5C395.7 125.2 395.9 125.9 396.2 126.5C396.8 128.4 397.7 130.2 398.6 131.9Z" fill="#C99FAF"/>
<path d="M311.6 136.9C310.9 136.8 310.1 136.8 309.4 136.9C308.7 137 308.2 137.8 308.1 138.9C308.1 140.4 309.1 141.5 310.5 141.3C311.2 141.2 311.7 140.9 311.9 140.2C312.2 139.4 312.3 138.6 312.4 137.7C312.4 137.5 311.9 137 311.6 136.9ZM310.4 140.1C309.7 139.3 309.5 138.8 310.4 138.1V140.1Z" fill="#CF7850"/>
<path d="M266.2 14.6C267.4 14.7 268.5 13.7 268.4 12.5C268.4 11.4 267.5 10.4 266.3 10.4C265.1 10.4 264.2 11.3 264.1 12.4C264.2 13.6 265.1 14.5 266.2 14.6Z" fill="#C99FAF"/>
<path d="M261.8 15.3C262.9 15.3 264 14.3 264 13.1C264 12.1 263 11.1 261.9 11.1C260.7 11.1 259.8 12 259.8 13.2C259.8 14.3 260.7 15.3 261.8 15.3Z" fill="#C99FAF"/>
<path d="M315 147.5C315.6 147.5 316 147.2 315.9 146.6C315.8 146.1 315.5 145.9 314.9 145.9C313.9 145.9 313 145.8 312 145.8C310.8 145.8 310.3 146.1 310.3 146.8C310.2 148.3 310.7 149 311.9 149.2C312.3 149.3 312.8 149.2 313.5 149.1C313.4 148.4 313.3 147.9 313.2 147.4C313.9 147.5 314.4 147.5 315 147.5Z" fill="#CF7850"/>
<path d="M125.5 27.9C125.1 29.4 125.9 30.6 127.5 30.9C128.3 29.9 127 28.4 128.6 27.5C128.8 28.4 128.9 29.1 129.1 30.1C129.8 29.2 129.7 28.4 129.4 27.6C129.3 27.5 129.2 27.3 129.1 27.2C128.6 26.8 128.8 25.5 127.7 25.9C126.7 26.2 125.8 26.8 125.5 27.9Z" fill="#C99FAF"/>
<path d="M207.4 148.1C208.1 148.1 208.4 147.6 208.5 147C208.5 145.9 207.8 144.8 207.1 144.8C206.2 144.8 205.2 145.8 205.2 146.8C205.1 147.7 206 148.2 207.4 148.1Z" fill="#C99FAF"/>
<path d="M426.1 53.9C426.6 53.5 427.1 53.1 427.4 52.7C427.6 52.5 427.7 51.9 427.6 51.8C427.3 51.6 426.9 51.4 426.6 51.5C426.3 51.6 426 51.9 425.6 52.2C425 51.7 424.3 51.5 423.6 52.1C423 52.6 423.4 53.1 423.7 53.5C424.6 53.2 425.4 53.2 426.1 53.9Z" fill="#CF7850"/>
<path d="M408.3 142.4C408.6 142.7 409.2 143 409.6 142.9C410.2 142.9 410.5 142.3 410.5 141.7C410.5 141.4 410.5 141.1 410.4 140.7H407.2C407.6 141.4 407.9 142 408.3 142.4Z" fill="#C99FAF"/>
<path d="M125.3 24.6C125.4 25.1 125.5 25.8 126.1 25.5C126.6 25.3 127 24.5 127.2 24C127.4 23.5 127 23 126.4 22.9C126.1 22.8 125.8 22.8 125.4 22.8C125.3 22.9 124.8 22.9 124.7 23.2C124.6 23.4 124.8 23.8 125 24.1C125.1 24.3 125.3 24.4 125.3 24.6Z" fill="#C99FAF"/>
<path d="M184.6 35.5C184.2 35.6 184 36.2 183.9 36.4C184.1 37.2 184.2 37.8 184.5 38.3C184.7 38.6 185.2 39 185.5 38.9C186 38.8 186.2 38.3 186.1 37.7C185.9 37.2 185.7 36.8 185.6 36.3C185.4 35.8 185.2 35.3 184.6 35.5Z" fill="#C99FAF"/>
<path d="M185.3 118.9C185.5 119 186 118.8 186.2 118.7C186.3 118.6 186.3 118.2 186.3 117.9C186.2 117.5 185.9 117.2 185.9 116.8C185.8 116.3 185.6 115.8 185.1 115.9C184.8 116 184.5 116.5 184.3 116.8C184.2 116.9 184.3 117.1 184.2 117.5C184.1 118.3 184.7 118.6 185.3 118.9Z" fill="#CF7850"/>
<path d="M206.2 143.9C206.6 143.6 207 143.4 207.3 143.1C207.4 143 207.5 142.8 207.5 142.6C207.5 142.2 207.6 141.7 207.4 141.4C207.3 141.2 206.7 141.1 206.4 141.2C205.9 141.3 205.5 141.7 205.7 142.4C205.7 142.5 205.7 142.6 205.7 142.7C205.6 142.7 205.6 142.8 205.5 142.8C205.7 143.1 206 143.5 206.2 143.9Z" fill="#C99FAF"/>
<path d="M455.6 140.7C454.7 140.7 455 141.7 455 142.3C455 142.7 455 143.1 455.1 143.5C455.2 143.8 455.5 144.1 455.7 144.1C455.9 144.1 456.3 143.8 456.4 143.5C456.5 143.1 456.5 142.7 456.5 142.3C456.2 141.7 456.7 140.7 455.6 140.7Z" fill="#CF7850"/>
<path d="M312.3 145.2C312.8 145.3 313.2 145 313.2 144.5C313.2 143.9 313.2 143.4 313.2 142.8C313.2 142.2 312.9 141.7 312.2 141.9C311.9 142 311.8 142.6 311.6 142.9C311.6 143 311.6 143.1 311.7 143.4C311.7 143.6 311.6 143.9 311.5 144.2C311.5 144.9 311.8 145.2 312.3 145.2Z" fill="#CF7850"/>
<path d="M132.2 24.5C132.5 24.7 133 25 133.2 24.9C133.5 24.8 133.6 24.3 133.7 23.9C133.8 23.6 133.8 23.3 133.7 23.1C133.5 22.7 133.3 22.4 133.1 22C132.8 22.2 132.5 22.4 132.3 22.7C132.1 23 132 23.4 131.7 23.9C131.9 24.1 132 24.4 132.2 24.5Z" fill="#C99FAF"/>
<path d="M426.3 112.2C426.5 112.3 426.8 112.3 427.1 112.4C427.3 112.1 427.4 111.9 427.6 111.7C427.9 111.2 428.3 110.7 427.5 110.3C427 110 426.1 110.4 425.7 111C425.4 111.5 425.7 111.9 426.3 112.2Z" fill="#C99FAF"/>
<path d="M303.9 141.2C304.4 141.4 305.1 140.9 305.3 140.3C305.4 140 305.4 139.7 305.5 139.2C305.3 139 305.1 138.6 304.8 138.5C304.6 138.4 304.2 138.8 304 139.1C303.8 139.3 303.8 139.6 303.8 139.9C303.5 140.4 303.2 140.9 303.9 141.2Z" fill="#CF7850"/>
<path d="M424.3 116.2C424.4 117 425 116.9 425.6 116.9C426.2 117 426.8 117 426.8 116.1C426.8 115.5 426.2 114.8 425.7 114.8C425.1 114.9 424.2 115.7 424.3 116.2Z" fill="#C99FAF"/>
<path d="M236.5 140.9C237.4 141 237.9 140.8 237.9 140.1C237.9 139.5 237.4 139.2 236.8 139.3C236.2 139.4 235.4 139.5 235.4 140.3C235.4 141.1 236.2 140.9 236.5 140.9Z" fill="#CF7850"/>
<path d="M234.8 138.8C234.8 138.2 234.6 137.7 233.9 137.6C233.3 137.6 232.6 138.2 232.7 138.7C232.7 139.4 233.3 139.6 233.9 139.7C234.5 139.8 234.8 139.4 234.8 138.8Z" fill="#CF7850"/>
<path d="M121.5 21.7C122 21.7 122.7 20.8 122.8 20.2C122.8 19.6 122.5 19.4 121.9 19.4C121.1 19.4 120.8 19.7 120.8 20.7C120.7 21.3 120.8 21.8 121.5 21.7Z" fill="#C99FAF"/>
<path d="M437.7 15.4C438.8 15.4 439.1 15 439.1 14.4C439.1 13.9 438.9 13.5 438.3 13.6C437.5 13.6 436.5 14.4 436.7 14.8C437 15.1 437.6 15.3 437.7 15.4Z" fill="#C99FAF"/>
<path d="M330.2 125.7C330.3 126.1 330.7 126.3 330.9 126.5C331.9 126.5 332.4 126.5 332.5 125.7C332.6 125.1 332.2 124.8 331.6 124.7C330.8 124.7 330.1 125.2 330.2 125.7Z" fill="#CF7850"/>
<path d="M323.1 141.5C323.1 141.7 323.4 142.2 323.6 142.3C324.2 142.5 324.8 141.9 324.8 141.2C324.8 140.8 324.5 140.5 324.4 140.2C323.3 140.2 323.2 140.9 323.1 141.5Z" fill="#CF7850"/>
<path d="M427.2 138.9C426.6 139.3 425.9 139.7 426.1 140.8C427 141.2 427.6 140.9 427.9 140.2C428.2 139.6 428 139.1 427.2 138.9Z" fill="#CF7850"/>
<path d="M202.7 140.9C202.5 141.3 203.2 142.1 203.6 141.9C204 141.7 204.3 141.3 204.5 140.8C204.6 140.6 204.2 140.2 203.9 139.7C203.3 140.3 202.9 140.5 202.7 140.9Z" fill="#C99FAF"/>
<path d="M61.3 112.6C60.9 112.8 60.4 113.1 60.4 113.4C60.3 113.9 60.8 114.1 61.3 114.1C61.9 114.1 62.3 113.9 62.3 113.2C62.3 113 62.2 112.8 62.1 112.6C61.9 112.5 61.5 112.4 61.3 112.6Z" fill="#C99FAF"/>
<path d="M186.7 113.9C186.6 113.6 186.2 113.2 186 113.2C185.6 113.2 185.2 113.6 184.6 113.9C185.1 114.3 185.3 114.7 185.6 114.8C186.1 115 186.9 114.4 186.7 113.9Z" fill="#CF7850"/>
<path d="M462.2 131.9C462.2 131.7 461.8 131.1 461.5 131C461 130.9 460.5 131.2 460.5 131.8C460.5 132.1 460.9 132.5 461.2 133.1C461.7 132.5 462.1 132.2 462.2 131.9Z" fill="#C99FAF"/>
<path d="M320.3 141.9C320.6 141.9 321.1 141.4 321.1 141.1C321.1 140.8 320.7 140.5 320.3 139.9C319.9 140.5 319.4 140.8 319.5 141.1C319.5 141.5 320.1 141.9 320.3 141.9Z" fill="#CF7850"/>
<path d="M292.4 22.8C292.5 22.7 292 22.2 291.7 21.7C291.3 22.3 290.9 22.6 290.8 23C290.7 23.2 291.2 23.5 291.5 23.8C291.7 23.5 292.2 23.2 292.4 22.8Z" fill="#CF7850"/>
<path d="M63 111.4C62.9 111.1 62.5 110.8 62.2 110.7C62 110.6 61.6 110.8 61.4 111C61.3 111.1 61.4 111.5 61.5 111.7C61.7 112 61.9 112.2 62.2 112.4C62.5 112.2 63.2 112.1 63 111.4Z" fill="#C99FAF"/>
<path d="M60.7 124.2C61.2 124.2 61.8 124.1 61.8 123.4C61.8 123.2 61.3 122.7 61.1 122.7C60.7 122.7 60.3 123.1 59.5 123.4C60.1 123.8 60.4 124.1 60.7 124.2Z" fill="#C99FAF"/>
<path d="M334.2 124.8C334 125.2 333.7 125.6 333.6 126C333.6 126.2 334 126.7 334.3 126.7C334.8 126.8 335.3 126 335.2 125.5C335.1 125.2 334.9 124.9 334.8 124.6C334.5 124.7 334.3 124.8 334.2 124.8Z" fill="#CF7850"/>
<path d="M59.6 125.9C59.5 126.5 60 126.8 60.5 126.8C60.8 126.8 61.2 126.4 61.2 126.1C61.2 125.8 60.9 125.4 60.6 124.8C60.1 125.3 59.6 125.6 59.6 125.9Z" fill="#C99FAF"/>
<path d="M289.8 23.3C289.5 23.1 289.2 22.6 289.1 22.6C288.7 22.7 288.5 23.1 288 23.5C288.4 23.8 288.8 24.2 288.9 24.1C289.2 23.9 289.5 23.6 289.8 23.3Z" fill="#CF7850"/>
<path d="M260.2 28.8C260.1 29.4 260.6 29.7 261.2 29.7C261.5 29.7 261.7 29.3 262 29.1C261.7 28.8 261.4 28.5 261 28C260.5 28.4 260.2 28.6 260.2 28.8Z" fill="#C99FAF"/>
<path d="M327.1 124.9C327.6 125.2 328 125.6 328 125.5C328.3 125.3 328.6 124.9 328.8 124.6C328.8 124.5 328.3 124 328.1 124.1C327.8 124.2 327.6 124.6 327.1 124.9Z" fill="#CF7850"/>
<path d="M262.8 29.9C262.9 30.1 263.4 30.4 263.6 30.3C263.9 30.2 264.2 29.8 264.2 29.5C264.2 29.3 263.9 29 263.8 28.7C263.5 28.8 263.2 28.9 263.1 29.1C262.9 29.3 262.8 29.7 262.8 29.9Z" fill="#C99FAF"/>
<path d="M456.2 129.8C455.9 129.9 455.7 130.2 455.5 130.4C455.5 130.5 455.8 130.8 456 131.1C456.3 130.8 456.5 130.5 456.7 130.3C456.6 130 456.3 129.7 456.2 129.8Z" fill="#C99FAF"/>
<path d="M451.1 139.9C451.1 139.6 450.8 139.3 450.4 138.7C450.1 139.3 449.8 139.7 449.9 140C450 140.3 450.3 140.5 450.6 140.8C450.7 140.5 451.1 140.2 451.1 139.9Z" fill="#CF7850"/>
<path d="M286.5 22C286.5 21.9 286 21.4 285.8 21.5C285.5 21.5 285.2 21.9 284.7 22.2C285.3 22.5 285.6 22.8 285.9 22.8C286.2 22.8 286.5 22.3 286.5 22Z" fill="#CF7850"/>
<path d="M453.5 136.5C453.6 136.5 454.1 136.1 454.1 135.9C454.1 135.6 453.7 135.3 453.4 134.9C453.1 135.3 452.7 135.6 452.7 135.8C452.9 136.2 453.2 136.5 453.5 136.5Z" fill="#CF7850"/>
<path d="M303.2 136.9C303 136.9 302.7 137.2 302.3 137.4C302.7 137.7 302.9 138 303.1 138C303.3 138 303.6 137.7 303.8 137.5C303.6 137.3 303.4 137 303.2 136.9Z" fill="#CF7850"/>
<path d="M259.4 28.4C259.6 28.4 259.9 28.1 260.1 27.9C259.9 27.7 259.7 27.3 259.5 27.3C259.3 27.3 259 27.6 258.6 27.8C258.9 28.1 259.1 28.4 259.4 28.4Z" fill="#C99FAF"/>
<path d="M257.3 10.6C257.3 10.5 257 10.2 256.9 10.2C256.7 10.3 256.5 10.5 256.2 10.8C256.5 11 256.7 11.2 256.8 11.2C257.1 11.1 257.3 10.8 257.3 10.6Z" fill="#C99FAF"/>
<path d="M343.5 13C343.4 13 343.4 13 343.3 13V13.8C343.4 13.8 343.6 13.8 343.7 13.7C343.6 13.6 343.6 13.3 343.5 13Z" fill="#BABD58"/>
<path d="M464.8 144.2C464.8 143.9 464.3 143.5 463.9 143.5C463.4 143.4 462.9 143.6 462.8 144.5C463.1 144.7 463.5 145.1 463.9 145.1C464.4 145.3 464.8 144.8 464.8 144.2Z" fill="#CF7850"/>
<path d="M191.5 67.9C191.5 68.4 191.4 69 191.4 69.7C192.3 68.6 192.3 68.6 191.5 67.9Z" fill="#BABD58"/>
<path d="M427.7 149.8H428.1L427.5 149.7C427.5 149.8 427.6 149.8 427.7 149.8Z" fill="#C99FAF"/>
<path d="M425.6 149.6H425H424.3C424.6 149.7 424.8 149.9 425 149.9H425.3C425.4 149.8 425.5 149.7 425.6 149.6Z" fill="#C99FAF"/>
<path d="M424.3 149.6H424L422.3 149.7L421 149.9L425 149.8C424.8 149.8 424.6 149.7 424.3 149.6Z" fill="#C99FAF"/>
<path d="M425.6 149.6C425.5 149.7 425.4 149.8 425.2 149.8L427.6 149.7C427.5 149.7 427.5 149.7 427.4 149.7L426.2 149.6H425.6Z" fill="#C99FAF"/>
<path d="M384 149.9C384.8 149.8 385 149.3 385 148.6C385 147.6 385 146.7 385 145.7C385 145.1 384.8 144.6 384.1 144.4C383.4 144.2 383.1 144.7 382.8 145.2C382.7 145.5 382.6 145.7 382.3 146.1C382.8 146.4 383.2 146.7 383.5 146.9C383.4 149 383.4 149 384 149.9Z" fill="#CF7850"/>
<path d="M384 143.2C384.2 143.2 384.5 142.9 384.6 142.7C384.8 142.2 384.8 141.7 384.9 141.3C384.9 141 384.9 140.8 384.9 140.7C384.9 140.1 384.7 139.7 384 139.7C383.4 139.7 382.8 140.3 382.8 140.9C382.9 141.5 383 142.1 383.2 142.7C383.3 142.9 383.7 143.2 384 143.2Z" fill="#CF7850"/>
<path d="M394.5 141.5C394.7 142 395.2 142.4 395.7 143.2C396.1 142.4 396.4 142 396.4 141.6C396.4 140.9 395.9 140.6 395.2 140.6C394.8 140.7 394.3 141 394.5 141.5Z" fill="#CF7850"/>
<path d="M390.1 150.4C390.7 149.4 391.7 149.9 392.6 149.9V150.8L395.9 150.6C395.5 149.4 395.6 148.6 396.5 147.6C397.4 146.7 397.1 145.3 396.8 144.1C396.6 143.3 395.6 143.1 394.7 143.5C393.8 143.9 392.8 144.3 392 144.9C391.6 145.2 391.4 145.8 390.9 146.4C390.8 145.9 390.7 145.5 390.8 145.2C391 143.7 390.8 142.3 391.7 140.9C392.5 139.7 391.9 139.2 390.2 139.4C390.2 139.7 390.3 140 390.3 140.3C390.3 140.6 390.2 140.8 390.1 141C389.9 141.1 389.8 141.2 389.7 141.2C387.8 141 387.6 141.3 387.4 143.3C387.3 144.5 387.2 145.8 386 146.7C385.6 147 385.5 147.7 385.5 148.2C385.5 148.7 385.7 149.3 385.8 150L387.8 150.1L390.1 150.4Z" fill="#CF7850"/>
<path d="M237.2 149C237.8 148.6 238.4 148.1 239.1 147.6C240 148.5 240.9 149.4 242.4 148.5C242.6 148.4 243.2 148.8 243.9 149.1L246.4 149.3C246.5 147.7 245.7 144.2 244.9 142.7C244.7 142.4 244.9 141.8 244.8 141.4C244.7 141.1 244.4 140.8 244.2 140.5C243.9 140.7 243.5 140.8 243.3 141.1C243 141.6 242.8 142.2 242.6 142.8C242.6 142.9 242.4 142.9 242.2 143C242.1 142.5 242.1 141.9 241.9 141.6C241.6 141.3 241.1 141 240.6 141C240.4 141 240.1 141.5 240 141.8C239.7 142.7 239.4 143.7 239.1 144.8C238.3 144.5 237.5 144.5 237.3 143.4C237.1 142.6 236.4 142.4 235.7 143C235.3 143.3 234.9 143.8 234.5 144.2C233.9 143.5 234.2 143.1 234.6 142.6C235.2 141.8 234.9 141.2 233.9 141.1C232.5 141 231.2 142.4 231.3 143.9C231.3 144.1 231.4 144.3 231.4 144.6C231.2 146.6 231.2 146.6 233.3 146.8C233.4 146.8 233.5 146.8 233.8 146.9V149.2L237.5 149C237.2 149.1 237.2 149.1 237.2 149ZM243.5 144.2C243.6 144.2 243.7 144.2 243.8 144.1C244.6 146 244.6 146.1 243.2 146.5C243.3 145.7 243.4 145 243.5 144.2Z" fill="#CF7850"/>
<path d="M453.5 150.4L455.2 150.5C454.4 150.4 453.9 150.4 453.3 150.3C453.2 149.9 453.1 149.6 453.2 149.4C454.4 148.1 453.7 146.5 454 145.1C454.1 144.8 453.9 144.4 453.7 144.2C453.4 143.7 452.9 143.2 452.6 142.8C452.9 142.1 453.1 141.5 453.3 140.8C453.4 140.6 453.2 140.1 453 140.1C452.7 140 452.3 140.1 452.1 140.2C451.4 140.7 451.4 141.4 451.9 142.7C451 144 450.1 145.2 449.1 146.5V149.3C448.9 149.4 448.8 149.5 448.7 149.5C448.6 149.5 448.5 149.5 448.5 149.5L451.1 149.9L453.5 150.4ZM450.9 148.6C451.2 148.9 451.4 149.1 451.7 149.4C451.5 149.6 451.2 149.8 451 149.9L450.4 149C450.5 148.8 450.7 148.7 450.9 148.6Z" fill="#CF7850"/>
<path d="M461.3 149.6C461.9 149.7 462.4 149.7 462.9 149.8C462.9 150.2 462.8 150.5 462.8 150.8H465.2C465.1 150.2 465 149.7 465 149.3C465 149 465.1 148.6 465.1 148.3C465.2 147.6 464.1 146.2 463.5 146.2C462.8 146.2 462.3 146.8 462.2 147.8C462.2 147.9 462.1 148 462 148.1C461.6 148 461.2 147.8 460.9 147.7C460.6 146.8 460.4 146 460.2 145.1C460.4 144.8 460.7 144.5 460.8 144.1C460.9 143.7 461 143.1 460.8 142.8C460.5 142.5 459.9 142.6 459.2 142.4V145C458.9 145 458.7 145 458.4 145.1L457.8 146.9C458.3 147.6 458.2 148.6 458.1 149.5C458.6 149.7 459.1 149.9 459.6 150.1C459.5 150.3 459.5 150.7 459.4 150.7H461.1C461 150.3 461.2 149.9 461.3 149.6Z" fill="#CF7850"/>
<path d="M322.7 149.1C322.7 148.9 322.8 148.7 322.8 148.5C322.8 148.7 322.8 148.9 322.7 149.1Z" fill="#C99FAF"/>
<path d="M334.2 147.5C334.3 147.5 334.4 147.6 334.5 147.7C334.3 147.6 334.2 147.5 334.2 147.5Z" fill="#C99FAF"/>
<path d="M323.2 149.6C324.5 149.5 325.9 149.4 327.2 149.5C325.9 149.5 324.5 149.5 323.2 149.6Z" fill="#C99FAF"/>
<path d="M334.5 149.7C333.7 149.7 332.8 149.9 332 149.9C332.8 149.9 333.6 149.8 334.5 149.7Z" fill="#C99FAF"/>
<path d="M324.7 143.6C324.4 143 323.8 143.1 323.4 143.5C323 143.9 322.6 144.4 322.3 144.8C322.4 145.3 322.5 145.8 322.6 146.3L326.1 146.6C325.6 145.5 325.2 144.5 324.7 143.6Z" fill="#CF7850"/>
<path d="M331 146.7C329.3 147 327.6 146.8 326.1 146.8C326.1 146.7 326.1 146.7 326 146.7L322.5 146.4V146.5C321 146.9 321.4 148.4 321 149.3L322.6 149.4C322.6 149.3 322.6 149.2 322.7 149.1C322.7 148.9 322.8 148.7 322.8 148.5C322.8 148.4 322.8 148.3 322.9 148.2C324 148.2 325 148.2 326 148.2C326.3 148.2 326.7 148.2 327 148.2C327.7 148.2 328.4 148.2 329.1 148.2C330.8 148.2 332.5 148.1 334.2 147.5C334.3 147.5 334.4 147.6 334.5 147.7V149.6H336V145C334.1 145.6 332.6 146.4 331 146.7Z" fill="#CF7850"/>
<path d="M305.1 146.7C305.2 147.1 305.1 147.5 305.2 147.9C305.3 148.2 305.7 148.4 306.1 148.5C306.2 148.5 306.6 148.1 306.7 147.8C306.8 147.3 306.8 146.8 306.8 146.3C307.5 146.2 308.1 146 308.7 145.9C308.8 145.9 308.8 145.7 308.9 145.6C308.5 143.9 308.5 143.9 307 144.5C306.6 144.7 306 144.5 305.8 144.5C305.2 143.7 305 143 304.4 142.7C304 142.5 303.2 142.8 302.6 143C301.8 143.3 301.7 144 302.4 144.4C303.4 145 303.5 145.8 303.4 146.7C303.3 147.5 303.3 148.3 303.3 149.3L305 149.4V146.7H305.1Z" fill="#CF7850"/>
<path d="M334.5 131.3C334.5 130.9 334.6 130.4 334.6 130C334.7 129.3 334.8 128.6 333.9 128.3C333.4 128.1 333 128.7 332.9 129.8C332.9 130.1 332.8 130.4 332.8 130.6C332.7 130.8 332.6 131.1 332.6 131.1C332.3 130.2 332 129.1 331.6 128.1C331.5 127.8 331 127.3 330.7 127.3C330.3 127.3 329.8 127.7 329.7 128.1C329.5 128.7 329.5 129.4 329.5 130.1C329.5 130.7 329.5 131.1 329.3 131.3L334.7 131.4C334.7 131.4 334.6 131.4 334.5 131.3Z" fill="#CF7850"/>
<path d="M292.5 29.3C292.6 28.5 292.6 27.8 292.7 27C293.1 24.4 292.8 24.1 290.3 24.6C289.3 24.8 288.3 24.7 287.4 24.8C286.7 24.5 286.1 24.1 285.4 24C284.2 23.9 283.6 24.5 283.9 25.7C284.3 27.1 283.8 28.2 283.5 29.6L294.3 29.8C293.7 29.7 293.1 29.5 292.5 29.3Z" fill="#CF7850"/>
<path d="M581.1 156.2C580.5 155.6 579.3 155.3 578.5 155.6C578.3 155.7 578.1 156 578 156.2C577.7 157.1 577.1 157.1 576.4 157C572.5 156.5 568.6 155.8 564.9 154.5C564.1 154.2 563.2 154.2 562.4 154.3C560 154.5 557.8 153.8 555.5 153C555.3 152.9 555.1 152.9 555 152.8C553.7 151.2 551.7 151.3 549.9 150.9C549.5 150.8 549.1 150.7 548.7 150.6C547.6 150.5 547.2 149.9 547 148.8C546.5 146.4 545.4 145.6 542.9 145.6C542.5 145.6 542.1 145.6 541.7 145.6C540.2 145.7 539.1 146.3 538.5 147.8C538.2 148.5 537.9 149.3 537.5 150.2C533.1 149.8 528.7 151.1 524.2 150.3C524.2 149.7 524.1 149.3 524.1 148.8C524.2 146.6 523.8 144.4 524.1 142.1C524.2 141 524.6 139.9 524.9 138.9C525.6 136.7 527.5 135.7 528.5 133.9C532.3 135.2 536 134.6 539.7 134.6C540.8 134.6 542 134 542.4 135.7C543.9 135.4 544.3 134.3 544.7 133.4C545.4 131.7 545.9 130 545.9 128.1C545.9 126 545 124.5 543.6 123.1C542.4 121.8 541.1 120.5 540.2 119C538.9 116.9 538.9 114.6 539.7 112.2C539.9 111.6 540.1 110.9 540.1 110.2C540.1 109 539.8 108.5 538.6 108.2C538.4 108.1 538.2 108 537.9 108.1C536.3 108.2 535.5 107.1 534.6 106C533.6 104.7 532.6 103.3 531.5 102.1C531.2 101.7 530.7 101.4 530.2 101.4C528.8 101.3 527.4 101.4 526.1 101.4C525.2 101.4 525 101.8 524.9 102.7C524.6 105.1 525.9 106.9 526.9 108.8C527 108.9 527.1 109 527.1 109.1C527.2 109.2 527.2 109.3 527.3 109.7C526.7 109.6 526.3 109.5 525.8 109.4C524.1 108.8 522.4 108.1 520.7 107.5C520.1 107.3 519.4 107.1 518.7 106.9C517.3 106.5 516.2 106.9 515.3 108C514.5 109 514.7 110.2 515.1 111.3C515.3 111.9 515.6 112.4 515.9 113C514.2 113.2 512.8 113.3 511.3 113.4C510.3 113.4 510.1 113.9 510 114.8C509.8 115.8 509.5 116.8 509.1 117.7C508.9 118.4 508.5 119.1 508.2 119.7C508 120 507.7 120.3 507.3 120.7C506.9 120 506.7 119.5 506.4 118.9C507.6 117.5 507.6 116.1 506.7 114.5C506.5 114.1 506.4 113.5 506.5 113C506.8 111 506.7 110.7 504.9 109.7C504.5 109.5 504.1 109.2 503.7 109C503.6 105.6 501.8 103.2 499.1 101.4C497.4 100.3 496 100.4 494.3 101.6C492.6 102.9 490.8 103.8 488.8 104.3C487.6 104.6 486.8 105.1 486.6 106.5C485 106.4 483.6 106.4 482.1 106.3C480.5 106.2 479 106.1 477.5 106.6C475.8 107.2 475 108.3 475 110C475 111.1 475.2 112.3 475.2 113.4C475.2 114.1 475.2 114.9 474.9 115.6C474.5 116.9 475.2 118.3 476.5 118.5C476.7 118.5 477 118.5 477.1 118.3C477.2 118.1 477.3 117.7 477.2 117.5C477 117.1 476.6 116.8 476.3 116.4C476.7 115 476.8 113.6 476.4 112.2C476.3 111.9 476.3 111.5 476.3 111.2C476.2 108.5 476.6 108 479.3 107.6C480 107.5 480.8 107.6 481.5 107.6C482.9 107.7 484.4 107.8 485.8 107.9C487.8 107.9 487.8 107.9 488.5 105.9C491.1 105.4 493.4 104.2 495.5 102.5C496.2 102 496.9 102 497.6 102.3C498.7 102.8 499.8 103.5 500.4 104.8C500.3 104.9 500.3 105.1 500.2 105.2C499 106.8 499.2 108.2 500.8 109.3C501.6 109.8 502.5 110.2 503.4 110.7C504.9 111.5 504.8 111.5 504.7 113.2C504.6 113.8 504.8 114.6 505.1 115.2C505.8 116.3 505.7 117.2 504.8 118.2C504.7 118.3 504.6 118.5 504.5 118.6C503.6 119.8 503.6 120 505.1 121.3C502.8 121.1 500.9 121 498.9 120.8C497.3 120.6 495.7 120.6 494.2 121.3C493.7 121.5 493.1 121.4 492.5 121.4C491.2 121.4 490.3 121.9 489.9 122.9C489.4 124 489.8 124.9 490.6 125.7C491.2 126.2 491.5 126.7 491.5 127.5C491.4 129.1 492.2 130.1 493.7 130.7C493.3 131 492.9 131.2 492.5 131.4C490.8 132.5 490.8 132.5 489.4 131C489 130.6 488.7 130.3 488.3 129.9C487.3 128.9 486.2 128.5 484.7 129C483 129.6 481.4 128.8 480.1 127.7C479.2 126.9 479.2 126.5 479.7 125.3C479.8 125 479.9 124.7 480 124.4C481.8 125.5 482.1 125.5 483.9 124.2C484.6 124.9 485.4 125.8 486.6 125.6C487.1 125.5 487.6 125.2 487.9 124.9C488.7 124.1 488.6 122.7 487.8 121.7C486.9 120.5 485.7 120.5 484.1 121.5C483.4 121.1 482.7 120.6 482 120.5C481.3 120.5 480.6 121 479.7 121.3C479.2 121.1 478.4 120.7 477.7 120.8C477 120.9 476.3 121.5 475.5 121.9C474.7 121.1 473.5 121.1 472.3 121.1C469.8 121.2 467.3 121.4 464.7 121.3C462.9 121.3 461.1 120.9 459.2 120.7C458.1 120.6 457.1 120.5 456 121.1C455.6 121.3 455 121.2 454.5 121.2C453.5 121.3 452.9 121.9 452.7 122.8C452.5 123.8 452.7 124.8 453.6 125.4C454.3 126 455.1 126 456 125.4C456.6 125 457.1 124.9 457.7 125C458.8 125.1 459.9 125.3 460.9 125.3C462.8 125.4 464.8 125.3 466.6 125.3C467.3 128 467.4 131.1 467 133.5C466.4 133.5 465.8 133.4 465.2 133.5C464.9 133.5 464.4 133.7 464.2 133.9C463.9 134.4 464.3 134.7 464.8 134.9C464.9 135 465.1 135.1 465.4 135.3C463.9 136.2 462.4 136.4 460.7 136.1C460.9 134.2 459.7 133.5 458.3 133.1C457 132.7 455.7 132.1 454.4 131.8C453 131.5 451.5 131.8 450.2 132.5C449.3 133 448.5 132.9 447.6 132.5C445.1 131.2 443.2 129.2 441.4 127.1C441.1 126.8 441.1 126.2 441.1 125.8C441 123.9 440.9 121.9 440.8 119.9C441.9 119.8 443.3 119.8 444.3 118.8C446.7 116.2 448.5 113.3 447.5 109.5C447.4 109.2 447.4 109 447.3 108.4C448 108.5 448.5 108.5 449 108.6C450.6 109 452.2 108.8 453.7 108.2C455.4 107.6 456.2 106.1 456.5 104.4C456.6 103.8 456.5 103.2 456.5 102.4C460.1 103.6 463.6 104.6 466.5 106.8C467.6 107.7 468.3 108.8 468.3 110.3C468.3 111.3 468.3 112.4 468.3 113.4C468.3 113.8 468.4 114.2 468.6 114.5C468.8 114.7 469.2 114.9 469.5 114.8C469.7 114.7 470 114.3 470 114.1C470 112.6 470 111.1 469.8 109.6C469.6 108 468.8 106.7 467.6 105.7C466.2 104.4 464.5 103.5 462.7 102.9C460.8 102.2 458.9 101.5 457.1 100.8C455.6 100.3 455.1 100.6 455 102.2C455 102.4 455 102.7 455 102.9C455.3 106.4 452.9 107.6 449.6 107.2C448.9 107.1 448.2 106.8 447.4 106.7C446.3 106.5 445.9 106.9 445.9 108C445.9 108.6 445.8 109.2 446 109.7C446.7 112.1 445.8 114.1 444.6 116C444.4 116.3 444.1 116.5 444 116.8C443 118.4 441.2 118.6 439.8 118C439.5 117.9 439.1 117.9 438.7 117.8C438.6 118.3 438.3 118.9 438.5 119.2C439.8 121.2 439.7 123.4 439.5 125.5C439.4 127.2 440.3 128.4 441.3 129.4C442.8 130.9 444.7 132.1 446.5 133.4C447.7 134.3 449.1 134.5 450.6 133.9C452.8 133 454.8 133.7 456.6 134.3C456.8 135.2 457 135.8 457.1 136.5C457.2 137.3 457.2 138.1 457.1 138.9C456.9 140.2 456.4 141.6 456.2 142.9C456.1 143.7 456.1 144.5 456 145.3C456 145.6 456.1 146 456.2 146.1C456.5 146.3 456.7 146.5 456.8 146.7L457.4 144.9C457.2 142.2 458.7 139.9 458.7 137.3C461.6 137.8 464.2 137.8 466.9 135.9V150.5H464.4C464.4 150.5 464.4 150.5 464.4 150.4H462C462 150.4 462 150.4 462 150.5H460.1C460.1 150.4 460.1 150.4 460.1 150.4H458.4C457.8 150.5 457.1 150.6 456.4 150.6C456.2 149.3 456.1 148.2 455.9 147C455.8 146.5 455.7 146 455.1 146.2C454.8 146.3 454.5 146.7 454.5 147C454.4 148 454.5 148.9 454.5 150.1L452.8 150H451L448.4 149.6C445.1 149.8 441.7 150.2 438.4 150.2C434.9 150.2 431.3 150 427.7 149.8L425.3 149.9C425.2 149.9 425.1 149.9 425 149.9L421 150C421 150 421 150 421 150.1C420.5 150.3 419.8 150.5 419.1 150.8C417.8 151.3 416.6 151.5 415.3 151C414.1 150.6 412.7 150.5 411.3 150.3C411 148 411.3 145.9 412.6 143.9C413.2 142.9 413.6 141.8 414.2 140.6C413.4 140.1 412.8 140.2 412.4 141C411.6 142.7 410.7 144.3 409.8 146.1C408.9 146 408.3 145.4 407.8 144.6C407 143.3 406.3 142 405.5 140.8C404.9 139.8 404.6 139.8 403.2 139.9C404.1 141.5 405 143 405.9 144.6C406.3 145.2 406.4 145.6 406.1 146.3C405.6 147.7 405.2 149.1 404.8 150.6H395.9L392.6 150.8C391 151.1 391 151.1 390 150.6C390 150.5 390.1 150.5 390.1 150.4L387.8 150.3L385.8 150.2H377.7C378 146.7 377.5 143.3 378 139.9C378.2 138.7 378.1 137.5 378.1 136.3C378.1 135.7 378 135.7 376.9 135.4C376.8 135.7 376.8 135.9 376.7 136.2C376.6 140 376.5 143.9 376.3 147.7C376.3 148.5 376.1 149.2 376 150.1H363.4C363.8 149 364.1 147.8 363.1 146.8C362.2 145.8 361.1 145.4 359.7 145.5V143.5C360.7 143 361.7 142.6 362.5 142C363.6 141.3 363.9 138.4 362.9 137.5C362.5 137.1 361.7 137.1 361 137.1C360.3 137.1 359.7 137.2 358.9 137.3C358.9 134.6 359.5 131.8 356.2 130.7C355.5 128.8 355.3 126.7 353.9 125.1C353.5 124.7 353.1 124.3 352.6 124C351.4 123.4 350.5 123.8 350.3 125.1C350.2 125.8 350.4 126.7 350.6 127.4C350.8 128.3 351.2 129.1 351.4 130C351.5 130.3 351.6 130.7 351.4 131C350.9 132 350.5 132.8 351.7 133.5C351.7 134.3 351.9 135.1 351.4 135.7C350.7 135.4 350.1 135.1 349.5 135C347.9 134.8 347.4 135.3 347.3 136.9C347.3 137.9 347.3 138.9 347.3 139.9C346.5 140.3 345.6 140.5 344.9 140.9C343.5 141.9 343.7 143.6 345.1 144.5C346 145 346.1 145.4 345.8 146.7C345.6 147.5 345.5 148.3 345.3 149.3C345.2 149.3 344.9 149.5 344.5 149.5C342.2 149.6 339.8 149.8 337.5 149.8C337 149.8 336.4 149.6 335.7 149.5V149.4H334.2V149.5C333.4 149.5 332.5 149.7 331.7 149.7C331.4 149.7 331.2 149.7 330.9 149.6C329.6 149.4 328.2 149.3 326.9 149.2C325.6 149.1 324.2 149.2 322.9 149.3C322.8 149.3 322.6 149.2 322.4 149.1L320.8 149C320.8 149.1 320.8 149.1 320.7 149.2H304.8V149.1L303.1 149C303.1 149.1 303.1 149.1 303.1 149.2C294.8 149 286.7 150.7 278.2 149.5C278.3 148.5 278.3 147.5 278.5 146.5C278.7 144.3 279.1 142.2 279.2 140C279.3 139 279 138 278.9 136.9C278.9 136.6 278.9 136.2 279 135.8C279.3 135.7 279.5 135.6 279.7 135.6C286.2 135.7 292.8 135.8 299.3 135.8C304.9 135.8 310.5 135.7 316.1 135.3C322.8 134.8 329.5 135.6 336.2 135.4C336.7 135.4 337.3 135.6 337.9 135.8C339.2 136.1 340.3 135.6 340.7 134.5C341.1 133.4 340.5 132.2 339.3 131.8C338.6 131.5 337.7 131.5 337 131.4C336.3 131.3 335.5 131.4 334.8 131.3C334.8 131.3 334.7 131.3 334.7 131.2L329.3 131.1C329.1 131.3 328.8 131.3 328.2 131.3C325.4 131.2 322.6 130.9 319.8 131C315 131.1 310.2 131.5 305.4 131.7C303.5 131.8 301.6 131.8 299.7 131.8C294.3 131.8 288.9 131.8 283.5 131.8C282 131.8 280.5 131.6 279.1 131.5C278.7 130.2 278.5 122.1 278.9 119C279.3 119 279.7 118.9 280.2 118.9C284.7 118.8 289.3 119 293.8 118.6C297.6 118.3 301.2 118.8 304.9 119C306 119.1 307.2 119.1 308.3 119.2C312.1 119.4 315.8 119.5 319.6 119.7C319.7 119.7 319.8 119.7 319.9 119.7C325.4 119.8 330.9 120 336.4 120.2C337.1 120.2 337.9 120.4 338.6 120.6C340 121 341.1 120.7 341.5 119.6C342 118.5 341.5 117.1 340.2 116.6C339.3 116.2 338.3 116 337.4 116C331.8 115.8 326.2 115.7 320.6 115.5C316 115.3 311.4 115.2 306.9 115C304.2 114.9 301.5 114.5 298.9 114.4C297.7 114.3 296.5 114.3 295.3 114.4C293.6 114.4 291.9 114.6 290.2 114.6C287.1 114.7 283.9 114.8 280.7 114.9C280.1 114.9 279.6 114.9 279 114.9C279.1 111.6 279.2 108.5 279.3 105.2C279.9 105.2 280.5 105.1 281 105.1C285.8 105.3 290.6 105.7 295.4 105.8C299.4 105.9 303.4 105.8 307.4 105.7C313.4 105.6 319.4 105.4 325.4 105.4C328.1 105.4 330.8 105.7 333.4 105.9C335 106 336.6 106.3 338.2 106.4C339.5 106.5 340.5 105.4 340.5 104C340.5 102.6 339.4 101.4 338.1 101.7C335.2 102.3 332.4 101.7 329.6 101.3C328.9 101.2 328.1 101.2 327.4 101.2C322.5 101.2 317.6 101.1 312.8 101.2C309.5 101.3 306.3 101.6 303 101.6C297.7 101.7 292.3 101.5 287 101C285.1 100.8 283.2 101 281.3 101C280.7 101 280.2 101 279.3 101C279.3 97.8 279.3 94.8 279.3 91.6C280.8 91.6 282.2 91.5 283.5 91.6C287.6 91.9 291.7 92.2 295.8 92.5C297.2 92.6 298.6 93 300.1 92.9C303.1 92.8 306.2 92.5 309.2 92.5C311.7 92.5 314.3 92.5 316.8 92.7C320.6 93.1 324.5 93.2 328.3 93.2C330.1 93.2 332 93.2 333.8 93.1C334.4 93.1 335 93.1 335.5 92.9C336.3 92.7 337 92.6 337.8 92.9C338.7 93.2 339.5 93 340.1 92.2C340.7 91.4 340.8 90.5 340.4 89.6C340 88.7 339.3 88.3 338.3 88.4C337.2 88.5 336 88.7 334.9 88.7C333.4 88.8 331.9 88.9 330.4 88.9C326.7 88.8 323.1 88.8 319.4 88.6C316.4 88.5 313.5 88.1 310.5 88.1C307.4 88.1 304.2 88.4 301.1 88.6C300.6 88.6 300.2 88.6 299.7 88.6C297.5 88.4 295.3 88.2 293 88C288.8 87.6 284.6 87.1 280.3 87.2C279.9 87.2 279.4 87.1 279 87V78C280 77.4 280.9 77.7 281.9 77.7C285.4 77.8 289 77.8 292.5 77.8C293 77.8 293.4 77.7 293.9 77.7C297.3 77.8 300.7 77.8 304 77.9C305.1 77.9 306.2 78.2 307.2 78.1C309.7 77.9 312.2 77.9 314.7 78.1C315.1 78.1 315.5 78.1 315.9 78C319.3 76.9 322.8 77.1 326.1 77.6C329.5 78 332.9 78 336.4 78.2C336.8 78.2 337.3 78.4 337.7 78.5C338.9 78.7 340 78.2 340.3 77.1C340.6 76 340 74.7 338.9 74.3C338.4 74.1 337.9 74.1 337.4 74.1C335.7 74.1 334 74.2 332.2 74.1C330.8 74 329.4 73.7 328 73.6C327.3 73.5 326.6 73.4 326 73.3C323.5 73.3 321.1 73.3 318.6 73.3C317.9 73.3 317.1 73.4 316.4 73.6C314.9 74.1 313.5 74 312 73.8C311.1 73.7 310.1 73.8 309.1 73.8C308.5 73.8 307.8 74 307.2 73.9C304.7 73.9 302.2 73.8 299.6 73.7C297.9 73.6 296.2 73.5 294.5 73.5C293.5 73.5 292.6 73.6 291.6 73.6C287.4 73.9 283.3 73.6 279.1 73.4C278.7 72 278.7 65 279.1 63.1C280.5 63.1 281.9 63 283.3 63C287.5 63 291.7 63 295.9 63.1C298.3 63.1 300.7 63.5 303.1 63.5C304.7 63.5 306.3 63.2 307.9 63.1C309.4 63 310.9 63 312.3 62.9C314.5 62.9 316.8 63.1 319 62.9C321 62.8 323 62.6 325 63.1C328.1 63.9 331.3 63.6 334.4 63.7C335.5 63.7 336.6 63.9 337.6 64C338.9 64.2 340.1 63.5 340.4 62.3C340.7 61.1 339.9 60 338.5 59.7C338 59.6 337.5 59.6 337 59.6C335.5 59.6 334 59.6 332.5 59.6C330.1 59.6 327.7 59.5 325.3 59C323.9 58.7 322.3 58.6 320.9 58.6C317.4 58.5 313.9 58.5 310.4 58.6C309.2 58.6 308 58.8 306.8 59C304.5 59.3 302.2 59.4 299.8 59.2C296.3 58.9 292.8 58.9 289.3 58.9C286.4 58.9 283.5 58.9 280.5 58.9C279.9 58.9 279.3 58.8 278.4 58.8C278.6 55 278.7 51.4 278.9 47.5C279.5 47.5 280.1 47.4 280.7 47.4C284 47.4 287.2 47.4 290.5 47.4C291.1 47.4 291.6 47.4 292.2 47.4C297.2 47.4 302.2 47.4 307.2 47.4C312.7 47.4 318.2 47.5 323.7 47.7C327.8 47.8 331.8 48 335.9 48.2C336.4 48.2 336.9 48.3 337.4 48.4C338.7 48.7 339.7 48.2 340 47.2C340.4 46 339.8 44.7 338.6 44.2C338.2 44 337.7 44 337.3 44C333 43.8 328.7 43.7 324.4 43.6C322.3 43.5 320.2 43.6 318 43.6C309.2 43.5 300.3 43.4 291.5 43.3C288.9 43.3 286.2 43.5 283.6 43.5C282.1 43.5 280.5 43.3 278.9 43.2C278.8 40.1 278.7 37.1 278.6 34C278.9 33.9 279.3 33.8 279.7 33.8C282.4 33.8 285.1 33.9 287.8 34C290.4 34.1 293.1 34.3 295.7 34.3C301.7 34.3 307.6 34.1 313.6 34.1C317.9 34.1 322.3 33.9 326.6 34.2C329.7 34.4 332.8 34 335.9 34C336.8 34 337.6 33.8 338.4 33.6C339.7 33.2 340.4 32.1 340.1 30.9C339.8 29.7 338.8 29.1 337.5 29.2C337.1 29.3 336.6 29.4 336.1 29.5C335.5 27.9 336.6 26 335.1 24.7C335.5 23.5 335.8 22.3 336.2 21.2C336.3 20.8 336.5 20.4 336.8 20.2C337.6 19.4 337.9 18.5 337.9 17.4C337.9 16.7 338.2 16.2 338.9 16.1C340 15.8 340.5 15 340.8 14C341 13.3 341.2 12.7 341.5 12.1C342.3 9.69999 341.9 8.5 339.5 7.4C339.5 6.8 339.5 6.1 339.4 5.4C339.2 3.4 337.9 2.59999 336 3.19999C335.3 3.39999 334.6 3.79999 333.9 3.99999C332.7 4.39999 332.1 4.09999 331.4 2.99999C331.1 2.49999 330.7 1.89999 330.4 1.39999C329.7 0.199993 328.5 0.199993 327.4 0.399993C326.1 0.699993 325.5 2.09999 326.2 3.49999C326.5 4.09999 327 4.69999 327.5 5.49999C326.3 4.89999 325.4 4.49999 324.5 4.09999C323.4 3.69999 323.1 3.8 322.7 4.9C322.1 6.6 321.8 8.29999 322.4 10.3C321.7 10.3 321.1 10.3 320.5 10.3C316.3 10.4 312.2 10.6 308 10.7C305.3 10.7 302.6 10.5 300 10.4C299.8 10.4 299.5 10.3 299.3 10.3C294.2 10.1 289.1 9.89999 284 9.79999C281.9 9.79999 279.8 10.2 277.7 10.3C275.6 10.5 273.5 10.5 271.4 10.6C271 10.6 270.6 10.6 270.2 10.7C269.2 10.9 268.5 11.8 268.5 12.8C268.5 13.8 269.3 14.8 270.4 14.9C270.8 15 271.2 14.9 271.6 14.9C275 14.6 278.3 14.2 281.7 14C283.9 13.9 286.2 13.9 288.4 14C289.9 14 291.5 14.2 293 14.3C297.4 14.4 301.7 14.6 306.1 14.6C309.8 14.6 313.5 14.5 317.2 14.4C317.5 14.4 317.9 14.4 318.3 14.4C318.3 15.1 318.4 15.8 318.3 16.4C318 18.2 318.8 19.6 320.1 20.8C321.1 21.7 321.9 22.6 322.5 23.9C323.3 25.8 325.1 26.4 327.5 25.5C327.8 25.4 328 25.3 328.2 25.2C329 26 328.5 26.8 328.4 27.5C328.3 28.2 328.1 28.9 327.9 29.9C326.4 29.9 324.9 29.9 323.4 29.9C320.4 29.9 317.3 29.9 314.3 29.9C313.9 29.9 313.5 30 313.1 30C307.8 30.1 302.4 30.2 297.1 30.3C296.1 30.3 295.1 30.2 294.1 30L283.3 29.8C283.3 29.9 283.3 29.9 283.3 30C280.2 29.9 277.1 29.8 273.9 29.6C273.9 28.6 273.8 27.8 273.8 26.9C273.7 25.4 273.3 24.8 271.8 24.7C269.8 24.6 268.3 23.7 267.2 22.1C266.9 21.6 266.6 21.1 265.9 21.3C265.3 21.5 265.3 22 265.2 22.5C264.7 24.1 264.1 25.7 263.5 27.3C263.2 27.9 263.5 28.3 263.8 28.8C264.8 29.1 265.8 29.5 266.8 30.3C266.4 30.5 266.1 30.5 265.9 30.7C265.6 30.9 265.1 31.1 265 31.3C264.8 31.9 264.6 32.3 263.9 32.4C263.6 32.5 263.3 33 263.2 33.4C263.1 34 263.7 34.4 264.2 34C264.7 33.6 265.2 33.1 265.6 32.6C266.3 31.9 266.9 31.2 268.1 31.4C268.2 31.5 268.4 31.7 268.5 31.9C269.1 33.2 270.1 33.6 271.5 33.6C273.3 33.6 275.1 33.7 277 33.8C277.8 36.9 277.5 39.9 277.5 43C275.2 43.1 273.1 43.1 270.9 42.7C270.6 42.7 270.3 42.6 270.1 42.6C268.8 42.5 267.8 43.4 267.8 44.6C267.7 45.8 268.6 46.8 269.8 46.9C271.5 47 273.1 47.1 274.8 47.2C275.6 47.2 276.5 47.3 277.4 47.4C278 51.2 277 54.9 277.3 58.7C276.9 58.8 276.6 59 276.3 59C273.6 59 270.9 58.9 268.2 58.8C268 58.8 267.9 58.8 267.7 58.8C266.5 58.8 265.6 59.4 265.3 60.4C265 61.5 265.6 62.6 266.8 62.9C267.6 63.1 268.4 63.2 269.2 63.2C271.4 63.2 273.6 63.2 275.7 63.2C276.3 63.2 276.8 63.3 277.5 63.3V73.6C275.1 73.5 272.7 73.4 270.4 73.3C269.9 73.3 269.5 73.1 269 73.2C267.5 73.3 266.5 74.5 267 75.9C267.4 76.9 267.1 77.6 266.5 78.6C265.4 77.5 264.4 78.3 263.4 78.9C262.7 79.3 262.8 80.1 263 80.8C263.3 81.7 263.6 82.6 263.9 83.7C262.8 84 261.9 84 261 83.8C260.4 83.7 259.7 83.4 259.6 84.2C259.5 84.6 259.9 85.3 260.2 85.7C260.9 86.6 261.8 87.3 262.5 88.2C263.5 89.4 263.5 90.9 263.1 92.3C262.6 94 262.6 95.7 262.9 97.4C263 97.9 263 98.4 263 98.9C262.9 100.3 263.3 101.4 264.1 102.6C264.7 103.5 264.8 104.7 265 105.8C265.1 106.1 264.9 106.5 264.7 106.7C263 107.9 263.1 109.7 263.1 111.5C263.1 111.8 263.1 112.2 262.9 112.4C262 113.2 261.8 114.2 262.2 115.4C262.3 115.7 262.3 116.1 262.3 116.7C260.6 115.3 259 114.2 257.6 112.9C256.2 111.5 254.5 110.5 252.8 109.7C252.7 109.6 252.6 109.6 252.5 109.6C248.9 108.6 248.1 109.6 248 112.7C248 113 248 113.2 248 113.6C247.1 113.3 246.3 113 245.5 112.8C244.7 112.6 243.9 112.7 243.1 112.6C241.3 112.4 239.8 113.6 239.6 115.3C239.6 115.4 239.6 115.5 239.6 115.6C239.3 117.7 239.3 117.7 237.1 118.2C235.4 118.6 234.1 120 234.1 121.9C234.1 123.2 233.9 124.3 233.2 125.5C232.4 127 232.7 128.9 232.9 130.6C232.9 130.8 233.4 131.1 233.6 131.1C233.8 131.1 234.2 130.7 234.2 130.4C234.3 129.4 234.2 128.5 234.3 127.5C234.3 127.1 234.3 126.5 234.6 126.4C235.8 125.5 235.5 124.3 235.6 123.1C235.6 122.8 235.6 122.4 235.6 122.1C235.8 120.7 236.5 119.9 237.9 119.7C238.5 119.6 239 119.5 239.6 119.4C240.6 119.1 241.1 118.4 241.1 117.3C241.1 116.9 241.1 116.5 241.1 116.1C241.3 114.7 241.9 114.2 243.4 114.2C244.8 114.2 246.1 114.4 247.3 115.1C248.7 115.9 249.6 115.3 249.7 113.7C249.7 112.9 249.7 112.1 249.8 111.3C249.8 111.2 249.9 111.1 250 110.9C250.8 110.5 251.6 110.7 252.4 111.1C254.2 112 255.9 113.1 257.2 114.6C258 115.6 258.4 116.8 258.6 118.1C258.6 118.4 258.5 118.8 258.7 119.1C258.9 119.4 259.2 119.7 259.6 119.7C259.8 119.7 260.1 119.3 260.2 119C260.3 118.4 260.2 117.9 260.2 117.3C262.2 118 263 120.3 261.9 122.6C261.8 122.6 261.7 122.7 261.6 122.7C259.9 122.5 258.7 123.2 258 124.7C257.6 125.6 256.7 126 255.8 126.3C254.9 126.6 254.2 126.9 254.2 128C254.2 128.9 254.7 129.5 255.9 129.8C257.2 130.2 258.4 130.5 259.8 130.9C259.2 131.4 258.5 131.8 258.2 132.4C257.9 133 258 133.8 257.9 134.8C256.4 134.2 254.9 134 254.2 132.3C254.1 131.9 253.7 131.7 253.3 131.2C252.7 132.4 252.1 133.2 250.7 132.6C250.6 132 250.5 131.3 250.5 130.7C250.4 127.3 250.4 124 250.4 120.6C250.4 120.3 250.4 120 250.3 119.8C250.1 119.6 249.8 119.3 249.5 119.3C249.2 119.3 249 119.7 248.8 119.9C248.7 120.1 248.8 120.3 248.8 120.6C248.9 122.7 248.9 124.8 249 127C249 129.1 249 131.2 249 133.1C247.7 134.6 246.5 135.9 245.3 137.3C244.5 135.5 242.8 134.4 241.1 133.4C240.3 132.9 239.1 132.9 238.1 132.8C237 132.7 235.9 132.8 234.9 132.9C234.6 132.9 234.4 133.2 234.1 133.4C234.3 133.7 234.4 134 234.6 134.2C234.8 134.4 235.1 134.4 235.4 134.4C235.9 134.4 236.3 134.5 236.8 134.4C239.4 133.9 241.3 135.2 243.1 136.8C243.5 137.1 243.6 137.7 243.8 138.1C244.4 139.5 245.3 139.7 246.4 138.6C246.8 138.2 247.1 137.7 247.4 137.2C248.7 138.5 249.5 140 249.5 142C249.5 143.6 249.7 145.3 249.8 147C249.5 147.1 249.3 147.2 249.2 147.2C248.7 147.2 248.1 147.1 247.9 147.8C247.7 148.5 248.2 148.7 248.8 148.8C249.5 149 249.5 149.4 249.3 150.1H246.6H246.5L244 149.9C241.9 150.4 238.6 150.3 237.5 149.8L233.8 150V150.2C231.5 150.3 229.3 150.6 227.1 150.6C224.7 150.6 222.3 150.4 219.9 150.4C217.9 150.4 215.9 150.6 213.9 150.7C212.5 150.8 211.1 150.9 209.6 150.9C208.8 150.9 207.9 150.7 207.1 150.5C206.1 150.3 205.1 150 204 149.8C203.7 149.2 204.2 148.2 203.1 148.1C202.1 148 202.3 149.1 201.9 149.7C201.1 149.8 200.2 149.9 199.3 150C198.4 150.1 197.7 149.9 197.6 148.8C197.4 147.2 197.2 145.5 197 143.9C196.9 143.3 196.9 142.8 196.9 142.2C196 142 195.6 142.3 195.6 143.1C195.6 144 195.7 144.8 195.7 145.7C195.7 146.4 195.7 147.1 195.3 147.8C195 148.3 195.2 149.2 195.2 150.1C190.1 150.7 184.9 149.3 179.4 150.4V145.7C178.4 145.4 178 145.6 178 146.5C178 147.6 178 148.8 178 150.1C177.5 150.1 177 150.2 176.6 150.2C172.4 150.2 168.1 149.7 163.9 150.1C158.9 150.6 153.8 150.7 148.8 150.7C145.2 150.7 141.5 150.7 137.8 150.7C137.7 150 137.7 149.4 137.6 148.8C137.3 146.5 136.1 145.7 133.9 145.8C132.4 145.9 130.8 145.7 129.3 145.7C128.6 145.7 127.9 145.8 127.3 145.8C125.7 145.8 124.1 146 122.5 145.8C121 145.6 119.5 145.1 117.9 145.5C117 145.7 116 145.5 114.8 145.5C114.8 143.9 114.6 142.5 114.7 141.1C114.8 139.7 115.3 138.3 115.7 136.7C116.2 136.8 116.7 136.7 117.2 136.9C118.1 137.3 119 137.1 119.9 136.7C120.9 136.3 121.4 135.5 121.3 134.6C121.2 133.6 120.6 132.8 119.5 132.6C118.6 132.4 117.6 132.4 116.6 132.5C114.8 132.6 114.7 132.6 114.6 130.8C114.5 128.9 114.5 126.9 114.5 125C114.5 124.8 114.6 124.6 114.6 124.2C116.3 123.6 118 123.9 119.7 124C120.2 124 120.6 124.2 121.1 124.1C122.1 124.1 122.9 123.4 123.1 122.5C123.3 121.5 122.9 120.6 122 120.2C121.3 119.9 120.6 119.8 119.8 119.8C118.2 119.7 116.6 119.8 115 119.8C114.3 118.5 115 117.1 115 115.8C114.9 114.5 115 113.2 115 111.7C115.7 111.7 116.3 111.6 116.9 111.6C118.6 111.6 120.3 111.6 122.1 111.6C123.6 111.6 124.5 110.8 124.6 109.6C124.6 108.3 123.7 107.5 122.1 107.5C120.3 107.5 118.5 107.5 116.8 107.5C116.2 107.5 115.7 107.4 115.2 107.4V99.7C117.5 99.7 119.6 99.4 121.8 100C122.9 100.3 124 99.9 124.4 98.9C124.8 97.9 124.5 96.7 123.5 96.2C123 95.9 122.4 95.8 121.9 95.7C121 95.6 120.1 95.6 119.2 95.6C117.9 95.6 116.6 95.6 115.3 95.6C115.3 92.9 115.3 90.5 115.3 88C115.3 87.1 116.1 87.1 116.7 87.2C118.2 87.3 119.7 87.4 121.2 87.4C121.6 87.4 122 87.5 122.4 87.4C123.5 87.2 124.2 86.3 124.2 85.2C124.2 84.2 123.5 83.4 122.4 83.2C122.1 83.1 121.7 83.2 121.4 83.2C119.4 83.1 117.4 83.1 115.4 83C115.2 80 115 77.2 114.8 74.2C116.8 74 118.6 74.1 120.5 74.2C120.8 74.2 121.1 74.3 121.3 74.3C122.5 74.3 123.4 73.6 123.6 72.4C123.7 71.2 123.1 70.2 121.9 70C121.4 69.9 120.9 69.9 120.4 69.9C118.5 69.9 116.7 69.9 114.7 69.9V61.9C116.8 61.9 118.9 61.7 121 62.1C122.4 62.4 123.3 62 123.7 61C124.4 59.4 123.3 57.9 121.5 57.8C119.8 57.8 118.2 57.8 116.5 57.8C115.9 57.8 115.3 57.8 114.7 57.8C114 55.5 114.1 50.2 114.8 48.7C116.3 48.7 117.9 48.7 119.5 48.7C119.9 48.7 120.3 49 120.8 49.2C122.4 49.9 123.9 48.9 123.8 47.1C123.8 45.2 122.5 44.1 120.5 44.3C119.5 44.4 118.6 44.5 117.6 44.6C117.4 43.6 117 42.8 117.8 41.9C118 41.6 117.7 40.8 117.6 40.2C119.1 40 120.4 40.7 121.6 41.6C122.1 42 122.6 42.5 123.2 42.9C123.4 43 123.9 42.9 124.1 42.8C124.2 42.7 124.2 42.3 124.2 42C124.2 41.8 124 41.6 123.9 41.4C122.4 40.1 120.8 38.9 118.7 38.7C117.5 38.6 116.4 38.7 115.4 39.5C115 39.8 114.5 40 114.1 40.3C113.5 40.6 112.6 40.4 112.5 41.3C112.4 42.3 112 43.4 112.9 44.2C113 44.3 113 44.5 113.2 44.9C112.2 44.9 111.3 45.1 110.4 44.9C110 44.8 109.5 44.3 109.3 43.9C108.3 41.7 107 39.5 107.6 36.9C107.7 36.6 107.6 36.2 107.4 36C106.6 35.3 107 34.8 107.5 34.3C107.8 34 108.1 33.8 108.4 33.5C109.1 32.8 109.6 32.1 108.7 31C109.3 31 109.7 30.9 110.1 30.9C114.4 30.8 118.7 30.7 123 30.7C123.8 30.7 124.1 30.3 124.1 29.5C124.2 27.7 122.9 26.5 121.2 26.6C117.3 26.7 113.3 26.7 109.4 26.7C108.6 26.7 107.8 26.8 106.9 26.8C106.7 27.3 106.5 27.7 106.3 28.2C104.1 26.6 103.7 26.6 101.3 28.4C98.5 26.4 98 26.4 96.2 28.4C95.8 28 95.5 27.5 95.1 27.2C94.2 26.5 92.9 26.7 92.2 27.6C91.4 28.6 91.5 30.1 92.4 30.9C93.2 31.6 94.5 31.6 95.4 30.7C95.7 30.4 95.9 30 96.2 29.6C97.7 31.9 99.6 31.8 101.2 29.8C102.1 31.3 103.4 31.9 105.1 31.4C105.5 32.5 106 33.4 105.6 34.4C103.5 34.4 102.8 35.4 103.4 37.8C102.6 38.3 101.8 38.2 101 37.7C100.9 37.3 100.9 36.8 100.8 36.4C100.5 35.4 99.6 34.9 98.7 35.3C98.3 35.5 98 35.9 97.9 36.2C97.8 36.3 98.3 36.8 98.6 36.9C99.1 37.1 99.2 37.3 99 37.9C98.3 37.9 97.5 38.1 96.9 37.9C96 37.5 95.3 37.7 94.8 38.2C94 37.7 93.4 37.2 92.5 36.6C92.4 36.4 92.2 35.8 91.9 35.4C91.7 35.2 91.3 35 91 35.1C90.8 35.2 90.6 35.6 90.6 35.9C90.6 36.3 90.8 36.7 90.9 37C91 37.5 91.2 37.9 91 38.6C90.8 38.4 90.6 38.2 90.4 38C90.3 37.8 90.3 37.6 90.2 37.4C89.9 36.8 89.7 35.9 88.8 36.2C87.9 36.5 88.4 37.3 88.6 38C88.6 38.1 88.6 38.2 88.6 38.3C83.9 37.6 80.5 34.7 80 30.9C83.3 30.2 86.6 31.4 89.9 31.1C89.2 28.9 88.3 27.2 87.4 26.5C87 23.1 89.3 21.1 91.4 19.1C92 18.6 93.1 18.4 94 18.5C95.1 18.6 96.2 18.9 97.3 19.3C99.1 20 100.8 20.9 102.6 21.7C103.5 22.1 104.2 22.8 104.7 23.7C104.9 24.1 105.4 24.5 105.8 24.1C106 23.9 106.1 23.2 105.9 22.9C105.4 22.2 104.9 21.3 104.1 20.9C101.2 19.3 98.4 17.8 95.1 17.2C92.6 16.7 90.6 17.2 89.1 19.4C88.4 20.5 87.5 21.5 86.8 22.6C86.2 23.4 86 24.3 86 25.3C86 26.4 85.7 26.6 84.5 26.6C78.6 26.6 72.6 25.9 66.6 26.6C65.9 26.7 65.2 26.6 64.6 26.5C63.5 26.3 62.5 26.5 61.9 27.4C61.4 28.1 61.4 28.9 61.8 29.7C62.4 30.8 63.3 31 64.4 30.9C65.7 30.8 66.9 30.7 68.2 30.6C70.9 30.5 73.7 30.5 76.4 30.4C77 30.4 77.6 30.5 78.3 30.6C78.7 32.7 79.9 34.4 81.1 36.1C81.8 37 82.6 37.7 83.6 38.1C85.5 38.8 87.4 39.4 89.2 40.1C89.5 40.2 89.9 40.5 90.1 40.8C90.8 41.6 91.5 42.5 92.2 43.4C91.9 43.5 91.5 43.6 91.2 43.6C90.1 43.7 88.9 43.7 87.8 43.7C82.1 44 76.5 44.6 70.8 44.1C69.2 44 67.5 43.9 65.8 43.8C64.4 43.8 63.5 44.5 63.4 45.7C63.3 46.9 64.1 47.8 65.4 48.1C65.8 48.2 66.3 48.1 66.8 48.2C69.5 48.3 72.2 48.3 74.8 48.4C75.3 49.8 75.4 55.6 75.1 57C72.1 57 69.1 57 66.1 57C65.7 57 65.3 57 64.9 57.1C64 57.4 63.4 58.2 63.4 59.2C63.4 60.2 64 61 65 61.2C65.4 61.3 65.9 61.3 66.4 61.3C68.6 61.3 70.8 61.2 72.9 61.2C73.6 61.2 74.4 61.3 75.2 61.4C75.1 64.1 74.9 66.6 74.8 69.3C72.9 69.4 71 69.5 69.1 69.6C68 69.7 66.9 69.6 65.8 69.7C63.8 69.9 63.1 71.8 64.3 73.4C64.8 74 65.4 74.4 64.9 75.4C64.2 75.2 63.4 74.9 62.6 74.8C61.4 74.6 60.8 74.9 60.9 76.1C61 77.4 61.1 78.6 60.5 79.7C60.4 79.9 60.5 80.2 60.5 80.4C60.5 82.8 61.4 83.4 63.6 82.5C64.1 83.4 64.5 84.4 65.5 85C66 85.3 66.2 86.6 66.2 87.4C66.2 88 66.3 88.4 66.6 88.8C67.7 90.3 67.7 90.3 67.9 92.8C67.2 92.7 66.6 92.7 66 92.6C65.8 91.7 65.7 91 65.4 90.3C65 89.5 64.4 89.4 63.8 90.2C63.6 90.4 63.5 90.7 63.4 90.9C63.3 91.1 63.1 91.3 63 91.5C63.3 92.2 63.6 92.9 63.9 93.7C63.1 94.5 62 95.2 62.4 96.6C62.7 97.9 63.8 98.3 65 98.4C64.5 99.5 63.8 100.3 62.6 100.6C62.1 100.7 61.6 101.3 61.2 101.8C60.9 102.1 60.7 102.4 60.4 102.7C59.6 103.4 59.5 103.9 60.1 104.7C61.2 106.4 62.3 108.1 63.3 109.9C63.9 111 64.8 111.4 66 111.2C69.2 110.8 72.4 111.3 75.7 111.6C75.9 114 76 116.3 75.6 118.8C72.8 119 70 119.2 67.1 119.4C67 118.6 67 118.1 66.8 117.5C66.5 116.6 65.7 115.9 64.7 116C63.7 116 62.8 116.7 62.7 117.8C62.5 118.9 62.4 119.9 62.4 121C62.4 122.7 63.3 123.6 65 123.5C67.6 123.4 70.3 123.2 72.9 123.1C73.9 123.1 74.9 123.1 76.2 123.1V132C75.3 132.5 74.2 132.9 73 132.6C71.2 132 69.3 131.9 67.4 132C67.2 132 67.1 131.9 66.8 131.9C66.6 131.2 66.5 130.4 66.3 129.6C66 128.5 65.3 127.9 64.3 127.8C63.3 127.8 62.5 128.3 62.2 129.5C61.9 130.6 61.6 131.6 62.3 132.6C62.5 132.9 62.5 133.5 62.6 133.9C62.8 135.6 63.7 136.4 65.4 136.2C67.8 135.9 70.2 135.9 72.5 136.6C73.2 136.8 74 136.7 74.8 136.8C75.5 138.8 74.9 140.8 74.8 142.9C73.4 143.2 72 143.2 70.6 143.1C68.6 143 66.7 143.3 64.9 144.1C62.9 145 61 145.9 59 146.9C58.8 147 58.7 147.1 58.5 147.1C57 147 56.2 147.8 55.7 148.9C48.2 148.8 40.8 148.7 33.3 148.6C33 147.3 32 147.3 30.8 147.3C29.3 147.4 27.7 147.2 26.2 147.3C18.2 148.3 10.2 147.5 2.2 147.8C2 147.8 1.9 147.9 1.8 147.9C1.3 148.6 0.799999 149.1 0.299999 149.7C-1.19209e-06 150.1 -0.599999 150.4 -0.0999989 151C0.300001 151.5 0.699998 151.2 1.1 150.9C1.4 150.6 1.6 150.7 2 150.9C3.2 151.5 3.6 151.2 3.8 149.9C3.8 149.7 3.8 149.5 3.9 149.2C4.2 149.2 4.4 149.2 4.8 149.2C4.6 149.9 4.5 150.4 4.4 151C4.8 151.9 5.5 151.7 6.2 151.7C9.2 151.7 12.2 151.7 15.1 151.7C19.4 151.7 23.7 151.7 28 151.7C28.8 151.7 29.4 151.7 30 152.5C30.7 153.4 31.7 153.3 32.7 153.1C33.9 152.9 35.2 152.7 36.4 152.7C39.6 152.6 42.7 152.6 45.9 152.7C48.6 152.8 51.4 153.1 54.1 153.1C57 153.1 59.9 152.9 62.9 152.8C63.3 152.8 63.7 152.7 64.1 152.7C70.4 152.6 76.7 152.4 83 152.3C86.3 152.3 89.5 152.4 92.8 152.6C95.2 152.8 97.6 153.4 100 153.6C103.5 153.9 107.1 153.9 110.6 154.1C113.8 154.2 117 154.5 120.2 154.5C124.3 154.5 128.4 154.4 132.6 154.3C134.3 154.3 135.9 154.1 137.6 154.2C140.7 154.3 143.9 154.5 147 154.7C147.5 154.7 148 154.9 148.5 154.9C148.9 154.9 149.4 155 149.8 154.9C150.9 154.8 152 154.5 153.2 154.5C156.5 154.4 159.9 154.5 163.2 154.1C167.3 153.6 171.3 153.8 175.4 153.7C176.8 153.7 178.3 153.9 179.7 153.9C182.4 153.9 185.1 153.7 187.8 153.7C189.2 153.7 190.5 153.9 191.9 153.9C195.8 153.8 199.7 153.6 203.6 153.5C204.8 153.5 206 153.8 207.1 154.1C208.3 154.4 209.4 154.6 210.6 154.4C211.7 154.2 213 154.5 214.2 154.5C216.6 154.5 219 154.3 221.4 154.3C223 154.3 224.6 154.5 226.2 154.5C228.4 154.5 230.5 154.3 232.7 154.2C233.6 154.2 234.5 154.4 235.1 154.5C236.2 154.3 237.2 154 238.1 154C241.1 153.9 244.2 154 247.2 154C250.2 154 253.3 153.8 256.3 153.8C259.9 153.8 263.5 154 267.1 154.1C270.2 154.2 273.3 154.4 276.4 154.5C279.3 154.6 282.2 154.8 285.2 154.7C288.2 154.7 291.2 154.5 294.1 154.4C299.1 154.2 304.1 154 309 154C313.6 154 318.2 154.1 322.8 154.2C324.1 154.2 325.4 154 326.7 154.1C328.3 154.1 329.9 154.2 331.5 154.3C332.1 154.3 332.6 154.5 333.2 154.5C334.8 154.6 336.4 154.3 338 154.7C338.6 154.9 339.3 154.7 339.9 154.6C342.4 154.1 344.9 154.1 347.4 154.4C347.5 154.4 347.5 154.4 347.6 154.4C353 154.6 358.5 154.9 363.9 154.9C370.5 154.9 377.2 154.8 383.8 154.7C384.9 154.7 386.1 154.7 387.2 154.9C390.9 155.5 394.6 155.6 398.3 155.1C398.5 155.1 398.6 155.1 398.8 155.1C403.5 155 408.2 154.9 412.9 154.9C414 154.9 415.2 155.1 416.3 155.4C417.7 155.8 419.1 155.9 420.5 155.4C423.1 154.6 425.7 154.1 428.4 154.3C431.7 154.5 435 154.5 438.4 154.5C440.9 154.5 443.3 154.5 445.8 154.2C448.3 153.9 450.8 153.9 453.2 154.4C459.6 155.7 466.1 155.2 472.6 155.2C474.9 155.2 477.3 154.7 479.6 154.4C480.3 154.3 480.8 154.4 481.4 154.8C481.9 155.1 482.6 155.4 483.1 155.3C484.5 155.3 485.9 155 487.4 154.9C489.1 154.8 490.7 154.6 492.4 154.7C495.8 154.9 499.1 155.3 502.5 155.4C504.1 155.5 505.8 155.9 507.4 155C507.7 154.8 508.2 154.9 508.6 155C512.1 156 515.5 155.2 519 155C521.1 154.8 523.2 154.9 525.3 155C527.9 155 530.6 155.2 533.2 155.2C535.5 155.2 537.9 155 540.2 155C542.5 155 543.2 154.5 543.4 152.2C543.5 151.3 543.5 151.3 544.5 150.3C544.8 151.1 545 151.8 545.2 152.5C545.6 154 546.6 154.8 548.2 155.1C552.7 155.9 557.2 156.8 561.7 157.6C565.2 158.3 568.7 158.9 572.1 159.7C575.1 160.4 578.1 160.2 581.2 160.4C582.2 160.5 582.8 160 583.2 159.1C581.9 157.8 581.7 156.8 581.1 156.2ZM329.9 29.9C329.8 29.7 329.7 29.6 329.8 29.5C330.2 27.5 330.5 25.6 330.9 23.6C331.3 22 332.6 21.5 334.4 22.3C333.7 24.8 332.2 27 332.5 29.9H329.9ZM334.2 29.7C333.8 28.6 334.1 27.7 334.6 26.4C335 28.6 334.9 28.9 334.2 29.7ZM324.6 5.49999C325.7 6.09999 326.7 6.69999 327.8 7.19999C328.4 7.49999 329.1 7.69999 329.7 7.69999C330.6 7.69999 330.9 7.09999 330.6 6.29999C330.5 5.99999 330.3 5.79999 330.2 5.59999C329.5 4.69999 328.8 3.89999 328.2 3.09999C327.9 2.69999 327.7 2.09999 328.3 1.79999C328.6 1.69999 329.2 1.79999 329.5 2.09999C329.9 2.49999 330.2 3.09999 330.5 3.69999C331.7 5.79999 333 6.19999 335.4 5.19999C336.2 4.79999 337 4.59999 337.7 4.29999C338.7 5.39999 338.3 6.59999 338.3 7.69999C338.3 9.59999 338.1 11.5 335.8 12.2C335.6 12.3 335.4 12.5 335.2 12.6C335.1 12.7 335 12.6 334.8 12.7C334.6 12.4 334.5 12.1 334.3 11.7C335.2 10.4 335.3 9.99999 334.7 9.59999C334.5 9.49999 334.2 9.39999 334.1 9.49999C333.7 9.89999 333.3 10.4 332.9 10.9C330.5 10.8 328.1 10.7 325.6 10.5C325.2 10.5 324.8 10.1 324.5 9.79999C323.5 8.39999 323.9 7.09999 324.6 5.49999ZM327.4 23.6C326.2 24.7 324.7 24.6 324.1 23.1C323.5 21.7 322.7 20.5 321.4 19.6C320 18.6 319.6 17.2 320.2 15.4C320.6 15.5 321.1 15.7 321.5 15.7C323.2 15.9 324.9 16.5 326.3 14.9C326.5 14.7 326.9 14.6 327.2 14.6C328.4 14.7 329.5 14.9 331 15.2C330.4 15.9 330.1 16.3 329.8 16.6C329.5 16.6 329.4 16.6 329.3 16.5C328.7 16.2 328.1 15.9 327.6 16.6C327.2 17.2 327.4 17.8 327.9 18.5C328.5 19.3 328.9 20.3 329.4 21.2C329.6 21.7 329.5 22 329 22.3C328.5 22.7 327.9 23.1 327.4 23.6ZM267.2 28.4C266.7 28.1 266.1 27.9 265.2 27.5C266.1 26.2 265.8 24.7 266.8 23.4C266.9 23.9 267.2 24.4 267.1 24.5C266.2 25.6 267 26.4 267.5 27.3C267.9 28 268.4 28.6 268.9 29.3C268.2 29.1 267.7 28.7 267.2 28.4ZM272.4 29.2C271.8 29.1 271.2 29.3 270.9 29C269.9 28 268.8 27 268.5 25.3C269.5 25.6 270.3 25.9 271.2 26C272.4 26.2 272.5 26.2 272.5 27.5C272.5 28 272.4 28.5 272.4 29.2ZM67.7 73.4H73.6C73.5 75.9 73.4 78.2 73.2 80.6C73.2 80.8 73 80.9 73 81.1C72.9 82.3 72.4 83.6 72.8 84.6C73.3 86.1 73 87.5 73.4 88.9C71.9 89 71.8 89.1 71.7 90.2C71.6 90.9 71.6 91.5 71.6 92.2C70.4 92.3 69.5 92.4 68.6 92.5C68.2 91.1 68.1 91.1 68.7 90.2C69 89.7 69.4 89.2 69.8 88.7C70.4 87.9 71 87.1 70.5 86C73.3 84.2 72.9 81.4 72.7 78.7C72.7 78.2 72.2 77.6 71.8 77.1C71.2 76.4 70.6 75.7 69.9 75.1C69.2 74.6 68.5 74.2 67.7 73.7C67.7 73.5 67.7 73.4 67.7 73.4ZM64.8 82.7C64.2 81.8 64 80.9 63.4 80.5C62.8 80.2 61.9 80.4 61 80.4C60.7 79.6 61.3 79 61.5 78.3C61.7 77.6 61.5 76.8 61.5 75.8C62 76 62.5 76.2 62.9 76.4C64.8 77.4 65.1 77.2 65.6 75.2C65.6 75.1 65.8 75.1 65.9 74.9C66.5 75.1 67.2 75.1 67.8 75.4C68.4 75.8 69.4 76.4 69.4 77C69.4 78.3 70.2 78.5 71.2 78.6C71.1 79.7 71.1 80.7 71 81.8C70.8 83.8 70.3 84.3 68 84.3C67.4 83.2 66.2 82.6 64.8 82.7ZM66.6 85.7C67.3 85.9 67.9 86.2 68.7 86.5C68.5 87.1 68.3 87.7 68.1 88.4C66.2 87.4 66.1 87 66.6 85.7ZM61.4 102.6C61.3 101.7 62 101.6 62.5 101.4C63.2 101.1 64 100.9 64.4 100.3C65 99.5 65.5 99.6 66.3 99.9C67.4 100.3 67.7 101 67.7 102.1C66.2 102.9 64.3 103.1 61.4 102.6ZM74.2 107C71.3 106.8 68.4 106.7 65.5 106.5C65.3 105.9 65.2 105.2 65 104.5C65.5 104.4 65.8 104.3 66.1 104.3C67.8 104.1 69.1 103.6 69.3 101.5C69.4 100.5 69.2 100 68.5 99.5C67.8 99 67 98.6 66.1 98.1H73.1C74 101 74.6 103.9 74.2 107ZM114.6 40.9V43.1C113.8 43.1 113.1 43 113 42.3C112.9 41.3 113.8 41.3 114.6 40.9ZM106.9 119.5C102.9 119.5 99 119.3 95 119.6C91.3 119.9 87.6 120.3 83.9 119.7C83.8 119.7 83.8 119.7 83.7 119.7C82.5 119.5 81.2 119.3 80 119.1C78.7 118.9 77.4 118.7 76.3 118.5V111.4C77 111.3 77.4 111.3 77.9 111.2C79.2 111.2 80.5 111.2 81.9 111.2C87.2 111.1 92.5 110.9 97.9 110.7C101.7 110.6 105.6 110.6 109.4 110.5C110.6 110.5 111.9 110.6 113.2 110.6C113.6 113.5 113.3 116.2 113.1 119.2C110.9 119.4 108.9 119.5 106.9 119.5ZM112.8 123.7V131.9C110.7 131.9 108.7 131.9 106.7 131.9C105.2 131.9 103.6 131.8 102.1 132.1C100.6 132.4 99.2 132.3 97.7 132.2C96.3 132.1 94.9 132.3 93.4 132.3C92.3 132.3 91.2 132.7 90.2 132.5C87 131.8 83.8 132 80.6 132.2C79.4 132.3 78.1 132.1 76.7 132V123.1C77.1 123.1 77.5 123.1 77.9 123.1C80.9 123.5 83.9 124 86.9 124.4C88.1 124.5 89.3 124.5 90.5 124.4C93.4 124.3 96.2 124 99.1 123.9C102 123.8 104.8 123.9 107.7 123.9C109.4 123.7 111 123.7 112.8 123.7ZM112.8 106.6C110.3 106.6 107.7 106.6 105.2 106.6C98.2 106.7 91.1 106.8 84.1 106.9C83.5 106.9 83 107 82.4 107C80.3 107.1 78.2 107.2 76.1 107C75.7 104 75.4 101.1 75 98.3C76.3 98.3 77.6 98.3 78.9 98.3C84 98.4 89.1 98.6 94.2 98.7C97.3 98.8 100.4 99 103.5 99.1C106.3 99.1 109.1 99 111.9 99C112.3 99 112.8 99.1 113.2 99.1C113.5 101.5 113.4 104.9 112.8 106.6ZM103.4 39C103.9 38.7 104.4 38.7 105 38.5C105.7 40.5 106.4 42.2 107 44C104.8 43.8 102.8 44.1 100.8 43.5C101.1 42.5 102.7 39.4 103.4 39ZM93.3 40C93.4 40.2 93.4 40.4 93.4 40.6C93.4 41 93.3 41.6 93.6 41.8C94.1 42.2 94.6 41.7 94.8 41.2C95.1 40.7 95.3 40.1 95.5 39.5C98.6 39.1 99.7 40.4 99.1 43.4H93C92.9 42.2 92.8 41.1 93.3 40ZM75.5 48.3C87.6 47 99.7 47.5 112 48.7V57.1C111.8 57.1 111.5 57.2 111.3 57.2C109.4 57.3 107.5 57.3 105.7 57.6C102.5 58.1 99.3 58 96.1 57.8C91.2 57.5 86.4 57.2 81.5 57.2C79.6 57.2 77.6 57 75.6 56.8V48.3H75.5ZM75.6 61.2C76 61.2 76.2 61.1 76.5 61.1C79.2 61.2 82 61.4 84.7 61.5C88.3 61.7 91.9 62 95.5 62.1C98.8 62.2 102 62.1 105.3 62C107.6 61.9 109.8 61.7 112.3 61.6V69.3C112.1 69.4 112 69.5 111.8 69.5C108.3 69.4 104.8 69.4 101.3 69.3C99.6 69.2 98 69 96.3 69C94.8 69 93.2 69.2 91.7 69.2C87.2 69.2 82.8 69 78.3 69C77.3 69 76.4 69.1 75.2 69.2C75 66.2 75.3 63.7 75.6 61.2ZM75.1 73.2C77.8 73.1 80.4 72.8 83.1 72.9C86.2 72.9 89.3 73.2 92.4 73.2C95 73.3 97.7 73.2 100.3 73.2C103.2 73.3 106 73.5 108.9 73.6C110 73.6 111.2 73.6 112.5 73.6C113.1 76.7 113.2 79.7 113.2 82.9C112.4 83 111.8 83.1 111.2 83.1C108.6 83 105.9 82.9 103.3 82.7C102.3 82.6 101.2 82.4 100.2 82.4C96.2 82.6 92.2 82 88.2 81.6C84.2 81.2 80.1 80.6 76 80.9C75.7 80.9 75.4 80.8 74.8 80.7C74.9 78.2 75 75.8 75.1 73.2ZM74.7 85.1C77.5 85 80.2 85 82.9 85.3C86.4 85.7 89.8 86.1 93.3 86.4C95.7 86.6 98.1 86.5 100.5 86.7C104.3 87.1 108.1 87.4 112 87.3C112.4 87.3 112.8 87.4 113.1 87.4V94.8C111.8 94.8 110.7 94.8 109.6 94.8C105.4 94.8 101.1 94.8 96.9 94.8C95 94.8 93.1 94.4 91.2 94.4C86.8 94.3 82.5 94.3 78.1 94.2C77 94.2 76 94 75.1 93.9C75 90.8 74.8 88 74.7 85.1ZM64.7 148C65 147.8 65.2 147.7 65.5 147.6C67.4 146.8 69.4 147.1 71.4 146.9C72.9 146.8 74.3 147 75.8 147.8C71.9 148.3 68.4 148.5 64.7 148ZM89.1 144.6C85.9 144.1 82.7 144 79.5 143.8C78.5 143.7 77.5 143.6 76.5 143.4C75.4 143.2 75 142.5 75 141.5C75.1 140 75.1 138.4 75.2 136.9C75.2 136.6 75.3 136.3 75.4 135.9C75.8 135.9 76.2 136 76.5 136C78.1 136.1 79.7 136.2 81.3 136.2C83.8 136.2 86.2 135.9 88.7 136.5C90.5 137 92.3 136.6 94.2 136.4C95.2 136.3 96.1 136.3 97.1 136.3C98.6 136.3 100.3 136.7 101.7 136.4C104.5 135.7 107.2 136.3 109.9 136.1C111 136 111.4 136.6 111 137.6C110.3 139.2 110.4 140.7 110.4 142.3C110.4 142.9 110.4 143.5 110.3 144.5C108.1 144.4 106.2 144.2 104.2 144.2C102.2 144.1 100.2 143.9 98.2 144.3C95.3 144.9 92.2 145 89.1 144.6ZM97.5 149.1C99.5 147.9 101.3 147.9 103.1 148.2C104 148.3 104.9 148.5 105.8 148.6C109.2 148.8 112.5 148.9 115.9 149C116.4 149 117 149 117.2 150C110.7 149.4 104.3 149.9 97.5 149.1ZM277.9 91.4V101C275 101.4 272.1 101.6 269.4 101.5C268.9 100.1 268.4 99 268 97.8C267.7 97 267.4 96.2 267 95.4C266.6 94.4 266.8 93.7 267.6 93C268.1 92.6 268.5 92 269 91.4H277.9ZM270.7 78.2C270.9 77.7 271.2 77.3 271.8 77.4C273.7 77.5 275.5 77.5 277.5 77.6V86.9C275.1 87.4 271.3 87.2 269.7 86.6C269.7 85.7 269.9 84.7 269.7 83.8C269.2 81.8 270.1 80 270.7 78.2ZM264.6 98.1C264.6 97.7 264.6 97.3 264.5 96.9C264.1 95.3 264.3 93.8 264.7 92.2C265.2 90.5 265.4 88.7 264 87.2C263.5 86.7 263.1 86.1 262.5 85.3C263.2 85.3 263.7 85.3 264.2 85.3C265.3 85.2 265.6 85 265.6 83.8C265.6 83.1 265.3 82.4 265.1 81.7C264.9 81.1 264.3 80.5 264.9 79.8C265 79.8 265.2 79.8 265.3 79.8C267 80.7 267.4 80.6 268.2 78.9C268.4 78.4 268.7 77.8 269 77.3C269.1 77.3 269.3 77.4 269.4 77.4C269.3 77.8 269.1 78.3 269 78.7C268.6 80.3 267.8 81.8 268 83.5C268.2 84.6 268.3 85.8 268.2 86.9C267.9 88.8 268 90.8 266.2 92.2C265.2 93 265.2 94.3 265.6 95.4C266 96.6 266.5 97.8 267.1 98.8C268.1 100.5 267.9 102.1 266.6 103.7C266.3 102.9 266.3 102.1 265.8 101.6C264.7 100.7 264.5 99.5 264.6 98.1ZM266.6 106.7V108.5C266.1 108.4 265.6 108.4 264.9 108.3C265.5 107.7 266 107.3 266.6 106.7ZM266.3 110.8C267.9 110.9 268.1 110.7 268.1 109.1C268.1 108 268.1 107 268.2 106C269.9 105.9 271.5 105.7 273 105.6C274.5 105.5 276 105.4 277.7 105.3C277.7 108.6 278 111.7 277.2 114.8H266.5C266.5 113.5 266.2 112.2 264.8 111.6C265 110.7 265.5 110.7 266.3 110.8ZM263.6 121.4C264.7 120.6 265.5 120.1 266.7 119.3C269.9 119 273.5 118.9 277.3 119.1C277.3 123.3 277.3 127.3 277.3 131.4C274.8 131.6 272.5 132 270 131.5C270.5 131 270.7 130.7 271 130.4C272.2 129.1 272.2 127.5 271.6 126C271 124.6 269.8 123.6 268.1 123.8C267.6 123.9 267.1 123.9 266.6 124C265.3 124.2 264.1 123.9 263.2 122.8C263.4 122.3 263.6 121.7 263.6 121.4ZM268 125.8C269.4 125.7 270.2 126.1 270.4 127C270.7 128.2 270.3 129 269.1 129.7C269.3 127.1 269.3 127.1 268 125.8ZM267.3 128.7C267.3 128.8 267.1 128.9 267 129.1C266.7 128.7 266.5 128.3 266.1 127.6C267.2 127.7 267.4 128 267.3 128.7ZM257 127.4C257.8 126.5 258.6 125.7 259.4 124.7C259.9 124.1 260.4 123.6 261.2 124.1C261.5 125.9 260.6 127.3 259.9 128.8C258.8 128.4 257.8 127.9 257 127.4ZM260.6 132.7C260.3 133.3 260.3 133.3 259.6 133.6C259.6 132.8 259.6 132.8 260.6 132.7ZM251.7 133.8C251.4 134.4 251.1 134.9 250.7 135.7C250.3 134.1 250.3 134.1 251.7 133.8ZM278 141.9C277.7 144.2 277.3 146.5 277.1 148.8C277 149.6 276.7 149.9 275.9 149.9C273.8 149.9 271.8 149.9 269.7 149.8C267 149.7 264.3 149.5 261.6 149.4C258.3 149.3 255 149.4 251.7 149.4C251.5 149.4 251.3 149.3 250.8 149.3C250.9 148.6 251 147.9 251 147.2C251 146.9 251.1 146.5 251 146.2C250.9 144.1 250.7 142.1 250.6 140C250.6 139.5 250.4 139 250.6 138.6C251.5 137 252.4 135.5 253.3 134C255.1 134.6 256.3 135.9 258.1 135.7C258.3 135.7 258.6 136.4 258.7 136.8C258.8 137.1 258.4 137.5 258.5 137.8C258.5 138.1 258.8 138.5 259 138.6C259.3 138.7 259.7 138.5 260 138.3C260.1 138.2 260.1 137.9 260.2 137.7C260.6 137 260.9 137 261.4 137.6C261.9 138.2 262.4 138.8 263.1 139.2C263.9 139.7 264.8 139.6 265.5 139C266.2 138.4 266.3 137.7 266.1 136.8C266 136.4 265.9 136 265.8 135.5C266.4 135.5 267 135.3 267.4 135.5C268.5 136.1 269.7 136 270.9 135.9C272.6 135.8 274.2 135.7 275.9 135.7C276.4 135.7 276.9 135.8 277.4 135.8C277.6 137.6 277.7 139.2 277.9 140.8C278.1 141.2 278 141.6 278 141.9ZM356.9 132.8C357.7 134.1 357.8 135.5 357 136.8C356.3 138 356.6 138.7 358.1 138.8C359.3 138.9 360.6 138.8 362 138.8C362 139 362.1 139.5 362.1 139.9C362 141 359.7 142.1 359 141.3C358.3 140.6 357.6 140.5 356.9 140.4C356.3 138.3 355.7 136.4 355.2 134.7C355.8 134.1 356.3 133.4 356.9 132.8ZM351.9 126.3C351.8 126.1 351.9 125.8 351.9 125.2C353.6 126.6 354.5 128.7 354.3 130.6C353.3 130.6 353.3 130.6 353.1 130C352.8 128.7 352.3 127.5 351.9 126.3ZM354.5 132.5C354 133.2 353.7 133 353.2 132.3C353.8 132.4 354.1 132.4 354.5 132.5ZM346.8 143.4C346.5 143.3 346.1 143.3 345.9 143.1C345.8 142.9 345.9 142.4 346.1 142.2C346.4 141.9 346.9 141.8 347.3 141.7C349.3 141.4 349.4 141.2 349 139.1C348.9 138.3 349 137.4 349 136.5C350.2 136.6 350.7 137.2 351 138.1C351.2 138.5 351.7 138.7 352.1 139C352.4 138.6 352.9 138.2 353.1 137.8C353.3 137.3 353.2 136.6 353.3 135.9C354.4 137.3 355.1 140 354.7 141.2C354.7 141.4 354.5 141.5 354.5 141.6C353.9 142.4 353.4 143.3 352.8 144.1C352.2 143.8 351.6 143.4 351 143C349.7 142.2 348.5 142 347.2 143.1C347.1 143.3 346.9 143.4 346.8 143.4ZM355.2 147.8C355.5 148 356 148 356.5 148.1C355.6 148.8 354.9 149.4 353.9 150.1C352 150 349.9 149.9 347.6 149.7V145.4C350 145.3 350.5 145.4 351.6 146.3C352.9 147.5 353.1 147.4 354.1 146.1C354.3 145.9 354.4 145.6 354.5 145.6C355 145.6 355.6 145.7 355.8 145.5C356.2 144.9 356.5 144.2 356.9 143.5C358.1 143.5 358.4 143.8 358.1 144.8C357.9 145.4 357.6 145.9 357.3 146.5C356.7 146.4 356.2 146.3 355.7 146.2C355.2 146.1 354.7 146.3 354.7 146.8C354.6 147.1 354.9 147.6 355.2 147.8ZM358.1 148.5C358.1 148 358 147.5 358 147C361.2 146.5 361.8 146.8 362.3 148.6C360.9 149.5 359.6 148.6 358.1 148.5ZM407 150.5C406.5 149.6 406.7 148.9 407.4 148.1C407.5 149 407.8 149.8 407 150.5ZM409.3 149.9C409 148.9 408.8 148.3 409.5 147.3C409.8 148.3 410 148.9 409.3 149.9ZM525 135.7C524.9 133.9 524.9 132.4 525.7 130.8C526.3 131.6 526.9 132.2 527.4 132.9C526.7 133.9 526.3 135 525 135.7ZM538.2 111.8C537.9 111 537.7 110.4 537.5 109.7C538.8 110 538.8 110 538.2 111.8ZM499.3 130.5C499.5 129.7 499.5 128.9 499.5 128.2C499.5 127.4 499.3 126.6 499.8 125.6C500.7 129.3 500.3 132.8 499.9 136.5C499.1 134.6 499 132.2 499.3 130.5ZM469.4 142.8C469.3 142.8 469.3 142.8 469.2 142.8V136.1C469.3 136.1 469.3 136.1 469.4 136.1V142.8ZM471 126.1C471.9 127.5 472.7 128.8 473.6 130.2C472.9 130.6 472.1 131.2 471.1 131.8C470.9 129.8 470.8 128 470.6 126.2C470.7 126.2 470.8 126.1 471 126.1ZM481.7 137.3C481.6 138 481.6 138.8 481.5 139.5C481.1 141.3 481.1 143.1 481.4 145C481.6 146.5 481.6 148 480.9 149.6C477.6 150 474.3 150.5 470.8 151C470.8 150.4 470.7 149.9 470.7 149.4C470.8 145.4 470.9 141.4 471 137.4C471 136.6 471.4 136.2 472 135.7C473.1 134.8 474.2 133.8 473.3 132.1C473.6 131.9 473.8 131.8 474 131.7C474.7 131.4 475.5 131.3 475.5 130.3C475.6 129.4 475 129 474.4 128.6C474 128.3 473.7 127.8 473.4 127.3C473.1 126.8 473 126.2 472.8 125.7C473.9 125.3 475.1 125 476.4 124.6C476.8 124.8 477.5 125.2 478 125.5C478.3 126.5 478.4 127.3 478.8 128C479.9 129.9 483.3 131.1 485.4 130.5C486.3 130.2 486.9 130.4 487.6 131C488.4 131.7 489.2 132.5 490 133.2C490.8 133.9 491.7 133.9 492.7 133.5C493.4 133.2 494.2 132.9 494.9 132.6C495.4 132.4 495.7 132.1 495.6 131.6C495.6 131.3 495.5 130.9 495.4 130.6C496.1 130.1 496.5 129.3 497.6 129V135.8C497.1 135.8 496.5 135.7 496 135.7C492 135.6 488 135.5 484 135.4C482.7 135.2 481.9 136 481.7 137.3ZM501.8 151C496.3 150.7 490.9 150.5 485.3 150.2C485.5 149.5 485.7 148.9 485.8 148.3C485.9 148 486 147.6 486 147.3C485.5 145.5 485.4 143.7 485.4 141.9C485.4 141.2 485.6 140.5 485.8 139.8C486.4 139.7 486.7 139.7 487.1 139.7C489.8 139.7 492.5 139.6 495.1 139.7C495.9 139.7 496.8 140 497.6 140.3C498.6 140.8 499.5 141 500.6 140.9C501 140.9 501.4 141 501.8 141V151ZM522.9 139C522.7 138.6 522.5 138.2 522.5 137.7C522.5 136.2 522.5 134.6 522.6 133.1C522.6 132.4 522.2 132 521.6 131.9C520.9 131.8 520.8 132.5 520.8 133C520.8 133.7 521.1 134.4 521.1 135C520.9 138 521.8 140.9 522.2 143.8C522.5 145.9 522.3 148 522.3 150.2C521.5 150.2 520.8 150.2 520.1 150.2C517.8 150.3 515.4 150.4 513.1 150.7C510.8 151.1 508.6 150.6 506.3 150C506.2 149.2 506.1 148.4 506.1 147.6C506.1 145.4 506.3 143.1 506.3 140.9C506.3 140.1 506.2 139.3 506 138.5C505.7 137.2 505 136.7 503.7 136.6C503 136.6 502.4 136.6 501.5 136.6C501.7 132.7 501.9 129.1 502.1 125C503.1 125 504 125.1 504.8 125C505.9 124.9 507 124.8 508 124.5C509.9 124 511.5 125.1 511.3 127.1C511.1 128.3 511.6 128.8 512.5 129.3C515.2 130.9 518 131.5 521 130.6C521.8 130.4 522.6 129.9 523.6 130.3C523.4 133.3 523.9 136.2 522.9 139ZM523.5 128.8C522.2 128.9 520.9 129.1 519.6 129.5C517.1 130.2 514.9 129.4 513.2 128.3C512.7 126.7 512.2 125.5 512 124.6C512.2 123.3 512.5 122.4 512.3 121.5C512.1 120.4 510.9 120.2 510 119.8C510.7 118.1 511.4 116.6 512.1 114.8C512.7 114.7 513.5 114.6 514.4 114.5C515.1 114.4 515.9 114.5 516.6 114.5C517.5 114.4 517.9 114 517.8 113.2C517.8 112.8 517.6 112.3 517.4 111.9C517.2 111.4 516.9 111 516.7 110.5C516.1 109 516.9 108 518.5 108.2C519.1 108.3 519.6 108.5 520.1 108.7C521.8 109.4 523.5 110.1 525.2 110.7C526.4 111.1 527.7 111.1 528.9 111.2C529.7 111.2 530 110.6 529.6 109.9C529.4 109.5 529.1 109.1 528.9 108.7C528.2 107.5 527.4 106.3 526.8 105C526.5 104.5 526.5 103.8 526.4 103C527.8 103 528.8 103 529.8 103C530.1 103 530.6 103.3 530.8 103.5C532.2 105.2 533.7 106.9 535 108.7C535.5 109.4 536 110.3 536.3 111.1C536.8 112.7 537.1 114.3 537.5 115.9C537.6 116.3 537.6 116.7 537.6 117.1C537.5 118.2 537.3 118.4 536.2 118.7C535.4 118.9 534.5 119.2 533.9 119.7C532.2 121.2 530.6 122.9 529 124.5C528 125.5 528 126.4 528.8 127.6C529.5 128.6 530.4 129.3 531.6 129.7C533.5 130.3 535.4 130.5 537.4 130.2C540 129.9 541.5 128.3 541.8 125.7C541.9 125.3 541.9 124.9 542 124.4C543.4 124.8 544.1 125.9 544.2 126.9C544.6 129.1 544 131.3 543 133.1C541.8 133.1 540.8 133.1 539.9 133.1C539.3 133.1 538.7 133.3 538 133.4C536 133.4 534 133.4 532 133.4C531.2 133.4 530.5 133.1 529.7 133C530.9 132.7 531.1 132.6 531.2 132C531.3 131.3 531.1 130.7 530.5 130.4C529.3 129.9 528.8 130.8 527.9 132C527.7 131.5 527.6 131.3 527.4 131C526.8 129.2 525.3 128.6 523.5 128.8Z" fill="#C99FAF"/>
<path d="M424.7 57.8C425.1 58 425.3 58.1 425.5 58.2C426 58.7 426.5 58.8 427 58.4C427.6 58 427.4 57.4 427.2 56.8C427.1 56.6 427.1 56.5 427 56.3C426.3 54.7 426.3 54.7 424.5 54.8C424.3 54.4 424.1 53.9 423.9 53.5C423.7 53.5 423.5 53.4 423.2 53.4C422.6 53.3 422.1 53.5 422 54.1C421.9 54.7 422.3 54.9 422.7 55.1C422.8 55.1 422.8 55.3 423 55.5C422.7 55.6 422.4 55.7 422.2 55.9C422 56.2 421.8 56.6 421.8 56.9C422 57.6 422.4 58.4 422.8 59.2L424.9 59.3C424.9 58.8 424.8 58.4 424.7 57.8Z" fill="#CF7850"/>
<path d="M440 34.7C439 32.6 438 30.6 436.8 28.6C435.6 26.6 433.7 26.1 431.2 26.9C431.2 26.3 431.2 25.7 431.1 25.2C431 24.6 430.8 23.9 430.5 23.5C429.8 22.6 428.7 22.7 428 23.6C427.7 24 427.4 24.4 427.2 24.7C425.9 23.3 424.8 21.9 423.4 20.7C422.3 19.6 421.4 19.9 420.5 21.3C420.3 20.9 420.1 20.4 419.8 20.1C419.5 19.7 419.1 19.2 418.6 18.9C417.5 18.2 416.8 18.3 416.2 19.5C415.6 20.8 415.6 22.3 416.1 23.7C416.3 24.2 416.6 24.7 416.9 25.2C417.9 26.5 418.5 28 418.3 29.8C417.9 29.8 417.4 29.9 416.9 29.9C415.1 29.9 413.2 29.9 411.4 30C406.9 30.1 402.4 30.2 397.7 30.3C398.2 27.1 397.3 23.7 398.6 20.2C400.3 19.7 401.3 18.3 401.3 16.2C402.2 16.1 402.9 16 403.6 15.9C407 15.7 410.4 14.7 413.9 15C415 15.1 416.1 15.2 417.2 15.2C420.7 15.5 424.3 15.7 427.8 16C428 16 428.2 16.1 428.5 16.1C428.5 16.9 428.4 17.6 428.4 18.3C428.4 19.7 429.3 20.5 430.5 20.5C431.7 20.5 432.4 19.7 432.6 18.4C432.7 17.3 432.9 16.1 433.1 15C433.4 13.2 432.4 12 430.7 11.7C430.5 11.7 430.2 11.6 430 11.6C425.5 11.7 421.1 11.2 416.6 10.8C413.5 10.5 410.4 10.5 407.3 11C405.3 11.4 403.3 11.5 401.3 11.6C398.8 11.7 397.9 12.4 397.3 14.9C397.2 15.2 397.1 15.5 397 16C396.4 16 395.9 16.1 395.3 16.1C385 16.1 374.7 16.1 364.3 16.1C363.8 16.1 363.3 16 362.8 16C361.2 15.9 360 16.7 360 18.1C359.9 19.4 361.1 20.4 362.7 20.3C363.4 20.3 364.1 20.2 364.8 20.2C365.4 20.2 366 20.1 366.3 20.9C366.4 21.2 367.1 21.3 367.8 21.5C368 22.8 368.4 24.2 368.4 25.7C368.4 27.1 367.9 28.5 367.5 30.1C365.4 29.8 363.4 29.7 361.4 29.1C360.8 28.9 360.1 28.7 359.4 28.7C358.2 28.7 357.4 29.4 357.2 30.4C357 31.5 357.5 32.5 358.7 32.8C360.1 33.2 361.6 33.4 363.1 33.7C365.6 34.1 368.2 34.3 370.8 34.3C379 34.3 387.2 34.5 395.4 34.5C396.9 34.5 398.5 34.2 400 34.1C401.9 34 403.8 33.8 405.6 33.7C409.5 33.6 413.4 33.7 417.3 33.7C417.5 33.7 417.7 33.8 418.1 33.8C418.3 37.3 418.2 40.8 418.2 44.4C417.1 44.5 416.1 44.7 415.1 44.7C409.1 44.8 403.2 44.9 397.2 45C394.8 45 392.4 44.8 390 44.8C388.5 44.8 386.9 45.1 385.4 45C381.8 44.8 378.2 44.4 374.6 44C371 43.6 367.4 43.2 363.8 42.8C363.1 42.7 362.3 42.6 361.6 42.5C360.2 42.4 359.3 43.1 359.1 44.3C358.9 45.4 359.6 46.4 360.8 46.7C361.1 46.8 361.5 46.8 361.8 46.9C366.9 47.5 371.9 48.1 377 48.6C380.8 49 384.5 49.3 388.3 49C390.9 48.8 393.4 49.1 396 49.1C398.9 49.1 401.8 49.2 404.8 49.1C408.9 49 413 48.8 417.2 48.6C417.4 48.6 417.7 48.6 417.9 48.7C418.3 49.9 418.4 55.8 418.1 58.9C416.6 59.4 414.9 59.7 413.3 59.4C409.1 58.7 405 59.5 400.8 59.4C399.4 59.4 398.1 59.3 396.7 59.2C393.7 59.1 390.8 59.1 387.8 59.1C386.7 59.1 385.5 59.1 384.4 59.1C381.3 59.1 378.1 59.1 375 59.1C373 59.1 371 59.1 369 59.1C367.7 59.1 366.4 59.1 365 59C364.1 59 363.2 58.9 362.3 58.8C361.1 58.7 360 59.3 359.8 60.4C359.5 61.5 360.1 62.6 361.3 63C361.7 63.1 362.1 63.2 362.5 63.2C365.8 63.3 369 63.5 372.3 63.5C374.8 63.5 377.3 63.3 379.9 63.3C381.5 63.3 383.1 63.5 384.7 63.5C385.7 63.5 386.7 63.6 387.6 63.5C390.9 63.1 394.2 63.1 397.5 63.7C398.2 63.8 399 63.8 399.7 63.8C402.8 63.7 406 63.5 409.1 63.3C409.9 63.3 410.7 63.3 411.5 63.4C413.3 63.7 415.1 63.9 417 63.5C417.4 63.4 417.8 63.4 418.4 63.4C418.2 67 418.1 70.4 417.9 73.9C414.8 74.1 411.8 74.5 408.7 74C408.4 74 408.1 73.9 407.8 73.9C405.3 74.4 402.9 73.8 400.4 73.9C398.5 74 396.6 74.1 394.7 74.2C394.1 74.2 393.5 74.2 393 74.1C390.1 73.2 387.3 73.6 384.3 73.8C381.1 74 377.8 74 374.5 73.8C370.3 73.5 366.2 72.9 362 73C360.3 73 359.2 73.9 359.3 75.2C359.3 76.5 360.4 77.3 361.9 77.3C362.6 77.3 363.3 77.3 364 77.3C367.1 77.1 370 77.8 373.1 78C377.4 78.4 381.8 78.5 386.1 77.9C387.9 77.7 389.7 77.6 391.6 78.1C394.1 78.8 396.6 78.4 399.1 78.4C400.3 78.4 401.5 78.4 402.7 78.4C403.3 78.4 403.8 78.5 404.4 78.5C407.5 78.5 410.6 78.5 413.7 78.5C414.9 78.5 416.1 78.3 417.4 78.2C417.3 82 417.3 85.6 417.2 89.4C414.2 89.3 411.3 89.6 408.5 88.9C407.9 88.8 407.3 88.6 406.6 88.6C401.1 88.5 395.6 88.4 390.1 88.3C388.2 88.3 386.3 88.7 384.5 88.7C379.6 88.8 374.7 88.3 369.8 87.7C367.1 87.4 364.4 87.3 361.8 87.2C360.8 87.1 360 87.6 359.6 88.5C359.2 89.3 359.4 90.4 360.1 91C360.7 91.6 361.4 91.8 362.2 91.6C364.4 91 366.6 91.5 368.9 91.7C372.1 92 375.3 92.3 378.5 92.6C379.8 92.7 381.1 92.8 382.4 92.9C384.9 92.9 387.4 92.8 389.9 92.5C393.1 92.2 396.4 92.4 399.7 92.4C400.7 92.4 401.8 92.6 402.8 92.6C405.2 92.6 407.5 92.8 409.8 93.2C411.7 93.5 413.6 93.3 415.5 93.4C416.1 93.4 416.6 93.4 417.4 93.4C417.5 96.8 417.7 100 417.8 103.5C415.9 103.7 414 103.7 412.3 103.5C406.5 103.1 400.8 102.7 395 102.7C389.2 102.7 383.4 102.4 377.6 102.5C373 102.6 368.3 103 363.7 103.2C363.1 103.2 362.4 103.3 361.8 103.2C360.2 103 359.1 104.1 359.1 105.3C359.1 106.7 360.2 107.5 362 107.4C364.6 107.2 367.1 107 369.7 107C374 106.9 378.3 106.7 382.6 106.7C389.1 106.7 395.6 106.8 402 107C406.3 107.1 410.7 107.5 415 107.7C415.8 107.7 416.7 107.7 417.8 107.7C417.8 109.3 417.7 110.8 417.8 112.3C417.8 113.3 418 114.2 418.2 115.2C418.3 115.7 418.5 116.3 419.2 116.1C419.9 115.9 419.9 115.3 419.7 114.7C418.8 112.5 419.4 110.2 419.3 107.8C422 107.6 424.5 107.5 427.1 107.4C427.3 107.4 427.6 107.4 427.8 107.6C429.1 108.3 430.1 107.9 431.1 106.9C431.7 107.3 432.1 107.8 432.7 108.1C433 108.3 433.6 108.4 433.9 108.2C434.4 107.9 434.1 107.4 433.8 107C433.7 106.8 433.5 106.6 433.4 106.4C433.7 105.7 434.1 105.1 434.4 104.4C435.1 103.2 435.3 101.9 435 100.4C434.8 99.4 434.9 98.4 435 97.4C435.2 95.9 435.1 95.6 433.8 95.1C432.6 94.7 432.5 94.2 433 93.1C433.5 92.1 433.9 91.1 434.6 90.2C435.7 88.5 435.5 86.7 435.5 84.9C435.5 83.7 435.4 82.5 435.2 81.3C435.1 80.7 435.1 79.9 434.7 79.5C434 78.8 434 78 434.1 77.1C434.3 75.7 434.5 74.3 434.7 72.9C435 71.4 435.1 69.9 434.5 68.4C434.1 67.4 434.1 66.3 434 65.2C433.9 64.5 433.9 63.8 434 63.1C434.1 61.1 433.8 59.3 431.7 58.5C431.8 57.5 431.8 56.6 431.8 55.7C431.8 55.2 431.5 54.7 430.9 54.9C430.6 55 430.4 55.5 430.3 55.8C430.3 56.5 430.4 57.3 430.4 58.1C429.5 58.3 428.7 58.5 427.8 58.6C427 58.8 426.1 58.9 425.2 59.1V59L423.1 58.9V59C422.1 58.9 421.1 58.8 420 58.7V49C421.3 49 422.5 49 423.7 49C425.1 49 426.4 49 427.8 49C428.6 49 429.4 49.1 430.2 49.1C431.6 49.2 432.6 48.4 432.6 47C432.6 45.9 432.6 44.8 432.5 43.7C432.5 43.4 432.2 42.9 431.9 42.8C431.3 42.6 431.1 43.1 431.1 43.6C431.1 43.9 431 44.2 431 44.4C427.3 44.8 423.7 44.9 420 44.5V33.9C422.3 34 424.4 34.1 426.6 34.3C428.1 36.6 430.1 38 433.2 37.7C433.1 38 432.9 38.3 432.9 38.5C432.7 39.3 432.9 39.6 433.6 39.7C433.9 39.7 434.2 39.8 434.5 39.7C436.2 38.9 438 38.2 439.6 37.3C440.2 36.8 440.4 35.7 440 34.7ZM396 30.3H369.3C369.3 29.9 369.2 29.6 369.3 29.4C370 27.5 370.1 25.5 369.7 23.5C369.7 23.2 369.7 22.8 369.8 22.7C370.6 22 370.2 21.3 369.9 20.4H396.8C396.7 22.1 396.4 23.7 396.4 25.4C396.5 27.1 396.6 28.8 396 30.3ZM428.1 100.7C427.9 101.6 428 102.5 427.9 103.5C425 103.7 422.1 103.9 419.1 104.1C418.9 100.6 418.3 97.3 418.8 93.8C421.5 93.7 424.1 93.5 426.7 93.4C427 93.4 427.3 93.6 427.6 93.7C428.4 94 429.3 94.3 430.4 94.7C430.2 95.2 430.1 95.9 429.8 96.4C428.9 97.6 428.4 99.1 428.1 100.7ZM427.9 87.6C428.2 88 428.4 88.4 428.8 89.1C425.4 89.3 422.2 89.5 418.8 89.6C419 85.9 418.5 82.3 419.3 78.4C419.9 78.4 420.5 78.4 421 78.4C422 78.5 423.1 78.7 424.1 78.6C426 78.3 427.2 79.4 428.5 80.5C429.3 81.2 429.4 82.3 428.7 83.3C428.4 83.8 428 84.2 427.7 84.7C427.1 85.7 427.1 86.7 427.9 87.6ZM433 97.1C433.1 98.7 433.3 100.1 433.4 101.6C433.4 102.3 433.3 103 433 103.6C432.7 104.4 432.2 105 431.7 105.8C431.1 105.1 430.5 104.5 430.2 103.8C429.8 103.1 429.4 102.3 429.5 101.6C429.6 100.2 429.9 98.9 430.8 97.8C431.5 96.9 431.9 96.5 433 97.1ZM433.8 86.1C434 88.1 433.3 89.8 432 91.4C430.9 89.6 429.9 87.8 428.8 86.1C429.1 85.6 429.3 85 429.7 84.6C430.6 83.8 431 82.8 431 81.6C431 81.3 431.2 80.9 431.4 80.5C432.1 80.8 432.6 81.1 433.2 81.3C433.4 82.9 433.7 84.5 433.8 86.1ZM430.5 65.2C430.4 64.8 430.5 64.4 430.5 64C430.5 63.9 430.6 63.8 430.7 63.6C431.1 63.6 431.5 63.5 432.2 63.5C432.2 64.3 432.2 64.9 432.2 65.6C432.3 66.8 432.3 68 432.7 69.1C433.2 70.7 433.1 72.1 432.3 73.7C430.9 71.8 429.6 70.1 428.3 68.2C430.1 68 430.7 66.9 430.5 65.2ZM428.8 63.3V66.6C428 66.7 427.3 66.7 426.7 66.8C426.3 66.9 425.6 67.1 425.6 67.3C425.6 67.7 425.8 68.2 426 68.7C426.2 69 426.6 69.1 426.8 69.4C427.4 70 428 70.7 428.4 71.4C429.3 73.1 428.8 74.2 426.9 74.5C424.5 74.9 422 74.7 419.4 74.2C419.6 70.6 419.7 67.1 419.9 63.5H428.8V63.3ZM425.2 29.3C424.4 30 421.2 29.8 420.5 29C420.3 28.8 420.2 28.5 420.2 28.2C420.2 26.7 419.4 25.6 418.6 24.5C418.3 24 418 23.5 417.7 23C417.3 22.1 417.2 21.1 417.9 19.9C418.3 20.4 418.6 20.7 418.8 21.1C419.2 22 419.5 22.9 419.9 23.8C420.1 24.3 420.4 24.9 420.7 25.3C420.9 25.5 421.5 25.7 421.8 25.6C422.1 25.5 422.3 25 422.4 24.7C422.5 23.9 422.4 23 422.4 21.9C424.6 23.5 425 24.1 425.6 26.1C425.7 26.5 425.7 26.9 425.9 27.2C426.3 28.2 425.8 28.8 425.2 29.3ZM429.4 24.4V26.4C428.9 26.4 428.6 26.4 427.9 26.3C428.5 25.6 428.8 25.2 429.4 24.4ZM427.5 30.1C427.4 30 427.2 29.9 427.1 29.8C427.5 29.2 427.5 28.2 428.9 28.3C428.3 29 427.9 29.6 427.5 30.1ZM434.1 35.9C433.3 35.9 432.5 35.8 431.7 35.9C430.3 36.1 429.4 35.4 428.4 34.3C428.7 34.2 428.9 34.1 429 34.1C430.1 34.3 431 34.2 431.9 33.3C432.1 33.1 432.5 33.1 432.8 33.2C434.2 33.6 434.5 34.4 434.1 35.9ZM436 37.3C436 36.3 436 35.6 436 34.9C436 33.4 435.3 32.5 433.9 32C433.5 31.9 433.1 31.8 432.8 31.6C431.9 31.2 431.5 29.7 432 28.8C432.4 28 433.4 27.8 434.4 28.4C435 28.8 435.6 29.4 436 30.1C436.8 31.4 437.4 32.7 438 34.1C438.3 34.7 438.5 35.3 438.8 36C437.8 36.4 437 36.8 436 37.3Z" fill="#C99FAF"/>
</g>
<defs>
<clipPath id="clip0_5868_168">
<rect width="586" height="162" fill="white"/>
</clipPath>
</defs>
</svg>
