<svg width="108" height="151" viewBox="0 0 108 151" fill="none" xmlns="http://www.w3.org/2000/svg">
<g clip-path="url(#clip0_5398_8994)">
<path d="M41.78 123.31C41.35 123.71 40.99 123.84 40.69 123.16C40.4 122.49 40.07 122.68 39.61 123.08C39.03 123.58 38.37 124.19 37.67 124.33C36.57 124.54 35.81 125.02 35.06 125.82C34.17 126.77 33.13 127.7 31.58 126.86C31.47 127.53 31.38 128.14 31.27 128.75C31.21 129.08 31.09 129.41 31 129.74C30.7 129.6 30.17 129.51 30.14 129.33C29.94 128.21 29.66 127.05 29.81 125.96C29.9 125.33 29.81 124.99 29.42 124.67C27.82 123.33 26.18 122.02 24.59 120.67C24.34 120.46 24.25 120.07 24.09 119.76C24.49 119.74 24.91 119.64 25.27 119.73C25.54 119.8 25.75 120.13 25.98 120.34C27.73 121.93 29.46 123.53 31.23 125.09C31.59 125.41 32.1 125.57 32.66 125.87C32.63 124.41 32.61 123.15 32.59 122.2C32.13 121.63 31.85 121.29 31.57 120.94C31.17 120.45 30.84 119.87 30.35 119.5C29.76 119.05 28.94 118.89 28.39 118.41C27.79 117.89 27.41 117.98 26.85 118.39C25.92 119.08 24.91 119.42 23.88 118.83C23.58 118.12 23.3 117.33 22.75 116.95C20.1 115.13 17.39 113.42 14.69 111.68C13.77 111.09 13.1 110.34 13.08 109.18C13.04 107.29 11.91 106.26 10.33 105.53C9.91002 105.34 9.47002 105.12 9.12002 104.82C7.51002 103.48 5.94002 102.08 4.33002 100.75C4.04002 100.51 3.61002 100.46 3.25002 100.3C2.94002 100.16 2.52002 100.07 2.38002 99.82C2.24002 99.58 2.32002 98.9 2.42002 98.88C2.79002 98.78 3.33002 98.72 3.60002 98.92C5.36002 100.18 7.08002 101.51 8.80002 102.84C10.1 103.84 11.37 104.88 12.88 106.08C13.01 103.81 13.11 101.96 13.19 100.47C12.67 99.86 12.2 99.5 12.01 99.04C11.72 98.34 11.37 97.97 10.55 97.89C10.06 97.84 9.60002 97.4 9.15002 97.1C8.48002 96.65 7.87002 96.11 7.17002 95.72C6.48002 95.33 5.63002 95.19 5.01002 94.74C4.23002 94.18 3.07002 93.81 3.84002 92.26C4.24002 91.46 3.96002 90.28 3.87002 89.29C3.82002 88.77 3.54002 88.27 3.29002 87.79C3.10002 87.42 2.84002 87.04 2.53002 86.77C2.27002 86.55 1.84002 86.53 1.57002 86.31C1.37002 86.14 1.30002 85.81 1.17002 85.55C1.43002 85.43 1.71002 85.2 1.96002 85.22C2.45002 85.26 2.93002 85.44 3.61002 85.62C3.48002 84.96 3.45002 84.48 3.29002 84.06C2.74002 82.66 2.86002 81.29 3.20002 79.84C3.41002 78.92 3.16002 77.9 3.10002 76.92C3.03002 75.51 2.91002 74.1 2.88002 72.69C2.85002 71.34 2.94002 69.99 2.92002 68.64C2.89002 66.54 2.82002 64.44 2.75002 62.34C2.72002 61.55 2.81002 60.71 2.56002 59.98C1.88002 57.98 1.91002 56.02 2.33002 53.97C2.53002 52.98 2.26002 51.89 2.16002 50.84C2.03002 49.43 1.85002 48.03 1.73002 46.63C1.64002 45.57 1.60002 44.5 1.53002 43.43C1.44002 41.93 1.33002 40.44 1.27002 38.94C1.24002 38.23 1.35002 37.51 1.34002 36.79C1.30002 33.45 1.26002 30.1 1.19002 26.76C1.18002 26.18 1.09002 25.56 0.840018 25.05C0.160018 23.66 0.340017 23.37 1.85002 23.12C2.87002 22.95 3.86002 22.51 4.85002 22.17C6.20002 21.71 7.54002 21.23 8.88002 20.77C9.88002 20.43 10.89 20.1 11.9 19.78C12.87 19.47 13.85 18.9 14.81 18.93C16.69 19 18.17 18.27 19.72 17.39C20.71 16.83 21.94 16.67 23.07 16.39C24.4 16.06 25.77 15.84 27.09 15.47C28.2 15.16 29.23 14.54 30.35 14.34C32.58 13.95 34.49 12.98 36.26 11.63C36.63 11.35 37.07 11.13 37.51 10.98C39.38 10.34 41.26 9.72997 43.15 9.13997C43.94 8.88997 44.76 8.73997 45.56 8.48997C46.68 8.13997 47.89 7.90997 48.88 7.31997C50.06 6.60997 51.3 6.40997 52.58 6.12997C53.87 5.84997 55.15 5.35997 56.32 4.75997C57.54 4.12997 58.7 3.58997 60.13 3.52997C61.16 3.47997 62.18 3.01997 63.2 2.72997C63.54 2.62997 63.87 2.47997 64.21 2.37997C65.52 2.01997 66.82 1.63997 68.14 1.31997C68.67 1.18997 69.27 1.02997 69.77 1.15997C70.96 1.46997 72.1 1.94997 73.26 2.34997C74.37 2.73997 75.49 3.10997 76.58 3.52997C77.24 3.78997 77.87 4.13997 78.52 4.44997C80.5 5.39997 82.49 6.31997 84.45 7.30997C85.71 7.94997 86.9 8.67997 88.42 8.31997C88.92 8.19997 89.51 8.36997 90.04 8.47997C90.23 8.51997 90.48 8.73997 90.52 8.90997C90.55 9.04997 90.31 9.38997 90.17 9.39997C88.69 9.55997 88.67 10.62 88.61 11.74C88.55 12.96 88.49 14.2 88.24 15.4C87.73 17.78 87.25 20.15 87.45 22.62C87.52 23.51 87.43 24.51 87.08 25.31C86.12 27.47 85.99 29.65 86.25 31.97C86.43 33.56 86.35 35.23 86.06 36.8C85.58 39.47 84.62 42.16 85.34 44.83C85.98 47.21 85.44 49.34 84.86 51.51C84.4 53.25 84.09 54.96 84.56 56.69C85.03 58.41 84.49 59.97 84.19 61.61C84 62.61 84.24 63.7 84.3 64.74C84.34 65.44 84.54 66.14 84.46 66.82C84.24 68.6 83.79 70.34 84.41 72.14C84.58 72.64 84.62 73.29 84.45 73.79C83.89 75.47 83.79 77.12 84.17 78.85C84.32 79.54 84.25 80.28 83.29 80.73C83.23 80.27 83.15 79.91 83.14 79.54C83.12 78.92 83.13 78.29 83.13 77.66C83.13 77.04 83.09 76.41 83.14 75.79C83.25 74.61 83.67 73.4 83.49 72.28C83.22 70.63 83.2 69.05 83.54 67.42C83.67 66.82 83.75 66.09 83.53 65.56C82.95 64.14 83.1 62.77 83.37 61.33C83.6 60.13 84.01 58.83 83.76 57.7C83.24 55.33 83.58 53.13 84.18 50.87C84.53 49.54 85.05 48.07 84.8 46.8C84.3 44.27 84.21 41.81 84.78 39.33C85.43 36.52 86.02 33.76 85.28 30.84C84.85 29.14 85.42 27.47 85.94 25.81C86.34 24.51 86.46 23.11 86.62 21.74C86.82 20.05 86.84 18.34 87.13 16.67C87.47 14.76 88.02 12.9 87.48 10.97C82.58 12.51 77.78 14.03 72.75 15.61C74.04 16.55 75.05 17.24 76.24 15.78C76.33 16.15 76.43 16.33 76.41 16.5C76.23 17.91 76.05 19.31 75.83 20.71C75.39 23.49 76.07 26.36 75.06 29.11C74.8 29.81 75.04 30.69 75.03 31.49C75.02 32.44 75 33.39 74.97 34.34C74.9 36.64 74.8 38.94 74.75 41.25C74.74 41.76 74.94 42.29 74.89 42.79C74.53 46.35 74.12 49.91 73.73 53.48C73.67 54.07 73.55 54.69 73.64 55.27C74.05 57.75 74.07 60.22 73.94 62.73C73.79 65.74 73.83 68.74 73.05 71.69C72.9 72.24 73.02 72.87 73.03 73.46C73.04 74.07 73.16 74.69 73.09 75.29C72.96 76.45 72.86 77.5 74.31 77.96C75.33 78.28 75.63 79.16 75.63 80.14C75.64 80.77 75.59 81.4 75.57 82.08C76.56 82.33 77.5 82.72 78.46 82.76C79.96 82.83 81 83.47 81.55 84.79C82.09 86.07 82.46 87.42 82.89 88.74C83.13 89.49 83.13 90.11 82.49 90.8C81.81 91.53 81.42 92.53 80.78 93.62C81.9 94.14 82.94 94.7 84.04 95.09C84.84 95.38 85.54 96.31 84.98 96.87C84.28 97.57 83.15 98.41 82.34 98.29C81.2 98.12 80.58 98.43 79.86 99.11C79.47 99.48 77.67 101.05 77.49 100.73C76.46 101.21 75.37 101.54 74.51 102.18C73.76 102.74 73.49 102.59 73.21 101.86C73.69 101.11 74.41 100.87 75.25 100.61C76.18 100.31 76.95 99.53 78.02 98.81C78.79 99.19 79.38 98.13 80.23 97.7C80.78 97.42 81.44 97.21 82.04 97.23C82.78 97.25 83.44 97.33 83.92 96.58C82.62 95.87 81.42 95.14 80.14 94.57C79.82 94.43 79.25 94.95 78.82 94.91C76.85 94.72 75.88 96.06 74.8 97.33C74.52 97.65 74.02 97.89 73.59 97.96C72.59 98.11 72.14 97.65 72.51 96.73C72.93 95.68 73.58 94.72 74.14 93.73C74.31 93.43 74.52 93.15 74.71 92.86C74.61 92.76 74.5 92.65 74.4 92.55C73.09 93.47 71.78 94.38 70.48 95.31C70.34 95.41 70.22 95.63 70.2 95.81C69.98 97.47 69.76 99.12 69.63 100.79C69.61 100.99 70.04 101.33 70.32 101.44C70.67 101.58 71.09 101.54 71.47 101.58C72.35 100.26 72.41 100.27 73.24 101.9C72.92 102.47 72.49 102.99 72.29 103.6C71.89 104.85 71.62 106.14 71.3 107.41C71.14 108.03 70.99 108.32 70.16 108.08C69.49 107.88 68.47 107.96 67.95 108.36C66.27 109.68 64.68 111.08 62.51 111.58C62.07 111.68 61.72 112.12 61.24 112.46C62.19 112.98 62.83 113.17 63.45 112.22C63.9 111.52 64.56 111.77 65.06 112.31C65.26 112.53 65.38 112.85 65.61 113.02C66.32 113.55 66.3 113.95 65.47 114.29C65.03 114.47 64.6 114.71 64.14 114.79C63.28 114.95 62.39 114.99 61.86 115.87C61.77 116.01 61.38 115.97 61.13 116.01C61.15 115.73 61.07 115.39 61.2 115.17C61.43 114.78 61.79 114.47 62.11 114.11C61.31 113.78 60.48 113.11 59.8 113.24C58.72 113.44 57.82 114.42 56.57 114.24C56.54 114.24 56.51 114.28 56.47 114.3C55.04 115.27 53.65 116.29 52.17 117.18C51.44 117.62 50.57 117.8 49.77 118.13C49.02 118.44 48.16 118.65 47.58 119.17C45.86 120.68 44 121.84 41.61 122.32C41.63 122.61 41.66 122.95 41.69 123.3L41.78 123.31ZM28.92 85.76C31.74 84.46 34.59 83.24 37.41 81.94C38.27 81.54 39.02 80.92 39.87 80.48C40.64 80.08 41.45 79.75 42.27 79.46C43.57 79 44.93 78.71 46.18 78.16C49.15 76.85 52.06 75.41 55.02 74.07C55.97 73.64 57.01 73.39 58.16 73.01C58.52 79.66 57.77 85.83 57.26 92.08C57.5 91.96 57.92 91.72 58.37 91.54C58.84 91.35 59.34 91.2 59.82 91.04C59.68 89.72 59.55 88.47 59.43 87.22C59.37 86.58 59.56 86.16 60.22 85.8C60.88 85.44 61.24 84.55 61.9 84.19C63.45 83.34 64.04 81.92 64.7 80.42C65.45 78.69 66.43 77.06 67.34 75.41C67.55 75.04 67.86 74.7 68.18 74.41C69.2 73.51 70.34 73.9 70.47 75.26C70.56 76.2 70.96 76.63 72.16 76.71C72.14 75.59 72.06 74.49 72.11 73.39C72.15 72.49 72.35 71.61 72.46 70.71C72.56 69.94 72.67 69.17 72.74 68.4C72.78 68.01 72.7 67.6 72.73 67.2C72.93 64.68 73.19 62.16 73.34 59.64C73.38 58.9 73.1 58.15 73.04 57.4C72.87 55.33 72.94 53.32 73.38 51.24C73.89 48.85 73.86 46.33 73.97 43.86C74.03 42.43 73.85 40.99 73.86 39.56C73.88 38.21 74.03 36.86 74.09 35.51C74.14 34.28 74.14 33.05 74.17 31.81C74.19 30.86 73.98 29.82 74.28 28.96C75.35 25.93 74.59 22.77 75.14 19.72C75.31 18.79 74.7 18.61 74.07 18.95C72.76 19.67 71.41 19.89 69.93 19.85C69.36 19.83 68.73 20.23 68.21 20.57C66.87 21.44 65.49 22.02 63.83 21.87C63.34 21.83 62.72 22.07 62.33 22.4C60.86 23.62 59.29 24.52 57.39 24.92C56.54 25.1 55.77 25.69 54.75 26.2C56.22 27.17 57.56 28.05 58.9 28.93C58.91 28.83 58.92 28.73 58.93 28.63C59.36 28.55 59.84 28.31 60.2 28.43C60.95 28.68 60.64 29.23 60.47 29.81C58.89 35.01 57.96 40.28 58.78 45.74C58.93 46.74 58.72 47.79 58.76 48.82C58.81 50.19 59.01 51.56 59.02 52.93C59.03 53.73 58.76 54.53 58.71 55.34C58.65 56.22 58.37 57.33 58.78 57.94C59.57 59.12 59.23 60.06 58.71 61.04C58.19 62.03 57.98 62.96 58.6 63.97C58.7 64.13 58.7 64.36 58.7 64.55C58.63 66.61 58.56 68.67 58.47 70.73C58.46 70.86 58.32 70.99 58.18 71.21C57.99 71.05 57.75 70.94 57.74 70.82C57.67 69.24 57.64 67.65 57.57 66.07C57.54 65.29 57.4 64.52 57.41 63.75C57.42 62.9 57.35 61.96 57.67 61.22C58.15 60.09 58.43 59.11 57.72 57.98C57.2 57.16 57.22 56.25 57.67 55.35C58.2 54.31 58.25 53.27 57.91 52.11C57.67 51.29 57.78 50.37 57.77 49.5C57.75 47.6 57.71 45.69 57.76 43.79C57.82 41.61 57.9 39.43 58.1 37.26C58.31 35.09 58.69 32.94 59 30.7C56.23 30.96 53.98 32.03 51.81 33.4C51.24 33.76 50.47 33.81 49.8 34.02C48.76 34.34 47.71 34.65 46.67 35C45.85 35.28 45.06 35.67 44.24 35.95C42.1 36.67 39.95 37.36 37.79 38.03C37.04 38.26 36.24 38.59 35.48 38.56C33.46 38.47 31.68 39.09 29.89 39.94C28.53 40.59 27.08 41.03 25.83 41.5C25.64 42.11 25.43 42.55 25.36 43.02C25.1 44.62 24.68 46.23 24.72 47.83C24.76 49.43 25.31 51.01 25.55 52.61C25.63 53.18 25.55 53.81 25.38 54.37C24.99 55.64 24.84 56.89 25.45 58.1C26.09 59.38 25.49 60.59 25.39 61.84C25.28 63.1 25.23 64.38 25.24 65.65C25.26 68.86 25.33 72.08 25.36 75.29C25.39 77.79 25.42 80.29 25.37 82.79C25.35 83.89 25 84.98 25.34 86.1C25.46 86.5 25.52 86.93 25.64 87.54C26.9 86.85 27.88 86.24 28.92 85.76ZM3.99002 26.02C6.07002 27.62 8.12002 29.24 10.2 30.84C10.91 31.39 11.66 31.88 12.39 32.4C13.23 32.99 14.06 33.6 14.91 34.18C16.57 35.31 18.25 36.4 19.89 37.55C20.43 37.93 20.87 38.46 21.39 38.86C22.16 39.45 22.95 40.39 23.78 40.44C25.15 40.53 26.61 40.39 27.95 39.74C30.98 38.25 34.27 37.73 37.55 37.14C38.7 36.93 39.75 36.23 40.88 35.86C41.89 35.53 42.98 35.42 43.99 35.07C45.15 34.67 46.24 34.09 47.37 33.62C47.91 33.4 48.5 33.1 49.05 33.12C50.37 33.17 51.38 32.59 52.49 31.98C54.2 31.05 56.03 30.36 57.9 29.53C57.44 29.2 56.88 28.66 56.21 28.33C54.84 27.65 53.36 27.18 52.04 26.41C50.85 25.72 52.24 25.38 52.38 24.69C53.46 25.78 54.43 25.17 55.39 24.74C55.75 24.58 56.05 24.23 56.42 24.15C58.79 23.59 60.89 22.54 62.76 20.98C62.98 20.79 63.38 20.66 63.65 20.72C65.54 21.11 67.03 20.21 68.6 19.39C69.37 18.99 70.31 18.83 71.19 18.77C72.3 18.69 73.31 18.57 74 17.71C72.9 17.07 71.83 16.47 70.8 15.83C70.62 15.72 70.48 15.4 70.48 15.18C70.48 15.05 70.8 14.86 71 14.81C74.81 13.88 78.61 12.93 82.28 11.52C83.89 10.9 85.58 10.51 87.23 10.01C87.2 9.83997 87.21 9.71997 87.17 9.69997C85.61 8.94997 84.05 8.19997 82.49 7.45997C82.28 7.35997 82.03 7.33997 81.81 7.23997C80.17 6.47997 78.55 5.64997 76.88 4.94997C75.35 4.30997 73.76 3.81997 72.2 3.26997C71.49 3.01997 70.78 2.75997 70.07 2.52997C69 2.15997 68.04 2.62997 67 2.88997C64.3 3.54997 61.55 4.01997 58.84 4.63997C58.12 4.79997 57.43 5.17997 56.79 5.56997C55.42 6.41997 54.03 7.02997 52.37 7.19997C51.19 7.31997 50.07 7.95997 48.93 8.39997C48.19 8.68997 47.49 9.26997 46.75 9.30997C44.61 9.42997 42.77 10.36 40.87 11.16C40.26 11.42 39.55 11.44 38.91 11.67C37.88 12.04 36.85 12.43 35.86 12.9C34.51 13.54 33.24 14.36 31.86 14.91C30.02 15.65 28.12 16.25 26.23 16.84C25.33 17.12 24.37 17.45 23.45 17.41C21.85 17.34 20.46 17.73 19.21 18.67C17.88 19.66 16.41 20.07 14.74 19.99C14.02 19.95 13.27 20.25 12.57 20.47C11.07 20.95 9.58002 21.47 8.09002 22C7.09002 22.35 6.08002 22.7 5.10002 23.11C4.11002 23.53 3.15002 24.04 2.02002 24.58C2.64002 25.03 3.33002 25.5 3.99002 26.02ZM24.48 85.51C23.4 84 24.91 82.59 24.62 81.05C24.32 79.51 24.43 77.89 24.44 76.31C24.45 72.98 24.47 69.65 24.55 66.32C24.6 64.31 24.8 62.31 24.9 60.3C24.92 59.8 24.92 59.26 24.75 58.8C24.24 57.4 24.21 56.03 24.55 54.57C24.73 53.79 24.73 52.9 24.54 52.12C23.99 49.8 23.76 47.49 24.03 45.12C24.13 44.21 24.13 43.3 24.17 42.47C23.05 41.47 21.97 40.5 20.88 39.56C20.37 39.12 19.84 38.72 19.29 38.33C19 38.12 18.64 38.02 18.36 37.81C16.07 35.99 13.69 34.33 11.13 32.87C9.41002 31.88 8.05002 30.28 6.47002 29.02C5.15002 27.97 3.74002 27.01 2.38002 26.02C2.23002 26.08 2.08002 26.13 1.93002 26.19C1.96002 27.48 2.00002 28.76 2.00002 30.05C2.02002 33.16 2.03002 36.26 2.03002 39.37C2.03002 39.93 1.91002 40.49 1.95002 41.04C2.12002 43.62 2.33002 46.19 2.52002 48.77C2.54002 49.01 2.52002 49.28 2.62002 49.48C3.73002 51.53 3.34002 53.63 2.93002 55.77C2.78002 56.56 2.78002 57.48 3.03002 58.23C3.67002 60.19 3.55002 62.16 3.43002 64.16C3.37002 65.23 3.46002 66.31 3.51002 67.38C3.58002 69 3.93002 70.66 3.68002 72.22C3.36002 74.24 3.74002 76.08 4.20002 77.97C4.24002 78.12 4.34002 78.3 4.30002 78.43C3.65002 80.75 3.72002 83.06 4.40002 85.35C4.54002 85.83 4.78002 86.29 4.99002 86.75C5.21002 87.25 5.45002 87.75 5.69002 88.25C5.56002 88.32 5.44002 88.39 5.31002 88.46C5.03002 88.28 4.75002 88.1 4.34002 87.82C4.39002 88.14 4.36002 88.42 4.45002 88.46C5.35002 88.93 5.28002 89.8 5.00002 90.45C4.56002 91.47 4.83002 92.44 5.25002 93.18C5.62002 93.84 6.55002 94.27 7.32002 94.59C8.36002 95.02 9.39002 95.34 9.93002 96.47C10.05 96.72 10.54 96.78 10.86 96.93C11.51 97.23 12.15 97.53 12.96 97.91C12.87 96.72 12.76 95.3 12.67 93.89C12.62 93.06 12.58 92.22 12.62 91.38C12.73 89.17 12.92 86.96 13.02 84.74C13.05 84.03 12.75 83.31 12.8 82.61C12.87 81.57 13.05 80.52 13.32 79.51C13.51 78.81 14.08 78.76 14.64 79.19C16.85 80.9 19.37 82.02 21.87 83.23C22.84 83.7 23.49 84.84 24.35 85.75C24.37 85.76 24.52 85.56 24.48 85.51ZM34.61 103.87C35.87 102.01 37.09 100.11 38.5 98.36C38.97 97.77 40.01 97.67 40.67 97.18C41.58 96.51 42.51 95.78 43.18 94.89C43.93 93.91 43.21 92.84 41.75 92.73C41.76 93.12 41.74 93.51 41.78 93.88C41.85 94.56 41.86 95.39 40.96 95.18C40.34 95.03 39.4 94.29 39.38 93.79C39.3 90.79 39.44 87.78 39.51 84.78C39.53 83.9 38.99 83.44 38.28 83.75C35.85 84.82 33.39 85.84 30.99 86.99C29.24 87.83 27.56 88.83 25.86 89.77C25.67 89.88 25.43 90.1 25.42 90.28C25.36 91.41 25.36 92.55 25.33 93.68C25.28 95.78 25.19 97.89 25.16 99.99C25.11 104.5 25.07 109 25.06 113.51C25.06 114.73 26.53 115.73 27.73 115.41C29.01 115.06 29.64 115.16 30.73 115.85C32.55 113.91 32.78 113.86 35.37 114.75C36.05 113.93 36.72 113.13 37.46 112.24C37.45 112.23 37.22 112.09 37.06 111.9C36.42 111.11 36.73 110.25 37.71 109.98C38.56 109.75 39.05 109.33 39.02 108.3C38.98 107.1 39.17 105.9 39.27 104.59C38.71 104.26 37.97 103.74 37.17 103.39C36.9 103.27 36.4 103.48 36.09 103.67C35.67 103.93 35.32 104.32 34.74 104.85C34.67 104.39 34.5 104.03 34.61 103.87ZM14.81 83C14.7 86.18 14.58 89.35 14.49 92.53C14.48 93.07 14.62 93.62 14.7 94.16C14.72 94.28 14.84 94.39 14.82 94.49C14.37 96.95 15.56 99.35 15.01 101.86C14.75 103.05 15.11 104.38 15.17 105.64C15.2 106.38 15.22 107.12 15.18 107.86C15.13 108.6 15.09 109.29 15.91 109.66C18.92 111 21.54 112.88 23.9 115.66C24.04 114.94 24.2 114.51 24.2 114.09C24.23 108.47 24.21 102.84 24.26 97.22C24.28 95.17 24.42 93.12 24.49 91.07C24.55 89.29 23.92 87.99 22.3 86.96C19.82 85.38 17.52 83.52 14.89 81.59C14.85 82.3 14.82 82.65 14.81 83ZM65.61 89.55C66.97 88.72 67.08 88.81 67.67 90.18C67.88 90.66 68.48 90.96 69.1 91.52C68.8 91.62 68.41 91.9 68.03 91.87C66.89 91.78 66.82 90.81 66.62 89.68C65.35 90.5 64.18 91.25 62.88 92.09C64.5 92.74 65.9 93.45 67.39 93.82C67.82 93.93 68.74 93.2 69.01 92.65C69.49 91.63 69.79 91.51 70.57 92.36C71.23 93.09 72.57 93.01 73.55 92.32C74.03 91.98 74.49 91.63 74.95 91.29C76.45 92.88 76.44 92.96 74.97 94.31C74.21 95.01 73.55 95.79 73.89 97.14C74.63 96.35 75.32 95.52 76.12 94.8C76.55 94.42 77.19 94 77.68 94.05C78.7 94.15 78.59 92.11 79.86 93.02C80.43 92.33 81.08 91.69 81.56 90.95C82.09 90.13 82.31 89.21 81.9 88.22C81.46 87.18 81.16 86.07 80.62 85.09C80.34 84.59 79.73 84.09 79.19 83.95C77.95 83.64 76.65 83.43 75.38 83.42C74.5 83.41 74.44 83.08 74.54 82.43C74.6 82.08 74.7 81.73 74.74 81.37C74.96 79.58 74.74 79.26 72.94 78.66C72.8 79.78 72.68 80.9 72.5 82.01C72.46 82.25 72.19 82.46 72.02 82.68C71.87 82.41 71.58 82.14 71.58 81.87C71.59 80.82 71.66 79.77 71.78 78.72C71.9 77.67 71.27 77.39 70.44 77.36C69.69 77.33 69.47 77.06 69.64 76.3C69.72 75.94 69.49 75.52 69.39 75.12C69 75.33 68.56 75.48 68.24 75.76C67.96 76.01 67.68 76.41 67.64 76.77C67.4 78.88 65.61 80.21 65 82.08C64.6 83.31 63.85 83.88 62.9 84.63C60.32 86.69 59.46 87.51 61.18 90.79C61.35 91.12 61.42 91.51 61.58 92.04C62.99 91.19 64.29 90.35 65.61 89.55ZM44.98 88.88C44.55 88.91 44.05 89.39 43.76 89.79C43.37 90.33 43.16 90.99 42.87 91.61C45.02 94.26 43.82 97.33 40.05 98.53C38.22 99.11 37.42 100.52 36.67 102.04C37.83 102.64 38.9 103.2 39.96 103.74C40.2 103.86 40.61 104.12 40.68 104.06C41.56 103.14 42.45 103.92 43.33 103.98C43.95 104.03 44.63 104.07 44.77 103.14C44.8 102.93 45.21 102.69 45.48 102.63C46.8 102.34 48.12 101.98 49.45 101.89C50.99 101.79 52.55 101.95 54.15 102.01C54.28 101.13 54.94 101.22 55.64 101.43C56.62 101.73 57.6 102.06 58.49 102.35C59.98 99.85 58.45 98.24 56.89 96.92C55.37 95.63 55.18 94.28 55.7 92.58C55.78 92.32 55.84 92.06 55.84 92.04C54.68 91.1 53.66 90.27 52.62 89.45C52.48 89.34 52.23 89.19 52.11 89.24C50.68 89.82 49.96 88.9 49.26 87.93C49.14 87.77 49.03 87.6 48.85 87.34C47.76 88.65 46.4 88.78 44.98 88.88ZM55.77 75.82C54.71 76.33 53.78 76.77 52.86 77.23C51.77 77.77 50.69 78.34 49.6 78.88C48.75 79.31 47.91 79.78 47.03 80.14C45.9 80.6 44.75 81.05 43.57 81.34C42.78 81.53 42.56 81.82 42.26 82.63C41.31 85.15 42.14 87.76 41.6 90.27C41.57 90.42 41.62 90.59 41.66 90.74C41.69 90.85 41.76 90.94 41.92 91.24C42.46 90.39 43.02 89.68 43.37 88.88C43.74 88.05 44.3 87.81 45.14 87.78C45.88 87.75 46.61 87.56 47.33 87.38C47.57 87.32 47.82 87.09 47.95 86.86C48.56 85.82 48.95 85.76 49.69 86.67C50.02 87.07 50.25 87.58 50.65 87.88C50.97 88.11 51.59 88.3 51.87 88.14C52.57 87.73 52.89 87.92 53.33 88.52C53.85 89.23 54.53 89.81 55.14 90.45C55.29 90.38 55.44 90.31 55.59 90.23C55.55 85.54 56.85 80.9 55.77 75.82ZM52.07 109.34C52.47 109.48 52.75 109.92 53.2 110.33C54.7 109.69 56.34 109.05 57.93 108.3C58.6 107.98 58.84 108.18 58.88 108.79C58.93 109.46 58.92 110.14 58.88 110.82C58.81 111.93 59.02 112.1 60.06 111.81C62.33 111.16 63.41 109.59 63.57 107.28C61.62 107.16 63.11 105.27 62.07 104.49C61.24 105.29 61.1 106.38 60.9 107.43C60.85 107.7 60.96 108.02 60.85 108.25C60.75 108.46 60.48 108.62 60.25 108.7C60.18 108.72 59.92 108.41 59.87 108.21C59.41 106.47 59.43 104.8 60.36 103.16C61.09 101.87 60.58 100.45 60.61 99.09C60.48 99.07 60.34 99.05 60.21 99.03C60.12 99.45 60.02 99.87 59.94 100.29C59.79 101.07 59.73 101.87 59.5 102.63C59.19 103.68 58.77 103.75 57.8 103.18C57.54 103.03 57.08 103.08 56.76 103.19C56.33 103.33 55.94 103.62 55.27 103.99C55.13 104.58 54.89 105.43 53.56 104.75C53.25 104.59 52.57 105.11 52.09 105.36C51.53 105.65 51 105.98 50.25 106.42C50.35 107.55 50.55 108.78 52.07 109.34ZM59.37 97.27C59.73 97.43 60.12 97.54 60.48 97.72C61.77 98.36 62.84 97.91 63.36 96.57C63.51 96.2 63.93 95.93 64.23 95.62C64.3 96.03 64.39 96.43 64.43 96.84C64.46 97.18 64.39 97.53 64.43 97.87C64.64 99.54 65.09 101.23 65.01 102.89C64.96 104.02 64.17 105.12 63.71 106.23C63.81 106.28 63.9 106.33 64 106.38C64.14 106.15 64.28 105.92 64.41 105.68C64.87 104.87 65.41 104.2 66.45 104.05C66.99 103.97 67.54 103.74 67.99 103.45C68.3 103.25 68.66 102.78 68.61 102.5C68.56 102.2 68.09 101.91 67.74 101.74C67.25 101.49 66.69 101.38 66.2 101.13C66 101.03 65.91 100.72 65.77 100.5C66.01 100.35 66.29 100.05 66.5 100.09C67.23 100.22 67.94 100.47 69 100.78C69.15 98.47 69.29 96.24 69.45 93.78C68.97 94.17 68.68 94.54 68.31 94.67C67.87 94.82 67.2 94.96 66.91 94.74C66.14 94.15 65.5 94.25 64.72 94.65C63.92 95.06 63.26 95.08 63.16 93.87C63.1 93.19 61.97 92.85 61.24 93.18C59.77 93.83 58.3 94.44 56.73 95.11C57.34 95.92 58.21 96.75 59.37 97.27ZM46.14 117.99C46.45 116.8 46.61 115.58 46.88 114.38C46.96 114.02 47.19 113.69 47.4 113.25C45.75 112.4 44.13 111.36 42.37 110.76C41.64 110.51 40.58 111.21 39.69 111.52C39.36 111.63 39.07 111.86 38.69 112.09C40.34 113.24 39.92 114.97 40.25 116.81C40.66 116.47 41.05 116.11 41.47 115.8C41.64 115.67 41.94 115.5 42.06 115.57C42.6 115.85 43.1 116.22 43.61 116.55C43.44 116.79 43.25 117.03 43.1 117.28C42.91 117.58 42.68 117.88 42.6 118.22C42.39 119.14 42.26 120.07 42.08 121.08C44.11 121.04 45.63 119.94 46.14 117.99ZM50.35 113.04C50.29 113.41 50.23 113.81 50.17 114.22C48.22 113.94 48.04 114 47.54 117.45C48.48 117.23 49.44 117.05 50.37 116.78C50.94 116.62 51.52 116.41 52 116.09C53.5 115.1 54.84 113.79 56.45 113.08C57.92 112.43 57.87 111.43 58.03 110.06C55.01 110.18 53 112.38 50.35 113.04ZM34.53 124.71C35.28 123.98 36.11 123.49 37.2 123.31C37.86 123.2 38.44 122.56 39.06 122.16C39.84 121.65 40.69 121.22 41.08 120.28C41.14 120.14 41.36 120.04 41.36 119.92C41.4 119.23 41.39 118.53 41.4 117.83C40.82 117.99 40.23 118.15 39.66 118.32C38.84 118.57 38 118.8 37.2 119.13C36.52 119.41 35.83 119.74 35.27 120.2C33.44 121.72 33.19 122.66 33.78 125.29C34.07 125.07 34.32 124.91 34.53 124.71ZM48.19 112.25C48.39 112.34 48.97 112.05 49.06 111.81C49.63 110.42 48.82 108.52 47.45 107.91C46.33 107.41 45.46 108.04 44.59 108.59C44.17 108.86 43.82 109.24 43.12 109.85C45 110.76 46.58 111.55 48.19 112.25ZM65.99 108.63C67.1 107.95 67.86 106.75 69.46 106.81C69.91 106.83 70.51 105.81 70.86 105.16C71.15 104.63 71.16 103.96 71.38 103C70.61 103.31 70.07 103.48 69.59 103.74C68.68 104.22 67.85 104.93 66.89 105.21C65.83 105.52 65.29 106.1 64.99 107.08C64.81 107.68 64.54 108.26 64.31 108.85C64.38 108.98 64.45 109.11 64.51 109.24C65 109.05 65.54 108.91 65.99 108.63ZM34.8 119.01C35.41 118.52 35.6 117.06 35.14 116.33C34.57 115.41 33.58 115.04 32.68 115.6C32.29 115.84 31.93 116.49 31.93 116.96C31.93 117.7 31.88 118.22 30.97 118.34C32.17 119.6 33.78 119.83 34.8 119.01ZM38.03 117.66C38.29 117.58 38.65 117.31 38.67 117.1C38.8 115.97 38.84 114.82 38.91 113.63C37.76 113.68 36.82 113.77 36.68 115.06C36.58 115.96 36.48 116.86 36.36 117.93C37.03 117.83 37.55 117.81 38.03 117.66ZM63.45 103.82C63.65 102.35 63.89 101.01 63.99 99.66C64.01 99.34 63.61 98.98 63.4 98.64C63.08 98.84 62.56 98.97 62.47 99.24C62.24 99.93 62.15 100.67 62.1 101.4C62.07 101.93 62.2 102.48 62.27 103.06C62.55 103.23 62.87 103.45 63.45 103.82ZM44.72 105.12C45.32 105.72 45.88 106.21 46.81 105.35C47.35 104.85 48.15 104.65 48.76 104.22C49.1 103.98 49.3 103.56 49.57 103.21C49.49 103.12 49.41 103.03 49.33 102.93C47.74 103.49 45.72 103.02 44.72 105.12ZM42.67 107.42C42.63 107.65 42.66 107.96 42.79 108.13C42.86 108.22 43.25 108.18 43.42 108.08C43.97 107.73 44.49 107.33 45.15 106.86C44.41 106.45 43.81 106.12 43.12 105.73C42.92 106.44 42.76 106.92 42.67 107.42ZM52.67 110.86C51.68 110.45 50.88 110.11 49.92 109.71C49.99 110.32 50.06 110.93 50.17 111.83C51.06 111.48 51.8 111.2 52.67 110.86ZM59.8 92.63C58.84 92.74 57.88 92.85 56.92 92.96C56.94 93.1 56.95 93.25 56.97 93.39C57.91 93.89 58.26 93.83 59.8 92.63ZM30.75 116.25C30.21 116.67 29.76 117.02 29.1 117.53C29.8 117.74 30.25 117.87 30.78 118.03C30.77 117.42 30.76 116.95 30.75 116.25Z" fill="#CBA2B2" stroke="#CBA2B2" stroke-width="0.5" stroke-miterlimit="10"/>
<path d="M81.7899 109.11C82.5399 108.94 83.2299 108.81 83.9199 108.63C84.8199 108.38 85.7799 108.22 86.5999 107.8C88.0799 107.05 89.3999 105.96 90.9299 105.35C92.2299 104.83 93.3199 104.24 94.2599 103.17C94.6799 102.69 95.5199 102.57 96.1699 102.28C96.7299 102.03 97.4399 101.93 97.8299 101.52C98.7599 100.54 99.8299 100.07 101.14 99.83C101.92 99.69 102.61 99.06 103.32 98.6C103.72 98.34 104.06 98 104.43 97.7C104.53 97.76 104.62 97.83 104.72 97.89C104.66 98.25 104.72 98.75 104.51 98.94C103.54 99.8 102.71 100.96 101.24 100.96C99.9699 100.96 99.0099 101.43 98.2899 102.45C98.1499 102.64 97.9499 102.94 97.7799 102.93C95.3399 102.92 94.0999 105.07 92.1799 105.98C91.0399 106.52 89.81 106.91 88.7599 107.58C87.0099 108.7 85.3699 109.93 83.1199 109.9C82.38 109.89 74.1999 116.59 73.9799 117.1C73.8899 117.32 79.0699 116.26 78.7999 116.64C80.3299 116.29 81.3499 115.59 82.1799 114.59C82.9999 113.61 83.9599 112.99 85.2599 112.72C86.3999 112.48 87.4799 111.89 88.5499 111.38C90.1199 110.63 91.6299 109.76 93.2099 109.03C94.7199 108.34 96.4499 108 97.7999 107.09C99.2599 106.1 100.58 104.86 101.99 103.77C103.76 102.4 106.04 102.74 107.57 101.07C107.77 102.34 106.87 103.17 105.47 103.34C104.84 103.42 104.09 103.4 103.64 103.75C102.65 104.53 101.84 105.53 100.4 105.52C100.22 105.52 100.01 105.89 99.8499 106.11C98.6899 107.65 97.2399 108.65 95.3099 109.16C93.3699 109.67 91.4899 110.37 89.7799 111.59C88.3899 112.58 86.6399 113.06 85.0699 113.81C84.2799 114.19 83.52 114.64 82.7899 115.13C81.7199 115.86 80.7599 116.76 79.6499 117.4C78.1499 118.26 76.5699 118.98 74.9899 119.69C73.3799 120.43 71.7899 121.47 70.0999 121.69C67.8499 121.98 66.1499 122.84 64.5699 124.39C63.5799 125.37 62.2999 126.06 61.1099 126.83C60.2499 127.39 59.3399 127.88 58.4399 128.37C57.0899 129.11 55.7899 130.04 54.3499 130.49C52.1799 131.15 50.2799 132.16 48.4399 133.46C47.3999 134.2 46.0799 134.55 44.8599 135.01C43.4199 135.56 41.9399 135.99 40.5099 136.56C39.2999 137.05 38.1799 137.87 36.9399 138.17C35.2299 138.59 33.7999 139.37 32.3699 140.35C29.8199 142.09 27.1499 143.68 24.4799 145.24C22.8499 146.19 21.1199 146.98 19.4099 147.8C19.1499 147.92 18.7699 147.78 18.4499 147.77C18.6099 147.51 18.7199 147.12 18.9499 147C20.2699 146.3 21.6599 145.72 22.9599 144.99C24.0599 144.37 25.1199 143.66 26.1299 142.89C30.2099 136.4 21.6799 140.67 20.8999 141.1C19.6699 141.78 18.5099 142.59 17.2899 143.29C17.0899 143.41 16.7299 143.26 16.4399 143.24C16.5499 143 16.5999 142.65 16.7999 142.53C17.8599 141.85 18.9499 141.2 20.0499 140.59C20.9399 140.1 21.8699 139.67 22.7799 139.21C23.0599 139.07 26.9499 138.41 29.5199 137.13C30.2899 136.67 31.2899 136.07 32.2899 135.47C33.0399 135.02 33.7799 134.57 34.5399 134.15C35.4999 133.62 36.4799 133.13 37.4499 132.61C38.4199 132.1 39.3799 131.59 40.3399 131.06C41.0899 130.65 41.7999 129.92 42.5799 129.85C43.8099 129.74 44.6099 129.15 45.4599 128.39C46.1499 127.77 47.0099 127.33 47.8199 126.85C48.6599 126.35 49.6499 126.04 50.3599 125.41C51.3599 124.52 52.3699 123.9 53.7499 123.95C54.2399 123.97 54.8199 123.86 55.2399 123.62C57.5599 122.26 59.8399 120.81 62.1599 119.45C62.6499 119.16 63.2599 118.93 63.8099 118.94C65.1099 118.95 66.1199 118.49 66.9699 117.54C67.2399 117.23 67.6499 117.03 68.0199 116.82C68.7899 116.4 69.5899 116.02 70.3599 115.59C70.6299 115.44 70.8099 115.08 71.0899 115.01C71.3799 114.94 71.7199 115.11 72.0399 115.17C71.8899 115.44 71.7899 115.77 71.5799 115.97C71.2999 116.23 70.9299 116.39 70.5999 116.59C68.8799 117.64 67.1699 118.71 65.4399 119.74C65.2199 119.87 64.8999 119.89 64.6299 119.9C63.3299 119.97 62.2899 120.5 61.2099 121.28C59.3899 122.59 57.3399 123.58 55.3599 124.67C54.9899 124.87 54.4999 124.99 54.0899 124.94C52.5299 124.75 51.4799 125.57 50.4099 126.54C49.8199 127.08 48.9899 127.35 48.2799 127.76C47.5099 128.2 46.6499 128.56 46.0199 129.16C45.0999 130.03 44.2199 130.75 42.8599 130.88C42.1699 130.95 41.3699 131.34 40.8799 131.83C39.7599 132.96 38.3899 133.49 36.9299 133.93C36.2699 134.13 35.6499 134.51 35.0499 134.88C33.1599 136.02 31.3299 137.26 29.3999 138.33C28.2399 138.97 27.5399 140.26 27.9899 141.87C29.1299 141.25 30.2599 140.7 31.3199 140.04C32.9299 139.05 34.3099 137.72 36.2799 137.28C37.6499 136.97 38.9099 136.21 40.2399 135.71C41.6799 135.16 43.1599 134.69 44.5999 134.14C45.8499 133.67 47.1999 133.32 48.2799 132.59C50.1099 131.35 51.9699 130.31 54.0999 129.65C55.3299 129.27 56.4599 128.56 57.5999 127.93C58.4899 127.43 59.2599 126.66 60.1899 126.29C62.0399 125.54 63.5999 124.45 64.9599 123C66.1499 121.74 67.6099 121.24 69.3599 120.94C72.7899 120.34 72.5199 117.32 72.4799 117.1C72.4099 116.57 81.3699 108.43 81.7899 109.11Z" fill="#CBA2B2" stroke="#CBA2B2" stroke-width="0.5" stroke-miterlimit="10"/>
<path d="M94.7199 87.01C94.1299 87.34 93.8499 87.55 93.5399 87.67C92.0999 88.23 90.6599 88.77 89.2099 89.3C88.6099 89.51 87.9899 89.66 87.3899 89.84C86.0799 90.23 84.7599 90.59 83.4699 91.03C83.2199 91.12 83.0799 91.54 82.8799 91.81C83.1999 92.01 83.4999 92.3 83.8499 92.39C84.1399 92.46 84.7499 92.34 84.7599 92.24C84.8799 91.26 85.6799 91.28 86.3299 91.07C87.8699 90.58 89.4099 90.08 90.9499 89.59C91.8899 89.29 92.8999 89.12 93.7499 88.66C94.4899 88.26 95.1799 87.61 95.6199 86.91C95.7299 86.74 94.8799 85.68 94.2899 85.4C91.5899 84.14 88.8399 83 86.0899 81.86C85.8099 81.74 85.3999 81.94 85.0499 81.99C85.2499 82.31 85.3699 82.81 85.6499 82.93C87.4699 83.72 89.3299 84.39 91.1499 85.18C92.2799 85.68 93.3399 86.3 94.7199 87.01Z" fill="#CBA2B2" stroke="#CBA2B2" stroke-width="0.5" stroke-miterlimit="10"/>
<path d="M41.78 123.31C41.59 124.4 42.18 124.47 42.96 124.17C43.43 123.98 43.86 123.67 44.31 123.41L44.28 123.42C45.6 122.57 46.91 121.72 48.23 120.87C48.17 120.71 48.1 120.55 48.04 120.39C47.43 120.57 46.77 120.66 46.21 120.94C44.7 121.7 43.24 122.53 41.76 123.34C41.75 123.34 41.78 123.31 41.78 123.31Z" fill="#CBA2B2" stroke="#CBA2B2" stroke-width="0.5" stroke-miterlimit="10"/>
<path d="M44.31 123.41C44.25 123.76 44.06 124.37 44.14 124.41C44.63 124.63 45.29 124.98 45.67 124.8C46.97 124.18 48.17 123.36 49.48 122.57C48.44 121.79 47.61 121.88 47 122.69C46.28 123.66 45.45 124.16 44.28 123.43L44.31 123.41Z" fill="#CBA2B2" stroke="#CBA2B2" stroke-width="0.5" stroke-miterlimit="10"/>
<path d="M24.5002 128.81C24.0602 127.88 23.6702 127.07 23.2802 126.26C22.6302 127.97 23.1602 128.92 24.5002 128.81Z" fill="#CBA2B2" stroke="#CBA2B2" stroke-width="0.5" stroke-miterlimit="10"/>
<path d="M83.8302 102.49C84.1302 102.44 84.4902 102.47 84.7302 102.32C85.0202 102.14 85.2702 101.84 85.4302 101.54C85.6102 101.19 85.6602 100.77 85.7702 100.38C85.4602 100.6 85.1202 100.8 84.8402 101.05C84.4402 101.4 84.0802 101.79 83.7002 102.16C83.7402 102.28 83.7902 102.38 83.8302 102.49Z" fill="#CBA2B2" stroke="#CBA2B2" stroke-width="0.5" stroke-miterlimit="10"/>
<path d="M22.3702 134.41C21.9102 134.61 21.4302 134.78 21.0002 135.03C20.8502 135.12 20.8102 135.4 20.7202 135.59C20.9502 135.69 21.2802 135.95 21.3902 135.87C21.8602 135.55 22.2602 135.14 22.6902 134.76C22.5802 134.64 22.4802 134.53 22.3702 134.41Z" fill="#CBA2B2" stroke="#CBA2B2" stroke-width="0.5" stroke-miterlimit="10"/>
<path d="M81.43 99.32C81.14 99.77 80.83 100.22 80.59 100.69C80.54 100.79 80.69 101.12 80.8 101.15C80.99 101.2 81.35 101.14 81.4 101.03C81.59 100.54 81.7 100.01 81.84 99.49C81.7 99.44 81.57 99.38 81.43 99.32Z" fill="#CBA2B2" stroke="#CBA2B2" stroke-width="0.5" stroke-miterlimit="10"/>
<path d="M34.0801 111.54C34.4101 112.08 34.7001 112.53 34.9801 112.98C35.2001 112.62 35.6501 112.21 35.5901 111.9C35.4801 111.35 35.0601 110.86 34.7801 110.34C34.5701 110.7 34.3701 111.05 34.0801 111.54Z" fill="#CBA2B2" stroke="#CBA2B2" stroke-width="0.5" stroke-miterlimit="10"/>
<path d="M28.1299 140.2C28.2199 139.86 28.2799 139.49 28.4699 139.21C29.4099 137.8 29.7099 136.15 29.8299 134.57C29.9399 133.16 30.2899 131.44 28.6899 130.37C28.3599 130.15 28.3399 129.79 28.4499 129.42C28.5699 129.04 28.7599 128.58 28.1999 128.44C27.6599 128.3 27.3699 128.71 27.2599 129.16C27.0699 129.99 26.5999 130.69 26.2799 131.46C25.9499 132.27 25.5099 133.15 25.8299 134.01C26.4999 135.83 26.5099 137.7 26.5299 139.59C26.5399 140.79 26.1299 140.97 26.4299 141.82C26.4299 141.82 26.6399 142.14 26.8899 142.17C27.1399 142.2 26.8799 142.24 27.1399 142.16C27.9999 141.87 27.8499 141.26 28.1299 140.2Z" fill="#F4A079"/>
<path d="M59.9699 126.21C60.2399 125.06 60.1699 123.89 60.2599 122.73C60.3599 121.49 60.3299 120.19 61.4499 119.27C61.8599 118.93 61.7699 118.46 61.5599 117.99C61.0099 116.73 59.8999 115.83 59.4699 114.48C59.3199 114 58.7599 114.06 58.5899 114.57C58.3299 115.33 57.7899 115.87 57.3199 116.47C56.7999 117.13 56.5499 117.88 56.4799 118.68C56.4299 119.3 56.3899 120 57.2699 120.16C57.6099 120.22 57.5799 120.46 57.5799 120.69C57.5899 121.52 57.6599 122.37 57.5599 123.19C57.4499 124 57.4499 124.53 58.4299 124.83C59.0999 125.03 59.0699 125.9 59.0299 126.5C59.0299 126.5 59.0199 126.63 59.1099 126.69C59.1899 126.74 59.4099 126.73 59.5299 126.73C59.6499 126.73 59.9299 126.4 59.9699 126.21Z" fill="#F4A079"/>
<path d="M76.3001 115.8C75.9701 114.21 75.8001 112.59 75.3801 111.03C74.8601 109.12 75.4301 107.45 76.2501 105.81C76.5501 105.21 76.9701 104.66 77.1801 104.01C77.3001 103.65 77.4901 103.28 77.9401 103.27C78.3501 103.26 78.5101 103.62 78.6301 103.93C78.9301 104.71 79.2201 104.97 79.9301 104.21C80.5201 103.57 81.0601 103.82 81.3101 104.66C82.0501 107.22 82.1901 109.76 81.4501 112.36C81.1401 113.44 81.0801 114.59 80.9001 115.7C80.7801 116.44 76.3701 116.68 76.3701 116.68L76.3001 115.8Z" fill="#F4A079"/>
</g>
<defs>
<clipPath id="clip0_5398_8994">
<rect width="108" height="150" fill="white" transform="translate(0 0.5)"/>
</clipPath>
</defs>
</svg>
