<?xml version="1.0" standalone="no"?>
<!DOCTYPE svg PUBLIC "-//W3C//DTD SVG 20010904//EN"
 "http://www.w3.org/TR/2001/REC-SVG-20010904/DTD/svg10.dtd">
<svg version="1.0" xmlns="http://www.w3.org/2000/svg"
 width="311.000000pt" height="311.000000pt" viewBox="0 0 311.000000 311.000000"
 preserveAspectRatio="xMidYMid meet">

<g transform="translate(0.000000,311.000000) scale(0.100000,-0.100000)"
fill="#000000" stroke="none">
<path d="M1522 2998 c-9 -9 -12 -75 -12 -257 l0 -246 -103 -108 -102 -108
-370 1 -370 0 -233 -233 c-127 -127 -232 -240 -232 -249 0 -32 29 -48 86 -48
l54 0 -2 -683 -3 -682 -55 -3 c-30 -2 -60 -8 -67 -14 -18 -14 -18 -239 -1
-256 17 -17 2869 -17 2886 0 17 17 17 239 0 256 -7 7 -38 12 -70 12 l-58 0 0
685 0 685 58 0 c62 0 82 11 82 45 0 14 -77 98 -231 253 l-232 232 -372 0 -372
0 -101 110 -102 110 0 60 0 60 45 0 c24 0 68 -9 97 -21 64 -25 180 -23 222 5
26 16 26 17 26 160 0 173 -1 175 -89 158 -60 -11 -91 -7 -166 22 -22 8 -60 15
-85 16 -37 0 -47 4 -55 23 -11 25 -54 34 -73 15z m221 -159 c26 -11 72 -19
102 -19 l55 0 0 -65 c0 -62 -1 -66 -27 -76 -23 -8 -43 -6 -104 15 -42 14 -95
26 -118 26 l-41 0 0 69 c0 58 3 70 18 74 22 5 56 -2 115 -24z m110 -753 l287
-309 0 -694 0 -693 -95 0 -95 0 0 268 c0 226 -2 271 -16 290 l-15 22 -363 0
c-268 0 -365 -3 -374 -12 -9 -9 -12 -87 -12 -290 l0 -278 -100 0 -100 0 0 693
0 692 291 313 c160 172 294 312 298 310 4 -2 136 -142 294 -312z m-667 78 c-9
-8 -21 -12 -27 -8 -7 4 -9 3 -5 -4 6 -10 -47 -79 -103 -133 -14 -14 -46 -49
-70 -77 -24 -28 -49 -48 -55 -45 -6 3 -8 2 -3 -2 4 -5 0 -17 -10 -27 -15 -17
-38 -18 -327 -18 l-311 0 73 70 c66 64 92 84 78 62 -3 -5 1 -9 9 -9 11 0 12 4
4 13 -13 16 -2 37 17 30 7 -3 16 0 20 6 4 7 3 8 -4 4 -7 -4 -12 -3 -12 3 0 5
9 13 21 16 11 4 18 9 15 13 -10 9 36 52 48 45 6 -3 8 -3 4 2 -10 11 32 46 45
38 6 -4 7 -1 2 7 -4 7 -2 16 6 21 8 5 146 9 307 9 266 0 292 -1 278 -16z
m1326 -2 c-1 -8 1 -11 6 -8 8 5 154 -137 149 -145 -1 -2 0 -3 2 -1 10 5 50
-42 44 -52 -3 -6 -3 -8 2 -4 11 10 37 -11 29 -23 -3 -5 0 -8 8 -7 7 2 12 -3
10 -10 -1 -8 1 -11 6 -8 5 3 22 -8 37 -24 l29 -30 -310 0 -310 0 -25 28 c-13
15 -22 34 -20 42 1 8 -1 12 -5 7 -10 -10 -55 33 -47 46 3 6 2 7 -4 4 -14 -9
-77 59 -68 72 3 6 3 10 -2 9 -11 -4 -79 64 -75 75 1 5 -1 6 -6 3 -5 -3 -20 6
-32 19 l-24 25 305 -2 c246 -2 303 -6 301 -16z m-1642 -1092 l0 -680 -265 0
-265 0 0 680 0 680 265 0 265 0 0 -680z m1900 0 l0 -680 -265 0 -265 0 0 680
0 680 265 0 265 0 0 -680z m-1270 -440 l0 -240 -115 0 -115 0 0 240 0 240 115
0 115 0 0 -240z m350 0 l0 -240 -120 0 -120 0 0 240 0 240 120 0 120 0 0 -240z"/>
<path d="M1478 2026 c-83 -31 -138 -91 -158 -176 -15 -64 -6 -116 33 -181 87
-142 292 -153 394 -20 93 121 54 293 -81 363 -51 26 -139 33 -188 14z m153
-109 c98 -65 85 -208 -23 -252 -54 -21 -98 -13 -143 26 -60 53 -69 127 -24
191 42 59 130 75 190 35z"/>
<path d="M1188 1399 c-16 -9 -18 -26 -18 -132 0 -82 4 -127 12 -135 8 -8 58
-12 160 -12 135 0 148 2 158 19 5 11 10 69 10 129 0 146 4 142 -171 142 -74 0
-142 -5 -151 -11z m222 -134 l0 -45 -70 0 -70 0 0 45 0 45 70 0 70 0 0 -45z"/>
<path d="M1620 1390 c-17 -17 -20 -33 -20 -123 0 -150 -4 -147 175 -147 182 0
179 -3 173 155 -4 138 0 135 -175 135 -120 0 -135 -2 -153 -20z m230 -125 l0
-45 -70 0 -70 0 0 45 0 45 70 0 70 0 0 -45z"/>
<path d="M1042 2061 c-11 -7 -11 -9 0 -14 9 -3 15 1 15 9 0 8 -1 14 -1 14 -1
0 -7 -4 -14 -9z"/>
<path d="M452 1588 c-8 -8 -12 -53 -12 -135 0 -111 2 -123 19 -133 11 -5 80
-10 154 -10 171 0 167 -3 167 144 0 59 -5 116 -10 127 -10 17 -23 19 -158 19
-102 0 -152 -4 -160 -12z m228 -133 l0 -45 -70 0 -70 0 0 45 0 45 70 0 70 0 0
-45z"/>
<path d="M452 1198 c-8 -8 -12 -53 -12 -135 0 -111 2 -123 19 -133 11 -5 80
-10 154 -10 171 0 167 -3 167 144 0 59 -5 116 -10 127 -10 17 -23 19 -158 19
-102 0 -152 -4 -160 -12z m228 -133 l0 -45 -70 0 -70 0 0 45 0 45 70 0 70 0 0
-45z"/>
<path d="M462 814 c-21 -14 -22 -22 -22 -139 0 -113 2 -125 19 -135 11 -5 80
-10 154 -10 172 0 167 -4 167 148 0 153 1 152 -168 152 -99 0 -132 -3 -150
-16z m218 -140 l0 -44 -70 0 -70 0 0 45 0 44 63 3 c34 2 65 2 70 0 4 -2 7 -23
7 -48z"/>
<path d="M2340 1581 c-5 -11 -10 -66 -10 -123 0 -151 -4 -148 175 -148 179 0
175 -3 175 145 0 149 4 145 -180 145 -137 0 -150 -2 -160 -19z m240 -126 l0
-45 -75 0 -75 0 0 45 0 45 75 0 75 0 0 -45z"/>
<path d="M2340 1191 c-5 -11 -10 -66 -10 -123 0 -151 -3 -148 171 -148 181 0
179 -1 179 143 0 151 5 147 -180 147 -137 0 -150 -2 -160 -19z m238 -123 l-3
-43 -72 -3 -73 -3 0 46 0 45 76 0 75 0 -3 -42z"/>
<path d="M2350 810 c-18 -18 -20 -33 -20 -130 0 -152 -2 -150 175 -150 180 0
178 -2 173 157 -4 148 2 143 -175 143 -120 0 -135 -2 -153 -20z m228 -132 l-4
-43 -69 0 -70 0 -3 43 -3 42 76 0 76 0 -3 -42z"/>
</g>
</svg>
