<?xml version="1.0" standalone="no"?>
<!DOCTYPE svg PUBLIC "-//W3C//DTD SVG 20010904//EN"
 "http://www.w3.org/TR/2001/REC-SVG-20010904/DTD/svg10.dtd">
<svg version="1.0" xmlns="http://www.w3.org/2000/svg"
 width="300.000000pt" height="168.000000pt" viewBox="0 0 300.000000 168.000000"
 preserveAspectRatio="xMidYMid meet">

<g transform="translate(0.000000,168.000000) scale(0.100000,-0.100000)"
fill="#000000" stroke="none">
<path d="M1424 1425 l-67 -55 2 -88 c2 -87 2 -87 -27 -105 -25 -14 -56 -17
-190 -17 l-159 0 -34 -29 c-39 -35 -49 -32 -49 15 0 34 0 34 -45 34 l-45 0 0
-79 0 -80 -60 -46 c-63 -48 -73 -65 -40 -65 19 0 20 -7 20 -265 l0 -265 -50 0
-50 0 0 34 c0 28 4 35 25 40 38 10 51 46 36 98 -22 76 -34 93 -68 96 -37 4
-63 -19 -63 -57 0 -15 -5 -32 -11 -38 -6 -6 -9 -26 -7 -44 2 -27 10 -37 35
-49 27 -12 33 -21 33 -47 0 -32 -1 -33 -45 -33 -25 0 -45 -4 -45 -10 0 -7 333
-10 980 -10 647 0 980 3 980 10 0 6 -20 10 -45 10 -44 0 -45 1 -45 33 0 26 6
35 33 47 25 12 33 22 35 49 2 18 -1 38 -7 44 -6 6 -11 23 -11 38 0 49 -45 73
-91 49 -12 -7 -19 -21 -19 -41 0 -16 -7 -41 -16 -54 -14 -21 -14 -30 -4 -54 7
-17 22 -32 36 -35 20 -5 24 -13 24 -41 l0 -35 -50 0 -50 0 0 261 c0 252 1 261
20 266 31 8 25 19 -40 70 l-60 46 0 79 0 78 -45 0 -45 0 0 -41 0 -41 -42 31
-42 31 -162 0 c-150 0 -163 2 -188 21 -27 21 -28 25 -25 106 l3 85 -64 53
c-36 30 -70 54 -77 54 -6 1 -42 -24 -79 -54z m137 -53 c-28 -2 -76 -2 -108 0
l-57 3 53 42 53 43 54 -43 55 -42 -50 -3z m59 -88 c0 -52 -3 -64 -12 -57 -7 5
-34 26 -59 46 l-46 37 -59 -46 -59 -45 -3 52 c-5 81 -8 79 123 79 l115 0 0
-66z m11 -101 c62 -48 126 -100 143 -115 l31 -27 -304 -1 c-194 0 -302 3 -295
10 41 41 292 228 301 225 7 -2 63 -44 124 -92z m-751 -65 c-1 -34 -6 -47 -25
-61 l-25 -18 0 61 c0 57 1 60 25 60 23 0 25 -4 25 -42z m1290 -18 l0 -61 -25
18 c-19 14 -24 27 -25 61 0 38 2 42 25 42 24 0 25 -3 25 -60z m-895 32 c-106
-90 -109 -92 -184 -92 -72 0 -72 0 -124 -47 -29 -27 -55 -52 -58 -56 -3 -4
-44 -7 -90 -5 l-84 3 129 103 128 102 146 0 c80 0 142 -4 137 -8z m861 -89
c67 -54 123 -101 124 -105 0 -5 -34 -8 -76 -8 l-77 0 -64 55 c-65 55 -65 55
-133 55 -66 0 -69 1 -130 50 l-63 50 148 0 147 0 124 -97z m-918 -70 l3 -43
-140 0 c-78 0 -141 3 -140 8 0 4 21 24 46 45 l45 38 92 -3 91 -3 3 -42z m542
-273 l0 -320 -30 0 -30 0 0 140 0 140 -195 0 -195 0 0 -140 0 -140 -35 0 -35
0 0 320 0 320 260 0 260 0 0 -320z m254 283 c22 -20 43 -40 44 -45 2 -4 -60
-8 -137 -8 l-141 0 0 38 c0 21 3 42 7 45 3 4 47 7 96 7 89 0 90 0 131 -37z
m-1044 -338 l0 -265 -110 0 -110 0 0 265 0 265 110 0 110 0 0 -265z m250 0 l0
-265 -115 0 -115 0 0 265 0 265 115 0 115 0 0 -265z m790 0 l0 -265 -115 0
-115 0 0 265 0 265 115 0 115 0 0 -265z m240 0 l0 -265 -110 0 -110 0 0 265 0
265 110 0 110 0 0 -265z m-570 -121 c0 -102 -2 -115 -16 -110 -9 3 -29 6 -45
6 l-29 0 0 80 0 80 -90 0 -90 0 0 -79 0 -79 -41 -4 c-22 -2 -41 -3 -42 -2 -1
1 -1 52 1 113 l3 111 175 0 174 0 0 -116z m-1030 91 c6 -8 9 -23 6 -33 -4 -11
0 -24 9 -32 21 -18 19 -57 -4 -70 -29 -15 -31 -13 -31 30 0 22 -4 40 -10 40
-5 0 -10 -18 -10 -40 0 -43 -2 -45 -31 -30 -22 12 -25 52 -5 69 8 7 12 21 9
31 -11 40 40 67 67 35z m1768 -24 c2 -19 10 -44 18 -56 13 -20 12 -25 -4 -45
-24 -30 -42 -19 -42 26 0 19 -4 34 -10 34 -5 0 -10 -18 -10 -40 0 -43 -9 -49
-34 -24 -20 19 -20 38 -1 58 8 8 15 28 15 44 0 36 8 44 40 40 20 -2 26 -9 28
-37z m-928 -101 l0 -70 -30 0 -30 0 0 70 0 70 30 0 30 0 0 -70z m80 0 l0 -70
-30 0 -30 0 0 70 0 70 30 0 30 0 0 -70z m85 -100 c4 -7 -50 -10 -155 -10 -105
0 -159 3 -155 10 4 6 67 10 155 10 88 0 151 -4 155 -10z"/>
<path d="M1453 1164 c-15 -24 -15 -29 -2 -53 28 -50 109 -34 109 23 0 55 -76
76 -107 30z m77 -9 c18 -21 3 -55 -24 -55 -33 0 -50 23 -36 49 12 24 42 27 60
6z"/>
<path d="M1310 840 l0 -91 63 3 62 3 2 88 3 87 -65 0 -65 0 0 -90z m50 55 c0
-8 -7 -15 -15 -15 -8 0 -15 7 -15 15 0 8 7 15 15 15 8 0 15 -7 15 -15z m55 -5
c0 -22 -29 -18 -33 3 -3 14 1 18 15 15 10 -2 18 -10 18 -18z m-55 -55 c0 -8
-7 -15 -15 -15 -8 0 -15 7 -15 15 0 8 7 15 15 15 8 0 15 -7 15 -15z m50 0 c0
-8 -7 -15 -15 -15 -8 0 -15 7 -15 15 0 8 7 15 15 15 8 0 15 -7 15 -15z m-50
-50 c0 -8 -7 -15 -15 -15 -8 0 -15 7 -15 15 0 8 7 15 15 15 8 0 15 -7 15 -15z
m58 -2 c2 -8 -5 -13 -17 -13 -12 0 -21 6 -21 16 0 18 31 15 38 -3z"/>
<path d="M1569 883 c0 -27 -2 -66 -2 -88 l-2 -40 63 -3 62 -3 0 91 0 90 -60 0
-60 0 -1 -47z m51 13 c0 -8 -4 -17 -8 -20 -13 -8 -35 11 -28 23 10 16 36 14
36 -3z m48 -3 c-4 -22 -22 -20 -26 1 -2 10 3 16 13 16 10 0 15 -7 13 -17z
m-48 -58 c0 -8 -6 -15 -14 -15 -17 0 -28 14 -19 24 12 12 33 6 33 -9z m53 0
c1 -5 -6 -11 -15 -13 -11 -2 -18 3 -18 13 0 17 30 18 33 0z m-53 -50 c0 -8 -7
-15 -15 -15 -8 0 -15 7 -15 15 0 8 7 15 15 15 8 0 15 -7 15 -15z m50 0 c0 -8
-7 -15 -15 -15 -8 0 -15 7 -15 15 0 8 7 15 15 15 8 0 15 -7 15 -15z"/>
<path d="M800 810 l0 -60 65 0 65 0 0 60 0 60 -65 0 -65 0 0 -60z m110 24 c0
-8 -7 -14 -15 -14 -15 0 -21 21 -9 33 10 9 24 -2 24 -19z m-52 4 c-3 -7 -11
-13 -18 -13 -7 0 -15 6 -17 13 -3 7 4 12 17 12 13 0 20 -5 18 -12z m2 -53 c0
-8 -9 -15 -20 -15 -20 0 -26 11 -13 23 12 13 33 7 33 -8z m50 0 c0 -8 -7 -15
-15 -15 -8 0 -15 7 -15 15 0 8 7 15 15 15 8 0 15 -7 15 -15z"/>
<path d="M800 626 c0 -30 3 -35 27 -38 17 -2 29 -10 31 -20 3 -14 -3 -18 -27
-18 -29 0 -31 -3 -31 -35 l0 -35 65 0 65 0 0 35 c0 31 -3 35 -25 35 -18 0 -25
5 -25 20 0 15 7 20 25 20 22 0 25 4 25 35 l0 35 -65 0 -65 0 0 -34z m60 -1 c0
-8 -9 -15 -20 -15 -20 0 -26 11 -13 23 12 13 33 7 33 -8z m50 0 c0 -8 -7 -15
-15 -15 -8 0 -15 7 -15 15 0 8 7 15 15 15 8 0 15 -7 15 -15z m-50 -110 c0 -8
-9 -15 -20 -15 -20 0 -26 11 -13 23 12 13 33 7 33 -8z m50 0 c0 -8 -7 -15 -15
-15 -8 0 -15 7 -15 15 0 8 7 15 15 15 8 0 15 -7 15 -15z"/>
<path d="M1098 872 l-48 -3 0 -60 0 -59 65 0 65 0 0 59 c0 66 -2 68 -82 63z
m2 -37 c0 -8 -7 -15 -15 -15 -8 0 -15 7 -15 15 0 8 7 15 15 15 8 0 15 -7 15
-15z m60 0 c0 -8 -9 -15 -20 -15 -11 0 -20 7 -20 15 0 8 9 15 20 15 11 0 20
-7 20 -15z m-60 -50 c0 -8 -7 -15 -15 -15 -8 0 -15 7 -15 15 0 8 7 15 15 15 8
0 15 -7 15 -15z m60 0 c0 -8 -9 -15 -20 -15 -20 0 -26 11 -13 23 12 13 33 7
33 -8z"/>
<path d="M1050 625 c0 -31 3 -35 25 -35 18 0 25 -5 25 -20 0 -15 -7 -20 -25
-20 -22 0 -25 -4 -25 -35 l0 -35 65 0 65 0 0 35 c0 32 -2 35 -31 35 -24 0 -30
4 -27 18 2 10 14 18 31 20 24 3 27 8 27 38 l0 34 -65 0 -65 0 0 -35z m50 0 c0
-8 -7 -15 -15 -15 -8 0 -15 7 -15 15 0 8 7 15 15 15 8 0 15 -7 15 -15z m60 0
c0 -8 -9 -15 -20 -15 -20 0 -26 11 -13 23 12 13 33 7 33 -8z m-60 -110 c0 -8
-7 -15 -15 -15 -8 0 -15 7 -15 15 0 8 7 15 15 15 8 0 15 -7 15 -15z m60 0 c0
-8 -9 -15 -20 -15 -11 0 -20 7 -20 15 0 8 9 15 20 15 11 0 20 -7 20 -15z"/>
<path d="M1822 813 l3 -58 63 -3 62 -3 0 61 0 60 -65 0 -66 0 3 -57z m58 22
c0 -8 -9 -15 -20 -15 -11 0 -20 7 -20 15 0 8 9 15 20 15 11 0 20 -7 20 -15z
m50 0 c0 -8 -7 -15 -15 -15 -8 0 -15 7 -15 15 0 8 7 15 15 15 8 0 15 -7 15
-15z m-50 -50 c0 -8 -9 -15 -20 -15 -20 0 -26 11 -13 23 12 13 33 7 33 -8z
m50 0 c0 -8 -7 -15 -15 -15 -8 0 -15 7 -15 15 0 8 7 15 15 15 8 0 15 -7 15
-15z"/>
<path d="M1820 626 c0 -30 3 -35 27 -38 17 -2 29 -10 31 -20 3 -14 -3 -18 -27
-18 -29 0 -31 -3 -31 -35 l0 -35 65 0 65 0 0 35 c0 31 -3 35 -25 35 -18 0 -25
5 -25 20 0 15 7 20 25 20 22 0 25 4 25 35 l0 35 -65 0 -65 0 0 -34z m60 -1 c0
-8 -9 -15 -20 -15 -20 0 -26 11 -13 23 12 13 33 7 33 -8z m50 0 c0 -8 -7 -15
-15 -15 -8 0 -15 7 -15 15 0 8 7 15 15 15 8 0 15 -7 15 -15z m-52 -113 c2 -7
-6 -12 -17 -12 -21 0 -27 11 -14 24 9 9 26 2 31 -12z m52 3 c0 -8 -7 -15 -15
-15 -8 0 -15 7 -15 15 0 8 7 15 15 15 8 0 15 -7 15 -15z"/>
<path d="M2070 813 l0 -63 65 0 65 0 0 59 0 59 -65 4 -65 3 0 -62z m50 22 c0
-8 -7 -15 -15 -15 -8 0 -15 7 -15 15 0 8 7 15 15 15 8 0 15 -7 15 -15z m60 0
c0 -8 -6 -15 -14 -15 -17 0 -28 14 -19 24 12 12 33 6 33 -9z m-60 -50 c0 -8
-7 -15 -15 -15 -8 0 -15 7 -15 15 0 8 7 15 15 15 8 0 15 -7 15 -15z m60 0 c0
-8 -9 -15 -20 -15 -11 0 -20 7 -20 15 0 8 9 15 20 15 11 0 20 -7 20 -15z"/>
<path d="M2070 625 c0 -31 3 -35 25 -35 18 0 25 -5 25 -20 0 -15 -7 -20 -25
-20 -22 0 -25 -4 -25 -35 l0 -35 65 0 65 0 0 34 c0 30 -3 35 -27 38 -17 2 -28
9 -28 18 0 9 11 16 28 18 24 3 27 8 27 38 l0 34 -65 0 -65 0 0 -35z m50 0 c0
-8 -7 -15 -15 -15 -8 0 -15 7 -15 15 0 8 7 15 15 15 8 0 15 -7 15 -15z m60 0
c0 -8 -9 -15 -20 -15 -20 0 -26 11 -13 23 12 13 33 7 33 -8z m-60 -110 c0 -8
-7 -15 -15 -15 -8 0 -15 7 -15 15 0 8 7 15 15 15 8 0 15 -7 15 -15z m60 0 c0
-8 -9 -15 -20 -15 -20 0 -26 11 -13 23 12 13 33 7 33 -8z"/>
</g>
</svg>
