<svg width="171" height="117" viewBox="0 0 171 117" fill="none" xmlns="http://www.w3.org/2000/svg">
<path d="M72.8 47.5C72.1 47.2 72 47.1 71.9 46.5C71.9 46.2 71.5 46 71.5 45.7C71.5 41.9 71.6 38.1 71.7 34.3C71.7 32.1 71.5 30 71.2 27.8C70.6 24.6 70.4 21.3 70.8 18.1C71.2 15 72.5 12.1 73.7 9.3C73.9 8.9 73.8 8.7 74.1 8.2C74.7 9.6 75.5 10.3 76.7 10.9C76.3 12.1 76.2 13.3 75.8 14.5C74.6 19.1 74 23.8 74.9 28.5C75 28.9 75.4 28.6 75.8 28.6C77.9 28.6 80 29 82.1 29C82.4 29 82.7 28.8 83 28.6C84.5 27.7 85.6 26.4 85.8 24.7C86 22.3 84.5 20.1 83.6 17.9C83.4 17.5 83.3 17.1 83.1 16.7C82.8 15.8 83.7 15.1 84.6 14.7C85.5 14.3 86.7 14.1 87.2 15C88.7 18 89.7 21.3 89.5 24.7C89.3 27.7 87.9 30.2 85.3 31.8C85 32 84.4 32.1 84.4 32.5C84.4 37 85 41.5 85.1 46C85.1 46.8 84.6 47.8 83.7 48.2C83.7 47.8 83.9 47.2 83.9 46.8C83.8 45.5 82.6 44.7 81.3 44.8C80 44.8 78.7 45.5 78.6 46.9C78.6 47.3 79 47.8 79 48.2C78.7 48.2 78.3 48.1 78 48.1C78 47.7 78.4 47.3 78.3 46.9C78.3 45.6 76.9 44.4 75.6 44.4C74.3 44.4 73.3 45.6 73.3 46.9C73 47.1 72.8 47.1 72.8 47.5Z" fill="#D07850"/>
<path d="M84.2 6.2C84.2 8.8 81.9 11.1 79.2 11.1C76.5 11.1 74.4 8.9 74.3 6.2C74.3 3.6 76.4 1.3 79.2 1.3C82 1.4 84.3 3.5 84.2 6.2Z" stroke="#D07850" stroke-width="0.75" stroke-miterlimit="10"/>
<path d="M76.7 23.4C76.4 21.4 76.2 20.8 77.7 19.4C78.8 18.4 79.6 18.8 80.5 20C82.1 22.2 82.3 22.5 81.8 25.2C81.4 27.1 80.9 27.6 79 27.9C76.4 28.2 77.1 25.9 76.7 23.4Z" fill="#D07850"/>
<path d="M79 53C79 51 78.8 48.9 78.8 46.9C78.8 45.8 79.6 45.2 80.6 45C81.5 44.8 82.3 45.3 82.6 46.2C82.7 46.5 82.9 46.9 82.9 47.3C82.9 50.8 82.8 54.3 82.8 57.7C82.8 58.2 82.9 58.8 82.9 59.3C82.8 60.7 81.6 61.7 80.3 61.2C79.6 61 79.3 60.3 79.1 59.6C79.1 59.3 79.1 59.1 79.1 58.8C79.1 56.9 79 54.9 79 53Z" fill="#D07850"/>
<path d="M77.1 53.1C77.1 55.1 77.3 57.1 77.2 59.1C77.2 60.2 76.7 60.9 75.8 61.2C74.8 61.5 73.6 60.8 73.4 59.8C73.3 59.5 73.5 59.2 73.5 59C73.5 55.1 73.3 51.2 73.3 47.2C73.3 46.9 73.5 46.6 73.6 46.3C73.8 45.5 74.6 45 75.4 45.1C76.3 45.2 77.2 45.6 77.3 46.5C77.3 46.8 77.2 47 77.2 47.3C77.2 49.2 77.1 51.2 77.1 53.1Z" fill="#D07850"/>
<path d="M88 56C86.4 56 84.9 55.8 83.3 55.8C83.3 55.2 83.4 54.7 83.4 54.1C84.8 54.1 86.1 53.9 87.6 53.9C87.3 52.7 87 51.6 86.8 50.4C86.5 49.1 86 47.7 85.7 46.4C85.5 45.5 86 44.6 86.8 44.4C87.6 44.2 88.1 44.9 88.3 45.8C89 48.5 89.8 51.1 90.4 53.8C91.1 56.6 91.6 59.4 92.3 62.1C92.5 63 92.3 63.8 91.6 64C90.8 64.2 90 63.6 89.8 62.7C89.3 60.6 88.9 58.4 88.4 56.3C88.2 56.2 88.1 56.2 88 56Z" stroke="#D07850" stroke-width="0.75" stroke-miterlimit="10"/>
<path d="M72.8 55.8C71.2 55.8 69.7 55.8 68.1 55.8C67.9 56.8 67.8 57.8 67.6 58.7C67.3 60.1 66.6 61.4 66.2 62.8C66 63.6 65.5 64 64.8 63.9C64 63.7 63.7 63.1 63.9 62.3C65.2 56.8 66.3 51.3 67.7 45.9C67.9 45.1 68.5 44.8 69.2 44.8C69.9 44.8 70.3 45.2 70.4 45.8C70.4 46.1 70.4 46.4 70.3 46.7C69.7 49.1 69.1 51.6 68.5 54.1C69.9 54.1 71.5 54 72.9 54C72.9 54.6 72.8 55.2 72.8 55.8Z" stroke="#D07850" stroke-width="0.75" stroke-miterlimit="10"/>
<path d="M62.7 61.5C62.1 61.5 61.8 61.1 62 60.4C62.3 59.1 62.7 57.8 63 56.6C63.8 53.3 64.6 50 65.4 46.7C65.6 46.1 65.8 45.9 66.3 45.9C66.8 46 67.1 46.4 67 47C66.5 49.2 65.8 51.3 65.3 53.5C64.7 55.8 64.1 58.2 63.6 60.5C63.4 61.1 63.3 61.5 62.7 61.5Z" stroke="#D07850" stroke-width="0.75" stroke-miterlimit="10"/>
<path d="M93.5 61.4C92.9 61.4 92.6 61.1 92.5 60.6C92 58.7 91.7 56.8 91.2 54.9C90.6 52.3 90.1 49.6 89.4 47C89.2 46.3 89.3 45.9 89.8 45.8C90.3 45.7 90.8 46 90.9 46.6C92 51.1 93 55.7 94.1 60.2C94.4 61.1 94.1 61.4 93.5 61.4Z" stroke="#D07850" stroke-width="0.75" stroke-miterlimit="10"/>
<path d="M70.6 62.4C70.6 61.6 70.5 60.8 70.5 60C70.5 59.9 70.8 59.7 70.9 59.7C71.2 59.7 71.4 59.7 71.7 59.6C72.4 59.5 73.1 59.6 73.4 60.4C73.7 61.2 74.5 61.5 75.4 61.5C76.3 61.5 77 61.1 77.4 60.2C77.7 59.6 77.7 59.7 78.5 59.8C78.8 60.7 79.4 61.4 80.5 61.6C81.7 61.8 82.7 61.2 83.1 60.2C83.2 59.9 83.4 59.8 83.8 59.9C84.4 60 85.2 59.6 85.4 59.9C85.7 60.2 85.4 61 85.4 61.5C85.4 61.8 85.5 62.1 85.5 62.4C80.6 62.3 75.6 62.4 70.6 62.4Z" stroke="#D07850" stroke-width="0.75" stroke-miterlimit="10"/>
<path d="M71.6 52.1C71.6 50.9 71.6 49.9 71.6 48.7C72 48.7 72.4 48.7 72.9 48.7C72.9 49.8 72.9 50.8 72.9 51.9C72.9 52 72.7 52.1 72.6 52.1C72.2 52.1 71.9 52.1 71.6 52.1Z" stroke="#D07850" stroke-width="0.75" stroke-miterlimit="10"/>
<path d="M84.7 52C84.6 52.1 84.6 52.1 84.7 52ZM84.7 52C83.4 52.2 83.4 52.3 83.4 51.1C83.4 50.3 83.4 49.6 83.4 48.8C83.9 48.8 84.2 48.8 84.7 48.8C84.7 49.3 84.7 49.9 84.7 50.5C84.7 50.9 84.7 51.5 84.7 52Z" stroke="#D07850" stroke-width="0.75" stroke-miterlimit="10"/>
<path d="M77.7 52.1C77.7 50.9 77.7 49.9 77.7 48.7C78 48.7 78.2 48.7 78.5 48.7C78.5 49.8 78.5 50.9 78.5 52.1C78.2 52.1 78 52.1 77.7 52.1Z" stroke="#D07850" stroke-width="0.75" stroke-miterlimit="10"/>
<path d="M77.7 54.1C78 54.1 78.2 54.1 78.5 54.1C78.5 54.7 78.5 55.3 78.5 55.9C78.3 55.9 78 55.9 77.7 55.9C77.7 55.2 77.7 54.7 77.7 54.1Z" stroke="#D07850" stroke-width="0.75" stroke-miterlimit="10"/>
<path d="M112.6 71.9C113.1 71.8 113.3 71.9 113.7 71.8C114.3 71.6 114.8 71 115.4 70.7C116.6 70 116.6 69.2 116.6 67.9C116.6 67.2 117.4 66.2 117 65.5C116.5 64.6 115.7 63.7 115.8 62.7C116 60.2 117.3 58 118.4 55.7C119 54.4 119.4 52.9 120.1 51.5C119.2 51.7 118.2 52.2 117.4 52.4C115.6 52.9 114.2 53.7 113.1 55.2C113 55.4 112.8 55.5 112.7 55.7C112.1 56.5 110.6 57.1 109.8 56.5C109 55.9 109.2 54.6 109.8 53.7C111.4 51.2 113.7 49.8 116.6 49C119.8 48.1 122.7 48.2 125.8 49.3C127.4 49.9 128.4 51.1 128.1 52.9C128 53.3 127.4 53.5 127.3 53.9C127.2 53.9 127.2 54.3 127.2 54.3C126.9 53.7 127.1 52.8 126.8 52.2C126.2 50.8 124.3 50.4 123.1 51.4C122.4 52 121.6 53.1 121.9 54C122.5 55.7 124.4 56.6 125.8 57.8C126 58 126.2 58.7 126.1 59C125.6 60.5 124.2 61.8 123.7 63.3C123.6 63.7 124.5 63.7 124.9 63.9C127.3 65.3 129.3 67.4 130.5 69.9C131.6 72.2 131.8 74.7 131.1 77.2C131.1 77.3 130.9 76.8 130.8 77C129 76.6 126.7 76.8 124.8 76.4C125.8 73.5 124.9 71.8 122.6 70.1C122.3 72 121.2 73.2 119.8 74.5C118.4 75.8 116.6 77.1 114.7 77.6C113.8 75.8 113.4 73.6 112.6 71.9Z" fill="#D07850"/>
<path d="M126.2 43.9C127.5 40.9 128.2 38.5 131.2 39.7C133.9 40.8 131.1 42.8 129.9 45.5C129 47.6 129.4 48.7 127.1 49.1C124.5 49.5 125.2 46.3 126.2 43.9Z" fill="#D07850"/>
<path d="M130.6 59.4C127.3 59.3 125 57.8 123.3 54.8C123.1 54.4 122.6 54 122.5 53.6C122.2 52.7 122.8 51.8 123.7 51.5C124.6 51.2 125.5 51.5 125.9 52.4C126.1 52.8 126.6 53.1 126.8 53.4C128.1 55.6 130 56.9 132.5 56.2C133.6 55.9 134.4 55 135.4 54.5C136.6 54 138 54.7 138.2 55.9C138.3 56.6 138.1 57.4 137.5 57.7C135.6 59 133.4 59.4 130.6 59.4Z" fill="#D07850"/>
<path d="M122.8 77.8C122.9 77.5 123 77.3 123.1 77C123.5 77.1 123.6 77.2 124 77.2C123.9 77.7 123.9 78.1 123.8 78.5C123.7 78.7 123.5 78.9 123.2 78.9C122.3 79.1 121.3 79 120.3 79.2C120.1 79.3 119.9 79.8 119.7 80C119.4 80.2 119.3 80.4 119.4 80.7C120.1 82.5 120.9 84.3 122.1 85.8C124 88.2 126.6 88.9 129.6 88.2C129.6 88.2 129.7 88.4 129.8 88.4C130.1 88.3 130.6 88.3 130.7 88.7C130.8 89.1 130.5 89.5 130.1 89.6C127.9 90.2 125.8 89.8 123.9 88.6C122.1 87.6 120.7 86.3 119.8 84.6C119.2 83.5 119 82.2 118.6 81.1C118.2 80.2 118.2 79.3 119 78.7C119.8 78.1 121 78.3 122 78.1C122.2 78.1 122.5 77.9 122.8 77.8Z" stroke="#D07850" stroke-width="0.75" stroke-miterlimit="10"/>
<path d="M110.3 70.6C110.5 71 110.5 71.4 110.7 71.7C110.3 71.9 110 72 109.6 72.1C109.4 72.1 109.4 72 109.2 71.8C108.8 71.4 108.1 71.1 107.7 70.7C107.4 70.4 107.1 70.1 106.7 69.9C106 69.5 105.5 69.5 105.1 70.1C104 71.6 103.2 73.2 102.6 74.9C101.5 77.8 101.9 80.4 104.2 82.6C104.2 82.6 104.2 82.7 104.3 82.8C104.5 83 104.8 83.3 104.6 83.6C104.4 83.9 104 83.7 103.7 83.5C102.2 82.2 101.1 80.7 100.8 78.8C100.5 76.3 101.6 74.2 102.9 72.2C103.4 71.3 104.1 70.5 104.7 69.7C105.3 68.9 106 68.3 107 68.7C108 69.1 108.7 69.9 109.4 70.6C109.6 70.8 109.7 71.1 110.3 70.6Z" stroke="#D07850" stroke-width="0.75" stroke-miterlimit="10"/>
<path d="M130.4 78.5C129.9 79.2 129.6 79.9 129.1 80.4C128.2 81.2 126.9 81.4 125.8 80.8C124.8 80.2 124.4 79 124.6 77.9C124.7 77.6 124.6 77.5 125.1 77.6C126.7 77.9 128.5 78.1 130.4 78.5Z" fill="#D07850"/>
<path d="M113.6 77.3C112.3 77.5 111 76.8 110.5 75.7C110 74.6 110.3 73.3 111.2 72.6C112 74.2 112.8 75.7 113.6 77.3Z" fill="#D07850"/>
<path d="M112 71.3C111.8 71 111.7 70.7 111.5 70.3C112.3 70 113.1 69.6 113.9 69.3C114.2 69.2 114.5 69.4 114.6 69.7C114.7 70 114.6 70.3 114.3 70.4C113.6 70.7 112.8 71 112 71.3Z" stroke="#D07850" stroke-width="0.75" stroke-miterlimit="10"/>
<path d="M124.4 76C124 75.9 123.8 75.9 123.4 75.8C123.6 75.1 123.7 74.5 123.9 73.8C124 73.5 124.3 73.4 124.6 73.5C124.8 73.6 125 73.9 125 74.1C124.8 74.7 124.5 75.3 124.4 76Z" stroke="#D07850" stroke-width="0.75" stroke-miterlimit="10"/>
<path d="M115 91.3C115.6 91.3 116.2 91.3 116.9 91.3C117.1 91.3 117.3 91.3 117.5 91.3C120.1 91.3 122.6 91.3 125.1 91.2C126 91.2 126.9 90.9 127.7 90.7C128.5 90.5 129 90.9 129.5 91.3C129.6 91.4 129.5 91.7 129.5 91.8C129.4 92 129.3 92.2 129.3 92.4C129.3 93.5 129.4 94.6 129.4 95.6C129.4 96.7 129.4 97.8 129.4 98.9C130 98.9 130.5 98.9 130.9 98.9C133.5 98.7 136.1 98.5 138.8 98.3C139.3 98.3 139.9 98.1 140.4 98.1C141.2 98.1 142 98.1 142.8 98.1C143.7 98.1 144.7 98.1 145.6 97.9C147.4 97.5 149.2 97.6 150.9 97.5C152.6 97.5 154.3 97.4 156 97.3C156.6 97.3 157.2 97.4 157.8 97.4C159.2 97.4 160.6 97.3 162 97.4C163.5 97.5 164.9 97.7 166.4 97.9C166.8 97.9 167.2 97.9 167.8 97.9C167.7 97.6 167.7 97.4 167.6 97.2C167.4 96.5 167.2 95.8 167.1 95.1C167 94.4 167.3 94 167.9 94.1C168.4 94.1 168.7 94.6 168.7 95.2C168.7 95.7 168.8 96.2 169 96.6C169.3 97.2 169.7 97.8 170 98.4C170.1 98.6 170.1 99 170.1 99.2C169.9 100 169.7 100.8 169.3 101.5C168.9 102.2 168.3 102.8 167.8 103.4C167.7 103.5 167.5 103.5 167.3 103.5C166.7 103.5 166.4 103 166.7 102.5C167.2 101.6 167.6 100.7 168 99.7C168.3 99 168.1 98.8 167.4 98.7C165.5 98.5 163.5 98.2 161.5 98.1C160.5 98 159.4 98.1 158.4 98.1C155.2 98.2 152.1 98.2 148.9 98.3C147.4 98.4 145.8 98.6 144.3 98.7C143.6 98.8 142.9 98.7 142.2 98.7C141.3 98.7 140.3 98.9 139.4 98.9C137.9 99 136.4 99.1 134.9 99.2C133.4 99.4 132 99.6 130.5 99.9C130 100 129.6 100.2 129.7 100.9C129.8 102.3 129.8 102.3 131.2 102.5C131.6 102.6 132 102.6 132.4 102.6C134.1 102.6 134.7 102.8 135.4 104.4C135.4 103.7 135.5 103.2 135.5 102.6C135.6 101.9 135.7 101.8 136.5 101.8C137.8 102 139.1 102.1 140.4 102.2C140.9 102.2 141.3 102.2 141.8 102.2C142.4 102.2 142.9 102.1 143.4 102C145 101.9 146.7 101.8 148.3 101.7C148.4 101.7 148.6 101.6 148.7 101.6C148.9 101.6 149.1 101.6 149.3 101.7C149.6 101.8 149.8 101.9 150 102.1C150.2 102.2 150.4 102.4 150.5 102.5C150.3 102.6 150.1 102.9 150 102.9C149.5 102.9 149.4 103.2 149.4 103.6C149.4 106.1 149.3 108.6 149.7 111C149.9 112.2 149.8 113.4 149.9 114.7C149.9 114.9 149.7 115.1 149.6 115.3C149.4 115.2 149.1 115 149 114.8C148.9 114.3 148.8 113.8 148.8 113.3C148.8 112.1 148.9 110.9 148.8 109.6C148.8 108.6 148.7 107.5 148.7 106.5C148.7 105.4 148.6 104.3 148.6 103.2C148.6 102.7 148.4 102.5 147.9 102.6C146.8 102.7 145.7 102.7 144.6 102.8C143.6 102.9 142.6 103 141.6 103.1C141.1 103.1 140.6 103.1 140.1 103.1C139.1 103 138.1 102.9 137.1 102.9C137 102.9 136.9 102.9 136.7 102.9C135.8 102.7 135.8 102.7 135.8 103.6C135.8 104.2 135.7 104.7 135.7 105.3C135.7 105.5 135.5 105.8 135.4 106C135.2 105.9 135 105.8 134.8 105.7C134.7 105.7 134.7 105.7 134.6 105.6C134.5 105.6 134.5 105.7 134.5 105.7C135 106.3 135.5 106.9 136.1 107.4C136.2 107.5 136.5 107.5 136.6 107.4C137.2 107.2 137.8 107 138.5 106.8C139.1 106.6 139.2 106.7 139.2 107.3C139.2 107.5 139.2 107.6 139.2 107.9C140.1 107.8 141 107.6 141.2 108.9C141.6 108.9 141.9 108.8 142.3 108.8C142.9 108.7 143.2 108.9 143.2 109.6C143.1 110.1 143 110.6 142.9 111.2C143.8 111.3 143.9 111.9 143.8 112.6C143.8 113 143.9 113.2 144.4 113.2C145.4 113.1 146 113.7 146.3 114.6C146.4 115 146.5 115 146.9 115C147.4 114.9 147.9 115 148.4 115.1C149 115.2 149.1 115.7 149.2 116C149.3 116.2 149 116.6 148.8 116.7C148.6 116.8 148.3 116.9 148.1 116.9C147.9 116.8 147.7 116.5 147.7 116.3C147.7 115.8 147.4 115.8 147.1 115.9C146.6 116 146.1 116.1 145.4 116.2C145.4 116 145.3 115.7 145.4 115.4C145.7 114.6 145.4 114.2 144.6 114.2C144.2 114.2 143.8 114.3 143.4 114.3C143.2 114.3 142.9 114.4 142.9 114.3C142.8 114.1 142.7 113.9 142.8 113.7C142.8 113.4 142.9 113.1 143 112.8C143.1 112.4 142.8 112.2 142.4 112.3C142 112.4 141.6 112.5 141.3 112.7C140.6 113 140.6 113 140.4 112.3C141.2 111.6 142.4 111.2 142.3 109.8C141.9 109.9 141.5 109.9 141.1 110C140.3 110.2 140.2 110.1 140.2 109.2C140.2 109.1 140.2 109.1 140.2 108.9C139.5 108.8 138.9 109 138.4 109.5C138.3 109.6 138.2 109.8 138.1 109.8C137.9 109.9 137.7 109.9 137.5 110C137.5 109.8 137.4 109.5 137.5 109.3C137.7 108.9 138 108.6 138.3 108.2C138.2 108.1 138.2 108.1 138.2 108C137.8 108.1 137.5 108.2 137.1 108.3C136.9 108.4 136.6 108.5 136.3 108.5C135.5 108.7 135.5 108.7 135.3 107.9C135.1 107 134.2 106.5 133.3 106.7C133.1 106.7 132.7 106.7 132.7 106.6C132.6 106.4 132.6 106.1 132.7 105.8C132.9 105.3 133.1 104.9 133.8 104.8C133.9 104.8 134.2 104.5 134.2 104.4C134.1 104.1 133.9 103.7 133.6 103.6C133.2 103.5 132.7 103.6 132.2 103.5C132 103.5 131.8 103.5 131.5 103.4C131.3 103.4 131.2 103.3 131.1 103.2C130.2 103.1 129.9 103.4 129.9 104.2C130 105.6 130.2 107 130.1 108.4C130 109.3 130.2 110.2 130.3 111.1C130.4 111.5 130.2 111.9 130.2 112.3C130.2 113.1 130.2 113.9 130.2 114.7C130.2 115 130.2 115.3 130 115.5C129.6 115.9 128.9 115.7 128.8 115.1C128.7 114.5 128.7 113.8 128.7 113.2C128.7 110.9 128.8 108.7 128.7 106.4C128.6 104.1 128.6 101.8 128.3 99.5C128.1 98.1 128.3 96.7 128.2 95.3C128.2 94.3 128.1 93.3 128 92.3C128 92.2 127.9 92 127.8 91.8C127.1 91.9 126.4 92.1 125.7 92.2C124.8 92.3 123.8 92.2 122.9 92.2C122.5 92.2 122.2 92.1 121.8 92.2C120.2 92.3 118.6 92.3 117 92.4C116.1 92.4 115.2 92.5 114.4 92.4C113.6 92.3 112.8 92.4 112 92.6C111.9 92.7 111.7 92.7 111.5 92.6C109.9 92 108.4 92.7 106.9 92.7C106.6 92.7 106.3 92.8 106.4 93.3C106.5 94.5 106.5 95.8 106.6 97C106.6 97.5 106.7 98.1 106.6 98.6C106.5 99.3 106.5 99.8 106.8 100.4C107.2 101.2 107.3 102 107.1 102.8C106.9 103.5 107.1 104.1 107.2 104.8C107.3 105.4 107.2 106 107.2 106.6C107.2 106.7 107.1 106.8 107.1 106.9C107.2 107.9 107.3 108.8 107.4 109.8C107.6 111 107.6 112.3 107.3 113.5C107.2 113.8 107 114 106.7 114.2C106.2 114.5 105.8 114.3 105.8 113.7C105.8 113.1 105.8 112.5 105.9 111.9C106 111.5 105.8 111.3 105.4 111.1C104.4 110.5 103.5 110.7 102.5 111C102.1 111.1 101.7 111.2 101.3 111.4C100.3 111.6 100 111.5 99.5 110.6C98.9 111 98.3 111.5 97.6 111.1C97 110.8 96.6 110.2 96 109.7C95.9 109.7 95.6 109.8 95.3 109.9C94.6 110.3 94 109.9 93.4 109.6C93.2 109.5 93 109.2 92.8 109.2C92.5 109.3 92.1 109.5 91.9 109.7C91.6 110 91.3 110.3 91 110.6C90.4 111.1 89.7 111.1 89.1 110.6C89 110.5 88.7 110.4 88.6 110.4C88 110.5 87.8 110.3 87.7 109.8C87.5 109.1 87.3 108.5 87.3 107.8C87.3 107.1 86.8 106.6 86.5 106C86.1 106.1 85.8 106.3 85.4 106.4C84.7 106.5 84 106.4 83.5 105.9C83.2 105.6 83 105.6 82.7 105.8C82.3 106 81.9 106.2 81.5 106.2C80.9 106.2 80.3 106 79.7 105.9C79.7 106 79.5 106.2 79.4 106.4C79 107.1 78.8 107.1 78.3 106.6C77.7 106.9 77.1 107.3 76.5 107.5C75.9 107.7 75.4 107.4 75.3 106.7C75.2 106.2 75.2 105.7 75.2 105.2C75.2 105 75 104.6 74.9 104.6C74.1 104.5 73.6 104 73.1 103.5C73 103.4 72.7 103.3 72.5 103.2C71.9 103.1 71.3 103 70.8 102.8C70.6 102.7 70.5 102.4 70.5 102.2C70.3 101.6 70.1 101.5 69.5 101.8C68.8 102.2 68 102.6 67.3 103C66.7 103.3 66.1 103.3 65.4 103.1C65 103 64.8 103 64.5 103.3C64.4 103.5 64.2 103.6 64.1 103.7C63.8 104 63.4 104.1 63 103.8C62.6 103.4 62.1 103.5 61.6 103.6C60.9 103.8 60.2 103.9 59.5 104.1C59.7 104.5 59.9 104.9 60.1 105.4C60.2 105.7 60.4 106 60.3 106.2C60.2 106.5 60 107 59.7 107.1C59.4 107.2 58.9 107.1 58.6 106.9C58.1 106.5 57.7 106.5 57.2 106.9C56.2 107.6 55.8 107.5 55.2 106.5C54.8 105.8 54.4 105.2 54 104.5C52.2 105.5 51.3 104.1 50.3 103C49.6 103.5 48.9 104 48.2 104.5C48 104.6 47.8 104.7 47.6 104.6C46.6 104.2 46.6 104.2 45.8 104.9C46 105.1 46.1 105.4 46.2 105.6C46.3 105.8 46.3 106 46.3 106.2C46.3 106.3 46 106.4 45.9 106.4C44.6 105.9 43.3 106.4 41.9 106.5C41.2 106.5 40.6 106.3 39.9 106.2C39.8 107.3 38.4 106.7 38 107.5C38.3 107.9 38.6 108.4 38.9 108.8C39.1 109.1 39.3 109.5 39 109.8C38.7 110 38.3 110.3 38 110.2C37.5 110.1 36.9 109.9 36.4 109.6C36.1 109.5 35.8 109.3 35.5 109.2C35.4 109.1 35.1 109.1 35 109.2C34.6 109.6 34.1 109.5 33.6 109.4C32.9 109.3 32.1 109.1 31.4 109C30.9 108.9 30.5 109 30 109C30 109.1 29.9 109.1 29.9 109.2C30.1 109.4 30.3 109.7 30.5 109.9C30.6 110.1 30.8 110.3 30.7 110.4C30.6 110.5 30.4 110.7 30.2 110.7C29.5 110.7 29 111 28.4 111.4C28.2 111.5 28 111.6 27.7 111.5C27.6 111.5 27.5 111.1 27.5 111.1C27.8 110.8 28.2 110.5 28.6 110.3C28.9 110.1 29.3 110.2 29.3 109.7C29.3 108.5 29.7 108.2 31 108.4C31.9 108.5 32.8 108.6 33.7 108.7C33.9 108.7 34.1 108.5 34.4 108.5C34.7 108.5 34.9 108.4 35.1 108.4C35.8 108.6 36.4 108.9 37.1 109.2C37.4 109.3 37.8 109.3 38.1 109.4C38.1 109.3 38.2 109.2 38.2 109.2C37.7 108.8 37.2 108.4 36.7 108C36.5 107.9 36.3 107.7 36.3 107.6C36.3 107.4 36.5 107.2 36.7 107.1C37.1 107 37.3 106.8 37.2 106.4C37.2 106.1 37.4 105.9 37.8 106.1C38 106.2 38.2 106.3 38.4 106.3C39 106.4 39.1 106.1 38.9 105.6C38.8 105.4 38.9 105.3 39 105.1C39.2 105.1 39.4 105.1 39.5 105.2C40.3 105.9 41.3 105.8 42.3 105.8C43 105.8 43.6 105.6 44.3 105.6C44.9 105.5 44.9 105.4 44.7 104.9C44.4 104.2 44.5 104.1 45.2 104C45.3 104 45.5 103.8 45.5 103.6C45.6 103.4 45.6 103.1 45.7 102.8C46 102.9 46.3 103 46.5 103.2C46.7 103.3 46.8 103.5 47 103.6C47.1 103.6 47.1 103.5 47.2 103.5C47.2 103.2 47.2 102.8 47.1 102.4C47 101.8 46.9 101.1 46.8 100.5C46.5 98 46.3 95.4 46 92.9C46 92.6 45.9 92.4 45.5 92.4C44.2 92.5 42.9 92.6 41.6 92.6C40.5 92.6 39.3 92.5 38.2 92.5C37.8 92.5 37.3 92.5 36.9 92.5C35.7 92.5 34.6 92.5 33.5 92.5C32.5 92.5 31.5 92.4 30.5 92.4C30.1 92.4 29.8 92.6 29.8 93.1C29.9 94.5 29.8 95.9 29.9 97.3C30 98.5 30.2 99.6 30.4 100.8C30.5 101.4 30.5 102 30.5 102.6C30.5 102.8 30.3 103.1 30.1 103.3C29.9 103.5 29.7 103.8 29.4 104.1C29.2 103.8 29.1 103.6 29 103.4C28.9 102.7 28.9 102.1 28.9 101.4C29 100.6 28.8 100.5 28.1 100.4C27.6 100.3 27.3 100 26.8 99.8C26.6 99.7 26.3 99.5 26.3 99.6C25.4 100.2 24.6 100 23.6 99.6C23.3 100.3 22.9 100.9 22.6 101.5C22.5 101.7 22.4 101.9 22.3 102.1C22.1 102 21.8 101.8 21.6 101.7L21.5 101.6C20.7 102 20.6 102 19.9 101.3C19.8 101.2 19.7 101.1 19.5 101C18.7 100.2 18 100.2 17.2 101C17 101.2 16.8 101.4 16.4 101.2C16.2 101.2 16 101.4 15.8 101.5C15.7 101.6 15.5 101.6 15.4 101.6C15.3 101.5 15.3 101.4 15.3 101.3C15.4 100.5 15.7 100.2 16.6 100.3C16.7 100.3 16.9 100.2 17 100.1C18.1 99.4 18.6 99.4 19.6 100.2C19.9 100.4 20.2 100.6 20.5 100.8C21 99.9 21 99.9 21.8 100.4C22.6 100 22.7 99 23.1 98.3C22.2 98.2 21.3 97.9 20.4 97.9C18.2 97.9 16.1 97.7 14 97.2C13 97 11.9 97.1 10.9 96.9C8.70001 96.5 6.60001 96.1 4.50001 95.6C3.90001 95.5 3.30001 95.3 2.60001 95.1C2.40001 95.1 2.20001 95.1 1.80001 95.1C2.30001 96.2 2.80001 97.1 3.40001 98.2C3.20001 98.8 3.00001 99 2.30001 98.8C1.90001 98.7 1.70001 98.5 1.70001 98C1.70001 96.4 1.70001 94.8 1.70001 93.1C1.70001 92.4 2.10001 91.8 2.70001 91.4C3.10001 91.1 3.50001 91.2 3.80001 91.5C4.10001 91.8 3.90001 92.1 3.70001 92.3C3.50001 92.7 3.20001 93.2 3.00001 93.6C2.80001 93.9 2.90001 94.1 3.20001 94.2C4.10001 94.6 4.90001 94.9 5.90001 95C7.10001 95.1 8.40001 95.5 9.60001 95.7C10.4 95.9 11.3 96 12.2 96C13.5 96 14.8 96.3 16.2 96.5C17.6 96.7 19 96.7 20.3 96.8C21.1 96.9 22 97 22.8 97C24.3 97 25.7 97 27.2 96.9C27.3 96.9 27.4 96.9 27.5 96.9C28.5 97 28.5 96.9 28.5 96C28.4 94.5 28.3 92.9 28.1 91.4C28.1 90.8 28.6 90.4 29.2 90.6C29.4 90.7 29.7 90.7 30 90.8C31.4 90.9 32.7 90.9 34.1 91C35.5 91.1 36.9 91 38.2 90.7C38.9 90.6 39.6 90.5 40.3 90.3C40.9 90.2 41.5 90.4 42.2 90.4C43.3 90.5 44.4 90.6 45.4 90.7C45.7 90.7 46 90.6 46.3 90.4C46.6 90.2 46.9 90.2 47.1 90.5C47.2 90.7 47.4 90.7 47.5 90.9C47.6 91.1 47.7 91.5 47.6 91.6C46.9 92 47.2 92.7 47.2 93.2C47.3 94.3 47.4 95.5 47.6 96.7C48.1 96.8 48.6 96.9 49.1 97C49.4 97.1 49.6 96.9 49.7 96.6C49.7 96.5 49.8 96.4 49.8 96.3C50.1 95.5 50.3 95.5 50.9 96.1C51.1 96.3 51.5 96.5 51.5 96.4C51.8 96.2 52.1 95.9 52.1 95.6C52.2 95.1 52.1 94.6 52 94.1C51.9 93.6 51.6 93.3 51 93.4C50.1 93.5 49.9 93.4 50 92.4C50 92.3 50 92.2 50 92.1C50 91.4 49.8 90.7 50.9 90.5C51 90.5 51 90.4 51.2 90.2C49.9 89.6 48.8 88.8 47.4 88.6C46.1 88.4 44.9 88.1 43.7 87.5C43.1 87.2 42.4 87.2 41.7 87C40.9 86.8 40.1 86.5 39.4 86.3C38.8 86.1 38.2 86 37.5 85.8C36.4 85.6 35.4 85.4 34.3 85.2C32.9 85 31.6 84.8 30.2 84.7C28.8 84.5 27.5 84.5 26.1 84.4C25.1 84.3 24.1 84.4 23.1 84.4C22.3 84.4 21.5 84.3 20.7 84.3C20.3 84.3 19.8 84.4 19.2 84.4C19.4 84.6 19.6 84.7 19.7 84.9C20 85.2 20.4 85.6 20.7 86C20.8 86.2 20.9 86.7 20.7 86.8C20.5 87 20.1 86.9 19.8 87C19.7 87 19.6 86.9 19.6 86.9C18.6 85.9 17.7 85 16.8 84C16.5 83.6 16.6 83.1 17 83C17.8 82.8 17.8 82.1 18 81.6C18.1 81.3 18.3 80.9 18.5 80.8C18.7 80.7 19.1 80.7 19.4 80.8C19.7 80.9 19.8 81.1 19.6 81.5C19.4 82 19.3 82.6 19.2 83.1C19.1 83.5 19.2 83.7 19.7 83.7C21.2 83.7 22.8 83.6 24.3 83.6C25.1 83.6 25.9 83.7 26.7 83.8C28.3 84 29.9 84.1 31.5 84.3C33.4 84.5 35.2 84.9 37.1 85.1C38.3 85.2 39.3 85.5 40.3 85.9C40.9 86.1 41.6 86.2 42.2 86.3C42.9 86.5 43.6 86.6 44.3 87C45.3 87.6 46.3 87.8 47.4 87.9C48.4 88 49.2 88.4 50.1 88.8C51 89.2 52.1 89.4 53.1 89.8C54.1 90.2 55 90.6 56 91C56.3 91.1 56.6 91.3 56.9 91.4C58.2 91.9 59.5 92.3 60.8 92.8C61.6 93.1 62.4 93.3 63.2 93.5C63.3 93.5 63.5 93.6 63.5 93.5C64.3 93.1 65.1 92.7 65.9 92.3C66 92.2 66 92 66 91.9C66 90.7 66 89.5 66 88.2C66 87.9 66 87.7 65.9 87.4C65.7 86.2 65.4 85 65.8 83.8C65.9 83.5 65.8 83.2 65.4 83.1C64.8 82.8 64.3 82.4 63.8 82.1C63.6 82 63.5 81.8 63.4 81.6C63.1 80.9 62.6 80.6 61.9 80.4C61.3 80.2 61.1 79.8 61.5 79.3C61.9 78.9 62.1 78.5 61.8 78C61.8 77.9 61.8 77.8 61.8 77.7C61.9 77.2 61.7 76.9 61.4 76.6C61.1 76.2 61 75.6 60.8 75.1C60.7 74.6 60.6 74.1 60.5 73.6C60.5 73.5 60.4 73.4 60.3 73.3C59.9 73 59.6 72.7 59.2 72.4C58.5 72.6 57.8 72.8 57.1 73C57.1 72.9 57 72.9 57 72.8C56.9 73 56.8 73.3 56.8 73.5C56.7 74 56.5 74.4 55.9 74.4C55.7 74.4 55.6 74.6 55.5 74.8C55.1 75.4 54.8 76 54 76.1C53.9 76.1 53.8 76.3 53.8 76.3C53 77.7 53.5 79.5 54.9 80.4C55.2 80.6 55.2 80.8 55 81.1C54.7 81.4 54.3 81.6 54 81.8C53.5 82.1 53 82.1 52.7 81.5C52.2 81.8 51.8 82.1 51.3 82.4C51.4 82.9 51.5 83.4 51.6 83.8C51.7 84 52 84.2 52.2 84.2C52.7 84.2 52.9 84.4 53 84.8C53.2 85.2 53.3 85.6 53.4 86C53.4 86.2 53.2 86.6 53.1 86.6C52.4 86.7 52.2 87.1 52 87.6C51.9 87.8 51.6 88 51.3 88.2C51.2 88 51.1 87.7 51.1 87.4C51.1 87.3 51.2 87.2 51.1 87.2C50.7 86.3 51.2 86 52 85.7C52.2 85.6 52.3 85.3 52.4 85.1C52.2 85 52.1 85 51.9 84.9C51.4 84.8 51 84.6 50.9 84.1C50.8 83.6 50.8 82.9 50.1 82.7C50 82.7 50 82.4 50 82.2C50 82 50.1 81.8 50.2 81.5C50.5 80.7 50.7 80.7 51.4 81.4C51.8 80.8 52.2 80.2 52.6 79.6C52.7 79.6 52.7 79.7 52.8 79.7C52.9 80 52.9 80.3 53 80.6C53.2 81.3 53.3 81.3 53.8 80.9C53.5 80 53 79.2 52.8 78.3C52.5 77.2 52.9 76.2 53.4 75.3C53.5 75.1 53.8 74.9 53.9 75C54.8 75.1 54.8 74.4 55.1 73.9C55.2 73.8 55.2 73.6 55.2 73.5C55.3 73.3 55.4 73.1 55.5 72.9C55.7 73 55.9 73.1 56.2 73.3C56.3 72.8 56.3 72.3 56.4 71.8C56.5 71.6 56.6 71.4 56.8 71.1C57 71.3 57.2 71.4 57.3 71.6C57.5 72 57.7 72.1 58.1 71.8C58.4 71.6 58.7 71.4 59 71.3C59.3 71.1 59.6 71.1 59.7 71.5C59.8 71.9 60.1 72.2 60.6 72.3C60.8 72.3 61.1 72.6 61.2 72.9C61.4 73.3 61.5 73.8 61.7 74.2C61.8 74.4 61.7 74.6 61.7 74.9C61.5 75.5 61.7 75.8 62.4 75.7C62.8 75.6 62.9 75.9 62.8 76.2C62.7 76.6 62.7 77.1 62.6 77.5C63.5 77.9 63.5 77.9 62.5 79.4C62.7 79.3 62.8 79.3 63 79.2C63.1 79.2 63.2 79.1 63.3 79.2C63.5 79.3 64 80.5 64 80.7C64 80.9 64.1 81.2 64.3 81.3C64.6 81.5 65 81.7 65.5 81.9C65.6 81.6 65.7 81.4 65.7 81.1C65.7 78.9 65.7 76.8 65.7 74.6C65.6 71.5 65.6 68.3 65.5 65.2C65.5 64.8 65.4 64.4 65.4 64C65.4 63.8 65.6 63.6 65.7 63.6C66.9 63.5 68.2 63.4 69.4 63.3C70.3 63.2 71.3 63.2 72.2 63.1C73.1 63 74.1 62.8 75 62.9C78 63.1 80.9 62.8 83.9 62.8C85.6 62.8 87.3 62.6 88.9 62.6C89.6 62.6 89.8 62.8 89.7 63.5C89.6 64.3 89.6 65.1 89.6 65.8C89.5 67.9 89.4 70 89.4 72.1C89.4 73.9 89.5 75.7 89.5 77.5C89.5 79 89.6 80.4 89.6 81.9C89.6 82.7 89.7 83.6 89.7 84.4C89.7 85.7 89.7 86.9 89.8 88.2C89.8 88.3 89.8 88.4 89.8 88.6C90.3 88.4 90.7 88.3 91.1 88.2C91.6 88.1 92.1 88 92.6 87.9C95 87.6 97.5 87.5 100 86.8C101 86.5 102.1 86.5 103.2 86.5C104.3 86.4 105.3 86.4 106.3 86.3C106.9 86.3 107.4 86.2 108 86.1C108.9 85.8 109.8 85.6 110.8 85.7C111 85.7 111.3 85.7 111.5 85.7C111.7 85.6 112 85.5 112.1 85.4L112.9 85.3C112.9 85.4 113.3 85.4 113.4 85.4C114.3 85.4 115.1 85.4 115.9 85.3C116.6 85.3 117.3 85.2 118 85.2C119.3 85.2 120.6 85.3 121.9 85.4C123 85.5 124.1 85.7 125.2 85.6C126.8 85.6 128.2 86 129.6 86.4C130.3 86.6 131.1 86.6 131.9 86.7C132.5 86.8 133.1 86.7 133.6 86.9C134.8 87.2 136.1 87.2 137.3 87.2C138 87.2 138.7 87.4 139.3 87.5C140.3 87.7 141.4 87.8 142.4 87.9C142.5 87.8 142.5 87.7 142.6 87.7C142.3 87.3 142 86.9 141.7 86.5C141.4 86.1 141 85.8 141.4 85.3C141.7 85 142.4 85.1 142.8 85.5C143.4 86.4 144 87.3 144.6 88.2C144.7 88.4 144.7 88.7 144.6 88.8C144.2 89.5 143.7 90.2 143.2 90.9C143 91.2 142.7 91.5 142.6 91.8C142.3 92.3 141.9 92.2 141.5 92C141.2 91.8 141.1 91.5 141.3 91.1C141.8 90.3 142.1 89.5 142.5 88.6C141.8 88.5 141.1 88.4 140.4 88.2C138.4 87.5 136.3 87.9 134.3 87.6C133.3 87.5 132.2 87.4 131.2 87.3C130.5 87.2 129.8 87 129 86.9C128 86.7 127 86.4 126 86.4C124.1 86.4 122.3 86.2 120.5 85.9C120.4 85.9 120.2 85.8 120.1 85.8C118.1 85.9 116.2 85.9 114.2 86C113.9 86 113.6 86.1 113.2 86.2C113 86.3 112.8 86.4 112.8 86.5C112.8 86.7 112.9 87 113 87.2C113.1 87.5 113.4 87.8 113.5 88.1C113.6 88.8 113.6 89.6 113.6 90.3C114.5 91.3 114.7 91.3 115 91.3ZM112.6 91.3C112.8 91.1 112.8 90.9 112.7 90.3C112.7 90.2 112.7 90 112.7 89.9C112.8 89.3 112.5 88.6 112.9 88C113.1 87.8 113.2 87.2 112.6 87.2C111.6 87.2 110.5 87.3 109.5 87.4C108.6 87.5 107.6 87.7 106.7 87.8C104.9 88 103 88.1 101.2 88.3C99.9 88.4 98.6 88.7 97.3 88.9C96.4 89 95.5 89 94.7 89.2C93.4 89.4 92.1 89.6 90.9 90.1C90.6 90.3 90.3 90.4 90.5 90.8C90.6 91 90.6 91.3 90.6 91.6C90.5 93 90.4 94.5 90.4 96C90.4 97 90.5 98.1 90.6 99.1C90.7 99.5 90.5 99.8 90.1 99.9C89.7 100 89.3 100 89.1 99.6C88.9 98.9 88.7 98.2 88.7 97.5C88.7 94.3 88.8 91.2 88.8 88C88.8 85.4 88.8 82.9 88.7 80.4C88.6 78.3 88.4 76.2 88.4 74C88.4 72.6 88.6 71.2 88.6 69.8C88.6 68.4 88.5 67 88.4 65.7C88.4 65.3 88.2 65.1 87.7 65.1C86.4 65.2 85.1 65.2 83.8 65.2C82.8 65.2 81.7 65.2 80.7 65.3C78.8 65.4 77 65.5 75.1 65.5C74.3 65.5 73.5 65.5 72.8 65.5C72.4 65.5 72 65.6 71.5 65.6C70.1 65.6 68.8 65.6 67.3 65.7C67.3 66.1 67.3 66.4 67.3 66.7C67.3 68.5 67.4 70.2 67.4 72C67.4 74 67.3 76 67.4 78C67.5 79.7 67.7 81.4 67.8 83.2C67.9 84.8 67.9 86.3 67.9 87.9C67.9 89.3 67.8 90.8 67.8 92.2C67.8 92.7 67.9 93.2 67.9 93.7C67.9 94.3 67.4 94.6 66.8 94.4C66.6 94.3 66.4 94.3 66.2 94.3C65.7 94.5 65.2 94.8 64.7 95C64.7 95.1 64.7 95.1 64.7 95.2C65.1 95.4 65.5 95.5 65.9 95.6C67.3 96.1 68.7 96.5 70 96.9C70.5 97.1 71 97.2 71.6 97.3C72.6 97.6 73.6 97.8 74.5 98.1C75.6 98.5 76.6 98.9 77.8 98.9C79.2 98.9 80.5 99.1 81.8 99.6C82 99.7 82.2 99.7 82.5 99.7C83.6 99.8 84.6 99.9 85.7 100C88.3 100.3 90.9 100.6 93.5 100.8C95.4 100.9 97.4 100.8 99.3 100.8C100.5 100.8 101.8 100.7 103 100.7C103.2 100.7 103.4 101 103.7 101.1C103.5 101.2 103.4 101.4 103.2 101.5C102.9 101.6 102.6 101.6 102.4 101.6C100.5 101.7 98.5 101.7 96.6 101.8C96.1 101.8 95.8 102 95.9 102.5C95.9 102.9 96.2 103.2 96.7 103.2C97.2 103.1 97.7 103.1 98.2 103.1C98.4 103.1 98.7 103.3 98.8 103.4C98.9 103.9 99.2 103.8 99.5 103.7C99.7 103.6 100 103.5 100.2 103.3C100.8 102.8 100.9 102.8 101.3 103.5C102 103.3 102.3 102.8 102.6 102.3C102.9 101.8 103.1 101.8 103.5 102.3C103.7 102.7 104.1 102.8 104.5 102.6C104.7 102.5 105 102.4 105.2 102.3C105.3 102.2 105.5 101.8 105.4 101.7C105 100.8 105.1 99.9 105.2 99C105.3 98.5 105.2 97.9 105.2 97.3C105.1 95.9 104.9 94.6 104.8 93.2C104.7 92.3 105.3 91.6 106.2 91.4C106.3 91.4 106.5 91.4 106.5 91.5C107.2 92.1 107.8 91.7 108.4 91.4C109 91.1 109.5 90.9 110.1 91.1C110.6 91.3 111.2 91.4 111.7 91.5C112.1 91.4 112.4 91.4 112.6 91.3ZM91.3 105.2C91.2 105.6 91 106 90.9 106.4C90.8 107.1 90.7 107.8 90.6 108.4C90.5 108.8 90.3 108.8 89.9 108.6C89.4 108.3 89.3 107.9 89.3 107.3C89.3 105.9 89.3 104.4 89.2 103C89.2 102.6 89.5 102.4 89.8 102.3C90.2 102.2 90.5 102.4 90.6 102.8C90.7 103.2 90.8 103.6 90.9 104C91.1 104 91.3 104 91.7 104.1C91.5 103.7 91.4 103.4 91.3 103C91.2 102.8 91.2 102.5 91.2 102.2C91.4 102.2 91.7 102.3 91.9 102.3C92.1 102.3 92.4 102.2 92.6 102C92.7 101.9 92.7 101.8 92.8 101.6C92.6 101.5 92.4 101.4 92.3 101.4C91.6 101.3 91 101.3 90.4 101.3C88.6 101.1 86.9 100.9 85.1 100.7C83.8 100.5 82.5 100.3 81.2 100.1C80.5 100 79.7 99.8 79 99.7C77.7 99.4 76.5 99.2 75.2 98.9C73.9 98.6 72.7 98.3 71.4 97.9C71.1 97.8 70.8 97.7 70.5 97.6C69.9 97.4 69.3 97.2 68.6 96.9C67.4 96.5 66.1 96 64.9 95.6C64.5 95.5 64 95.2 63.7 95.3C61.7 95.7 59.8 96.2 57.8 96.7C56.4 97.1 55 97.5 53.7 97.9C53.5 98 53.2 98.1 53.1 98.3C52.8 98.7 52.4 98.7 52.2 98.5C51.7 98.2 51.3 98.3 50.9 98.5C50.5 98.7 49.8 98.9 50 99.7C50.1 100.1 49.8 100.2 49.4 100.1C48.8 100 48.6 100.3 48.7 100.8C48.7 101 48.8 101.3 48.8 101.6C48.7 101.9 48.7 102.4 48.5 102.6C48.2 102.9 48.2 103.2 48.3 103.8C48.8 103.4 49.1 103.1 49.5 102.8C50.1 102.3 50.4 102.4 50.9 102.9C51.1 103.1 51.2 103.3 51.4 103.5C52.5 104.6 53.5 104.6 54 103.1C54.1 102.9 54.3 102.8 54.5 102.7C54.6 102.9 54.8 103 54.8 103.3C55 104.3 55 105.3 55.6 106.2C56.2 107 56.1 107 57 106.5C57.7 106.1 58.1 106.1 58.7 106.6C58.9 106.7 59 106.8 59.2 107C59.5 106.3 59.1 105.8 58.8 105.4C58.4 104.8 57.8 104.5 57.1 104.8C56.8 104.3 56.8 103.9 57.4 103.3C57.5 103.2 58 103.1 58.1 103.2C59.1 103.8 60.1 103.7 61.2 103.4C62 103.2 62.8 102.8 63.5 103.7C63.6 103.6 63.7 103.5 63.7 103.4C64.3 102.6 64.7 102.6 65.5 103C66 103.2 66.4 103.2 66.8 102.9C66.7 102.6 66.5 102.4 66.5 102.2C66.4 100.7 66.3 99.2 66.3 97.7C66.3 97.4 66.6 97.2 66.9 97.3C67.6 97.6 67.9 98.5 67.9 99.3C67.8 100.3 67.9 101.3 67.9 102.4C68.4 102.1 68.8 101.9 69.2 101.7C70 101.3 70.4 101.4 70.8 102.2C71.2 102.9 72 103.2 72.8 103C73.2 102.9 73.4 102.9 73.5 103.3C73.7 104 74.1 104.3 74.7 104.3C75.7 104.3 76 104.7 75.9 105.7C75.9 106.1 75.9 106.5 75.9 106.8C76 107.2 76.2 107.5 76.7 107.2C77.1 107 77.5 106.7 77.8 106.4C78.2 106.1 78.5 105.7 79 105.8C79.1 105.6 79.2 105.4 79.2 105.3C79.3 105.2 79.5 105 79.5 105.1C79.6 105.1 79.8 105.3 79.9 105.4C80.1 106 80.5 106.3 81.2 106.1C81.7 105.9 82.3 105.7 82.8 105.5C83.1 105.4 83.4 105.3 83.6 105.6C84.1 106.2 84.8 106.4 85.6 106C85.9 105.9 86.2 105.7 86.5 105.6C86.9 105.4 87.1 105.5 87.2 106C87.3 106.3 87.3 106.5 87.4 106.9C87.8 106.6 88.1 106.3 88.5 106.2C88.7 106.1 89 106.2 89.2 106.2C89.2 106.4 89.2 106.7 89.1 106.8C88.9 107.1 88.6 107.4 88.4 107.7C87.7 108.6 87.7 109.2 88.4 110.1C88.8 109.8 89.2 110 89.4 110.4C89.7 110.8 90 110.9 90.4 110.6C90.6 110.4 90.8 110.2 91.1 110C91.7 109.6 92.2 109.2 92.8 108.8C92.9 108.7 93.2 108.9 93.3 109C94 109.9 94.8 110 95.8 109.5C96.2 109.3 96.6 109.4 96.8 109.8C96.9 110.1 97.1 110.3 97.3 110.5C97.9 111.1 98.3 111.1 99 110.6C99.2 110.4 99.4 110.2 99.6 110.1C100 109.8 100.3 109.9 100.4 110.4C100.4 110.5 100.4 110.7 100.4 110.8C100.4 111.2 100.6 111.4 101.1 111.3C101.3 111.3 101.5 111.2 101.7 111.1C103 110.7 104.2 110 105.6 110.7C105.7 110 105.7 109.3 105.8 108.7C105.8 108.2 105.8 107.6 105.8 107.1C105.7 106.5 106 105.9 105.3 105.4C105.1 105.3 105.1 104.8 105.1 104.5C105.1 104.2 105.1 103.9 105.2 103.7C104.7 103.6 104.3 103.7 103.9 103.5C103.5 103.3 103.3 103.3 103 103.7C102.6 104.2 102.1 104.6 101.5 104.5C101 104.3 100.6 104.5 100.1 104.6C99.5 104.8 98.9 105 98.5 104.3C98.4 104.2 98.2 104.2 98.1 104.2C97.1 104.4 96.1 104.4 95.7 103.1C94.9 103.4 94.6 102.9 94.2 102.3C93.9 102.6 93.6 102.8 93.3 103.1C93.1 103.3 92.7 103.3 92.9 103.8C93 104.2 93.1 104.5 93.6 104.6C93.7 104.6 94 105 93.9 105.2C93.1 105.7 92.2 106 91.3 105.2ZM51.4 92.9C52.6 93.1 53.2 93.7 53.3 94.8C53.4 95.4 53.4 96 53.4 96.9C56.2 96.1 59 95.3 61.8 94.5C61.7 94.3 61.6 94.2 61.5 94.2C59.3 93.4 57 92.6 54.9 91.5C53.9 91 52.8 90.4 51.8 91.7C51.5 92.1 51.3 92.4 51.4 92.9ZM23.8 98.3C24.5 99.2 25.2 99.3 26 98.9C26.6 98.6 26.9 98.6 27.3 99.1C27.4 99.2 27.5 99.4 27.6 99.4C27.9 99.5 28.3 99.6 28.5 99.5C28.7 99.4 28.7 98.9 28.7 98.7C28.7 98.3 28.3 98.4 28.1 98.4C26.8 98.3 25.3 98.3 23.8 98.3Z" fill="#C9A0B0"/>
<path d="M84.7 112.6C84.9 112.6 85.1 112.6 85.3 112.5C85.2 112.3 85.1 112.1 85.1 111.8C85.6 112 86.1 112.1 86.5 112.4C86.6 112.5 86.7 112.8 86.7 112.9C86.5 113.3 85.2 113.3 84.9 112.9C84.7 112.9 84.7 112.8 84.7 112.6Z" fill="#C9A0B0"/>
<path d="M43.3 61.3C43.3 61.6 42.7 61.8 42.7 62C42.7 71 43.3 80 43.3 89C43.3 90.2 42.8 91.3 41.8 91.6C40.6 91.9 39 90.7 38.9 89.5C38.9 89.2 39.2 88.8 39.2 88.5C39.2 84.2 38.5 79.8 38.5 75.5C38.5 75 38.9 75.1 38.5 75.1C38.1 75.1 38.1 75.5 37.7 75.5C37.7 75.8 37.4 75.3 37.4 75.5C37.4 80 36.8 84.4 36.8 88.9C36.8 90 36.6 90 35.7 90.3C34.4 90.8 33.7 90.5 33.6 89.1C33.6 88.9 33.5 88.8 33.5 88.6C33.5 78.8 32.4 69 32.4 59.2C32.4 58.8 33.2 58.1 32.8 57.9C31.5 57.3 29.9 57 29.2 55.8C27.5 52.3 26.9 48.3 25.1 44.8C24.5 43.6 24.4 42.9 25.5 42.4C26.6 41.9 27.4 42.3 28 43.5C29.7 46.9 31 50.4 32.6 53.8C33.1 54.9 34.5 54.6 35.8 54.5C37.7 54.4 39.7 54.2 41.7 54.2C42.5 54.2 43.1 55.7 43.9 55.9C45.8 56.5 46.6 57.4 46.9 59.2C47.6 63 47.6 66.9 48.3 70.6C48.5 71.8 48.6 72.1 47.4 72.3C46.1 72.5 45.8 72.2 45.6 70.9C45.1 67.7 44.3 64.5 43.7 61.2C43.7 61.4 43.4 61.4 43.3 61.3Z" fill="#D07850"/>
<path d="M36.7 44.3C38.4 44.3 40.7 46 40.7 48.5C40.7 51 38.3 54.1 36.6 54.1C34.9 54.1 35 51 35 48.5C35.1 46 35 44.3 36.7 44.3Z" fill="#D07850"/>
<path d="M23.9 46.5C23.9 46.5 22.7 43.7 22.4 42.2C22.1 40.7 20.6 36.3 20.6 36.3C20.6 36.3 22.5 35.5 23.4 35.8C24.3 36.1 25.1 36.2 25.1 36.2C25.1 36.2 25.5 36.2 25.1 37.8C24.7 39.4 24.3 44.6 24.3 44.8C24.3 45 23.9 46.5 23.9 46.5Z" stroke="#D07850" stroke-width="0.75" stroke-miterlimit="10"/>
<path d="M21.2 35.3C19.1 31.4 25.7 30.6 26.5 27.5C26.9 26.5 26.8 25.3 26.7 24.2C27 25.3 27.4 26.5 27.1 27.7C26.6 30.2 23.9 31.1 22.1 32.5C21.2 33.1 20.8 34.2 21.2 35.3Z" fill="#D07850"/>
<path d="M23.9 35C22.5 32.2 27.2 31.9 27.9 29.8C28.2 29.1 28.2 28.3 28.3 27.5C28.5 28.3 28.7 29.1 28.5 30C28 31.8 26.1 32.3 24.8 33.1C24 33.4 23.7 34.2 23.9 35Z" fill="#D07850"/>
<path d="M24.5 35.3C24.3 32.2 28.7 33.5 30.2 31.9C30.7 31.4 31.1 30.7 31.4 29.9C31 35.7 25.2 32.1 24.5 35.3Z" fill="#D07850"/>
<path d="M48.6 107C48.8 107 49 107 49.2 106.9C49.1 106.7 49 106.5 49 106.2C49.5 106.4 50 106.5 50.4 106.8C50.5 106.9 50.6 107.2 50.6 107.3C50.4 107.7 49.1 107.7 48.8 107.3C48.7 107.3 48.7 107.2 48.6 107Z" fill="#C9A0B0"/>
<path d="M42.8 110C43 110 43.2 110 43.4 109.9C43.3 109.7 43.2 109.5 43.2 109.2C43.7 109.4 44.2 109.5 44.6 109.8C44.7 109.9 44.8 110.2 44.8 110.3C44.6 110.7 43.3 110.7 43 110.3C42.8 110.3 42.8 110.1 42.8 110Z" fill="#C9A0B0"/>
<path d="M81.9 109.3C82.1 109.3 82.3 109.3 82.5 109.2C82.4 109 82.3 108.8 82.3 108.5C82.8 108.7 83.3 108.8 83.7 109.1C83.8 109.2 83.9 109.5 83.9 109.6C83.7 110 82.4 110 82.1 109.6C82 109.5 82 109.4 81.9 109.3Z" fill="#C9A0B0"/>
<path d="M25.4 101.8C25.6 101.8 25.8 101.8 26 101.7C25.9 101.5 25.8 101.3 25.8 101C26.3 101.2 26.8 101.3 27.2 101.6C27.3 101.7 27.4 102 27.4 102.1C27.2 102.5 25.9 102.5 25.6 102.1C25.4 102.1 25.4 102 25.4 101.8Z" fill="#C9A0B0"/>
<path d="M133.3 110.7C133.5 110.7 133.7 110.7 133.9 110.6C133.8 110.4 133.8 110.2 133.7 109.9C134.2 110.1 134.7 110.2 135.1 110.5C135.2 110.6 135.3 110.9 135.3 111C135.1 111.4 133.8 111.4 133.5 111C133.3 111 133.3 110.9 133.3 110.7Z" fill="#C9A0B0"/>
</svg>
