<svg width="172" height="151" viewBox="0 0 172 151" fill="none" xmlns="http://www.w3.org/2000/svg">
<g clip-path="url(#clip0_5398_9014)">
<path d="M86.8601 74.46C87.0301 73.94 87.2001 73.43 87.3701 72.91C87.2901 72.86 87.2201 72.81 87.1401 72.76C86.9701 73.02 86.7401 73.26 86.6501 73.54C86.3401 74.48 85.9201 75.32 84.9001 75.77C84.2501 76.06 83.6401 76.08 82.9601 75.46C84.1701 74.86 86.2101 75.08 85.8601 73.34C85.1801 73.21 84.6701 73.02 84.1801 73.06C83.8201 73.09 83.3401 73.35 83.1801 73.63C82.6801 74.53 82.2101 75.46 81.9301 76.43C81.8001 76.88 82.1201 77.45 82.3001 78.21C82.9701 77.64 83.4201 77.26 83.8801 76.87C84.0001 76.93 84.1101 76.99 84.2301 77.05C84.0401 77.47 83.9401 77.97 83.6301 78.28C82.6801 79.25 81.6401 80.15 80.6401 81.08C77.2801 84.21 73.8901 87.31 70.5701 90.48C68.9001 92.07 67.3501 93.77 65.7201 95.41C65.1501 95.98 64.5001 96.5 63.8801 97.03C62.9001 97.88 61.9401 98.74 60.9401 99.56C59.4701 100.77 57.9701 101.95 56.4101 102.94C55.9201 102.99 55.4301 103.04 54.9301 103.1C53.8001 103.23 52.6701 103.37 51.5401 103.52C51.1301 103.58 50.7401 103.72 50.3301 103.77C49.7201 103.84 48.9401 104.09 48.5201 103.85C46.9601 102.92 45.2101 102.82 43.4901 102.55C42.9201 102.46 42.3801 102.16 41.8201 101.96C40.7201 101.57 39.6101 101.19 38.5001 100.81C37.7101 100.54 36.9201 100.25 36.1301 99.99C35.0101 99.62 33.9001 99.25 32.7701 98.92C31.6001 98.58 30.4201 98.28 29.2401 97.99C28.4601 97.8 27.6601 97.46 26.9001 97.51C24.7501 97.66 22.9201 97.02 21.1201 96C20.1901 95.47 19.0601 95.27 17.8901 94.87C17.8301 95.33 17.7901 95.56 17.7501 95.85C17.3801 95.67 17.0501 95.53 16.7301 95.35C16.3501 95.14 16.0101 94.85 15.6101 94.69C14.7401 94.35 13.8501 94.04 12.9501 93.76C11.8901 93.43 10.8201 93.14 9.75006 92.84C9.15006 92.67 8.50006 92.59 7.94006 92.33C7.25006 92.02 7.11006 91.56 7.27006 90.73C7.43006 90.77 7.69006 90.78 7.72006 90.85C8.08006 91.93 9.11006 91.87 10.0101 92.06C10.8601 92.24 11.7501 92.4 12.5301 92.76C14.1601 93.51 15.8201 94.06 17.6601 94.11C19.3401 94.15 20.8101 94.78 22.1801 95.62C23.3401 96.33 24.5601 96.58 25.9601 96.55C27.0501 96.52 28.1601 96.85 29.2501 97.08C30.4401 97.33 31.6201 97.64 32.8001 97.94C33.7101 98.17 34.6201 98.42 35.5101 98.69C36.9001 99.11 38.2901 99.55 39.6701 100.01C40.2601 100.21 40.8601 100.43 41.3901 100.73C42.3501 101.26 43.3101 101.67 44.4801 101.54C44.7501 101.51 45.0501 101.7 45.3301 101.79C45.6801 101.9 46.0301 102.01 46.3701 102.12C46.9901 102.32 47.7001 102.4 48.2001 102.74C48.7601 103.12 49.2001 103.09 49.7501 102.88C50.1301 102.73 50.6001 102.48 50.9301 102.58C52.3801 103.01 53.6401 102.54 54.9101 102.04C55.9401 101.64 56.9901 101.27 57.9601 100.77C58.6201 100.43 59.1801 99.89 59.7601 99.42C60.9701 98.43 62.1901 97.45 63.3401 96.4C64.4601 95.36 65.4601 94.21 66.5601 93.16C69.2501 90.58 72.0201 88.06 74.6801 85.45C76.0501 84.1 77.2501 82.61 78.5301 81.18C78.6501 81.37 78.7701 81.57 78.8901 81.76C77.7101 81.55 76.5401 81.31 75.3601 81.16C75.0401 81.12 74.6701 81.36 74.2501 81.5C72.9201 79.07 70.2401 79.46 67.9301 79.21C65.7401 78.97 63.4901 79.12 61.4401 78.1C61.1901 78.58 61.0101 79.01 60.7501 79.39C60.6401 79.55 60.3601 79.61 60.1601 79.71C60.0701 79.52 59.8701 79.32 59.9001 79.14C59.9801 78.64 60.1501 78.16 60.3201 77.57C60.0401 77.44 59.6901 77.24 59.3001 77.1C57.3101 76.39 55.3001 75.73 53.3201 75C52.3301 74.63 51.3901 74.14 50.3701 73.69C50.7801 72.9 51.2801 72.83 51.7801 73.26C52.8001 74.13 54.0901 74.27 55.3201 74.64C57.2101 75.21 59.0601 75.98 60.8201 76.85C62.8301 77.84 64.9001 78.39 67.1701 78.45C69.0601 78.5 70.9401 78.75 72.8301 78.91C72.8801 78.18 72.8101 78.09 71.9901 78.03C71.0101 77.96 70.0201 77.96 69.0301 77.88C66.6401 77.67 64.7301 76.56 62.9801 75.1C62.6101 74.79 62.0101 74.58 61.5201 74.59C60.3701 74.61 59.6701 73.97 59.0401 73.28C58.4201 72.61 57.8301 72.46 57.0301 72.93C56.8001 73.07 56.5201 73.18 56.2501 73.23C55.4101 73.4 54.5601 73.55 53.6201 73.72C53.5801 73.61 53.4801 73.31 53.3501 72.93C51.5801 73.61 51.2101 71.83 50.0301 71.39C50.7801 70.72 51.2001 70.75 51.8801 71.46C52.1901 71.78 52.5401 72.07 52.8801 72.37C52.9701 72.31 53.0701 72.24 53.1601 72.18C53.1201 71.71 53.0701 71.24 53.0201 70.73C52.0901 70.85 51.5901 70.72 51.5601 69.62C51.5201 68.09 51.1301 66.57 50.8701 64.91C50.2101 65.34 49.9201 63.82 49.2101 64.82C50.1401 65.25 50.2001 65.53 49.3501 66.04C48.5201 66.53 47.6101 66.89 46.7601 67.36C46.0001 67.79 45.2801 68.29 44.5401 68.75C44.6001 68.85 44.6701 68.94 44.7301 69.04C45.7401 68.53 46.7201 67.97 47.7501 67.52C48.7301 67.09 49.6001 66.09 51.0101 66.76C49.5501 69.64 46.9701 71.12 44.1501 72.38C43.3501 72.74 42.6601 73.32 41.9601 73.85C39.4701 75.7 36.9901 77.57 34.5601 79.39C35.5201 79.7 35.8001 79.77 36.7801 79.15C38.5701 78.01 40.3201 76.81 42.0001 75.53C43.6301 74.28 45.1201 72.89 46.7101 71.6C46.9201 71.43 47.5101 71.35 47.6701 71.49C48.1601 71.91 49.0201 71.98 49.0801 72.88C49.1001 73.17 49.7701 73.42 50.1401 73.69C50.1301 73.79 50.1101 73.9 50.1001 74C49.7001 73.97 49.1601 74.08 48.9101 73.88C48.2201 73.31 47.7601 73.62 47.1901 74.01C45.0101 75.52 42.8201 77.01 40.6201 78.47C39.5701 79.17 38.4801 79.81 37.3901 80.45C37.2201 80.55 36.8601 80.6 36.7201 80.5C35.7501 79.88 34.9401 80.15 34.1601 80.8C33.4201 81.41 32.7101 82.05 31.9401 82.61C31.7401 82.76 31.3401 82.67 31.0301 82.69C31.1201 82.43 31.1201 82.08 31.3101 81.91C31.9501 81.33 32.6501 80.82 33.3301 80.28C33.2701 80.21 33.2001 80.14 33.1401 80.06C31.8201 81.04 30.5001 82.03 29.1601 83.03C30.5301 85.35 32.6201 86.78 35.2801 86.99C36.7101 87.1 38.2901 86.45 39.6701 85.88C41.6901 85.04 43.5801 83.95 45.5501 82.99C46.0101 82.77 46.5401 82.67 47.0401 82.52C47.1001 82.65 47.1701 82.77 47.2301 82.9C45.7501 83.71 44.2801 84.52 42.7601 85.35C42.9201 85.55 43.0701 85.75 43.1701 85.87C44.4601 85.38 45.7101 84.89 46.9701 84.43C47.0401 84.41 47.2101 84.62 47.5001 84.87C44.2901 86.42 41.1901 87.92 38.0401 89.45C38.3501 90.85 37.6801 91.85 36.4601 92.82C35.6601 93.45 35.2701 94.54 34.7501 95.33C30.1201 96.46 26.0301 95.69 22.6901 92.33C22.4101 92.33 22.0901 92.33 21.7701 92.33C21.8601 92.05 22.0001 91.77 22.0101 91.49C22.0201 91.24 21.9701 90.83 21.8101 90.76C21.3501 90.56 20.8101 90.37 20.3301 90.41C19.9901 90.44 19.7001 90.87 19.2601 91.4C17.9401 90.7 16.6601 89.91 15.2801 89.33C14.0001 88.79 12.6201 88.46 11.2301 88.16C12.3801 89.42 13.8901 90.08 15.5001 90.56C16.9101 90.98 18.3501 91.28 19.7701 91.67C20.3101 91.82 21.1501 91.91 20.7901 92.69C20.6501 92.99 19.8501 93.25 19.4301 93.17C17.2401 92.71 15.0301 92.24 12.9201 91.55C11.0101 90.93 9.14006 90.12 7.37006 89.19C6.01006 88.48 4.91006 87.35 3.56006 86.6C1.94006 85.63 1.92006 84.3 1.71006 82.72C1.50006 81.18 2.24006 80.61 3.28006 79.93C3.45006 79.82 3.61006 79.67 3.71006 79.51C5.06006 77.31 7.26006 77.02 9.70006 77.1C12.1501 77.18 13.7501 78.2 14.6601 80.34C14.8701 80.84 15.6401 81.28 16.2501 81.45C17.4701 81.8 18.7201 82.23 20.0601 81.73C20.3101 81.64 20.7401 81.9 21.0601 82.03C21.2701 82.12 21.4501 82.27 21.8401 82.52C20.9401 81.05 20.1301 79.83 19.4401 78.56C19.2801 78.26 19.4601 77.77 19.5501 77.39C19.5801 77.28 19.9901 77.13 20.0301 77.17C20.2701 77.41 20.5001 77.68 20.6501 77.98C21.1601 79.01 21.6301 80.07 22.1401 81.11C22.6501 82.16 23.6001 82.17 24.5901 81.93C25.7301 81.65 26.8501 81.28 28.0101 81.06C28.3301 81 28.7301 81.38 29.2101 81.61C31.5701 79.92 34.0501 78.14 36.5501 76.34C35.3301 75.99 35.8901 75.37 36.4001 74.81C35.4601 73.81 36.4501 73.11 36.7701 72.1C34.7901 73.38 32.9301 74.55 31.1101 75.77C30.2901 76.32 29.5001 76.94 28.7801 77.61C28.3201 78.04 28.0401 78.63 27.6201 79.11C27.4201 79.33 27.1201 79.52 26.8201 79.61C26.5201 79.69 26.1601 79.63 25.9101 79.63C25.9701 80.07 26.0601 80.4 26.0301 80.72C26.0201 80.79 25.3801 80.92 25.3101 80.83C25.0901 80.55 24.9101 80.19 24.8801 79.85C24.7201 77.51 24.5901 75.17 24.4801 72.82C24.3601 70.21 24.3101 67.59 24.1601 64.98C24.1301 64.41 23.8001 63.86 23.6101 63.3C23.4901 63.27 23.3601 63.24 23.2401 63.21C23.6501 63.02 24.0501 62.79 24.4801 62.65C25.0701 62.46 25.1701 62.09 25.1301 61.58C25.0501 60.42 25.0001 59.26 24.9401 58.1C25.0601 58.08 25.1901 58.06 25.3101 58.05C25.5201 59.25 25.7301 60.45 25.9601 61.77C28.2201 60.03 30.3901 58.35 32.5601 56.67C32.6101 56.72 32.6601 56.77 32.7101 56.82C31.8501 57.6 31.0001 58.39 30.1301 59.16C29.7701 59.48 29.3701 59.74 29.0001 60.05C27.9801 60.93 26.9701 61.81 25.9501 62.7C25.9801 65.01 25.6301 67.36 26.7701 69.71C27.9701 68.99 29.1401 68.3 30.3001 67.61C30.3501 67.67 30.4001 67.74 30.4601 67.8C29.6001 68.42 28.7801 69.08 27.8901 69.66C26.9701 70.26 26.6401 70.99 26.8801 72.02C27.0001 72.54 26.8701 73.11 26.8601 73.66C26.8501 74.22 26.8101 74.78 26.8801 75.32C26.9901 76.18 27.1801 77.04 27.3601 78.05C27.9301 77.58 28.4501 77.09 29.0401 76.68C31.1701 75.2 33.3801 73.81 35.4601 72.26C37.2601 70.92 38.9201 69.43 40.6501 68.01C40.8201 67.87 41.0401 67.79 41.2201 67.67C42.2501 67.01 43.3001 66.36 44.2901 65.65C44.4801 65.52 44.4901 65.11 44.4901 64.82C44.5201 63.54 44.5501 62.27 44.5201 60.99C44.5101 60.69 44.3101 60.39 44.2001 60.09C44.1101 59.85 43.9301 59.61 43.9401 59.37C44.0801 57.36 44.2901 55.35 44.4001 53.34C44.6401 49 43.8201 44.73 43.2501 40.45C43.1701 39.84 43.0501 39.24 42.9301 38.52C42.3001 38.83 41.7701 39.1 41.2401 39.36C41.1701 39.29 41.1101 39.22 41.0401 39.15C41.5901 38.69 42.2901 38.31 42.6501 37.74C43.0101 37.18 43.0501 36.43 43.2301 35.77C43.3501 35.77 43.4701 35.77 43.5801 35.77C43.6901 36.17 43.8101 36.56 43.9501 37.04C44.9601 36.4 45.9401 35.77 46.9101 35.15C47.0201 35.2 47.1301 35.24 47.2301 35.29C47.1101 35.58 47.0801 35.98 46.8501 36.15C46.1201 36.66 45.3401 37.12 44.5501 37.54C44.0201 37.82 43.8201 38.16 43.9101 38.73C44.1301 40.12 44.2901 41.51 44.4901 43C45.3801 42.51 45.5601 41.29 46.9201 41.44C46.4801 42.07 46.1201 42.6 45.7601 43.12C46.8101 42.58 47.6201 41.69 48.9601 41.88C47.5201 42.94 46.0301 43.9 45.2401 45.49C45.3001 45.57 45.3701 45.66 45.4301 45.74C45.7101 45.54 46.1501 45.38 46.2401 45.12C46.5801 44.06 47.3901 43.46 48.4201 43.16C49.1501 42.94 49.3001 42.51 49.3201 41.93C49.4001 40 49.4701 38.07 49.5901 36.15C49.6201 35.73 49.8401 35.32 49.9801 34.91C50.1201 34.93 50.2601 34.95 50.4001 34.97C50.4201 35.29 50.4701 35.62 50.4501 35.94C50.3301 37.77 50.1601 39.6 50.0901 41.44C50.0801 41.78 50.4101 42.12 50.5201 42.48C50.5901 42.72 50.6001 43.01 50.5501 43.26C50.4501 43.78 50.1401 44.3 50.1701 44.81C50.3301 48.15 50.6001 51.48 50.7501 54.82C50.8101 56.16 50.6401 57.5 50.6501 58.85C50.6601 59.92 50.7201 61 50.8601 62.06C50.9301 62.6 51.2501 63.04 52.0101 62.99C52.2401 62.97 52.5401 63.21 52.7101 63.4C52.9501 63.66 53.1201 63.99 53.3401 64.33C53.5701 64.17 53.7401 64.07 53.9001 63.95C54.1801 63.75 54.4501 63.55 54.7301 63.35C54.9301 63.63 55.2901 63.9 55.3201 64.2C55.4201 65.39 55.4201 66.59 55.4601 67.78C55.4801 68.33 55.5401 68.88 55.4901 69.43C55.4501 69.78 55.2201 70.12 55.0801 70.46C54.8601 70.2 54.6401 69.94 54.4201 69.67C54.3601 69.67 54.3101 69.67 54.2501 69.67C54.5301 70.53 54.7401 71.42 55.1301 72.24C55.2101 72.41 56.0101 72.46 56.3601 72.32C56.8701 72.11 57.8101 72.19 57.6601 71.19C57.3801 71.37 57.1501 71.64 56.9301 71.63C56.6301 71.61 56.1101 71.39 56.1001 71.23C55.9901 69.77 55.9501 68.31 55.9401 66.84C55.9301 65.82 55.7001 64.74 56.6401 63.88C56.7901 63.74 56.7201 63.39 56.7701 63.08C55.9001 62.63 55.0201 62.36 53.9801 62.66C53.7101 62.74 53.3401 62.51 53.0201 62.42C53.3201 62.24 53.6201 61.9 53.9201 61.9C54.8101 61.89 55.7901 61.83 56.5901 62.13C58.9801 63.05 61.4201 63.51 64.0101 63.41C64.7701 63.38 65.5501 63.52 66.2901 63.59C66.4901 63.23 66.6901 62.86 66.8901 62.49C66.9901 62.5 67.0901 62.51 67.1901 62.52C67.3901 63.06 67.5801 63.6 67.7801 64.14C67.8601 64.12 67.9501 64.1 68.0301 64.08C67.9901 63.78 67.9101 63.49 67.9301 63.19C67.9501 62.83 67.9401 62.27 68.1601 62.16C68.4901 62 69.0701 62.02 69.4201 62.19C70.3501 62.64 71.1801 63.29 72.1201 63.72C72.8901 64.07 73.7601 64.34 74.6101 64.43C75.6801 64.55 76.0201 64.1 75.9201 63.12C75.7201 61.24 75.5201 59.39 75.8001 57.47C76.0201 55.96 75.5501 54.36 75.4801 52.8C75.4101 51.38 75.3601 49.94 75.4701 48.52C75.6501 46.21 76.1701 43.9 76.1301 41.59C76.1101 40.2 77.1001 39.57 77.6401 38.6C77.7201 38.46 78.0001 38.29 78.1501 38.32C79.2101 38.52 79.8401 37.87 80.5901 37.39C81.2501 36.97 82.0601 36.75 82.7001 36.32C84.0301 35.42 85.3101 34.45 86.6001 33.5C87.0701 33.16 87.5501 32.82 87.9801 32.43C88.1901 32.24 88.2901 31.95 88.5401 31.54C88.7701 31.57 89.1601 31.62 89.5701 31.68C89.8001 31.34 90.0301 30.99 90.3501 30.53C90.7401 31.24 91.0401 31.81 91.3501 32.38C91.2601 32.37 91.1701 32.36 91.0801 32.36C90.9501 32.81 90.7001 33.26 90.7201 33.7C90.9001 37.95 91.1401 42.21 91.3201 46.46C91.3601 47.28 91.2901 48.1 91.2001 48.91C91.1701 49.19 90.9401 49.45 90.8101 49.72C90.7101 49.69 90.6101 49.66 90.5101 49.63C90.5101 47.97 90.5101 46.31 90.5101 44.4C90.2401 44.86 90.1001 45.09 89.8701 45.48C89.6501 45.09 89.5101 44.82 89.3001 44.46C88.1201 45.08 86.9301 45.71 85.6801 46.38C85.7901 44.04 85.9001 41.93 85.9901 39.81C86.0701 38.06 86.0501 38.05 84.3601 36.89C84.9001 36.8 85.2201 36.68 85.5301 36.7C86.5101 36.75 87.4901 36.85 88.6001 36.95C88.4501 37.09 88.2301 37.45 87.9101 37.56C87.1901 37.81 86.9701 38.29 86.9501 38.92C86.9301 40.26 86.9201 41.6 86.9101 42.95C86.9001 43.57 86.9101 44.19 86.9101 44.92C87.6901 44.54 88.4501 44.23 89.1301 43.81C89.3301 43.68 89.3901 43.24 89.3701 42.95C89.2701 41.65 89.1001 40.35 89.0101 39.05C88.9701 38.52 89.0701 37.97 89.1001 37.44C89.2201 37.43 89.3401 37.43 89.4501 37.42C89.6601 38.93 89.8801 40.45 90.0901 41.96C90.1901 41.95 90.2901 41.94 90.4001 41.93C90.3001 40.81 90.2001 39.69 90.0901 38.57C90.0601 38.28 90.0001 37.99 89.9201 37.7C89.8001 37.28 89.6501 36.87 89.4701 36.29C90.8001 35.36 89.4901 33.96 89.8501 32.71C89.7601 32.65 89.6601 32.59 89.5701 32.53C88.9901 32.91 88.3601 33.25 87.8301 33.69C86.1501 35.09 84.6201 36.65 82.3201 37.21C82.0101 37.28 81.8001 37.64 81.5101 37.81C80.8101 38.22 80.1301 38.73 79.3601 38.97C78.3101 39.3 77.1201 40.32 77.0101 41.4C76.5101 46.18 75.6401 50.95 76.4801 55.79C76.6401 56.7 76.3501 57.67 76.3701 58.61C76.4001 60.14 76.5201 61.66 76.6001 63.33C78.3801 62.56 79.8401 61.87 81.0101 60.6C82.0701 59.45 83.4801 58.57 84.7501 57.59C86.1801 56.49 87.6101 55.39 89.0901 54.35C89.8101 53.85 89.9201 53.2 90.0101 52.47C90.0901 51.78 90.2401 51.1 90.3601 50.41C90.4801 50.42 90.5901 50.43 90.7101 50.43C90.7101 51.17 90.7101 51.9 90.7101 52.65C90.9201 52.63 91.0001 52.64 91.0501 52.61C91.3901 52.4 91.7101 52.19 92.0501 51.98C91.9901 52.38 92.0601 52.84 91.8501 53.16C91.5701 53.6 91.0501 53.89 90.7201 54.31C90.4701 54.62 90.3301 55.01 90.1801 55.38C90.0401 55.74 89.9501 56.11 89.8401 56.48C89.6001 56.18 89.3701 55.87 88.9701 55.36C88.2701 55.86 87.4601 56.38 86.7001 56.96C85.6701 57.75 84.6701 58.58 83.6801 59.41C83.0201 59.95 82.4201 60.55 81.7301 61.06C80.7501 61.78 79.7301 62.44 78.7101 63.12C78.1801 63.48 77.6301 63.81 77.1001 64.15C77.6701 64.52 78.1501 64.83 78.6301 65.14C78.5501 65.28 78.4801 65.42 78.4001 65.56C77.9001 65.36 77.4001 65.17 76.7501 64.91C76.6901 65.98 76.6301 66.91 76.5701 67.95C76.8201 67.86 76.9601 67.84 77.0501 67.77C78.8701 66.1 80.6901 64.42 82.5101 62.74C83.5301 61.8 84.4601 60.77 85.5801 59.96C86.2601 59.46 87.2201 59.3 88.2201 58.92C88.2201 58.82 88.1501 58.49 88.2401 58.2C88.3301 57.92 88.5901 57.69 88.7801 57.44C88.9501 57.6 89.1401 57.76 89.3001 57.92C89.4401 58.06 89.5201 58.28 89.6901 58.34C90.9201 58.81 92.1401 59.36 93.4201 59.67C94.2401 59.87 94.6401 60.22 94.8101 60.91C95.0901 62.08 95.3501 63.26 95.6401 64.51C95.8601 64.22 96.0601 63.97 96.2501 63.71C97.1201 62.53 97.7501 61.17 99.2301 60.47C99.3801 60.4 99.4801 60.24 99.5901 60.11C101.6 57.77 103.6 55.42 105.63 53.09C106.01 52.66 106.52 52.34 106.97 51.96C107.07 52.04 107.16 52.12 107.26 52.19C107.15 52.45 107.11 52.75 106.93 52.95C105.38 54.68 103.8 56.39 102.26 58.13C101.79 58.66 101.51 59.37 100.96 59.79C98.6701 61.51 97.1101 63.81 95.6201 66.04C93.9801 68.51 91.1801 69.73 89.3801 71.94C88.9301 72.49 88.5001 73.04 88.0601 73.59C87.7901 73.92 87.5201 74.25 87.2501 74.58C87.1101 74.55 86.9801 74.5 86.8601 74.46ZM48.6501 58.35C48.2901 58.62 47.9301 58.91 47.5601 59.17C46.7201 59.76 46.1401 60.47 46.0601 61.59C46.6301 61.48 47.0601 61.4 47.4901 61.31C46.1201 62.56 45.7901 61.44 45.4601 60.08C45.4601 61.85 45.4601 63.2 45.4601 64.75C46.0501 64.29 46.4201 63.95 46.8301 63.67C47.2601 63.38 47.7301 63.13 48.1801 62.86C48.2301 62.91 48.2801 62.96 48.3201 63.02C48.1701 63.27 48.0201 63.52 47.7301 63.99C48.6001 63.56 49.2801 63.3 49.8701 62.91C50.2501 62.66 49.8401 59.99 49.4401 59.6C49.6101 59.18 49.7901 58.75 49.9801 58.28C49.3501 58.32 48.9901 58.34 48.6301 58.37C50.1701 57.56 50.5401 56.54 49.7101 55.35C46.8101 57.52 45.6901 58.92 45.9401 59.94C46.8201 59.42 47.7301 58.88 48.6501 58.35ZM73.1801 65.92C71.0801 66.45 69.1601 65.7 67.2301 65.01C67.1801 65.25 67.1101 65.36 67.1501 65.43C68.1801 67.53 68.1001 69.77 68.0701 71.99C68.0701 72.3 67.8001 72.6 67.6501 72.9C67.0601 70.22 67.6101 67.52 65.7701 65.22C66.0701 65.04 66.3301 64.89 66.8601 64.58C65.7601 64.41 64.9601 64.28 64.0101 64.13C64.0701 64.62 64.1001 64.94 64.1601 65.25C64.5801 67.47 64.5501 69.68 64.0601 71.88C63.9901 72.21 63.6601 72.48 63.4501 72.78C63.3501 72.72 63.2401 72.66 63.1401 72.61C63.1601 72.36 63.1501 72.11 63.2001 71.86C63.6201 69.51 63.6501 67.17 63.0101 64.85C62.9401 64.6 62.6601 64.25 62.4401 64.22C61.7301 64.11 61.0001 64.13 60.2301 64.09C60.5201 65.67 60.8201 67.11 61.0501 68.56C61.1901 69.46 61.2901 70.37 61.3001 71.28C61.3001 71.5 60.9101 71.73 60.7001 71.95C60.5901 71.78 60.4101 71.62 60.3901 71.44C60.0401 69.15 59.7001 66.86 59.3701 64.56C59.2601 63.79 58.7501 63.55 57.8101 63.53C58.4501 64.47 59.1001 65.3 58.4901 66.41C58.3301 66.7 58.7101 67.21 58.7701 67.63C58.9601 69.06 59.1201 70.5 59.3201 72.16C60.1601 72.78 61.0001 74 62.7001 73.86C62.9501 73.84 63.2401 74.13 63.4901 74.31C64.2101 74.84 64.8801 75.42 65.6201 75.91C67.5201 77.16 69.6701 77.37 72.1801 77.26C71.7801 76.87 71.5701 76.64 71.3301 76.43C70.4601 75.65 70.0601 74.89 70.5601 73.66C71.3501 71.73 71.9201 69.7 71.6601 67.57C71.6301 67.34 71.6901 67.1 71.7101 66.87C71.8001 66.86 71.9001 66.86 71.9901 66.85C72.1301 67.84 72.2701 68.83 72.4101 69.82C72.4901 69.8 72.5301 69.8 72.5501 69.78C72.6001 69.73 72.6601 69.68 72.6701 69.62C72.9301 68.48 73.5901 68 74.8701 68.32C75.0601 68.37 75.5201 68.14 75.5601 67.98C75.7501 67.12 75.8401 66.24 75.9601 65.37C75.8601 65.34 75.7601 65.31 75.6601 65.27C75.1301 65.69 74.6401 66.16 74.0601 66.52C73.8301 66.67 73.4301 66.59 73.1001 66.61C73.1201 66.36 73.1401 66.12 73.1601 65.87C73.5301 65.66 73.8901 65.44 74.1301 65.3C72.3001 64.47 70.5201 63.65 68.7301 62.84C68.6401 62.88 68.5401 62.92 68.4501 62.96C68.7301 63.55 68.8401 64.36 69.3201 64.7C70.2401 65.34 71.3701 65.67 72.6101 64.79C72.8101 65.22 72.9901 65.57 73.1801 65.92ZM27.4201 82.72C27.3401 82.68 27.2501 82.63 27.1701 82.59C26.5601 83.52 25.9701 84.47 25.3301 85.38C24.5901 86.43 23.8901 87.52 23.0101 88.46C22.3501 89.16 22.3501 89.73 22.8101 90.45C24.0701 89.89 24.3701 89.82 24.5901 89.98C24.3301 90.32 24.0801 90.66 23.8201 91.01C24.4001 91.62 24.9301 91.87 25.7501 91.33C26.0901 91.11 26.7401 91.21 27.2201 91.3C27.3701 91.33 27.4001 91.84 27.4701 92.07C26.1501 92.18 25.0301 92.28 23.9001 92.38C23.8601 92.44 23.8201 92.5 23.7801 92.56C25.3101 93.29 26.8401 94.03 28.3701 94.76C28.8701 93.88 29.6401 93.25 28.4801 92.64C28.4001 92.6 28.3801 92.31 28.4501 92.22C28.5301 92.12 28.7901 92.04 28.8901 92.09C29.1601 92.22 29.4001 92.42 29.4201 92.44C30.1001 92.32 30.6601 92.05 31.0301 92.2C31.5101 92.4 31.8301 92.94 32.2201 93.33C32.1401 93.4 32.0601 93.46 31.9801 93.53C31.6001 93.26 31.2101 93 30.8301 92.73C30.7701 92.8 30.7201 92.87 30.6601 92.93C30.8701 93.16 31.0701 93.4 31.4901 93.88C30.3601 93.6 29.7001 93.67 29.6901 94.94C30.6401 94.86 31.5701 94.79 32.5001 94.72C33.2701 94.66 33.6101 94.3 33.6001 93.57C33.5901 92.69 33.9401 92.19 35.0701 92.28C36.2501 92.38 37.2601 91.62 37.4901 90.67C37.7101 89.76 37.2001 88.93 36.0801 88.46C34.4001 87.76 32.7101 87.1 31.0401 86.43C30.8601 87.25 30.6601 88.16 30.4601 89.06C30.3501 89.05 30.2401 89.03 30.1301 89.02C30.0901 88.81 30.0001 88.6 30.0001 88.39C30.0001 87.61 30.1601 86.8 29.9901 86.05C29.8301 85.32 29.4001 84.62 28.9601 83.98C28.8601 83.83 28.2201 84.07 27.8701 83.98C27.6201 83.92 27.3401 83.64 27.2401 83.4C27.1401 83.23 27.3401 82.95 27.4201 82.72ZM9.78006 86.76C10.0201 86.34 10.2601 85.97 10.4501 85.59C10.6301 85.23 10.9501 84.81 10.8801 84.47C10.6601 83.35 11.1801 82.65 12.1201 82.1C12.7901 81.71 13.4801 81.32 14.1201 80.96C13.2301 77.32 6.63006 76.92 4.65006 79.46C4.28006 79.94 3.92006 80.5 3.41006 80.79C2.42006 81.35 2.20006 82.12 2.32006 83.13C3.24006 83.34 3.68006 83.83 3.40006 84.77C3.35006 84.94 3.48006 85.24 3.64006 85.37C4.68006 86.28 5.74006 87.15 6.88006 88.11C7.33006 86.61 7.33006 86.61 9.78006 86.76ZM24.1701 83.67C23.7801 83.52 23.2901 83.24 22.7701 83.16C20.2901 82.77 17.8101 82.4 15.3201 82.09C14.9001 82.04 14.3001 82.23 14.0001 82.51C13.3501 83.1 12.8301 83.81 12.2901 84.49C12.1501 84.67 11.9801 85.05 12.0601 85.14C13.0101 86.12 13.8401 87.4 15.0501 87.92C16.7101 88.64 18.6501 88.81 20.4801 89.14C21.1701 89.27 21.7201 89.04 22.0301 88.29C22.6201 86.82 23.3601 85.39 24.1701 83.67ZM87.9301 60.45C85.8401 60.82 84.2101 62.03 85.1701 64.1C85.4101 64.62 85.2601 65.12 84.6101 65.34C84.1501 65.04 83.7301 64.78 83.4601 64.6C82.8701 66.04 82.2801 67.47 81.7501 68.75C81.8201 69.44 81.8901 70.1 81.9501 70.63C81.2701 70.66 80.8801 70.68 80.4501 70.7C79.6001 69.19 76.2701 68.79 75.2901 70.18C76.7001 71.31 78.1001 72.43 79.5801 73.62C80.0501 74.29 80.6101 75.08 81.2201 75.94C81.8101 74.76 82.4401 73.79 82.7701 72.74C83.0401 71.87 83.2701 70.77 82.9201 70C82.3501 68.74 82.8601 67.98 83.6101 67.08C84.7601 67.52 85.4301 68.33 85.9701 69.27C86.5001 70.21 86.9201 70.3 87.9001 69.75C87.8501 69.44 87.7601 69.14 87.7701 68.85C87.7901 67.85 87.7601 66.85 87.8901 65.86C88.0401 64.68 87.5201 63.87 86.5901 63.18C86.2701 62.94 86.0201 62.61 85.7401 62.32C85.8201 62.21 85.9101 62.1 85.9901 62C86.7001 62.33 87.4001 62.65 88.2901 63.06C88.1601 62.14 88.0501 61.33 87.9301 60.45ZM79.2001 78.29C80.2101 78.16 80.8801 77.62 80.6401 77C80.2701 76.05 79.4801 75.24 78.7801 74.24C78.3201 74.9 78.0401 75.3 77.7601 75.69C77.6401 75.64 77.5201 75.59 77.4001 75.54C77.5301 75.18 77.5701 74.76 77.8001 74.47C78.2001 73.97 78.1401 73.63 77.6601 73.23C76.7001 72.43 75.7701 71.6 74.8101 70.8C74.3401 70.41 73.8401 70.05 73.3501 69.67C72.8401 70.78 72.2301 72.01 72.3701 73.5C72.4301 74.11 72.9601 75.12 71.6601 75.48C71.9001 75.72 72.0701 75.94 72.2901 76.1C73.2601 76.82 73.9901 77.62 73.8901 78.91C73.8601 79.25 74.3401 79.61 74.7401 80.19C75.4201 78.51 76.7001 78.18 78.1201 78.25C78.3201 77.08 78.4201 76.99 79.5101 76.89C79.4101 77.3 79.3201 77.72 79.2001 78.29ZM48.1201 46.21C48.2201 46.36 48.3301 46.51 48.4301 46.66C47.4101 47.43 46.3901 48.2 45.3301 49C45.3301 50.45 45.3301 52.03 45.3301 53.73C45.9001 53.28 46.3301 52.9 46.8101 52.59C47.0501 52.44 47.4001 52.31 47.6701 52.35C48.4301 52.45 49.6701 51.61 49.6801 50.91C49.6901 50.03 49.7101 49.14 49.6701 48.26C49.6101 47.05 49.5001 45.84 49.4201 44.68C47.8901 45.43 46.5001 46.13 44.9601 46.89C45.0101 47.15 45.1001 47.6 45.2201 48.23C46.3101 47.48 47.2201 46.85 48.1201 46.21ZM92.4601 66.11C92.7401 64.97 92.8901 63.65 91.8601 62.5C91.1301 61.68 90.2101 62.12 89.4701 62.23C88.4601 64.08 89.6101 65.47 90.2201 66.88C90.9401 66.62 91.5801 66.41 92.4601 66.11ZM25.5301 78.89C26.3201 78.32 26.6501 77.96 26.4701 77.19C26.2201 76.05 26.2501 74.86 26.1501 73.69C26.0201 72.22 25.9001 70.74 25.7601 69.27C25.6201 67.78 25.4601 66.3 25.3501 64.8C25.3101 64.2 25.4101 63.6 25.4401 63C25.3101 62.95 25.1801 62.89 25.0601 62.84C24.8601 63.15 24.5501 63.44 24.4901 63.78C24.4101 64.22 24.5101 64.69 24.5601 65.15C24.7901 67.28 25.1001 69.41 25.2401 71.55C25.4201 73.92 25.4401 76.29 25.5301 78.89ZM93.1901 66.61C93.7301 66.1 94.5001 65.68 94.6801 65.11C94.8901 64.44 94.6201 63.63 94.5001 62.89C94.4201 62.41 94.2701 61.93 94.0701 61.48C93.9601 61.23 93.7301 60.94 93.4801 60.85C92.1901 60.42 90.8801 60.05 89.5001 59.63C89.5001 60.14 89.5001 60.76 89.5001 61.45C90.0701 61.33 90.5701 61.15 91.0801 61.12C91.4601 61.1 92.0501 61.14 92.2001 61.36C92.7001 62.11 93.2401 62.92 93.4001 63.77C93.5601 64.65 93.2901 65.59 93.1901 66.61ZM80.2001 68.64C80.8401 67.97 81.6301 67.4 82.0301 66.65C82.4401 65.87 82.4701 64.92 82.7101 63.86C81.7501 64.68 81.0701 65.57 80.1401 65.96C79.1301 66.39 78.6001 66.97 78.2501 67.84C78.9001 68.11 79.5001 68.36 80.2001 68.64ZM42.4101 70.78C42.4901 70.85 42.5601 70.92 42.6401 70.99C43.0201 69.74 43.3901 68.49 43.8101 67.11C42.8501 67.75 42.0401 68.28 41.2501 68.84C41.1301 68.92 41.0801 69.14 41.0701 69.3C41.0201 69.93 41.0001 70.57 40.9701 71.09C41.3901 71 41.9001 70.89 42.4101 70.78ZM12.1801 90.41C12.2201 90.33 12.2701 90.25 12.3101 90.17C11.9501 89.91 11.5801 89.67 11.2501 89.38C10.9001 89.07 10.5701 88.72 10.2801 88.36C9.53006 87.42 8.43006 87.29 7.20006 88.17C8.92006 88.95 10.5501 89.68 12.1801 90.41ZM81.2201 78.14C80.6601 78.55 80.1801 79.19 79.6301 79.25C78.6701 79.35 78.4401 79.88 78.1401 80.53C80.2901 80.56 81.8901 79.28 81.2201 78.14ZM37.6101 87.79C39.4301 88.14 41.7401 87.03 41.9301 85.75C40.5101 86.42 39.1301 87.07 37.6101 87.79ZM22.4601 87.95C22.5601 88 22.6501 88.06 22.7501 88.11C23.9401 87.04 24.7701 85.78 25.0801 84.25C24.9801 84.2 24.8901 84.15 24.7901 84.1C24.0101 85.39 23.2301 86.67 22.4601 87.95ZM83.9101 70.47C83.7401 71.04 83.6001 71.53 83.4301 72.1C84.0301 72.02 84.5901 71.98 85.1201 71.87C85.3101 71.83 85.6201 71.61 85.6101 71.5C85.5801 71.28 85.4201 71 85.2301 70.9C84.8401 70.71 84.3901 70.62 83.9101 70.47ZM10.3001 86.86C11.2401 87.14 11.9801 87.37 12.9601 87.66C12.3101 86.89 11.8101 86.3 11.2501 85.62C10.9201 86.06 10.6601 86.39 10.3001 86.86ZM75.5501 79.87C75.5901 79.97 75.6301 80.08 75.6701 80.18C77.0201 80.72 77.3101 80.59 77.6401 79.05C76.8401 79.37 76.2001 79.62 75.5501 79.87ZM47.9901 72.29C47.9101 72.2 47.8301 72.1 47.7501 72.01C46.5601 72.93 45.3801 73.85 44.1901 74.76C44.2401 74.82 44.3001 74.88 44.3501 74.95C45.5701 74.06 46.7801 73.18 47.9901 72.29ZM49.2801 54.39C49.4501 54.4 49.7601 54.41 50.1501 54.43C50.0001 53.76 49.8801 53.17 49.7301 52.52C49.3701 52.81 49.1201 53.01 48.8701 53.21C48.9801 53.23 49.1001 53.25 49.2101 53.27C49.2401 53.61 49.2601 53.95 49.2801 54.39ZM17.0501 89.09C17.0201 89.2 16.9901 89.31 16.9601 89.41C17.8101 89.64 18.6701 89.87 19.5201 90.09C19.5601 89.94 19.6001 89.8 19.6401 89.65C18.7801 89.47 17.9201 89.28 17.0501 89.09ZM40.1401 73.13C41.0701 73.29 42.2001 72.36 42.1601 71.54C41.4801 72.07 40.8401 72.57 40.1401 73.13ZM49.2101 43.77C49.1401 43.68 49.0701 43.59 49.0001 43.5C48.2201 44.01 47.4401 44.52 46.6601 45.03C46.7401 45.13 46.8201 45.24 46.9001 45.34C47.6701 44.82 48.4401 44.29 49.2101 43.77ZM90.4801 68.58C90.5801 68.63 90.6801 68.68 90.7801 68.72C91.1201 68.42 91.4601 68.11 91.8001 67.81C91.7401 67.7 91.6901 67.6 91.6301 67.49C91.3101 67.55 90.8901 67.53 90.7101 67.71C90.5201 67.89 90.5501 68.28 90.4801 68.58ZM89.7701 68.87C89.4901 68.08 89.2801 67.46 89.0601 66.85C88.8401 68.17 88.9801 68.6 89.7701 68.87ZM86.8101 71.07C86.7401 71.15 86.6701 71.24 86.6101 71.32C86.8201 71.47 87.0601 71.77 87.2401 71.75C87.5701 71.7 87.8601 71.46 88.1701 71.3C88.1201 71.22 88.0701 71.15 88.0201 71.07C87.6201 71.07 87.2101 71.07 86.8101 71.07Z" stroke="#CBA2B2" stroke-miterlimit="10"/>
<path d="M147.87 94.18C147.87 92.87 147.87 91.56 147.87 90.3C146.47 93.24 145.95 96.43 146.1 99.75C145.96 99.74 145.82 99.74 145.68 99.73C145.6 99.49 145.52 99.25 145.44 99C145.39 99.02 145.3 99.03 145.29 99.06C144.58 100.97 143.85 102.88 143.18 104.8C142.99 105.34 143.01 105.94 142.92 106.58C142.75 106.53 142.52 106.46 142.33 106.4C140.62 108.09 141.03 110.17 141.03 112.17C141.03 112.94 140.94 113.71 140.89 114.48C140.75 114.47 140.62 114.47 140.48 114.46C140.4 113.33 140.32 112.2 140.22 110.85C139.48 112.07 138.79 113.08 138.25 114.15C138.07 114.51 138.23 115.02 138.27 115.46C138.29 115.64 136.35 118.32 136.16 118.26C134.17 117.62 132.19 116.98 130.21 116.32C129.92 116.22 129.66 116.02 129.37 115.9C127.72 115.24 127.72 115.25 127.45 113.65C126.79 113.49 126.12 113.32 125.12 113.07C125.38 113.98 125.58 114.72 125.8 115.49C125.61 115.51 125.42 115.58 125.28 115.54C123.74 115.12 122.2 114.7 120.68 114.25C119.99 114.05 119.33 113.88 119.39 112.89C119.41 112.59 118.4 112.28 117.94 111.89C117.48 111.5 117.16 110.96 116.69 110.6C116.27 110.28 115.7 110.11 115.25 109.9C115.36 110.81 115.46 111.64 115.54 112.21C114.53 112.46 113.77 112.71 112.99 112.82C112.56 112.88 112.09 112.72 111.47 112.64C111.91 112.21 112.19 111.94 112.62 111.51C111.99 111.38 111.46 111.26 110.79 111.12C110.95 110.79 111.12 110.44 111.24 110.19C110.55 109.43 109.87 108.69 109.12 107.86C109.12 107.94 109.09 107.84 109.12 107.81C110.5 106.68 109.96 105.29 109.74 103.94C109.68 103.57 109.66 103.19 109.65 102.82C109.61 100.61 109.57 98.41 109.54 96.2C109.41 96.19 109.27 96.19 109.14 96.18C109.03 96.66 108.92 97.14 108.81 97.63C108.73 97.61 108.66 97.59 108.58 97.56C108.79 96.92 109.09 96.28 109.17 95.62C109.24 95.06 109.05 94.48 109.01 93.9C108.99 93.61 109.05 93.31 109.27 92.95C109.57 94.36 110.38 95.15 111.89 95.26C111.64 96.41 110.87 96.07 110.08 95.89C110.18 97.2 110.29 98.47 110.37 99.74C110.53 102.15 110.67 104.56 110.84 106.97C110.9 107.75 111.45 108.17 112.22 108.37C114.48 108.96 116.77 109.5 119.01 110.17C121.15 110.8 123.21 111.69 125.38 112.22C127.33 112.7 129.37 113.02 131.39 113.09C132.99 113.15 134.45 113.43 135.84 114.1C136.05 114.2 136.27 114.27 136.49 114.36C137.43 109.89 135.33 105.47 136.54 101.06C134.57 100.56 132.67 99.98 130.72 99.61C129.72 99.42 128.62 99.47 127.59 99.62C126.02 99.84 124.53 99.77 123.01 99.31C121.58 98.88 120.08 98.62 118.64 98.2C117.61 97.9 116.63 97.47 115.62 97.11C115.3 96.99 114.98 96.87 114.65 96.78C113.76 96.55 112.87 96.34 111.99 96.12C112.01 95.98 112.04 95.83 112.06 95.69C112.37 95.71 112.69 95.69 112.99 95.75C113.58 95.88 114.17 96.06 114.75 96.22C115.08 96.31 115.47 96.36 115.73 96.54C116.97 97.39 118.37 97.74 119.86 97.92C120.21 97.96 120.57 98.02 120.89 98.13C123.46 99.04 126.02 99.42 128.83 99.01C130.36 98.79 132.05 99.49 133.67 99.81C134.35 99.94 135 100.17 135.83 100.39C136.2 99.26 136.53 98.24 136.87 97.23C137.31 95.9 137.43 94.34 138.28 93.3C139.84 91.39 140.42 89.07 141.73 87.07C143.16 84.88 144.22 82.47 145.41 80.14C146.22 78.55 146.97 76.94 147.73 75.33C148.1 74.56 147.33 74.21 146.9 74.02C146.23 73.72 145.4 73.58 144.65 73.61C142.4 73.69 140.26 73.34 138.13 72.62C136.72 72.15 135.19 71.98 133.72 71.7C131.63 71.31 129.53 70.93 127.54 70.57C127.5 70.8 127.54 71.2 127.36 71.47C125.45 74.33 123.55 77.2 121.57 80.02C119.28 83.28 116.89 86.48 114.6 89.74C113.68 91.05 112.92 92.45 112.06 93.86C111.31 93.71 111.34 93.25 111.66 92.79C114.85 88.25 118.06 83.72 121.26 79.19C123.21 76.43 125.46 73.85 126.84 70.71C126.57 70.52 126.31 70.34 125.83 70.01C126.38 69.89 126.74 69.69 127.05 69.75C131.09 70.6 135.15 71.39 139.14 72.41C140.69 72.81 142.18 73.11 143.79 73.05C144.96 73.01 146.14 73.2 147.37 73.29C147.37 70.92 147.37 68.56 147.37 66.09C145.99 67.39 144.42 66.95 142.88 66.44C140.9 65.79 138.87 65.75 136.82 65.85C133.37 66.01 130.04 65.51 126.7 64.67C124.2 64.04 121.6 63.77 119.05 63.29C118.06 63.1 117.09 62.78 116.12 62.52C116.11 62.42 116.1 62.31 116.09 62.21C116.43 62.17 116.79 62.05 117.11 62.11C119.27 62.51 121.43 62.92 123.58 63.36C126.22 63.91 128.83 64.63 131.49 65.01C133.7 65.32 135.98 65.35 138.22 65.32C140.19 65.29 142.06 65.55 143.92 66.11C145.65 66.63 146.31 66.53 147.27 65.15C147.69 64.54 147.58 63.6 147.73 62.67C147.39 62.77 147.19 62.89 147.05 62.85C144.43 62.06 141.75 62.34 139.08 62.5C138.59 62.53 138.03 62.61 137.62 62.43C135.75 61.65 133.74 61.61 131.77 61.33C130.72 61.18 129.69 60.73 128.75 60.25C127.69 59.71 126.63 59.55 125.49 59.81C123.39 60.3 121.42 60.02 119.62 58.91C118.52 58.23 117.37 58.31 116.16 58.44C115.26 58.53 114.25 59.27 113.57 57.78C113.52 57.9 113.48 58.02 113.43 58.13C113.61 59.3 113.86 60.47 113.94 61.65C114 62.48 113.78 63.32 113.75 64.16C113.73 64.92 113.63 65.75 113.88 66.44C114.65 68.55 114.85 70.71 114.82 72.91C114.82 73.31 114.51 73.7 114.35 74.09C114.25 74.06 114.14 74.03 114.04 73.99C114.04 72.99 114.04 71.99 114.04 70.98C113.14 71.24 112.32 71.47 111.49 71.7C111.43 71.57 111.37 71.45 111.32 71.32C111.76 71.08 112.21 70.83 112.71 70.55C112.51 70.2 112.29 69.81 111.99 69.29C111.59 69.77 111.27 70.18 110.93 70.57C110.51 71.05 110.61 71.49 110.92 72C111.72 73.31 112.49 74.64 113.2 75.99C113.84 77.21 113.5 77.87 112.13 78.39C111.95 78.46 111.74 78.59 111.65 78.75C110.96 79.94 110.27 81.14 109.62 82.36C109.51 82.56 109.55 82.84 109.57 83.09C109.66 84.16 109.87 85.23 109.85 86.29C109.83 87.51 109.24 87.79 107.98 87.43C107.69 87.35 107.12 87.35 107.05 87.49C106.47 88.54 105.79 88.94 104.66 87.81C104.63 87.91 104.59 88 104.56 88.1C104.94 88.69 105.38 89.26 105.67 89.89C105.81 90.2 105.78 90.66 105.64 90.99C105.36 91.65 104.98 92.27 104.6 92.89C104.1 93.72 103.52 94.48 102.28 94.92C102.51 94.51 102.62 94.3 102.73 94.09C102.68 94.05 102.63 94 102.58 93.96C102.26 94.18 101.79 94.34 101.65 94.63C101.13 95.74 100.17 95.37 99.3102 95.29C99.1702 95.28 99.0502 95.04 98.9202 94.91C99.0702 94.79 99.2602 94.54 99.3502 94.57C100.49 94.95 101.11 94.25 101.78 93.62C101.8 93.6 101.84 93.59 101.87 93.57C102.42 93.22 103.36 92.93 103.45 92.5C103.69 91.35 103.66 90.12 103.54 88.93C103.43 87.87 102.95 86.96 101.49 87C101.31 87 100.94 86.63 100.98 86.52C101.1 86.18 101.3 85.82 101.59 85.59C101.72 85.48 102.15 85.61 102.4 85.73C103.33 86.18 104.2 86.77 105.17 87.11C105.75 87.31 106.3 87.02 106.38 86.26C106.57 84.42 106.81 82.58 107.03 80.77C105.4 80.42 105.4 80.42 105.24 79.76C105.49 79.78 105.73 79.79 105.95 79.82C106.16 79.84 106.36 79.88 106.56 79.9C106.64 79.82 106.71 79.74 106.79 79.66C106.36 79.26 105.94 78.86 105.38 78.33C105.56 78.25 105.83 78.02 106.11 78C107.33 77.94 107.52 78.88 107.9 79.9C108.81 79.41 109.7 79.04 110.42 78.47C110.71 78.24 110.7 77.59 110.68 77.13C110.64 75.92 110.91 75.66 112.2 75.94C111.47 74.62 110.77 73.35 110.07 72.09C108.72 73.42 107.44 74.66 106.16 75.92C106.07 76 105.96 76.16 105.99 76.24C106.42 77.32 105.52 77.59 104.79 77.95C104.64 78.03 104.38 78.02 104.31 78.13C103.16 79.89 100.92 80.83 100.17 82.9C100.08 83.15 99.9802 83.41 99.8002 83.6C98.9202 84.54 98.4602 85.49 99.3402 86.68C99.5002 86.9 99.3602 87.39 99.2202 87.7C99.1202 87.93 98.7802 88.23 98.5702 88.21C98.3002 88.19 98.0002 87.93 97.8002 87.7C97.6102 87.49 97.5402 87.19 97.3802 86.86C96.5902 87.83 95.7302 88.67 95.1602 89.65C94.8302 90.22 94.9302 91.03 94.9002 91.73C94.9002 91.81 95.3102 92.02 95.4602 91.97C96.3602 91.66 96.6002 92.19 96.7602 92.81C96.8902 93.31 96.9802 93.83 97.0502 94.34C97.0802 94.55 97.0302 94.94 96.9402 94.96C96.6802 95.02 96.3202 95.02 96.1202 94.89C95.6302 94.58 95.2002 94.19 94.7702 93.81C94.6302 93.69 94.5102 93.53 94.4302 93.37C94.2702 93.05 94.1302 92.72 94.0002 92.4C93.8702 92.07 93.7502 91.73 93.5802 91.27C92.7602 92.39 91.8702 93.46 91.1402 94.62C88.9202 98.13 86.3502 101.38 83.4002 104.42C81.6902 106.18 80.3502 108.25 78.8702 110.2C78.4502 110.76 78.4302 111.34 78.9902 111.89C79.2002 112.1 79.3702 112.39 79.4202 112.67C79.5602 113.37 79.9702 113.57 80.7102 113.68C81.2202 113.76 81.6402 114.29 82.1302 114.59C82.4202 114.77 82.8102 115.04 83.0702 114.98C84.1802 114.72 84.9002 115.35 85.7802 115.74C87.1302 116.33 88.5902 116.71 90.0102 117.15C92.6902 117.97 95.3802 118.78 98.0702 119.58C98.8602 119.82 99.6602 120.02 100.46 120.23C105.47 121.56 110.48 122.87 115.48 124.22C118.78 125.11 122.08 126.04 125.37 126.97C127.54 127.58 129.68 128.3 131.87 128.84C134.48 129.49 137.13 129.99 139.76 130.58C140.67 130.78 141.56 131.04 142.62 131.31C142.66 131.55 142.82 132.03 141.88 131.81C138.75 131.07 135.58 130.45 132.48 129.61C128.15 128.45 123.89 127.09 119.57 125.9C113.18 124.15 106.77 122.49 100.38 120.75C96.1002 119.59 91.8402 118.37 87.5902 117.14C86.4902 116.82 85.4402 116.35 84.3502 115.97C84.0602 115.87 83.7302 115.79 83.4302 115.81C82.5602 115.86 81.8802 115.73 81.4602 114.86C81.3102 114.55 80.6802 114.34 80.2402 114.29C79.4702 114.19 79.0102 113.87 78.7902 113.2C78.7202 112.98 78.6902 112.72 78.5402 112.55C77.0802 110.85 78.1102 109.47 79.2202 108.16C81.5702 105.39 84.0902 102.73 86.3502 99.9C88.4802 97.22 90.3602 94.36 92.3802 91.6C93.1802 90.5 94.2002 89.52 94.8802 88.37C95.3002 87.67 95.6202 86.99 96.3102 86.45C97.1002 85.83 97.0602 84.87 97.1302 83.98C97.2002 83.07 97.2202 82.14 97.4202 81.25C97.5302 80.76 97.9102 80.3 98.2602 79.9C98.7702 79.32 99.3602 78.8 99.9202 78.25C100.38 77.79 100.84 77.65 101.32 78.23C101.74 78.73 102.13 78.61 102.52 78.18C103.01 77.64 103.64 77.18 104.01 76.58C104.24 76.21 104.28 75.56 104.08 75.18C103.16 73.42 103.46 72.31 105.24 71.27C105.42 71.17 105.55 70.84 105.54 70.63C105.46 69.58 106.18 69.09 107.05 68.73C108.21 68.26 109.37 67.78 110.57 67.44C111.15 67.28 111.83 67.41 112.35 67.41C112.57 68.14 112.72 68.75 112.95 69.34C113.01 69.5 113.31 69.59 113.49 69.72C113.61 69.51 113.85 69.28 113.81 69.08C113.68 68.31 113.43 67.55 113.3 66.77C113.15 65.92 112.82 65 113.03 64.22C113.54 62.28 113.08 60.45 112.7 58.6C112.41 57.2 112 55.82 111.65 54.46C110.89 54.46 110.28 54.46 109.6 54.46C110.11 53.22 110.59 52.3 112.12 52.34C112.56 52.35 113.09 51.84 113.46 51.47C114.88 50.04 116.25 48.57 117.65 47.11C117.6 47.05 117.24 46.73 117.3 46.63C117.48 46.34 117.8 45.97 118.09 45.94C118.65 45.9 119.24 46.05 119.79 46.18C120.69 46.39 121.57 46.72 122.48 46.87C124.62 47.21 126.78 47.49 128.93 47.76C130.95 48.02 132.97 48.23 134.99 48.48C135.65 48.56 136.3 48.71 136.96 48.83C139.17 49.23 141.38 49.6 143.58 50.04C145.81 50.49 148.02 51.08 150.26 51.5C151.55 51.74 152.89 51.75 154.35 51.88C154.27 51.28 154.19 50.9 154.17 50.52C154.16 50.33 154.25 50.14 154.29 49.95C154.49 50.05 154.81 50.1 154.87 50.25C155.04 50.63 155.1 51.06 155.21 51.52C155.63 51.49 156.07 51.47 156.63 51.43C156.49 51.68 156.43 51.92 156.35 51.93C155.27 52.04 155.18 52.74 154.99 53.56C154.06 57.5 154.35 61.51 154.02 65.48C153.84 67.66 153.64 69.84 153.45 72.09C153.46 72.09 153.63 72.11 153.72 72.12C153.43 74.13 153.34 76.18 152.79 78.12C152.31 79.81 151.35 81.38 150.52 82.97C149.13 85.64 149.12 88.55 148.79 91.4C148.8 92.43 148.84 93.42 147.87 94.18ZM147.46 76.93C147.31 77.29 147.15 77.68 146.99 78.06C146.68 78.82 146.47 79.64 146.06 80.35C143.88 84.08 142 87.94 140.13 91.81C139.44 93.24 138.46 94.52 138.22 96.15C138.09 97.06 137.64 97.93 137.32 98.82C137.21 99.12 137.06 99.41 136.93 99.72C137.22 100.02 137.52 100.33 137.74 100.55C137.53 100.98 137.25 101.33 137.19 101.71C137.03 102.74 136.84 103.79 136.89 104.83C136.97 106.73 137.23 108.62 137.35 110.51C137.42 111.59 137.36 112.69 137.36 114.05C139.39 111.53 140.44 109.09 140.21 106.19C140.05 104.08 140.18 101.95 140.18 99.83C140.97 99.61 141.05 99.92 141.04 100.51C141 102.61 141.02 104.71 141.02 107.08C141.72 106.07 142.21 105.37 142.07 104.29C141.86 102.65 141.83 100.98 141.89 99.33C141.96 97.37 142.29 95.42 142.32 93.46C142.33 92.48 142.76 92.2 143.63 92.09C144.35 92.97 144.02 93.87 143.83 94.76C143.39 96.84 142.87 98.92 142.52 101.01C142.37 101.91 142.54 102.86 142.57 103.79C142.69 103.79 142.82 103.79 142.94 103.8C144.18 100.99 145.06 98.08 145.34 95.05C145.55 92.8 145.47 90.54 145.58 88.28C145.62 87.51 145.84 86.74 145.98 85.97C146.15 85.98 146.32 86 146.49 86.01C146.38 87.98 146.26 89.96 146.15 91.93C146.25 91.94 146.35 91.94 146.45 91.95C146.65 91.4 146.85 90.84 147.06 90.29C147.62 88.74 148.11 87.22 147.73 85.51C147.4 84.01 147.4 82.46 147.26 80.93C147.2 80.28 147.46 79.95 148 80.08C148.15 82.03 148.29 83.85 148.43 85.68C149.23 83.59 148.96 81.36 149.61 79.28C149.74 79.29 149.87 79.3 150 79.31C150 80.23 150 81.16 150 82.08C150.1 82.08 150.2 82.08 150.29 82.08C150.33 81.16 151.42 80.35 150.69 79.51C150.86 79.1 151.07 78.83 151.07 78.56C151.07 76.18 151.02 73.79 151.01 71.41C151.01 71.11 151.21 70.81 151.32 70.51C151.48 70.54 151.63 70.57 151.79 70.59C151.79 72.86 151.79 75.12 151.79 77.39C151.9 77.39 152.01 77.4 152.11 77.4C152.26 76.8 152.48 76.21 152.53 75.6C152.63 74.36 152.59 73.12 152.69 71.88C152.96 68.65 153.25 65.43 153.56 62.21C153.84 59.39 153.46 56.52 154.33 53.74C154.44 53.39 154.35 52.98 154.35 52.61C153.25 52.53 152.21 52.56 151.23 52.37C149.24 51.99 147.28 51.44 145.28 51.06C142.05 50.44 138.8 49.88 135.55 49.35C132.96 48.93 130.35 48.61 127.76 48.24C126.79 48.1 125.83 47.9 124.87 47.78C123.18 47.56 121.48 47.37 119.78 47.19C119.6 47.17 119.36 47.23 119.22 47.34C117.58 48.62 115.83 49.79 114.68 51.54C114.08 52.45 113.23 53.14 111.96 53.2C111.7 53.21 111.45 53.48 111.19 53.63C111.61 53.65 111.94 53.41 112.21 53.46C113.55 53.65 114.86 53.95 116.2 54.15C116.59 54.21 117.01 54.08 117.42 54.04C117.42 53.94 117.41 53.85 117.41 53.75C117.02 53.67 116.62 53.6 116.23 53.52C116.21 53.43 116.19 53.34 116.18 53.24C116.99 53 117.79 52.75 118.6 52.55C118.7 52.53 118.99 52.78 118.99 52.92C119.02 53.65 119.65 53.73 120.16 53.83C122.58 54.28 125 54.7 127.42 55.09C133.21 56.03 139 56.96 144.86 57.9C144.81 57.25 145.24 57.38 145.8 57.54C146.3 57.68 146.91 57.85 147.38 57.72C148.49 57.42 148.73 57.47 148.68 58.53C148.57 61.41 148.37 64.29 148.28 67.17C148.22 69.13 148.25 71.09 148.3 73.04C148.31 73.61 148.34 74.29 149.01 74.27C148.96 75.23 148.98 76.14 148.84 77.03C148.79 77.35 148.35 77.62 148.09 77.92C147.9 77.6 147.72 77.33 147.46 76.93ZM147.95 57.93C146.63 58.63 145.51 58.89 144.16 58.63C140.1 57.84 136.02 57.13 131.93 56.47C127.72 55.79 123.48 55.25 119.27 54.55C118.32 54.39 117.91 54.63 117.56 55.36C117.17 56.18 116.71 56.97 116.39 57.57C117.53 57.82 118.92 57.88 120.02 58.43C121.77 59.31 123.47 59.66 125.39 59.23C126.79 58.92 128.09 59.17 129.36 59.81C130.22 60.24 131.16 60.71 132.1 60.79C134.1 60.97 136.08 61.14 137.96 61.86C138.3 61.99 138.73 61.95 139.11 61.91C141.95 61.58 144.78 61.62 147.62 62.2C147.72 60.85 147.83 59.46 147.95 57.93ZM107.97 72.21C107.02 71.25 106.86 70.3 107.4 69.79C107.95 69.27 108.81 69.41 109.95 70.22C110.47 69.64 110.98 69.06 111.5 68.47C111.46 68.39 111.41 68.31 111.37 68.23C111.06 68.25 110.73 68.21 110.45 68.31C109.47 68.65 108.51 69.08 107.53 69.41C106.74 69.67 106.36 70.06 106.36 70.91C106.36 72.31 106.1 72.5 104.88 72.54C104.03 73.7 104.98 74.44 105.68 75.54C107 74.05 108.21 72.68 109.41 71.32C109.21 71.04 109.12 70.84 108.97 70.73C108.71 70.55 108.41 70.42 108.12 70.26C108.03 70.55 107.89 70.83 107.86 71.12C107.81 71.41 107.9 71.71 107.97 72.21ZM117.15 54.9C115.44 54.58 114.05 54.33 112.63 54.07C112.65 56.27 113.3 57.27 115.13 57.83C115.76 56.91 116.43 55.95 117.15 54.9ZM110.28 80.07C110.21 80.02 110.15 79.97 110.08 79.91C109.47 80.11 108.84 80.29 108.24 80.51C108.12 80.56 107.99 80.75 107.98 80.88C107.81 82.73 107.66 84.58 107.5 86.43C107.97 86.59 108.42 86.74 108.86 86.9C109.37 85.63 109.23 84.5 108.41 82.78C109.08 81.82 109.68 80.94 110.28 80.07ZM98.3502 84.31C99.5202 82.62 100.61 81.06 101.67 79.54C101.44 79.44 100.99 79.23 100.59 79.05C98.3502 80.16 98.2102 82.11 98.3502 84.31ZM135.87 117.17C136.03 117.14 136.19 117.1 136.34 117.07C135.78 116.5 136.97 115.52 135.37 115C135.57 115.83 135.72 116.5 135.87 117.17Z" stroke="#CBA2B2" stroke-miterlimit="10"/>
<path d="M110.84 6.70003C106.36 6.35003 102.16 6.07003 97.97 5.65003C96.59 5.51003 95.26 4.98003 93.89 4.67003C93.21 4.52003 92.51 4.40003 91.81 4.37003C89.21 4.26003 86.61 4.19003 84.01 4.10003C81.73 4.02003 79.46 3.93003 77.18 3.85003C77.01 3.84003 76.83 3.87003 76.67 3.93003C73.45 5.21003 70.1 6.01003 66.6 6.30003C65.2 6.42003 65.14 6.62003 65.61 7.86003C66.15 9.31003 66.6 10.76 66.28 12.36C66 13.77 65.87 15.22 65.84 16.66C65.82 17.45 66.15 18.25 66.28 19.05C66.39 19.72 66.56 20.41 66.5 21.07C66.42 21.95 66.07 22.03 65.1 21.45C65.92 20.6 65.4 19.71 65.27 18.76C65.04 17.12 64.83 15.43 65.06 13.81C65.39 11.45 65.2 9.19003 64.49 6.93003C64.41 6.67003 64.25 6.42003 64.04 6.00003C65.02 5.84003 65.91 5.72003 66.79 5.54003C69.43 5.00003 72.19 4.71003 74.66 3.77003C76.16 3.20003 77.37 3.22003 78.84 3.38003C80.79 3.59003 82.78 3.46003 84.75 3.50003C87.03 3.55003 89.32 3.55003 91.6 3.70003C93.03 3.80003 94.47 4.02003 95.84 4.40003C98.02 5.01003 100.2 5.35003 102.48 5.37003C104.12 5.39003 105.76 5.65003 107.4 5.78003C108.24 5.85003 109.09 5.90003 109.92 5.86003C110.21 5.84003 110.5 5.52003 110.77 5.31003C110.98 5.14003 111.16 4.93003 111.36 4.74003C111.52 5.00003 111.81 5.26003 111.8 5.51003C111.76 8.55003 111.7 11.59 111.59 14.63C111.5 16.85 111.25 19.08 111.21 21.3C111.18 22.83 111.42 24.35 111.48 25.88C111.53 27.14 111.48 28.4 111.5 29.67C111.51 30.42 111.25 30.64 110.72 30.5C110.61 29.85 110.47 29.29 110.45 28.74C110.42 27.93 110.49 27.11 110.48 26.3C110.46 25.27 110.38 24.23 110.37 23.2C110.37 22.03 110.42 20.87 110.45 19.7C110.58 15.39 110.71 11.06 110.84 6.70003Z" stroke="#CBA2B2" stroke-miterlimit="10"/>
<path d="M23.64 48.7C24.33 47.62 26.04 46.83 27.01 47.18C26.19 47.86 25.41 48.52 24.46 49.32C24.9 49.51 25.21 49.61 25.47 49.78C25.72 49.94 25.92 50.18 26.14 50.38C25.83 50.49 25.54 50.62 25.22 50.69C25.07 50.72 24.89 50.63 24.66 50.58C24.66 52.02 24.66 53.42 24.66 55.01C23.6 54.22 23.94 53.25 23.83 52.42C23.72 51.58 23.7 50.74 23.63 49.89C23.48 49.9 23.33 49.91 23.18 49.92C23.32 52.48 23.46 55.04 23.6 57.6C23.47 57.61 23.35 57.62 23.22 57.63C23.05 55.29 22.87 52.95 22.68 50.36C21.79 50.89 21.14 51.28 20.48 51.67C19.66 50.94 19.91 50.64 22.34 49.45C22.09 48.66 19.11 46.78 18.12 46.85C18.21 47.62 18.33 48.38 18.37 49.15C18.42 50.19 18.39 51.24 18.44 52.28C18.47 52.86 18.5 53.47 18.69 54.02C19.44 56.25 19.62 58.49 19.23 60.8C19.16 61.24 19.26 61.7 19.31 62.16C19.47 63.62 19.7 65.07 19.81 66.53C19.99 69.05 20.1 71.58 20.25 74.26C19.83 73.79 19.1 73.36 19.02 72.83C18.75 71.19 18.69 69.52 18.61 67.86C18.54 66.41 18.59 64.95 18.55 63.49C18.5 61.81 18.44 60.12 18.32 58.44C18.25 57.43 18.27 56.37 17.91 55.45C16.98 53.04 17.56 50.51 17.09 48.08C16.96 47.44 16.77 46.81 16.66 46.17C16.52 45.31 16.81 45.12 17.69 45.37C19.95 46.01 21.72 47.4 23.64 48.7Z" stroke="#CBA2B2" stroke-miterlimit="10"/>
<path d="M123.84 139.53C121.95 138.78 120.24 138.04 118.49 137.42C117.75 137.16 116.92 137.04 116.12 137.01C114.59 136.95 113.22 136.51 111.98 135.72C110.19 134.57 108.21 134.08 106.04 133.94C104.9 133.87 103.68 133.45 102.69 132.89C100.77 131.82 98.8002 131.07 96.5302 131.1C95.1402 131.12 94.0302 130.47 92.9702 129.77C91.8802 129.05 90.7102 128.68 89.3602 128.54C88.2802 128.43 87.2502 127.91 86.1902 127.61C85.6102 127.44 85.0102 127.32 84.4102 127.22C83.8602 127.13 83.2202 127.25 82.7702 127.02C81.7602 126.53 80.7302 126.27 79.6302 126.02C77.9602 125.64 76.4002 124.83 74.7302 124.41C72.8602 123.94 70.9402 123.41 69.0202 124.4C68.3602 124.74 67.9902 125.13 67.6902 125.79C67.3902 126.47 66.7102 127 66.1702 127.58C65.7302 128.05 65.2002 128.47 64.8002 128.96C64.1202 129.79 63.5202 130.67 62.8402 131.5C62.7102 131.66 62.3602 131.66 61.9302 131.79C62.8502 130.42 63.5802 129.27 64.4002 128.17C64.7502 127.7 65.3002 127.37 65.7302 126.94C66.1702 126.5 66.8602 126.07 66.9402 125.57C67.1602 124.25 68.2602 123.76 69.2602 123.42C70.2802 123.07 71.5102 123.03 72.6002 123.17C74.2502 123.38 75.8502 123.86 77.4702 124.25C77.8702 124.35 78.2302 124.58 78.6202 124.72C79.2402 124.93 79.9402 124.99 80.4802 125.31C82.5002 126.48 85.0602 125.91 87.0702 127.15C87.7002 127.54 88.6002 127.53 89.3702 127.73C90.4702 128.03 91.7102 128.15 92.6302 128.71C94.2002 129.68 95.7902 130.23 97.6802 130.43C99.1702 130.58 100.68 131.12 102.02 131.77C103.64 132.54 105.19 133.31 107.07 133.3C109.02 133.29 110.67 134.14 112.26 135.06C113.46 135.74 114.7 136.13 116.12 136.25C117.28 136.35 118.41 136.78 119.54 137.12C120.67 137.46 121.77 137.86 122.89 138.22C123.4 138.4 124 138.46 123.84 139.53Z" stroke="#CBA2B2" stroke-miterlimit="10"/>
<path d="M91.7601 79.85C91.8201 80.85 91.6301 81.35 91.0201 81.91C89.7201 83.09 88.5501 84.4 87.4501 85.75C85.6001 88.02 83.8801 90.37 82.0601 92.65C80.9501 94.04 79.7601 95.36 78.6001 96.71C78.5101 96.81 78.3201 96.94 78.3401 97.01C78.6401 97.88 78.1301 98.01 77.3601 98.29C76.7601 98.51 76.6201 98.59 76.4401 98.01C76.3901 97.85 76.1601 97.66 75.9901 97.63C75.5201 97.56 75.0301 97.57 74.5501 97.55C74.3501 96.53 74.6201 96.27 75.6501 96.51C77.5701 96.95 77.5001 96.91 78.6501 95.42C79.6301 94.15 80.8101 93.03 81.8301 91.79C83.4101 89.88 84.9301 87.92 86.4601 85.98C87.4801 84.68 88.4901 83.37 89.5401 82.03C88.5701 81.4 87.9001 82.01 87.2101 82.48C86.6601 82.86 86.1301 83.28 85.5601 83.64C85.4201 83.73 85.1401 83.62 84.8201 83.59C85.0201 83.22 85.1501 82.97 85.2801 82.73C85.2301 82.67 85.1901 82.6 85.1401 82.54C84.7601 82.74 84.3101 82.88 84.0201 83.16C83.0201 84.13 82.0201 85.1 81.1401 86.16C80.2501 87.24 79.5301 88.43 78.7101 89.56C78.5401 89.8 78.2701 89.98 78.0501 90.19C77.0801 91.11 76.0801 92.01 75.1301 92.94C74.4401 93.62 73.8101 94.36 73.0201 95.2C73.3801 95.41 73.9301 95.73 74.4801 96.04C74.3701 96.16 74.2601 96.29 74.1501 96.41C73.0301 96.57 72.2401 95.83 71.1101 95.29C71.4801 94.89 71.7401 94.4 72.1601 94.21C73.6401 93.54 74.3901 92.19 75.5701 91.24C76.1201 90.8 76.6001 90.28 77.0701 89.76C77.4501 89.34 77.7601 88.86 78.0901 88.41C78.1701 88.3 78.2001 88.16 78.2901 88.07C79.2701 87.03 80.3201 86.04 81.2401 84.96C82.1301 83.91 82.8801 82.76 83.7301 81.68C84.1901 81.09 84.8701 81.13 85.3601 81.55C85.9201 82.03 86.3701 81.91 86.8501 81.56C87.6901 80.94 88.5601 80.75 89.6201 81.06C89.9201 81.15 90.3701 80.94 90.6901 80.77C91.0101 80.58 91.2701 80.28 91.7601 79.85Z" stroke="#CBA2B2" stroke-miterlimit="10"/>
<path d="M42.53 115.83C42.11 115.58 41.7 115.33 41.29 115.09C40.79 114.79 40.39 114.7 39.7 114.9C39.11 115.07 38.26 114.44 37.52 114.18C36.89 113.96 36.22 113.84 35.62 113.57C34.26 112.96 32.84 113.06 31.39 112.99C30.37 112.94 29.32 112.24 28.43 111.65C27.57 111.08 26.79 110.63 25.66 110.74C23.96 110.91 22.54 110.16 21.42 109.07C20.25 107.92 18.97 107.57 17.34 107.93C15.82 108.27 14.74 107.4 13.71 106.47C13.44 106.62 13.21 106.75 12.79 107C12.82 106.58 12.73 106.21 12.89 106.04C13.1 105.82 13.5 105.68 13.82 105.67C14.04 105.67 14.31 105.92 14.49 106.12C15.42 107.1 16.59 107.26 17.86 106.99C19.2 106.7 20.32 107.08 21.24 107.93C22.65 109.23 24.16 110.08 26.3 109.87C27.01 109.8 27.88 110.35 28.53 110.81C29.84 111.74 31.1 112.53 32.87 111.97C33.24 111.85 33.75 112.08 34.19 112.17C34.89 112.32 35.59 112.45 36.27 112.64C36.66 112.75 37.06 112.91 37.38 113.14C38.15 113.71 38.9 114.07 39.84 113.43C39.97 113.34 40.29 113.42 40.48 113.51C41.4 113.96 42.28 114.46 43.21 114.89C43.77 115.16 43.69 115.47 43.53 115.94C42.77 118.14 41.12 119.7 39.4 121.27C37.61 122.89 35.99 124.67 34.32 126.4C32.8 127.98 31.31 129.58 29.82 131.18C29.05 132.01 28.31 132.85 27.58 133.71C27.02 134.37 26.51 135.06 25.98 135.73C25.69 135.22 25.96 134.65 26.35 134.1C26.71 133.59 27.08 133.07 27.49 132.59C27.98 132.01 28.49 131.43 29.03 130.89C29.72 130.2 30.47 129.56 31.15 128.86C32.98 126.97 34.77 125.04 36.62 123.16C38.33 121.42 40.15 119.77 41.79 117.98C42.22 117.44 42.26 116.59 42.53 115.83Z" stroke="#CBA2B2" stroke-miterlimit="10"/>
<path d="M67.7303 51.5401C69.7103 51.9301 71.6103 52.3 73.5103 52.67C73.5003 52.83 73.4903 53 73.4903 53.16C73.1403 53.2 72.7603 53.3501 72.4403 53.2701C70.1003 52.7301 67.7703 52.19 65.4603 51.58C63.2403 50.99 61.0303 50.3501 58.8603 49.6301C57.2803 49.1101 55.7103 48.8 54.0303 49.16C53.9903 49.05 53.9503 48.93 53.9103 48.82C54.2503 48.67 54.6003 48.37 54.9203 48.41C56.3103 48.58 57.7103 48.73 59.0503 49.09C61.3103 49.7 63.5203 50.48 65.7603 51.17C66.1203 51.28 66.5003 51.32 67.1003 51.43C66.8603 49.35 66.6603 47.4 66.3903 45.47C66.3603 45.29 65.9703 45.07 65.7103 45C63.1203 44.39 60.5303 43.79 57.9303 43.24C56.1603 42.86 54.3703 42.56 52.5703 42.22C52.6803 41.36 53.2503 41.55 53.7503 41.66C57.7303 42.5 61.7103 43.34 65.6903 44.18C65.8903 44.22 66.0903 44.23 66.2503 44.24C66.8903 43.25 65.6303 41.79 67.3203 41.05C67.8803 42.07 68.6303 41.76 69.6003 41.14C69.7403 41.9 69.9203 42.5001 69.9503 43.1101C70.0303 45.0501 70.0003 45.06 71.8703 46.06C71.2203 46.16 70.7903 46.22 70.2903 46.3C69.7403 47.96 70.8503 49.9101 69.7103 51.5201C69.6003 51.5101 69.4803 51.5 69.3703 51.49C69.3603 51.29 69.3403 51.09 69.3303 50.89C68.0403 50.71 68.0403 50.7101 67.7303 51.5401ZM67.3803 45.51C67.5103 47.11 67.6303 48.61 67.7603 50.12C69.3803 49.97 69.3803 49.9701 69.3603 48.6301C69.3603 48.2401 69.3403 47.8501 69.3403 47.4501C69.3303 45.8501 69.3303 45.85 67.3803 45.51ZM69.1203 44.98C69.0803 44.13 69.0403 43.3 69.0003 42.44C68.4103 42.48 67.9303 42.5101 67.4603 42.5401C67.0403 44.5301 67.1603 44.72 69.1203 44.98Z" stroke="#CBA2B2" stroke-miterlimit="10"/>
<path d="M62.19 83.03C63.11 83.03 64.04 83.03 64.96 83.03C64.98 83.18 65 83.33 65.02 83.47C64.6 83.63 64.19 83.87 63.76 83.93C62.92 84.06 62.06 84.1 61.08 84.19C61.09 84.22 61.03 83.99 60.96 83.65C59.82 83.84 58.73 84.05 57.62 84.19C55.36 84.48 53.1 84.77 50.83 84.97C50.24 85.02 49.62 84.74 49.02 84.61C48.63 84.52 48.22 84.46 47.84 84.33C47.6 84.25 47.41 84.06 47.2 83.92C47.35 83.74 47.52 83.39 47.65 83.4C48.16 83.46 48.67 83.62 49.17 83.75C49.72 83.89 50.29 84.19 50.81 84.13C53.76 83.78 56.71 83.34 59.65 82.92C59.97 82.87 60.3 82.82 60.62 82.77C60.62 82.66 60.62 82.55 60.63 82.44C59.51 82.35 58.39 82.19 57.27 82.17C55.59 82.14 53.91 82.2 52.23 82.22C51.88 82.23 51.49 82.16 51.19 82.28C49.74 82.88 48.36 82.35 46.96 82.08C46.77 82.04 46.64 81.74 46.49 81.56C46.69 81.42 46.88 81.27 47.09 81.16C47.17 81.12 47.32 81.13 47.4 81.17C49.72 82.36 52.2 80.72 54.6 81.77C54.81 80.68 54.92 79.8 55.17 78.95C55.26 78.64 55.66 78.41 55.92 78.14C56.08 78.4 56.37 78.66 56.38 78.92C56.4 79.69 56.3 80.46 56.26 81.17C57.55 81.3 58.86 81.42 60.18 81.55C60.25 81.56 60.34 81.58 60.39 81.55C61.45 80.97 62.51 81.69 63.56 81.55C64.73 81.39 65.88 81.13 67.04 80.92C67.71 80.8 68.39 80.68 69.06 80.57C69.1 80.67 69.14 80.78 69.18 80.88C68.09 81.39 67.05 82.1 65.9 82.35C64.73 82.6 63.45 82.41 62.22 82.41C62.19 82.63 62.19 82.83 62.19 83.03Z" stroke="#CBA2B2" stroke-miterlimit="10"/>
<path d="M66.07 108.97C64.17 111 62.27 113.03 60.36 115.05C59.85 115.59 59.23 116.05 58.76 116.61C55.41 120.58 52.17 124.61 48.74 128.52C45.16 132.61 41.37 136.54 37.76 140.6C35.63 143 33.68 145.53 31.63 147.99C31.01 148.74 30.33 149.45 29.66 150.16C29.57 150.26 29.39 150.29 28.97 150.5C29.91 149.23 30.69 148.22 31.41 147.18C34.88 142.21 39.25 137.95 43.47 133.56C44.51 132.48 45.42 131.27 46.38 130.12C48.9 127.07 51.39 124 53.93 120.96C55.11 119.55 56.34 118.17 57.61 116.83C58.49 115.9 59.41 114.99 60.43 114.2C61.84 113.11 62.93 111.83 63.73 110.31C64.15 109.51 64.72 108.81 65.68 108.58C65.82 108.71 65.94 108.84 66.07 108.97Z" stroke="#CBA2B2" stroke-miterlimit="10"/>
<path d="M132.03 19.71C132.03 21.39 132.12 22.96 132.01 24.52C131.89 26.21 131.53 27.89 131.37 29.58C131.24 30.94 131.28 32.31 131.2 33.67C131.15 34.51 131.03 35.35 130.93 36.21C130.07 36.29 130.05 35.77 130.09 35.28C130.31 32.68 130.64 30.08 130.77 27.48C130.89 25.11 130.81 22.72 130.78 20.34C130.78 20.03 130.57 19.73 130.5 19.41C130.46 19.21 130.41 18.91 130.52 18.81C130.65 18.69 130.96 18.71 131.19 18.73C132.08 18.8 132.97 18.92 133.86 18.98C134.73 19.04 135.61 18.99 136.48 19.1C138.81 19.38 141.14 19.68 143.45 20.06C146.18 20.51 148.9 21.05 151.62 21.54C153.58 21.89 155.54 22.25 157.51 22.55C158.22 22.66 158.97 22.66 159.69 22.61C160.52 22.55 161.29 22.52 161.89 23.19C160.51 23.19 159.14 23.33 157.82 23.16C154.8 22.76 151.74 22.41 148.8 21.68C145.27 20.81 141.62 20.78 138.1 20.09C135.98 19.65 133.95 19.6 132.03 19.71Z" stroke="#CBA2B2" stroke-miterlimit="10"/>
<path d="M62.78 87C62.85 87.58 62.91 88.13 62.98 88.69C62.87 88.75 62.77 88.81 62.66 88.87C62.1 88.27 61.53 87.68 60.9 87.01C60.34 87.17 59.65 87.49 58.94 87.53C58.29 87.56 57.63 87.28 56.97 87.13C56.93 87 56.88 86.87 56.84 86.74C56.5 87.18 56.15 87.61 55.86 87.98C55.29 88.04 54.71 88.12 54.13 88.17C53.85 88.2 53.52 88.3 53.3 88.2C51.61 87.45 50.31 88.18 49.04 89.11C47.28 90.41 45.49 91.69 43.75 93.02C42.54 93.95 41.4 94.97 40.2 95.92C39.88 96.17 39.45 96.31 39.05 96.46C39.03 96.47 38.7 96.03 38.76 95.93C38.96 95.58 39.23 95.24 39.56 94.99C40.57 94.2 41.63 93.47 42.65 92.69C45.21 90.75 47.76 88.79 50.31 86.84C51.15 86.19 51.06 86.31 51.94 86.87C52.51 87.24 53.39 87.34 54.12 87.33C54.74 87.32 55.18 86.91 54.96 86.16C54.88 85.88 55.1 85.52 55.24 85C55.6 85.32 55.77 85.51 55.98 85.65C56.25 85.83 56.54 85.98 56.84 86.12C57.05 86.22 57.42 86.2 57.5 86.34C58.06 87.33 58.9 86.98 59.56 86.63C61.1 85.82 62.65 85.94 64.24 86.32C64.36 86.35 64.45 86.46 64.56 86.81C63.93 86.87 63.3 86.94 62.78 87Z" stroke="#CBA2B2" stroke-miterlimit="10"/>
<path d="M86.99 32.25C84.34 31.99 81.64 32.27 79.13 30.93C78.01 30.33 76.48 30.4 75.16 30.09C74.01 29.82 72.91 29.42 71.77 29.12C70.63 28.82 69.49 28.54 68.33 28.3C67.11 28.04 65.88 27.81 64.64 27.6C63.93 27.48 63.13 27.22 62.49 27.4C60.16 28.05 58.24 27.4 56.35 26.18C55.8 25.83 54.9 25.74 54.21 25.83C52.71 26.03 51.29 26.2 49.95 25.33C49.75 25.2 49.35 25.36 49.07 25.29C48.43 25.12 47.8 24.92 47.19 24.67C47.11 24.64 47.17 24.28 47.17 24.07C47.36 24.08 47.65 24.02 47.73 24.12C48.15 24.61 48.66 24.54 49.24 24.49C49.66 24.45 50.18 24.58 50.52 24.81C51.4 25.4 52.34 25.54 53.32 25.24C54.89 24.77 56.26 25.14 57.46 26.06C58.77 27.06 60.16 27.18 61.79 26.94C62.91 26.78 64.12 27.06 65.28 27.22C66.18 27.34 67.06 27.55 67.94 27.73C69.3 28.01 70.66 28.27 72.01 28.6C73.22 28.89 74.39 29.41 75.62 29.58C77.41 29.83 79.07 30.32 80.77 30.91C82.33 31.45 84.11 31.45 85.79 31.71C86.21 31.78 86.62 31.93 87.04 32.04C87.02 32.09 87 32.17 86.99 32.25Z" stroke="#CBA2B2" stroke-miterlimit="10"/>
<path d="M85.3101 55.46C83.6201 53.44 84.3902 51.25 84.4102 49.05C83.7802 48.99 83.2202 48.93 82.5702 48.87C82.7402 51.26 82.9001 53.51 83.0601 55.74C83.8301 55.91 84.6302 56.09 85.4202 56.27C85.4402 56.38 85.4602 56.5 85.4802 56.61C85.1202 56.69 84.6902 56.94 84.4202 56.83C83.6302 56.51 82.9902 56.48 82.4002 57.14C82.3402 57.21 82.1502 57.18 82.1902 57.18C81.9402 54.52 81.6801 51.9 81.4901 49.28C81.4701 48.99 81.7902 48.58 82.0802 48.4C82.3702 48.22 82.8301 48.18 83.2001 48.2C84.0901 48.24 84.9602 48.32 85.6902 47.7C85.7502 47.65 85.9301 47.73 86.0601 47.75C85.7201 48.46 85.3902 49.13 84.9402 50.05C85.9702 49.8 86.3302 50.06 86.1602 50.75C85.8602 51.94 85.5302 53.12 85.2202 54.31C85.1802 54.48 85.1901 54.66 85.2001 54.83C85.2301 55.04 85.2801 55.25 85.3101 55.46Z" stroke="#CBA2B2" stroke-miterlimit="10"/>
<path d="M170.53 139C169.41 138.77 168.41 138.56 167.4 138.37C165.31 137.96 163.22 137.57 161.14 137.16C160.46 137.03 159.78 136.89 159.11 136.73C158.44 136.56 157.77 136.37 157.11 136.16C155.92 135.78 154.76 135.3 153.54 135.01C152.81 134.83 152.58 134.53 152.75 133.92C152.9 133.36 153.11 132.81 153.3 132.26C153.39 132.28 153.48 132.29 153.57 132.31C153.49 132.8 153.4 133.3 153.33 133.74C154.75 134.23 156.15 134.73 157.56 135.18C158.18 135.38 158.84 135.49 159.48 135.63C159.92 135.73 160.41 135.72 160.81 135.89C162.98 136.85 165.31 137.11 167.66 137.36C168.45 137.44 169.23 137.68 169.99 137.92C170.63 138.12 170.87 138.54 170.53 139Z" stroke="#CBA2B2" stroke-miterlimit="10"/>
<path d="M68.33 56.77C68.73 56.05 67.95 55.06 69.22 54.44C69.25 55.03 69.32 55.48 69.29 55.94C69.24 56.73 69.54 57.11 70.43 57.23C71.23 57.34 72 57.65 72.75 58.02C71.67 58.94 70.73 57.69 69.69 57.95C69.62 58.53 69.74 59.23 69.44 59.68C69.08 60.23 68.36 60.58 67.79 61.02C67.68 60.95 67.57 60.88 67.47 60.81C67.82 60.15 68.13 59.47 68.54 58.85C68.84 58.39 68.58 57.66 67.91 57.53C66.78 57.31 65.63 57.05 64.48 57C61.5 56.87 58.77 55.98 56.06 54.93C55.63 54.76 55.11 54.81 54.63 54.74C54.34 54.7 54.07 54.62 53.78 54.56C54 54.28 54.21 53.77 54.43 53.77C55.04 53.77 55.67 53.93 56.26 54.12C57.28 54.46 58.29 54.85 59.29 55.26C61.36 56.11 63.58 56.2 65.77 56.43C66.63 56.52 67.49 56.65 68.33 56.77Z" stroke="#CBA2B2" stroke-miterlimit="10"/>
<path d="M73.1101 40.84C71.0901 40.61 69.1801 40.45 67.2901 40.13C66.4001 39.98 65.5701 39.52 64.7101 39.21C64.3901 39.09 64.0701 38.95 63.7401 38.87C62.1701 38.54 60.6101 38.19 59.0201 37.91C58.1001 37.75 57.1501 37.7 56.2101 37.62C55.8501 37.59 55.4801 37.62 55.1101 37.49C56.4401 36.78 57.8301 37.12 59.2001 37.29C60.4101 37.44 61.6201 37.59 62.8101 37.85C63.7001 38.05 64.6501 38.28 65.4001 38.74C66.7801 39.6 68.3101 39.28 69.7801 39.47C71.3001 39.67 72.8101 39.89 74.4701 40.11C74.7701 39.81 75.2401 39.35 75.7101 38.89C76.0201 40.45 74.6001 42 72.8001 42.49C72.8901 42.01 72.9901 41.52 73.1101 40.84Z" stroke="#CBA2B2" stroke-miterlimit="10"/>
<path d="M79.94 41.18C80.07 43.84 80.18 46.48 80.36 49.11C80.38 49.46 80.73 49.79 81.04 50.32C80.02 50.99 78.6 50.35 77.46 51.14C77.46 49.82 77.48 48.7 77.45 47.58C77.41 45.85 77.31 44.12 77.27 42.4C77.27 42.19 77.44 41.83 77.61 41.78C78.36 41.52 79.14 41.37 79.94 41.18ZM78.33 50.04C79.1 50 79.55 49.77 79.49 49.03C79.32 46.79 79.17 44.55 79 42.31C78.87 42.28 78.74 42.25 78.61 42.22C78.51 42.5 78.34 42.78 78.34 43.06C78.32 45.35 78.33 47.64 78.33 50.04Z" stroke="#CBA2B2" stroke-miterlimit="10"/>
<path d="M161.22 82.68C161.15 83.27 161.2 83.91 160.99 84.46C160.15 86.71 159.21 88.94 158.36 91.19C158.07 91.95 157.81 92.74 157.71 93.53C157.5 95.18 156.64 96.56 155.8 97.96C155.51 98.44 155.26 98.95 155.02 99.45C153.95 101.72 152.83 103.98 151.83 106.28C151.03 108.11 149.54 109.65 149.34 111.76C149.27 112.56 148.66 113.31 148.05 114.15C148.02 113.8 147.88 113.43 147.97 113.11C148.19 112.3 148.51 111.52 148.81 110.73C148.95 110.36 149.14 110.01 149.33 109.66C149.9 108.59 150.83 107.77 151.05 106.43C151.24 105.28 152.35 104.29 152.88 103.16C153.48 101.88 153.86 100.52 154.4 99.22C154.61 98.71 154.95 98.23 155.29 97.78C156.41 96.27 157.22 94.69 157.3 92.8C157.33 92.12 157.76 91.44 158.03 90.77C158.83 88.74 159.66 86.73 160.42 84.69C160.66 84.04 160.69 83.32 160.82 82.64C160.97 82.65 161.1 82.66 161.22 82.68Z" stroke="#CBA2B2" stroke-miterlimit="10"/>
<path d="M159.9 44.75C159.9 44.07 159.86 43.52 159.91 42.97C160.07 40.89 160.3 38.82 160.41 36.74C160.48 35.51 160.35 34.28 160.36 33.05C160.36 32.07 160.41 31.09 160.48 30.11C160.61 28.22 160.76 26.32 160.93 24.43C160.95 24.17 161.2 23.93 161.35 23.67C161.52 23.95 161.85 24.24 161.83 24.5C161.68 26.72 161.46 28.94 161.29 31.16C161.23 31.94 161.27 32.73 161.23 33.51C161.12 35.46 160.97 37.42 160.89 39.37C160.82 40.91 160.81 42.45 160.78 43.98C160.75 44.75 160.42 44.94 159.9 44.75Z" stroke="#CBA2B2" stroke-miterlimit="10"/>
<path d="M144.2 68.76C143.75 68.8 143.29 68.92 142.85 68.88C139.45 68.6 136.06 68.28 132.67 67.99C129 67.68 125.33 67.43 121.67 67.05C119.93 66.87 118.22 66.46 116.51 66.11C116.36 66.08 116.27 65.76 116.15 65.57C116.35 65.5 116.59 65.32 116.74 65.38C119.19 66.29 121.74 66.5 124.35 66.64C127.91 66.84 131.45 67.39 135.01 67.73C137.84 68 140.68 68.19 143.51 68.42C143.73 68.44 143.96 68.48 144.18 68.5C144.18 68.59 144.19 68.67 144.2 68.76Z" stroke="#CBA2B2" stroke-miterlimit="10"/>
<path d="M39.1901 29.28C39.3401 29.81 39.4301 30.14 39.5301 30.46C39.0801 30.42 38.6301 30.38 38.1801 30.34C38.1701 30.23 38.1501 30.12 38.1401 30C37.6601 30.36 37.2101 30.78 36.6801 31.08C36.0401 31.45 35.3201 31.69 34.6601 32.04C33.9101 32.43 33.2001 32.88 32.4001 33.34C31.8701 32.87 32.2601 32.38 32.6701 32.02C33.0701 31.67 33.5801 31.36 34.1001 31.22C36.2501 30.64 38.0401 29.64 39.6501 28.12C41.2701 26.6 43.2801 25.46 45.1501 24.17C45.3101 24.06 45.6201 24.16 45.8701 24.16C45.8001 24.43 45.8301 24.83 45.6501 24.96C44.1601 26.05 42.6401 27.1 41.1101 28.14C40.4301 28.59 39.7001 28.98 39.1901 29.28Z" stroke="#CBA2B2" stroke-miterlimit="10"/>
<path d="M162.4 107.75C162.07 109.08 161.84 110.23 161.5 111.35C161.17 112.44 160.82 113.55 160.31 114.58C159.59 116.05 158.71 117.46 157.81 119.06C157.46 118.68 157.25 118.44 157.16 118.34C157.91 117.08 158.7 115.97 159.25 114.76C159.82 113.49 160.14 112.13 160.58 110.82C160.88 109.92 161.12 109 161.52 108.15C161.62 107.89 162.18 107.83 162.4 107.75Z" stroke="#CBA2B2" stroke-miterlimit="10"/>
<path d="M19.97 38.72C20.86 37.81 21.59 37.09 22.3 36.34C23.34 35.24 24.8 35.16 26.15 35.16C27 35.16 27.53 35.06 27.99 34.42C28.14 34.21 28.49 33.96 28.7 33.99C28.94 34.03 29.26 34.33 29.31 34.57C29.35 34.76 29.07 35.03 28.9 35.23C28.19 36.07 27.22 35.91 26.21 35.94C24.91 35.98 23.41 35.81 22.58 37.25C22.26 37.8 21.67 38.25 21.11 38.63C20.88 38.81 20.41 38.7 19.97 38.72Z" stroke="#CBA2B2" stroke-miterlimit="10"/>
<path d="M162.71 104.5C162.9 104.07 163.1 103.64 163.28 103.21C163.5 102.66 163.72 102.11 163.92 101.56C164.06 101.16 164.06 100.7 164.28 100.35C165.22 98.83 166.19 97.33 167.21 95.86C167.39 95.6 167.85 95.5 168.18 95.33C168.27 95.43 168.35 95.53 168.44 95.63C168.26 95.88 168.06 96.13 167.9 96.39C167.28 97.37 166.68 98.36 166.06 99.33C165.84 99.67 165.5 99.96 165.31 100.31C164.99 100.92 164.74 101.57 164.45 102.2C164.07 103.03 163.67 103.86 163.28 104.7C163.08 104.63 162.89 104.56 162.71 104.5Z" stroke="#CBA2B2" stroke-miterlimit="10"/>
<path d="M90.6301 79.61C93.1501 77.22 95.6701 74.83 98.2001 72.44C98.2901 72.52 98.3901 72.61 98.4801 72.69C96.5801 75.41 93.9201 77.5 91.4901 79.78C91.3601 79.91 91.0301 79.85 90.7901 79.88C90.7401 79.79 90.6801 79.7 90.6301 79.61Z" stroke="#CBA2B2" stroke-miterlimit="10"/>
<path d="M75.4102 99.63C75.3302 99.95 75.3502 100.36 75.1402 100.57C74.4602 101.27 73.7602 101.98 72.9502 102.53C72.3702 102.92 71.7102 102.83 71.5602 101.97C71.5402 101.85 71.5102 101.73 71.4502 101.63C71.3202 101.4 70.9802 101.06 71.0502 100.97C71.3302 100.58 71.7302 100.25 72.0902 99.91C72.3102 100.13 72.6702 100.32 72.7102 100.56C72.7702 100.89 72.5902 101.25 72.4402 101.91C73.4802 100.99 74.3102 100.25 75.1402 99.52C75.2402 99.54 75.3202 99.58 75.4102 99.63Z" stroke="#CBA2B2" stroke-miterlimit="10"/>
<path d="M67.24 106.04C66.8 105.2 66.32 104.39 65.94 103.55C65.81 103.26 65.84 102.88 65.99 102.6C66.18 102.25 66.64 102.14 66.9 102.58C67.34 103.33 67.79 104.09 68.05 104.88C68.29 105.57 67.91 105.92 67.24 106.04Z" fill="#F4A079"/>
<path d="M64.53 84.74C64.69 83.66 69.11 81.4 70.57 81.52C69.15 83.76 66.2 83.19 64.53 84.74Z" stroke="#CBA2B2" stroke-miterlimit="10"/>
<path d="M61.29 54.91C58.76 54.79 56.68 53.89 54.75 52.31C55.16 52.29 55.64 52.13 55.96 52.28C57.7 53.08 59.4 53.96 61.29 54.91Z" stroke="#CBA2B2" stroke-miterlimit="10"/>
<path d="M17.2102 41.08C17.0702 39.79 18.3702 39.3 18.9502 38.42C18.9502 38.41 19.5202 38.65 19.5102 38.72C19.4602 39.01 19.3602 39.42 19.1302 39.55C18.0202 40.18 17.9502 41.03 18.2902 42.08C18.3702 42.33 18.1602 42.65 18.0802 42.94C17.8502 42.7 17.5202 42.5 17.4002 42.22C17.2402 41.88 17.2602 41.47 17.2102 41.08Z" stroke="#CBA2B2" stroke-miterlimit="10"/>
<path d="M90.03 108.57C88.45 107.88 87.63 106.84 87.94 106.11C88.3 105.29 88.86 105.02 89.84 105.31C89.57 105.64 89.32 105.92 89.03 106.27C89.29 106.58 89.66 106.91 89.86 107.3C90.02 107.65 89.97 108.07 90.03 108.57Z" fill="#F4A079"/>
<path d="M154.67 132.68C153.14 131.56 152.83 129.11 154.13 127.39C154.13 128.12 154.23 128.73 154.11 129.3C153.94 130.09 154.09 130.72 154.71 131.25C155.28 131.75 155.3 132.21 154.67 132.68Z" stroke="#CBA2B2" stroke-miterlimit="10"/>
<path d="M36.23 54.42C37.84 52.87 39.65 51.13 41.37 49.46C41.11 50.64 37.17 54.29 36.23 54.42Z" stroke="#CBA2B2" stroke-miterlimit="10"/>
<path d="M82.5501 144.37C81.5101 144.13 80.4301 144.01 79.4601 143.62C78.9501 143.41 78.6001 142.78 78.2801 142.28C78.2101 142.17 78.4801 141.75 78.7001 141.62C78.8801 141.52 79.2101 141.64 79.4701 141.66C79.4401 141.9 79.4601 142.16 79.3601 142.38C79.1101 142.95 79.2301 143.22 79.9401 143.28C80.6001 143.33 81.2601 143.43 81.9001 143.6C82.2001 143.68 82.4301 143.97 82.6901 144.16C82.6501 144.23 82.6001 144.3 82.5501 144.37Z" stroke="#CBA2B2" stroke-miterlimit="10"/>
<path d="M51.2702 134.2C52.9102 134.54 54.5402 134.89 56.4302 135.28C55.3202 136.02 51.8002 135.35 51.1702 134.55C51.2002 134.43 51.2302 134.31 51.2702 134.2Z" stroke="#CBA2B2" stroke-miterlimit="10"/>
<path d="M98.8202 103.24C99.9202 104.25 100.02 106.23 98.9902 106.87C98.1202 105.59 98.0502 104 98.8202 103.24Z" fill="#F4A079"/>
<path d="M117.84 81.79C116.75 81.37 115.99 81.08 114.93 80.67C115.48 80.48 115.8 80.34 116.15 80.27C116.68 80.16 117.38 80.47 117.63 79.71C117.88 79.84 118.35 80 118.33 80.08C118.2 80.73 117.97 81.37 117.84 81.79Z" stroke="#CBA2B2" stroke-miterlimit="10"/>
<path d="M64.48 138.79C65.42 137.72 66.83 137.99 68.99 139.53C67.21 140.31 66.11 138.35 64.48 138.79Z" stroke="#CBA2B2" stroke-miterlimit="10"/>
<path d="M45.2501 98.28C45.1801 98 44.9901 97.69 45.0501 97.44C45.1501 97.04 45.4101 96.68 45.6001 96.3C45.8201 96.56 46.1501 96.78 46.2301 97.07C46.3501 97.49 46.3901 97.98 46.2601 98.39C46.1701 98.68 45.7401 98.87 45.4601 99.11C45.3201 98.86 45.1801 98.61 45.0401 98.36C45.1101 98.33 45.1801 98.3 45.2501 98.28Z" fill="#F4A079"/>
<path d="M106.01 102.69C105.93 102.96 105.91 103.25 105.76 103.45C105.58 103.69 105.29 103.85 105.04 104.05C104.97 103.78 104.89 103.51 104.82 103.24C104.75 102.94 104.63 102.63 104.63 102.33C104.63 101.95 104.72 101.57 104.77 101.2C105.1 101.42 105.49 101.59 105.74 101.87C105.92 102.06 105.93 102.4 106.01 102.69Z" fill="#F4A079"/>
<path d="M24.5601 126.47C26.2001 125.96 27.3701 126.76 28.6001 127.23C27.6901 127.87 26.2401 127.64 24.5601 126.47Z" stroke="#CBA2B2" stroke-miterlimit="10"/>
<path d="M15.4101 97.34C14.7101 98.28 14.0401 99.17 13.3201 100.12C12.8501 99.84 12.6101 99.42 13.0001 98.83C13.7201 97.75 14.8301 97.05 15.4101 97.34Z" stroke="#CBA2B2" stroke-miterlimit="10"/>
<path d="M50.66 78.22C50.6 78.99 50.59 79.77 50.46 80.54C50.43 80.72 49.99 80.84 49.73 80.98C49.63 80.76 49.46 80.54 49.44 80.31C49.39 79.93 49.34 79.51 49.46 79.15C49.58 78.76 49.88 78.42 50.11 78.06C50.29 78.11 50.48 78.17 50.66 78.22Z" fill="#F4A079"/>
<path d="M104.28 113.18C103.08 112.74 102.05 112.35 100.84 111.9C102.38 111.1 104.26 111.73 104.28 113.18Z" fill="#F4A079"/>
<path d="M101.74 104.68C100.92 103.57 100.87 102.41 101.58 101.72C102.58 102.55 102.67 103.81 101.74 104.68Z" fill="#F4A079"/>
<path d="M33.7601 44.07C33.7301 42.83 35.8701 41.51 37.4301 41.69C36.1701 42.51 35.0501 43.23 33.7601 44.07Z" stroke="#CBA2B2" stroke-miterlimit="10"/>
<path d="M77.49 108.24C77.33 107.57 77.08 107.03 77.12 106.51C77.15 106.11 77.54 105.74 77.77 105.35C77.98 105.64 78.29 105.91 78.38 106.22C78.6 107.02 78.39 107.72 77.49 108.24Z" fill="#F4A079"/>
<path d="M116.27 77.93C115.8 77.83 115.32 77.73 114.8 77.62C115.13 77.28 115.37 77.03 115.74 76.65C115.82 76.72 116.06 76.93 116.29 77.16C116.36 77.23 116.38 77.35 116.46 77.4C117.56 78.13 117.58 78.23 116.72 79.36C116.55 78.83 116.41 78.39 116.27 77.93Z" stroke="#CBA2B2" stroke-miterlimit="10"/>
<path d="M61.4701 132.86C60.9401 133.95 60.4001 135.04 59.8501 136.15C59.0201 135.51 59.9501 133.41 61.4701 132.86Z" stroke="#CBA2B2" stroke-miterlimit="10"/>
<path d="M119.63 78.6C120.37 77.96 120.08 76.69 121.46 76.87C121.99 78.31 121.93 78.37 119.63 78.6Z" stroke="#CBA2B2" stroke-miterlimit="10"/>
<path d="M107.12 129.71C107.66 128.5 108.21 127.28 108.75 126.07C108.89 126.13 109.03 126.18 109.17 126.24C108.75 127.52 108.51 128.87 107.43 129.87C107.32 129.82 107.22 129.76 107.12 129.71Z" stroke="#CBA2B2" stroke-miterlimit="10"/>
<path d="M40.1201 43.99C40.2901 42.06 41.1001 41.03 42.5101 40.99C41.7201 41.99 40.9701 42.93 40.1201 43.99Z" stroke="#CBA2B2" stroke-miterlimit="10"/>
<path d="M101.39 97.94C100.63 97.41 100.16 97.11 99.7501 96.77C99.6301 96.67 99.5801 96.41 99.6301 96.26C99.6801 96.12 99.9601 95.91 100.04 95.94C100.51 96.13 101.03 96.31 101.36 96.64C101.54 96.84 101.39 97.32 101.39 97.94Z" fill="#F4A079"/>
<path d="M52.0201 95.07C51.0301 93.82 51.0301 93.54 51.9701 92.87C52.8501 93.65 52.8801 94.28 52.0201 95.07Z" fill="#F4A079"/>
<path d="M54.45 98.37C54.76 98.76 55.11 99.13 55.34 99.55C55.4 99.66 55.05 100.14 54.97 100.12C54.52 100.02 53.91 99.93 53.72 99.63C53.57 99.39 53.93 98.86 54.07 98.46C54.2 98.43 54.32 98.4 54.45 98.37Z" fill="#F4A079"/>
<path d="M60.7201 102.78C60.8201 103.41 60.9301 104.04 61.0301 104.68C60.8901 104.74 60.7601 104.79 60.6201 104.85C60.2801 104.57 59.6701 104.29 59.6701 104C59.6601 103.57 60.0801 103.13 60.3101 102.7C60.4501 102.72 60.5801 102.75 60.7201 102.78Z" fill="#F4A079"/>
<path d="M41.0601 130.75C40.0401 130.68 39.0201 130.6 37.8901 130.52C38.7301 129.7 39.4701 129.69 41.1001 130.38C41.0801 130.5 41.0701 130.62 41.0601 130.75Z" stroke="#CBA2B2" stroke-miterlimit="10"/>
<path d="M111 121.9C110.45 121.03 110.97 120.17 112.67 119.22C112.12 120.09 111.57 120.97 111 121.9Z" stroke="#CBA2B2" stroke-miterlimit="10"/>
<path d="M114.13 115.94C114.64 115.11 115.15 114.29 115.65 113.46C116.02 114.47 115.34 115.57 114.13 115.94Z" stroke="#CBA2B2" stroke-miterlimit="10"/>
<path d="M114.44 74.84C114.61 75.31 114.76 75.6 114.8 75.9C114.84 76.19 114.76 76.5 114.74 76.79C114.48 76.76 114.06 76.8 114 76.68C113.85 76.38 113.78 75.99 113.83 75.67C113.86 75.43 114.15 75.21 114.44 74.84Z" stroke="#CBA2B2" stroke-miterlimit="10"/>
<path d="M112.73 87.34C112.31 86.93 111.84 86.55 111.5 86.09C111.38 85.92 111.54 85.57 111.58 85.3C111.82 85.33 112.21 85.29 112.27 85.4C112.59 85.98 112.83 86.59 113.1 87.2C112.98 87.24 112.85 87.29 112.73 87.34Z" stroke="#CBA2B2" stroke-miterlimit="10"/>
<path d="M8.34995 105.02C8.05995 105.57 7.77995 106.13 7.40995 106.83C7.35995 106.83 7.06995 106.85 6.69995 106.88C6.77995 106.5 6.74995 106.14 6.92995 105.91C7.24995 105.48 7.67995 105.13 8.06995 104.75C8.15995 104.84 8.24995 104.93 8.34995 105.02Z" stroke="#CBA2B2" stroke-miterlimit="10"/>
<path d="M90.67 107.23C90.46 106.95 90.25 106.66 90.03 106.37C90.18 106.15 90.3 105.95 90.45 105.77C90.59 105.6 90.76 105.46 90.92 105.3C91.02 105.32 91.11 105.35 91.21 105.37C91.16 105.98 91.11 106.59 91.06 107.21C90.93 107.21 90.8 107.22 90.67 107.23Z" fill="#F4A079"/>
<path d="M102.98 68.12C102.23 68.83 101.77 69.54 100.68 69.46C100.93 68.54 101.77 68.01 102.98 68.12Z" stroke="#CBA2B2" stroke-miterlimit="10"/>
<path d="M108.49 113.09C108.28 112.22 108.89 112.02 109.47 111.97C109.73 111.95 110.03 112.31 110.31 112.5C110.09 112.65 109.89 112.87 109.64 112.94C109.29 113.04 108.91 113.04 108.49 113.09Z" stroke="#CBA2B2" stroke-miterlimit="10"/>
<path d="M2.50007 112.8C1.75007 114.13 2.05007 115.11 3.63007 115.73C3.48007 115.87 3.32007 116.02 3.17007 116.16C2.58007 115.77 1.71007 115.52 1.48007 114.98C1.10007 114.11 1.37007 113.17 2.50007 112.8Z" stroke="#CBA2B2" stroke-miterlimit="10"/>
<path d="M114.75 78.46C114.99 78.72 115.47 79.03 115.43 79.24C115.37 79.54 114.92 79.76 114.63 80.02C114.47 79.8 114.2 79.59 114.16 79.35C114.12 79.09 114.3 78.79 114.38 78.51C114.51 78.49 114.63 78.47 114.75 78.46Z" stroke="#CBA2B2" stroke-miterlimit="10"/>
<path d="M59.6901 95.34C59.3601 94.27 59.8001 93.55 60.7701 93.27C61.1801 94.28 60.0701 94.52 59.6901 95.34Z" fill="#F4A079"/>
<path d="M90.2001 110.09C90.6701 110.07 91.2901 109.87 91.2601 110.65C91.2501 110.9 90.9001 111.14 90.7001 111.39C90.4201 111.06 90.1301 110.73 89.8501 110.4C89.9701 110.29 90.0801 110.19 90.2001 110.09Z" fill="#F4A079"/>
<path d="M108.87 90C108.53 89.57 108.19 89.19 107.71 90.13C107.66 89.97 107.6 89.81 107.55 89.66C107.89 89.33 108.2 88.96 108.59 88.7C108.7 88.63 109.21 88.81 109.25 88.95C109.34 89.26 109.24 89.61 109.21 89.94C109.09 89.96 108.98 89.98 108.87 90Z" fill="#F4A079"/>
<path d="M34.98 96.53C35.5 96.2 36 95.85 36.54 95.54C36.61 95.5 36.98 95.75 36.96 95.81C36.89 96.08 36.79 96.47 36.59 96.55C36.14 96.72 35.61 96.73 35.11 96.81C35.07 96.72 35.02 96.63 34.98 96.53Z" stroke="#CBA2B2" stroke-miterlimit="10"/>
<path d="M75.54 95.03C75.64 94.31 75.9 93.71 76.72 93.58C76.84 93.67 76.96 93.76 77.08 93.85C76.69 94.34 76.3 94.83 75.91 95.32C75.79 95.23 75.66 95.13 75.54 95.03Z" stroke="#CBA2B2" stroke-miterlimit="10"/>
<path d="M73.2401 105.15C73.0801 105.65 72.9301 106.15 72.7401 106.64C72.7301 106.67 72.3201 106.56 72.1001 106.51C72.2701 106 72.4401 105.49 72.6101 104.98C72.8201 105.04 73.0301 105.1 73.2401 105.15Z" fill="#F4A079"/>
<path d="M10.2301 120.67C9.53009 120.88 8.83009 121.1 8.09009 121.32C8.24009 120.46 9.05009 120.15 10.2301 120.67Z" stroke="#CBA2B2" stroke-miterlimit="10"/>
<path d="M113.82 85.27C114.47 85.83 114.77 86.34 114.01 87C113.07 86.5 113.39 85.93 113.82 85.27Z" stroke="#CBA2B2" stroke-miterlimit="10"/>
<path d="M15.79 123.35C16.42 122.34 17.02 122.27 18.05 123.12C17.22 123.2 16.56 123.27 15.79 123.35Z" stroke="#CBA2B2" stroke-miterlimit="10"/>
<path d="M92.25 147.76C92.01 147.46 91.6599 147.18 91.5599 146.84C91.5099 146.67 91.91 146.39 92.11 146.16C92.21 146.18 92.31 146.19 92.41 146.21C92.5 146.66 92.6 147.11 92.69 147.56C92.55 147.63 92.4 147.69 92.25 147.76Z" stroke="#CBA2B2" stroke-miterlimit="10"/>
<path d="M39.24 61.57C38.31 62.29 37.39 63.01 36.46 63.73C36.39 63.66 36.33 63.59 36.26 63.51C37.18 62.79 38.11 62.06 39.03 61.34C39.1 61.42 39.17 61.5 39.24 61.57Z" stroke="#CBA2B2" stroke-miterlimit="10"/>
<path d="M102.01 98.12C102.4 97.52 102.79 96.91 103.18 96.31C103.32 96.39 103.46 96.47 103.6 96.55C103.19 97.14 102.78 97.74 102.38 98.33C102.26 98.26 102.13 98.19 102.01 98.12Z" fill="#F4A079"/>
<path d="M96.85 140.1C96.59 140.59 96.32 141.08 96.06 141.57C95.95 141.55 95.84 141.53 95.74 141.51C95.76 141.22 95.68 140.88 95.81 140.65C95.99 140.35 96.33 140.13 96.6 139.87C96.69 139.96 96.77 140.03 96.85 140.1Z" stroke="#CBA2B2" stroke-miterlimit="10"/>
<path d="M54.0502 94.97C53.7702 95.31 53.5002 95.65 53.2202 95.99C53.0802 95.86 52.8102 95.67 52.8302 95.62C53.0302 95.27 53.2902 94.94 53.5202 94.61C53.7102 94.73 53.8802 94.85 54.0502 94.97Z" fill="#F4A079"/>
<path d="M102.01 134.64C101.46 135.31 101.05 135.81 100.64 136.32C100.54 136.22 100.43 136.12 100.33 136.03C100.43 135.22 101 134.86 102.01 134.64Z" stroke="#CBA2B2" stroke-miterlimit="10"/>
<path d="M81.04 89.09C81.3 87.91 81.76 87.66 82.68 88.07C82.16 88.39 81.7 88.68 81.04 89.09Z" stroke="#CBA2B2" stroke-miterlimit="10"/>
<path d="M53.2802 35.26C52.9002 35.51 52.6702 35.75 52.5802 35.71C52.2902 35.58 52.0402 35.36 51.8302 35.14C51.8002 35.11 52.1102 34.69 52.1602 34.71C52.4802 34.82 52.7802 35 53.2802 35.26Z" stroke="#CBA2B2" stroke-miterlimit="10"/>
<path d="M107.42 95.76C107.69 95.08 107.88 94.62 108.08 94.11C108.86 94.67 108.69 95.17 107.42 95.76Z" fill="#F4A079"/>
<path d="M86.6101 105.7C87.3801 106.41 87.3101 106.64 86.1101 107.13C86.2601 106.68 86.4201 106.24 86.6101 105.7Z" fill="#F4A079"/>
<path d="M51.6501 59.99C52.0101 60.1 52.3701 60.21 52.7301 60.32C52.7701 60.41 52.8101 60.5 52.8401 60.59C52.5801 60.71 52.2601 60.96 52.0601 60.9C51.7801 60.81 51.5701 60.49 51.3401 60.27C51.4501 60.18 51.5501 60.08 51.6501 59.99Z" stroke="#CBA2B2" stroke-miterlimit="10"/>
<path d="M47.99 72.29C46.78 73.18 45.57 74.06 44.36 74.95C44.31 74.89 44.25 74.83 44.2 74.76C45.39 73.84 46.5699 72.92 47.7599 72.01C47.8299 72.1 47.91 72.2 47.99 72.29Z" stroke="#CBA2B2" stroke-miterlimit="10"/>
<path d="M49.2801 54.39C49.2501 53.95 49.2301 53.61 49.2101 53.27C49.1001 53.25 48.9801 53.23 48.8701 53.21C49.1201 53.01 49.3701 52.81 49.7301 52.52C49.8701 53.17 50.0001 53.75 50.1501 54.43C49.7601 54.41 49.4601 54.4 49.2801 54.39Z" stroke="#CBA2B2" stroke-miterlimit="10"/>
<path d="M49.2102 43.77C48.4402 44.29 47.6702 44.81 46.9002 45.34C46.8202 45.24 46.7402 45.13 46.6602 45.03C47.4402 44.52 48.2202 44.01 49.0002 43.5C49.0702 43.59 49.1402 43.68 49.2102 43.77Z" stroke="#CBA2B2" stroke-miterlimit="10"/>
<path d="M28.6602 85.75C27.7602 85.81 27.2502 85.89 26.7502 85.86C26.4902 85.84 26.0102 85.61 26.0202 85.51C26.0602 85.12 26.2002 84.72 26.4202 84.39C26.4902 84.28 27.0102 84.28 27.1802 84.4C27.6602 84.75 28.0602 85.19 28.6602 85.75Z" stroke="#CBA2B2" stroke-miterlimit="10"/>
<path d="M93.8401 112.54C93.7301 112.04 93.6801 111.52 93.5501 111.03C93.3901 110.42 93.5701 109.9 93.8201 109.38C93.9201 109.19 94.0501 109.02 94.1201 108.81C94.1601 108.7 94.2201 108.58 94.3601 108.58C94.4901 108.58 94.5401 108.69 94.5801 108.79C94.6801 109.04 94.7701 109.12 94.9901 108.88C95.1801 108.68 95.3501 108.76 95.4301 109.02C95.6701 109.83 95.7101 110.64 95.4801 111.46C95.3801 111.8 95.3601 112.17 95.3001 112.52C95.2601 112.76 95.3301 112.89 95.6001 112.89L93.8701 112.84L93.8401 112.54Z" fill="#F4A079"/>
<path d="M64.3201 94.98C64.4101 94.88 64.4301 94.72 64.4001 94.46C64.3001 93.73 64.4201 92.97 64.0401 92.29C63.9201 92.08 64.0101 91.86 64.1801 91.7C64.3701 91.52 64.4901 91.31 64.5301 91.05C64.5601 90.86 64.6601 90.74 64.8701 90.76C65.0701 90.78 65.0901 90.94 65.0701 91.08C65.0301 91.5 65.3501 91.64 65.6301 91.79C65.8701 91.92 65.9701 91.7 66.0401 91.52C66.1201 91.33 66.1001 91.03 66.3901 91.05C66.6801 91.06 66.6101 91.37 66.6901 91.55C67.1401 92.58 66.6901 93.59 66.6201 94.61C66.6101 94.78 66.6001 94.9 66.6201 94.98" fill="#F4A079"/>
<path d="M70.67 86.52C70.75 86.44 70.75 86.27 70.75 85.95C70.75 85.44 70.74 84.93 70.56 84.43C70.47 84.2 70.59 83.96 70.68 83.74C70.77 83.53 70.89 83.34 70.94 83.11C70.97 82.99 71.05 82.88 71.19 82.91C71.34 82.95 71.29 83.08 71.26 83.18C71.23 83.28 71.24 83.38 71.32 83.44C71.75 83.73 71.66 84.2 71.63 84.58C71.6 85.01 71.52 85.46 71.26 85.84C71.21 85.92 71.19 86.02 71.17 86.11C71.1 86.4 71.09 86.52 71.23 86.57" fill="#F4A079"/>
<path d="M40.95 83.98C40.97 83.77 40.98 83.45 40.74 83.38C40.39 83.27 40.39 83.08 40.43 82.79C40.47 82.5 40.44 82.19 40.44 81.89C40.44 81.81 40.45 81.72 40.33 81.7C40.02 81.64 40.03 81.39 40.05 81.17C40.07 80.88 40.17 80.61 40.35 80.38C40.52 80.16 40.71 79.97 40.8 79.7C40.86 79.52 41.06 79.5 41.12 79.67C41.27 80.15 41.67 80.48 41.87 80.93C41.94 81.1 41.98 81.27 41.83 81.39C41.43 81.72 41.44 82.19 41.4 82.63C41.37 83.05 41.39 83.47 41.29 83.88C41.27 83.95 41.27 84 41.29 84.03L40.95 83.98Z" fill="#F4A079"/>
<path d="M38.5901 99.8C38.6301 99.62 38.7401 99.34 38.5801 99.26C38.0101 98.96 38.3001 98.47 38.2701 98.06C38.2601 97.93 38.2801 97.8 38.2801 97.67C38.2801 97.6 38.2801 97.5 38.2101 97.48C37.9301 97.39 37.9001 97.18 37.9401 96.94C37.9901 96.63 38.0901 96.32 38.3801 96.15C38.5501 96.05 38.6701 95.94 38.7201 95.76C38.7501 95.65 38.8101 95.55 38.9401 95.57C39.0901 95.58 39.1001 95.71 39.0901 95.82C39.0801 96.05 39.1901 96.2 39.3501 96.35C39.5501 96.54 39.6701 96.77 39.6801 97.05C39.6801 97.16 39.6901 97.3 39.6001 97.35C39.2301 97.55 39.2901 97.91 39.2601 98.23C39.2101 98.68 39.2101 99.14 39.1501 99.59L39.1301 99.7C39.1201 99.68 38.5601 99.95 38.5901 99.8Z" fill="#F4A079"/>
<path d="M63.5501 105.7C63.6301 105.62 63.6301 105.45 63.6301 105.13C63.6301 104.62 63.6201 104.11 63.4401 103.61C63.3501 103.38 63.4701 103.14 63.5601 102.92C63.6501 102.71 63.7701 102.52 63.8201 102.29C63.8501 102.17 63.9301 102.06 64.0701 102.09C64.2201 102.13 64.1701 102.26 64.1401 102.36C64.1101 102.46 64.1201 102.56 64.2001 102.62C64.6301 102.91 64.5401 103.38 64.5101 103.76C64.4801 104.19 64.4001 104.64 64.1401 105.02C64.0901 105.1 64.0701 105.2 64.0501 105.29C63.9801 105.58 63.9701 105.7 64.1101 105.75" fill="#F4A079"/>
<path d="M85.18 108.91C85.26 108.83 85.26 108.66 85.26 108.34C85.26 107.83 85.25 107.32 85.07 106.82C84.98 106.59 85.1 106.35 85.19 106.13C85.28 105.92 85.4 105.73 85.45 105.5C85.48 105.38 85.56 105.27 85.7 105.3C85.85 105.34 85.8 105.47 85.77 105.57C85.74 105.67 85.75 105.77 85.83 105.83C86.26 106.12 86.17 106.59 86.14 106.97C86.11 107.4 86.03 107.85 85.77 108.23C85.72 108.31 85.7 108.41 85.68 108.5C85.61 108.79 85.6 108.91 85.74 108.96" fill="#F4A079"/>
<path d="M102.13 107.6C102.21 107.52 102.21 107.35 102.21 107.03C102.21 106.52 102.2 106.01 102.02 105.51C101.93 105.28 102.05 105.04 102.14 104.82C102.23 104.61 102.35 104.42 102.4 104.19C102.43 104.07 102.51 103.96 102.65 103.99C102.8 104.03 102.75 104.16 102.72 104.26C102.69 104.36 102.7 104.46 102.78 104.52C103.21 104.81 103.12 105.28 103.09 105.66C103.06 106.09 102.98 106.54 102.72 106.92C102.67 107 102.65 107.1 102.63 107.19C102.56 107.48 102.55 107.6 102.69 107.65" fill="#F4A079"/>
<path d="M43.19 97.96C43.27 97.88 43.27 97.71 43.27 97.39C43.27 96.88 43.26 96.37 43.08 95.87C42.99 95.64 43.11 95.4 43.2 95.18C43.29 94.97 43.41 94.78 43.46 94.55C43.49 94.43 43.57 94.32 43.71 94.35C43.86 94.39 43.81 94.52 43.78 94.62C43.75 94.72 43.76 94.82 43.84 94.88C44.27 95.17 44.18 95.64 44.15 96.02C44.12 96.45 44.04 96.9 43.78 97.28C43.73 97.36 43.71 97.46 43.69 97.55C43.62 97.84 43.61 97.96 43.75 98.01" fill="#F4A079"/>
</g>
<defs>
<clipPath id="clip0_5398_9014">
<rect width="172" height="150" fill="white" transform="translate(0 0.5)"/>
</clipPath>
</defs>
</svg>
