<svg width="163" height="151" viewBox="0 0 163 151" fill="none" xmlns="http://www.w3.org/2000/svg">
<g clip-path="url(#clip0_5398_8671)">
<path d="M38.18 64.7256C37.81 63.8656 38.1 63.5256 38.57 63.0756C39.25 62.4256 39.68 61.5056 40.09 60.8956C39.22 60.1156 38.42 59.3756 37.6 58.6656C37.46 58.5456 37.23 58.4956 37.04 58.4956C35.32 58.4256 34.67 57.5256 34.61 55.7656C34.56 54.2756 34.73 52.7356 34.09 51.3056C34.01 51.1256 33.88 50.9656 33.75 50.7656C33.06 51.2556 32.31 51.4456 31.7 50.8556C31.18 50.3556 30.63 49.7356 30.48 49.0756C30.32 48.4156 30.64 47.6556 30.77 46.7756C30.11 47.2756 29.49 47.7156 28.95 46.8756C28.59 46.3156 28.31 45.7156 27.96 45.0556C26.93 45.1756 26.18 44.7556 25.91 43.5856C25.85 43.3456 25.52 42.9556 25.37 42.9756C24.31 43.1356 24.36 42.3756 24.3 41.7556C24.27 41.3956 24.34 40.9656 24.51 40.6556C24.85 40.0456 24.54 39.5856 24.18 39.2456C23.99 39.0656 23.45 39.0856 23.16 39.2156C21.97 39.7456 20.78 40.0956 19.47 39.7256C18.97 39.5856 18.69 39.7856 18.61 40.3156C18.58 40.5356 18.46 40.7656 18.33 40.9556C17.7 41.8456 17.13 42.6456 17.9 43.8256C18.31 44.4556 17.72 45.2856 17.04 45.7456C16.55 46.0756 16.16 46.5356 15.74 46.9656C15.58 47.1356 15.5 47.3756 15.34 47.5456C14.62 48.3256 14.16 48.2556 13.68 47.2956C13.58 47.0856 13.48 46.8856 13.4 46.7356C12.58 46.7756 11.81 46.7656 11.07 46.8756C10.68 46.9356 10.31 47.1856 9.96997 47.4056C9.23997 47.8856 8.53997 48.4156 7.80997 48.8956C7.13997 49.3356 6.82997 49.9156 7.09997 50.6956C7.28997 51.2456 7.49997 51.8056 7.74997 52.3256C8.37997 53.6156 7.91997 54.3856 6.54997 54.4356C6.12997 54.4556 5.64997 54.7156 5.30997 55.0056C4.39997 55.7856 3.44997 56.3756 2.13997 56.2256C2.05997 56.5956 2.05997 56.9356 1.91997 57.2056C1.66997 57.6856 1.42997 58.2356 1.02997 58.5756C0.22997 59.2656 0.13997 60.1256 0.88997 60.8956C1.33997 61.3556 1.78997 61.8256 2.15997 62.3556C2.47997 62.8156 2.90997 63.3356 2.20997 63.8856C2.15997 63.9256 2.33997 64.3956 2.51997 64.5256C2.89997 64.8056 3.34997 65.0056 3.71997 65.2056C3.45997 65.7456 3.24997 66.1656 3.00997 66.6756C2.33997 66.4256 2.10997 66.8356 1.98997 67.6256C1.92997 68.0256 1.52997 68.4056 1.21997 68.7456C0.859972 69.1456 0.439971 69.4956 -2.89381e-05 69.9056C-0.300029 69.5356 -0.590028 69.1256 0.129972 68.6756C0.889972 68.2056 1.54997 67.7256 1.51997 66.6156C1.50997 66.2356 2.28997 65.8456 2.71997 65.4556C2.42997 65.1956 2.07997 64.9256 1.77997 64.6156C1.41997 64.2456 1.27997 63.8756 1.70997 63.3856C1.86997 63.2056 1.83997 62.7156 1.70997 62.4756C1.50997 62.1356 1.16997 61.8456 0.819971 61.6256C-0.320029 60.8856 -0.100029 59.7156 -0.160029 58.6456C-0.170029 58.5356 0.0199726 58.3256 0.149973 58.2956C0.949973 58.0856 1.17997 57.4856 1.29997 56.7856C1.42997 56.0756 1.71997 55.6656 2.57997 55.6756C3.07997 55.6856 3.59997 55.3156 4.07997 55.0556C4.99997 54.5556 5.69997 53.5756 6.99997 53.9956C7.45997 54.1456 7.68997 53.0356 7.30997 52.3956C7.05997 51.9656 6.73997 51.5656 6.56997 51.1056C6.06997 49.7756 6.37997 49.0856 7.60997 48.3856C8.16997 48.0656 8.63997 47.5956 9.16997 47.2256C9.61997 46.9056 10.07 46.5256 10.58 46.3756C11.44 46.1156 12.35 45.9856 13.24 45.8656C13.41 45.8456 13.69 46.0756 13.8 46.2656C14.02 46.6356 14.15 47.0456 14.38 47.6056C14.66 47.2956 14.85 47.1356 14.99 46.9356C15.49 46.1956 15.82 45.3656 16.84 45.0556C17.47 44.8656 17.47 44.1856 17.22 43.6156C17.06 43.2356 16.8 42.8956 16.68 42.5056C16.61 42.2756 16.61 41.9256 16.74 41.7256C17.22 40.9756 17.75 40.2456 18.3 39.5456C18.47 39.3256 18.82 38.9856 18.97 39.0356C20.4 39.5156 21.71 38.9956 23.05 38.6456C24.21 38.3456 25.21 39.0156 25.37 40.1956C25.39 40.3556 25.22 40.5456 25.15 40.7256C24.96 41.2556 24.32 41.8556 25.46 42.1756C25.75 42.2556 25.93 42.8056 26.11 43.1756C26.81 44.6156 26.99 44.7056 28.5 44.1956C28.59 44.7056 28.63 45.2256 28.77 45.7056C29.09 46.8256 29.38 46.9156 30.24 46.2256C30.65 45.9056 31.01 45.9856 31.12 46.4656C31.22 46.9356 31.19 47.4456 31.17 47.9356C31.16 48.4056 30.93 48.9256 31.08 49.3156C31.51 50.4056 31.83 50.9156 33.21 50.3956C33.85 50.1556 34.16 50.4056 34.42 50.8856C34.65 51.3256 34.88 51.7856 35.02 52.2556C35.1 52.5156 34.98 52.8256 35 53.1056C35.04 53.6056 34.94 54.2756 35.22 54.5656C35.5 54.8656 36.19 54.9356 36.67 54.8756C37.54 54.7656 38.4 54.5156 39.26 54.2856C39.68 54.1756 40.07 53.9556 40.49 53.8156C40.86 53.6856 41.15 53.1856 41.68 53.6256C41.83 53.7456 42.26 53.5356 42.56 53.4756C43.12 54.5356 43.8 54.7856 45.12 54.4456C45.36 54.3856 45.67 54.5456 45.89 54.4656C46.16 54.3556 46.44 54.1356 46.55 53.8856C46.61 53.7556 46.35 53.3856 46.16 53.2656C44.95 52.5556 44.9 52.5256 45.16 51.0956C45.2 50.8856 45.46 50.6756 45.66 50.5356C46.39 50.0156 47.21 49.5956 47.87 48.9956C48.34 48.5656 48.75 48.3656 49.36 48.5256C50.21 48.7456 51.01 48.8556 51.37 47.7556C51.43 47.5556 51.69 47.4156 51.88 47.2756C52.35 46.8956 52.44 46.5356 52.02 46.0156C51.48 45.3556 52.15 43.7456 52.98 43.5056C53.45 43.3656 53.89 43.1256 54.35 42.9456C54.54 42.8756 54.78 42.7456 54.92 42.8056C56.36 43.3956 57.8 43.2356 59.2 42.8456C59.63 44.1056 60.02 45.2756 60.43 46.4756C60.75 46.3556 60.98 46.2756 61.21 46.1856C61.3 47.0156 61.38 47.8056 61.46 48.5856C61.54 48.5856 61.62 48.5856 61.7 48.5856C61.57 48.7356 61.42 48.8856 61.3 49.0456C60.87 49.6356 61.04 50.0956 61.75 50.2756C61.86 50.3056 61.99 50.3456 62.09 50.3156C63.14 49.9856 63.99 50.0356 64.13 51.5256C64.45 51.2556 64.63 51.0856 64.82 50.9356C65.51 50.4156 66.02 50.4456 66.45 51.1856C67.04 52.2056 67.53 53.2956 68.08 54.3956C67.66 54.6156 67.44 54.7356 67.12 54.9056C67.34 55.0356 67.51 55.1956 67.59 55.1656C68.87 54.5756 70.2 54.0656 71.39 53.3156C71.94 52.9756 72.33 52.3556 73.03 52.1756C73.67 52.0156 74.3 51.8056 74.94 51.6556C75.08 51.6256 75.3 51.7056 75.41 51.8056C76.9 53.2356 77.7 53.3756 79.57 52.6156C79.93 52.4656 80.41 52.5656 80.83 52.6356C81.42 52.7256 82 53.0156 82.58 53.0056C83.12 52.9956 83.33 53.1856 83.61 53.5956C83.95 54.0856 84.48 54.4456 84.92 54.8756C85.03 54.9856 85.17 55.1356 85.19 55.2756C85.34 56.3956 85.69 56.8056 86.8 56.8856C87.36 56.9256 87.66 57.1056 87.83 57.6456C88.36 59.2956 89.04 59.6756 91.02 59.3756C90.82 58.9556 90.63 58.5856 90.46 58.2056C90.39 58.0356 90.35 57.8456 90.3 57.6656C90.46 57.6256 90.62 57.5356 90.78 57.5456C92.75 57.6356 94.73 57.7356 96.7 57.8556C97.04 57.8756 97.38 58.0256 97.75 58.1256C97.66 54.9556 97.57 51.8256 97.48 48.6056C95.29 48.1556 92.95 47.6756 90.62 47.1956C90.3 47.1356 89.98 47.0856 89.67 47.0156C88.8 46.8056 88.38 45.7356 88.93 45.0356C89.05 44.8856 89.4 44.8556 89.63 44.8856C92.77 45.2756 95.91 45.6156 99.03 46.1056C102.08 46.5856 105.12 46.9156 108.21 46.9456C108.94 46.9556 109.67 47.1456 110.41 47.2356C112.99 47.5556 115.56 47.8656 118.14 48.1656C118.71 48.2356 118.87 48.4656 118.83 49.0356C118.77 49.8856 118.83 50.7456 118.84 51.5956C118.85 52.6556 119.03 52.7756 120.08 52.8356C123.14 53.0156 126.2 53.2256 129.25 53.4556C129.59 53.4856 129.93 53.6456 130.26 53.7556C130.24 53.8556 130.23 53.9556 130.21 54.0456C126.38 53.8456 122.54 53.6356 118.52 53.4256C118.47 53.0556 118.36 52.5156 118.32 51.9856C118.27 51.1656 118.23 50.3356 118.25 49.5156C118.26 48.9056 118.01 48.6856 117.42 48.6356C112.62 48.2256 107.81 47.8456 103.02 47.3456C100.67 47.1056 98.36 46.5856 96.02 46.2756C93.86 45.9956 91.69 45.8256 89.49 45.6056C89.29 46.3356 89.76 46.4756 90.23 46.5456C90.96 46.6556 91.71 46.6356 92.44 46.7756C94.29 47.1256 96.13 47.5256 97.97 47.9356C98.15 47.9756 98.38 48.2956 98.38 48.4856C98.37 49.2156 98.22 49.9456 98.21 50.6756C98.21 51.8356 98.3 52.9856 98.31 54.1456C98.33 55.7656 98.31 57.3756 98.31 58.8956C97.36 58.7556 96.49 58.5856 95.61 58.5256C94.24 58.4256 92.86 58.3956 91.48 58.3356C91.55 59.2256 91.6 60.1156 91.71 61.0056C91.73 61.1556 92 61.3556 92.18 61.3856C93.31 61.5756 94.44 61.7556 95.57 61.8756C96.21 61.9456 96.87 61.9256 97.52 61.9256C98.11 61.9356 98.49 62.1156 98.41 62.8056C98.36 63.2156 98.34 63.6256 98.32 64.0356C98.27 65.1656 98.22 66.2856 98.18 67.4156C98.18 67.4956 98.23 67.5856 98.27 67.6556C98.82 68.5556 98.75 68.7556 97.67 68.7856C95.96 68.8356 94.25 68.7956 92.49 68.7956C92.49 69.9856 92.49 71.2956 92.49 72.5156C94.42 72.7656 96.28 72.9956 98.14 73.2656C98.27 73.2856 98.38 73.4956 98.5 73.6156C98.45 73.6756 98.4 73.7356 98.35 73.7956C96.22 73.5456 94.1 73.2956 91.91 73.0356C91.91 72.7556 91.91 72.2956 91.91 71.7556C91.14 71.6856 90.41 71.6256 89.68 71.5656C85.77 71.2456 81.85 70.8956 77.94 70.6056C76.26 70.4856 74.57 70.4656 72.88 70.4056C72.76 70.4056 72.61 70.3656 72.53 70.4256C71.54 71.1556 70.55 71.8956 69.39 72.7656C69.86 73.0256 70.09 73.2556 70.29 73.2356C71 73.1756 71.44 73.5156 71.86 74.0056C72 74.1656 72.25 74.2456 72.45 74.3556C72.99 74.6456 73.52 74.9356 74.07 75.2056C74.46 75.4056 74.85 75.5856 75.24 75.7756C75.76 76.0356 76.27 76.3056 76.79 76.5656C77.28 76.8156 77.77 77.0656 78.27 77.3156C79.06 77.7156 79.92 78.0056 80.61 78.5256C81.32 79.0556 82.05 79.0856 82.85 79.1056C85.65 79.1656 88.44 79.2556 91.24 79.3056C91.92 79.3156 92.62 79.1556 93.28 79.2556C95.69 79.6156 98.07 78.9556 100.46 79.1256C101.06 79.1656 101.59 79.2656 102.02 79.8256C102.45 80.4056 103.06 80.8456 103.61 81.3456C104.66 82.3056 105.71 83.2556 106.76 84.2156C106.91 84.3556 107.04 84.5756 107.21 84.6256C109.18 85.1456 110.45 86.8056 112.24 87.6456C113.99 88.4756 115.51 89.7956 117.28 90.5256C118.78 91.1456 119.72 92.4356 121.15 93.0456C121.57 93.2256 122.08 93.2156 122.55 93.2656C122.95 93.3056 123.36 93.3056 123.76 93.3156C123.73 93.9656 123.83 94.6656 123.62 95.2456C123.44 95.7456 122.88 95.9256 122.22 95.9256C119.39 95.9256 116.57 96.0256 113.74 96.0656C112.44 96.0856 111.15 96.0656 109.87 96.0656C109.87 98.0656 109.86 99.9356 109.87 101.806C109.87 102.456 110.17 102.736 110.88 102.626C111.44 102.536 112.05 102.566 112.61 102.666C112.82 102.706 113.08 103.086 113.12 103.346C113.25 104.216 113.29 105.096 113.36 106.056C113.59 106.006 113.91 106.026 114.06 105.876C114.8 105.176 115.83 104.896 116.38 103.836C117.03 102.606 118.49 102.376 119.81 102.136C120.34 102.036 120.87 101.896 121.4 101.806C121.74 101.746 122.18 101.596 122.41 101.736C123.02 102.126 123.72 101.976 124.31 102.166C125.46 102.556 126.5 103.246 127.77 103.316C127.95 103.326 128.15 103.596 128.27 103.796C128.69 104.486 129.21 104.726 130.08 104.816C130.69 104.876 131.32 105.796 131.71 106.466C131.89 106.776 131.63 107.496 131.35 107.866C130.63 108.836 130.68 108.736 131.36 109.776C132.07 110.846 132.62 112.026 133.13 113.206C133.39 113.816 132.92 114.426 132.36 114.466C131.03 114.556 129.68 115.096 128.32 114.356C128.07 114.916 127.84 115.356 128.68 115.736C129.15 115.946 129.51 116.476 129.8 116.936C129.94 117.156 129.89 117.726 129.74 117.816C129.45 117.986 128.82 118.106 128.67 117.946C127.75 116.936 126.78 116.946 125.6 117.416C125.22 117.566 124.66 117.236 124.18 117.136C124.73 117.076 125.36 117.166 125.83 116.936C126.84 116.446 127.69 116.716 128.57 117.186C128.73 117.276 128.86 117.396 129.15 117.606C129.16 116.656 128.73 116.246 128.11 115.896C127.81 115.726 127.41 115.436 127.39 115.176C127.35 114.616 127.54 114.046 127.6 113.666C128.61 113.786 129.48 113.906 130.35 113.976C130.78 114.016 131.21 113.926 131.64 113.946C132.3 113.976 132.69 113.576 132.41 112.976C131.92 111.926 131.37 110.876 130.75 109.896C130.08 108.836 130.02 108.606 130.73 107.646C130.82 107.526 130.94 107.396 130.95 107.266C130.97 106.916 131.08 106.446 130.9 106.236C130.59 105.866 130.48 105.116 129.66 105.396C129.08 105.596 128.65 105.366 128.36 104.796C127.93 103.956 127.25 103.556 126.26 103.676C125.94 103.716 125.42 103.606 125.3 103.396C124.73 102.356 123.94 102.576 123.14 102.936C122.27 101.986 122.21 101.986 121.08 102.556C120.83 102.686 120.51 102.776 120.23 102.766C118.73 102.696 117.33 103.496 116.65 104.836C116.57 104.986 116.46 105.156 116.31 105.226C115.35 105.716 114.38 106.186 113.31 106.706C113.31 106.976 113.27 107.456 113.32 107.916C113.4 108.676 113.12 109.106 112.32 109.116C111.59 109.126 110.87 109.116 110.07 109.116C110.1 110.496 109.75 111.846 111 113.036C111.5 113.516 112.8 113.926 112.09 115.236C112.43 115.056 112.65 114.896 112.85 114.696C113.79 113.766 113.9 113.756 114.94 114.656C115.35 115.016 115.73 115.396 116.03 115.676C116.77 115.056 117.38 114.486 118.06 114.006C118.18 113.916 118.58 114.136 118.8 114.286C119.15 114.536 119.41 115.006 119.78 115.096C120.71 115.306 121.2 115.736 121.33 116.726C121.43 117.456 121.82 118.126 122.58 118.436C122.87 117.836 123.12 117.316 123.39 116.746C123.69 116.896 123.95 117.026 124.21 117.146C124.08 117.366 123.81 117.616 123.84 117.806C123.99 118.566 123.41 118.856 122.95 119.006C122.64 119.106 122.02 118.876 121.82 118.596C121.33 117.906 120.99 117.096 120.55 116.246C120.4 119.076 119.71 121.866 121.08 124.606C120.46 124.726 120.01 124.806 119.46 124.906C119.63 124.276 118.98 123.516 119.94 123.076C119.97 123.066 119.95 122.916 119.95 122.836C119.88 120.656 119.79 118.486 119.74 116.306C119.72 115.466 119.02 115.096 118.49 114.906C118.16 114.786 117.56 115.416 117.09 115.706C117.24 115.906 117.41 116.086 117.53 116.306C117.61 116.436 117.69 116.676 117.63 116.756C117.55 116.856 117.27 116.936 117.18 116.876C116.43 116.386 115.7 115.866 114.98 115.336C114.65 115.096 114.36 114.816 114 114.526C113.7 114.846 113.47 115.096 113.23 115.346C113.32 115.336 113.41 115.326 113.5 115.316C113.68 115.706 114.01 116.096 114.02 116.486C114.05 117.856 113.98 119.236 113.94 120.606C113.91 121.416 113.34 121.486 112.7 121.466C110.79 121.406 108.87 121.356 106.96 121.306C105.54 121.266 104.12 121.196 102.71 121.176C100.94 121.156 99.18 121.166 97.33 121.166C97.22 120.036 97.08 118.746 96.97 117.446C96.9 116.626 96.55 116.246 95.87 116.606C95.03 117.036 94.3 116.626 93.53 116.616C92.63 116.606 91.72 116.456 90.83 116.286C90.6 116.246 90.28 115.916 90.26 115.696C90.18 114.476 90.2 113.236 90.15 112.016C90.11 111.106 90.02 110.196 89.96 109.286C89.94 108.966 89.91 108.646 89.94 108.326C89.95 108.186 90.12 108.056 90.21 107.926C90.33 108.026 90.45 108.136 90.58 108.206C90.79 108.326 91.03 108.526 91.24 108.506C92.61 108.376 93.97 108.126 95.35 108.056C96.05 108.016 96.29 107.746 96.21 107.156C96.05 105.976 95.83 104.796 95.67 103.766C93.76 103.846 92.01 103.936 90.26 103.966C90.12 103.966 89.88 103.616 89.86 103.416C89.8 102.636 89.82 101.846 89.8 101.056C89.79 100.766 89.77 100.466 89.74 100.176C89.65 99.3656 89.57 98.5556 89.46 97.7456C89.4 97.2856 89.32 96.8056 89.17 96.3756C88.7 95.0656 88.98 94.7656 90.41 94.8056C92.59 94.8656 94.76 94.8056 96.94 94.7956C98.56 94.7856 100.18 94.7756 101.8 94.7456C102.36 94.7356 102.92 94.6556 103.48 94.6556C104.21 94.6656 104.94 94.7056 105.67 94.7656C106.67 94.8456 107.66 95.3156 108.66 94.6456C108.89 94.4956 109.29 94.6156 109.62 94.6156C111.8 94.6256 113.98 94.6256 116.17 94.6556C117.52 94.6756 118.87 94.7456 120.22 94.7756C120.87 94.7956 121.52 94.7956 122.17 94.7656C122.36 94.7556 122.54 94.6156 122.71 94.4656C121.21 94.5556 120.12 93.8956 119.21 92.8156C119.01 92.5756 118.68 92.4456 118.4 92.2856C117.08 91.5156 115.76 90.7556 114.45 89.9756C112.6 88.8756 110.74 87.7956 108.91 86.6656C107.73 85.9356 106.59 85.1356 105.47 84.3156C105.12 84.0556 104.88 83.6456 104.6 83.3056C104.55 83.2356 104.52 83.1456 104.45 83.0956C103.53 82.4256 102.52 81.8456 101.7 81.0756C99.93 79.4256 97.93 80.3356 96 80.4056C95.37 80.4256 94.73 80.4256 94.1 80.4056C93.81 80.3956 93.51 80.2956 93.22 80.2956C91.76 80.2656 90.29 80.2456 88.83 80.2456C86.19 80.2456 83.55 80.2656 80.9 80.2556C80.69 80.2556 80.31 80.1556 80.29 80.0356C80.04 78.8356 78.88 78.9256 78.12 78.4656C77.69 78.2056 77.23 78.0056 76.79 77.7656C76.61 77.6656 76.45 77.4356 76.28 77.4256C74.47 77.3056 73.47 75.6056 71.8 75.1956C71.29 75.0756 70.88 74.5856 70.39 74.3156C68.94 73.5256 67.43 72.8256 66.03 71.9456C64.84 71.2056 63.85 71.6956 62.77 72.1056C61.77 72.4956 60.71 72.7556 59.72 73.1656C58.94 73.4856 58.23 73.9756 57.46 74.3256C56.44 74.7956 55.41 75.2256 54.37 75.6256C52.37 76.3956 50.37 77.1456 48.35 77.8656C48.06 77.9656 47.5 77.9356 47.38 77.7556C47.08 77.2856 47.52 77.1656 47.9 77.0056C49.68 76.2356 51.42 75.3856 53.21 74.6456C54.18 74.2456 55.24 74.0856 56.02 73.2656C56.21 73.0656 56.67 73.1356 57.2 73.0456C56.76 72.7856 56.46 72.6256 56.18 72.4456C55.13 71.7856 55.12 71.4856 56.11 70.7756C55.78 70.0656 55.47 69.3556 55.11 68.6756C54.98 68.4256 54.74 68.2156 54.5 68.0456C54.02 67.6956 53.52 67.3856 52.79 66.9156C52.33 67.0956 51.55 67.4156 50.76 67.7056C49.46 68.1756 48.82 67.7856 48.57 66.4356C48.52 66.1556 48.44 65.8756 48.33 65.3956C47.64 66.2756 46.67 66.4256 46.21 67.5356C45.66 68.8456 44.47 69.7856 42.84 70.0656C41.8 70.2456 40.83 70.8556 39.87 71.2456C40.07 71.9456 40.26 72.6056 40.5 73.4756C39.97 73.3056 39.74 73.2256 39.51 73.1456C38.84 74.2956 37.76 74.2956 36.42 73.1756L36.39 73.2056C36.85 73.2456 37.31 73.3056 37.77 73.3056C38.09 73.3056 38.4 73.2056 38.71 73.1556C38.57 72.6856 38.47 72.3356 38.37 71.9856C38.51 71.8856 38.65 71.7756 38.79 71.6756C38.98 72.1256 39.16 72.5656 39.35 73.0156C39.46 72.9156 39.58 72.8056 39.69 72.7056C39.5 72.3856 39.24 72.0756 39.14 71.7256C39.05 71.3756 39.12 70.9756 39.12 70.7156C39.92 70.3856 40.61 70.0956 41.31 69.8156C41.66 69.6756 42.05 69.4056 42.38 69.4556C43.62 69.6556 44.25 69.0456 44.71 67.7656C43.68 67.5856 42.67 67.4356 41.68 67.2356C41.19 67.1356 40.72 66.9756 40.25 66.8056C39.29 66.4456 38.36 66.0456 37.4 65.6756C37.05 65.5456 36.6 65.5656 36.31 65.3656C34.61 64.1556 32.66 63.6356 30.67 63.1656C30.53 63.1356 30.39 63.0756 30.25 63.0256C28.71 62.4456 27.18 61.8356 25.64 61.2856C25.29 61.1656 24.88 61.2256 24.5 61.1656C21.12 60.6656 17.75 60.6256 14.34 60.8856C12.47 61.0256 10.57 60.8356 8.67997 60.8056C8.29997 60.7956 7.92997 60.8456 7.54997 60.8556C7.53997 60.9856 7.51997 61.1156 7.50997 61.2356C9.15997 61.7156 10.81 62.2056 12.46 62.6856C12.54 62.7056 12.66 62.6756 12.72 62.7156C14.13 63.6056 15.72 64.0256 17.28 64.5356C17.99 64.7656 18.67 65.1256 19.31 65.5256C19.59 65.7056 19.87 66.1056 19.9 66.4256C20.1 68.3256 20.24 70.2356 20.4 72.1856C21.14 72.2556 22 72.3756 22.86 72.4156C24.36 72.4856 25.87 72.5956 27.37 72.5156C28.06 72.4756 28.72 72.0056 29.44 71.7156C29.58 71.8656 29.97 72.1056 30.1 72.4356C30.18 72.6656 29.89 73.0256 29.77 73.3256C29.67 73.2956 29.57 73.2756 29.47 73.2456C29.47 74.3256 29.47 75.4056 29.47 76.6056C29.71 76.7056 30.06 76.8456 30.42 76.9856C30.42 77.0756 30.43 77.1656 30.43 77.2556C30.14 77.2856 29.84 77.3456 29.55 77.3256C28.27 77.2356 26.98 77.1156 25.7 77.0256C24.7 76.9556 23.7 76.8956 22.69 76.8856C21.9 76.8856 21.12 76.9656 20.49 77.0056C20.49 79.0756 20.49 80.9956 20.49 82.9356C20.88 82.9956 21.08 83.0456 21.28 83.0456C23.23 83.0256 25.17 82.9956 27.12 82.9556C27.79 82.9456 28.46 82.8456 29.13 82.8856C29.32 82.8956 29.66 83.2256 29.66 83.4156C29.67 84.1656 29.57 84.9156 29.5 85.7956C29.14 85.6556 28.85 85.5356 28.51 85.4056C29.32 84.4756 29.21 83.9556 28.07 83.7756C27.78 83.7256 27.48 83.7356 27.19 83.7556C26.9 83.7756 26.6 83.8856 26.31 83.8856C24.6 83.8856 22.88 83.7356 21.19 83.9056C20.11 84.0156 19.19 83.5656 18.18 83.5556C17.12 83.5456 16.06 83.5556 14.92 83.5556C15.02 84.5656 16.04 85.5756 14.57 86.3356C14.51 86.1956 14.41 86.0156 14.36 85.8156C14.15 85.0656 13.99 84.2956 13.74 83.5656C13.48 82.8056 13.24 82.0756 13.76 81.1056C14.08 81.5356 14.31 81.8656 14.52 82.1556C16.03 82.3156 17.55 82.4856 19.15 82.6556C19.15 81.7956 19.16 81.0356 19.15 80.2856C19.13 79.4356 19.05 78.5856 19.06 77.7356C19.06 77.2656 18.97 77.0256 18.45 76.9856C17.38 76.9056 16.31 76.7356 15.23 76.6756C14.77 76.6456 14.3 76.8056 13.83 76.8856C13.78 76.4356 13.77 75.9756 13.68 75.5356C13.54 74.8056 13.38 74.0756 13.18 73.3656C12.77 71.9056 13.25 71.4156 14.76 71.5856C16.14 71.7456 17.55 71.7356 18.91 71.7956C18.91 69.7756 18.91 67.9456 18.91 66.0756C17.64 65.7456 16.47 65.4856 15.34 65.1256C14.67 64.9156 14.06 64.5456 13.42 64.2356C13.18 64.1156 12.96 63.8556 12.73 63.8656C11.42 63.9256 10.28 63.4056 9.09997 62.9556C8.27997 62.6456 7.34997 62.5156 6.65997 62.0356C6.21997 61.7356 6.11997 60.9356 5.84997 60.3356C6.86997 59.6356 7.96997 59.6556 9.09997 59.6956C11.05 59.7556 13 59.7356 14.95 59.7556C16.48 59.7656 18 59.7356 19.53 59.8056C21.59 59.8856 23.65 60.0056 25.7 60.1856C26.34 60.2456 26.95 60.5656 27.58 60.7656C27.66 60.7956 27.72 60.8856 27.8 60.9056C28.85 61.2556 29.87 61.7356 30.95 61.9356C33.07 62.3256 34.93 63.3356 36.85 64.2056C37.22 64.4156 37.59 64.5156 38.18 64.7256ZM59 43.8856C57.64 43.6856 56.46 43.5156 55.28 43.3456C55.15 43.3256 55 43.3656 54.88 43.4256C54.4 43.6356 53.95 43.9056 53.46 44.0856C52.7 44.3456 52.29 45.3056 52.75 45.9456C53.29 46.6956 52.89 47.2056 52.4 47.7256C52.18 47.9556 51.91 48.1456 51.73 48.4056C51.16 49.1956 50.63 49.3356 49.65 49.1056C49.29 49.0156 48.81 49.1156 48.48 49.3056C47.75 49.7056 47.03 50.1656 46.42 50.7156C46.08 51.0256 45.84 51.5656 45.77 52.0256C45.74 52.2456 46.16 52.6256 46.46 52.7756C47.43 53.2456 47.58 53.8656 46.81 54.6256C46.55 54.8856 46.21 55.0556 45.87 55.2956C46.06 56.0656 45.83 56.6556 45.08 56.9056C45.4 58.2056 46.16 58.8656 47.47 58.9356C48.21 58.9756 48.38 59.4156 48.1 60.1156C47.6 61.3356 45.76 62.1756 44.54 61.6656C43.46 61.2156 42.79 61.6856 42.87 62.8256C42.91 63.4156 43.06 63.9956 43.04 64.5856C43.01 65.5156 43.48 66.0456 44.26 66.4556C44.68 66.6756 45.3 66.8056 45.18 67.5256C45.32 67.5456 45.47 67.5656 45.65 67.5956C45.39 66.8356 45.98 65.8756 46.69 65.7356C46.97 65.6756 47.25 65.5656 47.48 65.3956C48.35 64.7556 48.82 64.9056 49.16 65.9356C49.63 67.4056 49.63 67.4056 51.01 66.8856C51.2 66.8156 51.43 66.8056 51.59 66.6956C52.46 66.1256 53.3 65.6356 53.91 66.9956C55.72 67.7556 56.02 69.7756 57.25 71.0156C57.3 71.0656 57.24 71.2256 57.24 71.3256C56.82 71.4156 56.43 71.4956 56.05 71.5756C56.04 71.6656 56.03 71.7456 56.02 71.8356C56.75 72.1056 57.49 72.3756 58.5 72.7356C60.17 72.0056 62.14 71.1656 64.08 70.2656C64.63 70.0156 64.98 69.9956 65.51 70.3656C66.48 71.0256 67.55 71.5456 68.6 72.0656C68.79 72.1556 69.18 72.0556 69.38 71.9056C70.26 71.2156 71.09 70.4656 71.97 69.7656C72.14 69.6256 72.44 69.5856 72.68 69.5956C75.6 69.7256 78.53 69.8456 81.45 70.0456C83.86 70.2056 86.26 70.4756 88.67 70.6856C89.75 70.7756 90.83 70.8556 92.2 70.9556C91.9 69.7456 91.66 68.7456 91.39 67.6656C91.82 67.6956 92.23 67.7356 92.63 67.7656C93.96 67.8556 95.28 67.9356 96.61 68.0256C97.27 68.0656 97.64 67.9156 97.63 67.1156C97.62 65.8156 97.76 64.5156 97.82 63.2056C97.84 62.7756 97.7 62.5456 97.16 62.5056C96.17 62.4356 95.19 62.1556 94.2 62.1056C93.25 62.0556 92.28 62.1656 91.33 62.2056C91.17 62.2156 91.02 62.2156 90.86 62.2156C90.89 62.0656 90.92 61.9156 90.95 61.7656C91.06 61.2256 91.16 60.6956 91.29 60.0456C90.57 60.0456 90.1 60.0656 89.63 60.0456C88.9 60.0156 88.09 59.9056 87.81 59.1856C87.37 58.0456 86.59 57.4256 85.48 57.0856C85.33 57.0356 85.22 56.8556 85.11 56.7156C84.65 56.1456 84.15 55.5956 83.76 54.9756C83.26 54.1856 82.74 53.5356 81.66 53.7056C81.48 53.7356 81.24 53.6356 81.09 53.5156C80.51 53.0556 80 53.2456 79.37 53.4756C78.3 53.8556 77.17 54.1656 76.14 53.2456C75.78 52.9256 75.33 52.3756 74.99 52.4256C74.12 52.5456 72.99 52.7056 72.5 53.2856C71.53 54.4456 70.19 54.6056 68.99 55.1256C68.28 55.4356 68.09 55.6656 68.43 56.3356C67.59 56.8056 67.41 57.3556 67.82 58.2756C67.98 58.6256 68.15 58.9656 68.37 59.2756C68.47 59.4156 68.69 59.4956 68.87 59.5356C69.46 59.6656 70.15 59.6056 70.62 59.9056C71.69 60.6056 72.65 61.4756 73.66 62.2756C72.59 63.1156 72.79 63.9656 74.48 65.1056C73.96 65.4856 73.51 65.8156 72.96 66.2156C73 66.6456 73.1 67.2256 73.1 67.8056C73.1 68.0556 72.9 68.3056 72.8 68.5456C72.53 68.4156 72.02 68.2356 72.04 68.1556C72.2 67.2856 72.21 66.2356 72.74 65.6256C73.19 65.1056 73.13 64.9056 72.93 64.4156C72.67 63.7456 72.53 63.0156 72.33 62.3156C72.31 62.0756 72.09 61.8756 71.93 61.6356C71.18 60.5156 70.17 59.9356 68.78 60.0756C68.57 60.0956 68.28 60.0256 68.15 59.8856C67.34 58.9856 66.88 57.9256 67.24 56.7256C67.39 56.2356 67.29 55.9156 67.07 55.5256C66.84 55.1056 66.45 54.6556 67.09 54.2156C67.16 54.1656 67.22 54.0056 67.2 53.9156C66.98 52.8456 66.67 51.8256 65.73 51.0756C65.51 51.2256 65.3 51.3456 65.13 51.4956C64.17 52.3256 64 52.3156 63.55 51.1656C63.34 50.6356 63.06 50.6256 62.59 50.7356C61.23 51.0456 60.46 50.2356 60.75 48.9056C60.94 48.0356 61.05 47.1756 60.07 46.6156C59.87 46.5056 59.75 46.1956 59.66 45.9456C59.39 45.1956 59.17 44.4356 59 43.8856ZM97.29 102.336C97.23 102.366 97.17 102.396 97.11 102.426C97 102.276 96.83 102.136 96.8 101.966C96.71 101.446 96.65 100.916 96.61 100.396C96.48 98.9856 96.38 97.5756 96.23 96.1756C96.21 96.0056 95.98 95.8556 95.84 95.6956C95.78 95.8856 95.67 96.0856 95.67 96.2756C95.69 96.9756 95.74 97.6856 95.81 98.3756C95.93 99.6556 96.05 100.946 96.23 102.216C96.26 102.416 96.72 102.756 96.84 102.706C97.94 102.236 99.05 102.506 100.16 102.516C101.86 102.536 103.56 102.396 105.26 102.416C106.45 102.426 107.64 102.576 108.88 102.666C108.79 100.326 108.69 98.0356 108.61 95.8656C107.14 95.6056 105.91 95.3756 104.67 95.1656C104.5 95.1356 104.32 95.2156 104.15 95.2256C102.04 95.3256 99.92 95.4456 97.81 95.4956C97.19 95.5156 96.87 95.5956 96.94 96.3156C97.09 97.8356 97.2 99.3656 97.3 100.896C97.31 101.366 97.29 101.846 97.29 102.336ZM96.4 103.486C96.61 105.066 96.81 106.536 97.01 108.046C97.48 108.046 98.1 108.016 98.72 108.056C100.53 108.166 102.33 108.306 104.14 108.426C104.29 108.436 104.43 108.396 104.58 108.396C105.31 108.346 106.05 108.336 106.78 108.256C107.49 108.176 108.19 108.016 108.9 107.926C109.36 107.866 109.83 107.826 110.3 107.816C110.88 107.796 111.46 107.816 112.07 107.816C112.07 106.436 112.07 105.136 112.07 103.836C106.8 103.356 101.63 102.746 96.4 103.486ZM108.71 108.966C104.99 108.966 101.35 108.966 97.61 108.966C97.79 111.146 97.96 113.286 98.15 115.506C98.63 115.506 98.95 115.506 99.27 115.506C100.19 115.516 101.11 115.496 102.02 115.536C103.77 115.616 105.52 115.766 107.27 115.796C107.86 115.806 108.46 115.566 109.01 115.446C108.91 113.276 108.82 111.226 108.71 108.966ZM39.35 65.1756C39.92 65.5156 40.72 65.6056 41.27 66.0056C41.53 66.1856 42.08 65.9756 42.53 65.9356C42.47 64.5456 42.38 63.3156 42.37 62.0756C42.36 61.1556 43.64 60.3156 44.36 60.7256C45.61 61.4256 46.93 61.0156 47.78 59.5256C47.15 59.3956 46.59 59.3256 46.06 59.1656C45.75 59.0656 45.4 58.8956 45.21 58.6456C44.89 58.2356 44.7 57.7256 44.43 57.2656C44.13 56.7656 44.28 56.4456 44.77 56.1956C44.93 56.1156 45.06 55.9756 45.21 55.8656C45.04 55.7356 44.88 55.5556 44.69 55.4756C44.05 55.1856 43.41 54.8856 42.74 54.6756C42.18 54.4956 41.57 54.3056 41.02 54.3656C40.29 54.4456 39.59 54.8256 38.87 54.9956C37.68 55.2856 36.49 55.5156 35.16 55.7956C34.8 56.9356 35.5 57.9156 36.91 57.9856C37.35 58.0056 37.87 58.2456 38.17 58.5556C38.77 59.1956 39.23 59.9456 40.27 59.9856C40.73 60.0056 40.92 60.3856 40.67 60.8256C40.04 61.9256 39.39 63.0056 38.7 64.1756C38.75 64.6756 39.01 64.9756 39.35 65.1756ZM112.99 120.096C113.03 119.556 113.11 118.856 113.11 118.156C113.12 116.586 112.33 116.036 110.75 116.436C110.5 116.496 110.16 116.636 109.98 116.536C109.3 116.146 108.69 116.396 108.02 116.546C107.52 116.656 106.97 116.586 106.44 116.586C106 116.586 105.56 116.566 105.12 116.546C104.34 116.506 103.5 116.616 102.78 116.386C101.33 115.906 99.9 116.316 98.46 116.256C98.38 116.256 98.3 116.376 98.22 116.436C98.01 116.576 97.79 116.706 97.41 116.956C97.5 117.926 97.61 119.096 97.71 120.106C102.95 120.096 107.91 120.096 112.99 120.096ZM29 73.0756C24.03 73.0756 19.28 73.0756 14.44 73.0756C14.52 73.9356 14.6 74.8156 14.68 75.7156C16.84 75.1656 18.77 74.9556 20.76 76.2456C23.22 76.2456 25.91 76.2456 28.51 76.2456C28.68 75.1756 28.82 74.2456 29 73.0756ZM92 102.636C91.94 102.646 91.87 102.646 91.81 102.656C91.77 102.316 91.71 101.976 91.68 101.636C91.54 99.8856 91.41 98.1256 91.26 96.3756C91.22 95.8956 91.1 95.4756 90.39 95.7056C90.59 98.1656 90.8 100.616 91.01 103.156C91.54 103.156 92.21 103.156 92.87 103.156C92.82 102.636 92.75 102.236 92.74 101.836C92.67 99.9556 92.63 98.0756 92.54 96.1956C92.53 95.9956 92.23 95.8056 92 95.5356C92 98.0656 92 100.356 92 102.636ZM95.51 115.836C96.47 115.486 96.11 114.786 96.09 114.276C96.03 112.746 95.88 111.216 95.69 109.686C95.65 109.356 95.27 109.076 95.05 108.766C94.96 109.106 94.77 109.456 94.79 109.786C94.89 111.566 95.03 113.346 95.19 115.126C95.21 115.376 95.39 115.596 95.51 115.836ZM93.6 95.6956C93.1 96.5756 93.27 102.566 93.77 103.046C93.96 103.036 94.21 103.016 94.41 103.006C94.24 100.566 94.48 98.1456 93.6 95.6956ZM93.17 116.046C93.8 113.676 93.58 111.536 93.13 109.416C93.09 109.246 92.87 109.106 92.74 108.956C92.66 109.156 92.52 109.356 92.52 109.556C92.56 111.486 92.62 113.416 92.71 115.346C92.71 115.536 92.95 115.726 93.17 116.046ZM96.38 109.046C96.49 111.026 96.59 112.876 96.7 114.736C96.7 114.826 96.7 114.936 96.75 114.986C96.91 115.146 97.1 115.286 97.28 115.436C97.36 115.256 97.53 115.066 97.52 114.886C97.48 113.746 97.41 112.596 97.32 111.456C97.26 110.646 97.15 109.836 97.06 108.996C96.82 109.016 96.62 109.026 96.38 109.046ZM95.1 103.146C95.28 102.696 95.52 102.386 95.5 102.086C95.37 100.046 95.19 98.0156 94.99 95.9756C94.98 95.8356 94.73 95.7256 94.51 95.5356C94.72 98.1256 94.9 100.526 95.1 103.146ZM91.95 109.216C91.86 109.196 91.76 109.166 91.67 109.146C91.53 109.256 91.26 109.366 91.27 109.466C91.38 111.556 91.52 113.646 91.66 115.736C91.76 115.726 91.85 115.716 91.95 115.716C91.95 113.536 91.95 111.376 91.95 109.216ZM93.96 108.906C93.96 111.216 93.96 113.526 93.96 115.846C94.05 115.846 94.14 115.836 94.23 115.836C95.19 113.466 93.83 111.206 93.96 108.906ZM111.72 115.416C111.47 114.796 111.33 114.326 111.08 113.916C110.98 113.756 110.63 113.606 110.45 113.656C110.29 113.696 110.14 114.036 110.13 114.236C110.12 114.636 110.22 115.046 110.29 115.506C110.69 115.476 111.03 115.456 111.72 115.416Z" fill="#CBA2B2" stroke="#CBA2B2" stroke-width="0.25" stroke-miterlimit="10"/>
<path d="M138 77.6256C138.04 77.2656 138.11 76.9856 138.11 76.7056C138.11 75.6956 138.1 74.6756 138.07 73.6656C138.05 72.8656 137.39 72.5756 136.31 72.5956C135.28 72.6156 134.23 72.4756 133.24 72.2156C132.98 72.1456 132.86 71.3756 132.78 70.9056C132.73 70.6456 132.88 70.3556 132.97 69.9356C134.59 70.9056 136.26 69.9356 137.9 70.1856C137.9 68.3456 137.9 66.5856 137.9 64.8956C138.72 64.9956 139.52 65.2756 140.25 65.1456C141.24 64.9656 141.34 65.5556 141.4 66.1556C141.48 66.9056 141.39 67.6756 141.39 68.4456C141.39 69.2056 141.38 69.9756 141.44 70.7356C141.45 70.9056 141.74 71.1756 141.93 71.1956C143.01 71.3256 144.1 71.4256 145.19 71.4956C146.65 71.5856 147.03 72.0456 146.8 73.4656C145.15 73.3556 143.51 73.2456 141.78 73.1356C141.78 74.8756 141.78 76.4656 141.78 78.1956C142.66 77.9556 143.52 78.5756 144.31 77.6356C144.87 76.9756 145.6 77.5056 145.75 78.6356C147.47 79.0956 147.66 79.3656 147.12 80.5256C145.34 80.6156 143.6 80.6956 141.76 80.7856C141.76 82.1956 141.79 83.6756 141.75 85.1656C141.71 86.5056 141.57 87.8456 141.53 89.1956C141.47 91.4556 141.45 93.7256 141.42 95.9856C141.38 99.0156 141.38 102.046 141.32 105.076C141.28 107.216 141.17 109.366 141.1 111.506C141.02 114.206 140.97 116.916 140.86 119.616C140.81 121.016 140.6 122.416 140.57 123.816C140.54 125.296 140.68 126.786 140.68 128.276C140.68 129.306 140.56 130.346 140.54 131.386C140.52 132.236 140.04 133.096 140.63 133.946C140.67 134.006 140.28 134.526 140.09 134.526C139.71 134.526 139.17 135.096 138.93 134.316C138.84 134.006 138.73 133.696 138.63 133.376C138.97 133.246 138.97 133.246 139.64 134.336C139.69 133.696 139.73 133.206 139.75 132.716C139.79 131.886 139.79 131.056 139.83 130.226C139.89 128.956 139.98 127.696 140.02 126.436C140.05 125.616 139.99 124.796 140 123.976C140.05 121.386 140.07 118.796 140.2 116.216C140.32 113.656 140.6 111.106 140.74 108.546C140.85 106.496 140.84 104.426 140.89 102.376C140.93 100.476 140.99 98.5756 141 96.6756C141.01 94.8356 140.93 92.9956 140.97 91.1556C141 89.6956 141.17 88.2356 141.23 86.7756C141.27 85.7456 141.26 84.7156 141.23 83.6856C141.19 82.5756 141.07 81.4656 141.08 80.3556C141.08 80.1756 141.53 79.8856 141.8 79.8456C142.16 79.7856 142.56 79.9656 142.93 79.9456C144.19 79.8656 145.46 79.7456 146.72 79.5856C145.22 79.1256 143.72 78.7456 142.14 78.9856C141.51 79.0856 141.25 78.8256 141.25 78.2256C141.25 76.8856 141.24 75.5356 141.25 74.1956C141.25 73.7056 141.31 73.2256 141.34 72.7356C141.83 72.8056 142.33 72.8956 142.83 72.9256C143.18 72.9556 143.54 72.9756 143.87 72.8956C145.23 72.5656 145.22 72.5456 146.17 73.1956C146.29 72.4656 145.87 72.2456 145.29 72.1756C144.12 72.0356 142.96 71.8556 141.79 71.7856C140.99 71.7356 140.75 71.2656 140.76 70.6356C140.78 69.5556 140.9 68.4756 140.93 67.3956C140.94 66.8756 141.27 66.1856 140.38 65.9856C138.7 65.6056 138.65 65.6056 138.64 67.3256C138.63 68.4656 138.8 69.6056 138.84 70.7456C138.85 70.9356 138.6 71.2956 138.46 71.2956C137.39 71.3256 136.31 71.2956 135.24 71.2856C134.66 71.2756 134.07 71.2856 133.36 71.4156C133.81 71.6056 134.24 71.9056 134.71 71.9556C135.99 72.0856 137.28 72.1256 138.57 72.1856C139.27 72.2156 139.61 72.4656 139.44 73.2356C139.35 73.6256 139.49 74.0556 139.45 74.4556C139.41 74.8356 139.65 75.4056 138.94 75.4956C138.87 75.5056 138.81 75.8356 138.81 76.0256C138.8 76.5856 138.8 77.1456 138.82 77.7056C138.84 78.3956 138.55 78.6456 137.84 78.5556C136.65 78.3956 135.45 78.3156 134.23 78.1956C133.99 78.9956 134.19 79.2756 135 79.2156C136.02 79.1356 137.05 79.1756 138.07 79.1756C138.52 79.1756 138.75 79.3456 138.76 79.8656C138.81 82.6556 138.95 85.4456 138.96 88.2356C138.97 90.2256 138.73 92.2256 138.76 94.2156C138.81 97.6456 138.31 101.086 138.91 104.526C139.1 105.606 138.83 106.756 138.81 107.866C138.79 108.806 138.85 109.746 138.84 110.686C138.82 112.516 138.8 114.346 138.76 116.176C138.73 117.186 138.67 118.196 138.59 119.206C138.52 120.016 138.41 120.836 138.32 121.646C138.29 121.936 138.26 122.226 138.23 122.516C138.14 123.446 138.03 124.376 137.95 125.306C137.91 125.746 137.9 126.186 137.92 126.626C137.94 127.266 138 127.916 138.05 128.556C138.11 129.426 138.24 130.306 138.23 131.176C138.21 132.196 138.07 133.226 137.98 134.246C137.98 134.286 137.84 134.306 137.58 134.396C137.61 133.816 137.63 133.316 137.65 132.816C137.68 132.156 137.72 131.486 137.73 130.826C137.74 128.726 137.71 126.616 137.74 124.516C137.77 122.356 137.86 120.186 137.93 118.026C137.94 117.616 138.02 117.216 138.03 116.806C138.07 115.816 138.09 114.836 138.11 113.846C138.11 113.646 138 113.406 138.07 113.236C138.77 111.386 137.97 109.496 138.27 107.636C138.69 105.126 138.09 102.656 137.94 100.166C137.88 99.1756 138.15 98.1756 138.18 97.1856C138.29 93.5156 138.41 89.8356 138.42 86.1656C138.43 84.3856 138.18 82.6056 138.09 80.8156C138.06 80.2156 137.83 79.9756 137.24 79.9756C136.36 79.9756 135.48 79.9156 134.61 79.8956C133.9 79.8756 133.55 79.3756 133.5 78.3856C133.47 77.6456 133.91 77.4656 134.51 77.4856C135.62 77.4656 136.73 77.5556 138 77.6256Z" fill="#CBA2B2"/>
<path d="M98.3797 73.7156C98.4297 73.6556 98.4797 73.5956 98.5297 73.5356C99.4797 73.0656 100.43 72.5856 101.35 72.1256C101.24 71.6556 101.07 71.2456 101.05 70.8256C100.97 69.2956 101.9 68.6856 103.39 69.2056C103.62 69.2856 104.02 69.2156 104.19 69.0556C104.36 68.9056 104.39 68.5456 104.41 68.2756C104.42 68.1156 104.29 67.9456 104.23 67.7856C103.99 67.0856 104.11 66.6456 104.96 66.4656C105.86 66.2756 106.74 65.9656 107.15 64.9656C107.25 64.7356 107.66 64.6356 107.86 64.5156C107.79 62.4056 107.72 60.3256 107.63 58.2356C107.6 57.5056 107.52 56.7656 107.44 56.0356C107.38 55.5156 107.48 55.2656 108.11 55.3556C109.89 55.5956 111.67 55.7656 113.45 56.0256C113.66 56.0556 113.97 56.4256 113.97 56.6356C113.99 58.4656 113.94 60.2856 113.92 62.1156C113.91 62.8356 113.92 63.5556 113.82 64.2856C113.2 63.6356 113.35 62.8056 113.38 62.0256C113.45 60.2756 113.55 58.5156 113.64 56.6456C111.72 56.4156 109.98 56.2056 108.35 56.0156C108.35 58.8356 108.35 61.4656 108.35 64.1556C110.04 63.9756 111.33 64.4056 112.49 65.2856C112.61 65.3756 112.85 65.4056 112.98 65.3456C113.64 65.0556 114.06 65.2856 114.34 65.8856C114.38 65.9656 114.4 66.0756 114.46 66.1156C115.1 66.4856 115.74 66.8556 116.4 67.1956C117.07 67.5356 117.43 69.2156 116.94 69.8756C116.52 70.4456 116.66 71.5156 117.22 72.2456C117.63 72.7856 118.12 72.9956 118.75 72.6556C118.94 72.5556 119.14 72.3956 119.23 72.2156C119.89 70.7756 121.36 70.0056 122.93 70.3656C123.11 70.4056 123.38 70.6556 123.37 70.8056C123.33 71.8456 124.46 72.1456 124.71 72.9956C124.74 73.0856 125.02 73.1756 125.17 73.1556C125.83 73.0756 126.13 73.5656 126.21 74.0056C126.28 74.3656 126.08 74.8856 125.82 75.1756C125.12 75.9656 125.13 76.1356 126.12 76.5356C126.37 76.6356 126.58 76.8656 126.78 77.0556C127.03 77.2956 127.22 77.6356 127.51 77.7956C128.91 78.5756 129.87 80.5156 129.53 82.2456C130.71 82.1556 131.83 82.0556 132.96 81.9856C133.22 81.9656 133.48 82.0656 133.75 82.1056C133.67 82.3756 133.67 82.7456 133.49 82.8856C133.27 83.0556 132.69 83.1556 132.63 83.0556C132.23 82.4056 131.68 82.7856 131.21 82.7856C130.56 82.7856 129.91 82.8656 129.26 82.9156C128.69 82.9556 128.53 82.7256 128.69 82.1656C128.86 81.5656 129.25 80.7756 129.02 80.3656C128.55 79.5656 127.73 78.9756 127.04 78.3156C126.86 78.1356 126.48 77.9856 126.49 77.8356C126.53 77.0756 126.03 77.0656 125.52 77.0356C125 76.9956 124.51 76.9856 124.66 76.2056C124.7 76.0156 124.33 75.7456 124.14 75.4956C124.52 75.2956 124.89 75.1756 125.15 74.9356C125.4 74.7056 125.54 74.3456 125.63 74.1956C125.13 73.7856 124.78 73.4756 124.41 73.2056C124.04 72.9156 123.57 72.7156 123.28 72.3656C123.04 72.0656 123 71.6056 122.86 71.1856C121.16 71.1056 119.82 71.3456 119.59 73.1456C118.58 73.0956 117.49 73.5456 116.68 72.4456C116.37 72.0156 116.46 71.2556 115.68 71.1656C115.67 71.1656 115.66 70.7956 115.73 70.6256C115.85 70.3256 116.02 70.0456 116.19 69.7756C116.71 68.9656 116.55 68.1056 115.73 67.5656C115.31 67.2856 114.8 67.1156 114.41 66.7956C114.12 66.5556 113.95 66.1656 113.66 65.7456C113.32 65.8956 112.91 66.0856 112.53 66.2656C111.09 64.4956 109.45 64.3156 107.58 65.6056C107.5 65.8556 107.42 66.1056 107.33 66.3656C106.54 66.6356 105.73 66.8756 104.96 67.2156C104.8 67.2856 104.68 67.8156 104.78 68.0056C105.13 68.6756 104.94 69.3356 104.49 69.6756C104.2 69.8956 103.57 70.0756 102.99 69.6356C102.41 69.1956 101.69 69.8656 101.57 70.6056C101.42 71.5556 102.07 71.9356 102.67 72.4956C101.59 72.4356 100.95 73.3856 99.9397 73.3856C99.5297 73.3856 99.2297 74.6156 99.4897 75.0256C99.6897 75.3356 99.8597 75.6656 100.08 76.0456C97.6897 76.4556 97.6897 76.4556 97.3497 78.4556C97.1497 77.9756 96.9097 77.6856 96.9497 77.4456C97.1797 76.0256 97.2997 75.9356 99.1997 75.4056C98.9397 74.8356 98.6597 74.2756 98.3797 73.7156Z" fill="#CBA2B2"/>
<path d="M36.4401 73.2156C35.7101 73.2156 34.9801 73.2156 34.2001 73.2156C34.1501 74.0356 34.4501 74.9656 33.1801 75.4456C33.7301 75.8456 34.2201 76.0656 34.5001 76.4456C34.7701 76.8156 34.8301 77.3456 34.9701 77.7656C34.3001 78.5756 33.5701 79.3956 32.9101 80.2656C32.5101 80.8056 32.9301 81.7556 33.6601 82.2656C34.2801 82.6956 34.8801 83.1656 35.4501 83.6756C35.5401 83.7556 35.4601 84.2756 35.3501 84.3156C34.7501 84.5456 34.1301 84.7256 33.5001 84.8356C32.9801 84.9256 32.3601 84.6756 32.1501 85.4556C32.1101 85.5856 31.8001 85.6356 31.6301 85.7456C31.3901 85.9056 31.1801 86.0856 30.7801 86.3856C31.2801 86.5256 31.5301 86.6256 31.7801 86.6556C32.5201 86.7556 32.7701 87.2056 32.5301 87.8356C32.1401 88.8656 31.6601 89.8556 31.2001 90.8956C31.7201 91.3456 32.3101 91.2856 32.8701 90.9356C33.3001 90.6656 33.5601 90.5356 33.9401 91.0856C34.1501 91.3956 34.7801 91.6156 35.1601 91.5556C35.4201 91.5156 35.6101 90.9056 35.7801 90.5356C35.8801 90.3156 35.9001 90.0456 36.0001 89.6256C37.0301 90.3856 38.0001 90.5056 38.9401 89.6056C39.3101 90.2356 39.6401 90.7956 39.8701 91.1856C40.3601 91.2056 40.6501 91.2256 40.9501 91.2356C40.7701 91.4856 40.5801 91.7256 40.4201 91.9756C40.1701 92.3656 39.6701 92.8356 39.7501 93.1356C39.9401 93.7956 40.1501 94.6556 41.1901 94.6656C41.1801 94.3756 41.1701 94.1156 41.1501 93.7856C41.3501 93.8256 41.5101 93.8156 41.5501 93.8756C42.3401 95.0256 43.2401 96.0956 43.4301 97.5956C43.5501 98.5656 43.5401 99.6756 44.4401 100.406C44.4801 100.436 44.5201 100.506 44.5301 100.556C44.6101 100.916 44.6801 101.286 44.7501 101.646C44.4301 101.686 44.1101 101.726 43.6701 101.786C43.6401 102.016 43.5901 102.316 43.5701 102.626C43.5601 102.766 43.6301 102.926 43.6001 103.066C43.2001 104.576 44.1101 105.476 45.2001 106.296C45.1601 106.376 45.1201 106.456 45.0801 106.536C44.8401 106.456 44.5801 106.416 44.3701 106.286C43.8901 105.996 43.4001 105.706 42.9801 105.336C42.8001 105.186 42.7101 104.826 42.7301 104.576C42.8001 103.736 42.8701 102.896 43.0901 102.086C43.2101 101.626 43.6101 101.236 43.8801 100.806C43.9901 100.806 44.1001 100.816 44.2101 100.816C44.0301 100.596 43.8701 100.196 43.6701 100.186C42.8401 100.116 43.1201 99.6756 43.0701 99.1356C42.9501 97.8456 42.5501 96.5756 42.2701 95.3356C40.6301 95.4456 39.4301 94.6156 39.1301 93.2756C39.0701 92.9856 39.0801 92.5956 39.2301 92.3756C39.6001 91.8556 39.5001 91.3956 39.1201 91.0456C38.8801 90.8256 38.4401 90.7756 38.0801 90.7356C37.5901 90.6856 37.0901 90.7256 36.5201 90.7256C36.4701 90.8856 36.4001 91.1356 36.3101 91.3756C35.9601 92.2556 35.3801 92.4956 34.5701 92.0756C33.9501 91.7556 33.4301 91.5556 32.6401 91.7356C31.9501 91.8956 31.1201 91.4556 30.3601 91.2356C30.2801 91.2156 30.3701 90.7856 30.2501 90.6856C29.8501 90.3356 29.4801 90.1256 28.8101 90.3056C26.6401 90.8956 24.4201 91.2756 21.9601 90.8156C22.3201 91.4256 22.6101 91.8856 22.8701 92.3556C22.9701 92.5256 23.1401 92.7856 23.0801 92.8856C22.8201 93.2956 22.0201 93.1156 22.0101 93.8356C21.5501 93.8056 21.0901 93.7756 20.6301 93.7356C20.6301 93.6456 20.6301 93.5656 20.6201 93.4756C20.2401 93.7456 19.8901 94.1356 19.4701 94.2356C19.1601 94.3056 18.7601 93.9956 18.2801 93.8156C17.6401 94.5156 17.2301 95.4056 17.8401 96.5656C18.0401 96.9356 18.4501 97.5956 17.4001 97.4956C17.3101 97.4856 17.2001 97.7856 17.1001 97.9456C17.0001 97.9356 16.9101 97.9256 16.8101 97.9156C16.8601 97.5056 16.9101 97.0956 16.9701 96.6856C16.9901 96.5356 17.1001 96.3556 17.0501 96.2356C16.3501 94.6056 17.6001 93.6656 18.2901 92.3656C18.6101 92.8756 18.8401 93.2256 19.0801 93.6156C19.8401 93.2456 20.4601 92.2256 21.3701 93.3256C21.5901 92.9056 21.2701 92.0356 22.3101 92.3356C21.8801 91.7056 21.4501 91.0756 21.0201 90.4456C22.5701 90.4456 24.0801 90.6056 25.5301 90.4056C26.9401 90.2056 28.3001 89.6456 29.8301 89.1956C29.8301 89.2056 29.8701 89.4856 30.0301 89.6856C30.1901 89.8856 30.4501 90.1156 30.6801 90.1356C30.8501 90.1556 31.1501 89.8956 31.2201 89.6956C31.4601 89.0356 31.6601 88.3656 31.7801 87.6756C31.8101 87.4956 31.5801 87.1556 31.3801 87.0656C30.9901 86.8856 30.5501 86.8156 30.0201 86.6756C30.4101 85.8856 30.4201 84.9456 31.5601 84.9656C31.5301 84.6356 31.5001 84.3556 31.4701 84.0856C32.0401 84.1556 32.5501 84.2956 33.0501 84.2656C33.5301 84.2356 34.0001 84.0456 34.7301 83.8556C33.5601 82.8556 32.5901 82.0156 31.7401 81.2856C31.8401 80.5456 31.9201 79.9256 32.0201 79.2356C32.1201 79.2356 32.3601 79.2356 32.5801 79.2356C32.6001 78.9356 32.6201 78.6556 32.6401 78.3056C32.9901 78.3956 33.2301 78.4656 33.5401 78.5456C33.7001 78.0456 33.8601 77.5556 34.0701 76.9256C33.7801 76.7056 33.4201 76.4156 33.0501 76.1556C32.5701 75.8056 32.4501 75.3156 32.8801 74.9656C33.6101 74.3656 33.4501 73.6356 33.4001 72.8956C33.3901 72.7556 33.4301 72.6256 33.4401 72.5756C34.3501 72.6756 35.2101 72.7556 36.0601 72.8756C36.1901 72.8956 36.2901 73.1156 36.4001 73.2456C36.4201 73.2456 36.4401 73.2156 36.4401 73.2156Z" fill="#CBA2B2" stroke="#CBA2B2" stroke-width="0.5" stroke-miterlimit="10"/>
<path d="M76.2499 117.146C75.9099 117.086 75.5299 117.096 75.2299 116.946C74.2499 116.446 74.1499 115.846 74.6799 115.156C74.3299 114.676 73.9799 114.246 73.6699 113.786C73.5199 113.566 73.2799 113.166 73.3599 113.076C73.5399 112.866 73.8699 112.766 74.1599 112.666C74.3199 112.606 74.5099 112.646 74.8199 112.626C74.5399 112.146 74.3099 111.736 74.0299 111.266C74.4099 111.096 74.7199 110.956 75.0899 110.786C74.8999 110.116 75.0999 109.326 73.9599 109.226C73.4899 109.186 73.0799 108.606 72.6999 108.206C72.2999 108.216 71.9499 109.096 71.2199 108.486C70.5199 107.896 70.1899 107.206 70.5899 106.326C69.6399 105.476 69.6099 105.306 70.2499 104.686C70.2399 104.636 70.2399 104.566 70.2099 104.526C69.5499 103.546 68.8699 102.576 68.2299 101.586C67.8199 100.956 67.4099 100.756 66.8599 101.416C66.4799 101.876 65.9999 101.876 65.4899 101.676C65.1899 101.556 64.8899 101.426 64.6699 101.336C64.0699 101.896 63.5099 102.416 63.1399 102.756C62.8499 103.506 62.7799 104.266 62.3599 104.636C61.7399 105.166 60.9999 104.786 60.3199 104.386C58.9699 103.606 57.9099 102.606 57.4099 101.046C56.4799 101.886 55.5399 102.276 54.6399 101.496C54.0399 101.766 53.5499 101.986 53.0799 102.216C52.9399 102.286 52.7399 102.376 52.7099 102.496C52.6799 102.616 52.8299 102.776 52.9099 102.906C53.0799 103.166 53.3799 103.406 53.3999 103.666C53.4399 104.166 53.3099 104.676 53.2499 105.176C52.7799 105.106 52.3199 105.036 51.7599 104.956C51.4599 105.706 50.6599 105.646 49.9499 105.546C49.8399 106.446 49.7599 107.276 49.6099 108.086C49.5899 108.206 49.2499 108.386 49.0899 108.356C48.6299 108.276 48.1899 108.106 47.6899 107.796C48.0899 107.706 48.4899 107.626 48.9899 107.516C48.8299 107.086 48.6699 106.636 48.4699 106.106C48.7799 106.116 49.0499 106.136 49.5099 106.156C49.0899 105.496 48.7199 104.916 48.3499 104.346C48.3999 104.286 48.4499 104.236 48.4899 104.176C48.8299 104.356 49.1599 104.556 49.5099 104.706C50.1499 104.976 50.7999 105.256 51.2399 104.356C51.3099 104.216 51.7199 104.146 51.9299 104.196C52.1899 104.266 52.4199 104.486 52.9099 104.816C52.8599 104.236 52.8299 103.886 52.7899 103.456C52.4499 103.556 52.2399 103.686 52.0799 103.646C51.8999 103.586 51.6199 103.336 51.6399 103.226C51.7599 102.706 51.9699 102.206 52.1499 101.676C53.0799 101.666 53.0799 101.666 54.2199 100.326C54.3099 100.366 54.4499 100.386 54.5099 100.466C55.3299 101.506 55.8599 101.536 56.8599 100.636C57.0799 100.436 57.3799 100.326 57.6399 100.176C57.7399 100.436 57.8799 100.696 57.9399 100.966C58.2099 102.246 59.2399 102.966 60.0999 103.776C60.7099 104.356 61.8999 104.376 62.2299 103.926C62.7999 103.156 62.0899 102.706 61.6699 102.206C62.2299 102.096 62.8799 102.126 63.2699 101.836C63.6699 101.546 63.8299 100.926 64.1099 100.426C64.5299 100.626 64.8699 100.796 65.2099 100.956C65.7399 101.206 66.1799 101.276 66.5699 100.666C66.9199 100.116 67.4899 100.226 67.8899 100.586C68.5299 101.186 69.1299 101.856 69.6599 102.556C69.8799 102.846 69.7899 103.386 70.0199 103.646C70.4599 104.146 71.0499 104.516 71.5599 104.956C71.7399 105.116 71.8699 105.336 71.8899 105.696C71.4499 105.616 71.0099 105.536 70.5799 105.466C70.5599 105.576 70.5399 105.676 70.5199 105.786C71.1999 105.896 71.8799 106.006 72.5599 106.116C72.5799 106.216 72.6099 106.316 72.6299 106.416C72.3099 106.536 71.9899 106.656 71.6599 106.756C71.4399 106.826 71.0699 106.806 71.0199 106.926C70.9299 107.126 70.9699 107.496 71.1099 107.646C71.2699 107.816 71.7099 107.996 71.8399 107.896C72.7199 107.296 73.2899 107.486 73.7599 108.406C73.8499 108.586 74.2899 108.556 74.5299 108.686C75.2099 109.076 75.7699 110.396 75.5399 111.176C75.4799 111.396 75.1999 111.556 74.9599 111.806C75.2599 112.226 75.6299 112.746 76.0699 113.386C75.1799 113.316 74.4799 113.266 73.6599 113.206C74.5099 114.696 76.0499 114.266 77.1599 114.736C77.1399 114.816 77.1099 114.886 77.0899 114.966C76.3299 115.176 75.5699 115.386 74.8099 115.606C74.7899 115.706 74.7699 115.806 74.7499 115.896C75.2299 116.316 75.7099 116.746 76.1899 117.166L76.2499 117.146Z" fill="#CBA2B2" stroke="#CBA2B2" stroke-width="0.5" stroke-miterlimit="10"/>
<path d="M79.4498 109.876C79.4498 109.966 79.4498 110.286 79.4498 110.606C79.3498 110.606 79.2498 110.606 79.1498 110.596C79.1898 109.996 78.1798 109.386 79.2698 108.856C79.1198 107.526 78.9498 106.256 78.8298 104.976C78.5298 101.846 78.2298 98.7256 77.9698 95.5956C77.9098 94.8856 77.6598 94.6156 76.8998 94.5856C73.8498 94.4956 70.8098 94.3656 67.7698 94.1756C66.8098 94.1156 65.8198 93.9256 64.9198 93.5956C63.1998 92.9556 61.4898 92.9156 59.6898 93.1956C58.8498 93.3256 57.9198 93.2156 57.0798 93.0056C55.9098 92.7056 54.7998 92.5956 53.5898 92.8256C52.5898 93.0156 51.5398 92.9356 50.5098 92.9156C48.7698 92.8856 47.0398 92.8356 45.2998 92.7656C44.9498 92.7556 44.6098 92.6356 44.2598 92.5756C44.2698 92.4756 44.2898 92.3656 44.2998 92.2656C45.0098 92.1856 45.7298 91.9956 46.4398 92.0356C47.8998 92.1056 49.3598 92.3656 50.8198 92.4156C51.8098 92.4556 52.8098 92.2556 53.7998 92.2056C54.5398 92.1756 55.2898 92.2056 56.0398 92.2556C57.2398 92.3256 58.4298 92.4956 59.6298 92.4956C61.4598 92.4956 63.2498 92.4056 65.0598 92.9856C66.4698 93.4356 68.0198 93.5456 69.5098 93.6556C71.6598 93.8156 73.8198 93.8056 75.9598 93.9656C76.7398 94.0156 77.5198 94.2656 78.2598 94.5456C78.4698 94.6256 78.5798 95.1456 78.6198 95.4756C78.8198 97.5556 78.9798 99.6456 79.1698 101.726C79.3298 103.476 79.5398 105.226 79.6598 106.976C79.6998 107.576 79.6298 108.136 79.9598 108.706C80.0598 108.886 79.6798 109.356 79.4498 109.876Z" fill="#CBA2B2" stroke="#CBA2B2" stroke-width="0.5" stroke-miterlimit="10"/>
<path d="M108.72 126.516C110.34 126.386 111.79 126.266 113.23 126.146C115.58 125.956 117.94 125.796 120.28 125.566C122.31 125.366 124.32 125.076 126.35 124.846C126.59 124.816 126.92 124.886 127.08 125.036C127.18 125.136 127.05 125.476 127.03 125.706C127 126.196 126.93 126.686 126.97 127.166C127.2 130.086 127.21 130.086 124.28 130.176C121 130.276 117.71 130.376 114.43 130.486C113.28 130.526 112.14 130.606 110.99 130.646C110.67 130.656 110.35 130.586 110.01 130.546C109.99 131.096 109.96 131.676 109.93 132.256C109.08 132.366 108.9 131.756 109.1 131.336C109.82 129.856 109.33 128.516 108.83 127.136C108.73 126.896 108.73 126.616 108.72 126.516ZM109.69 127.066C109.8 128.016 109.88 128.716 109.96 129.416C110.01 129.926 110.27 130.106 110.79 130.076C112.03 130.006 113.26 130.006 114.5 129.946C118.19 129.776 121.89 129.606 125.58 129.396C126.18 129.366 126.65 129.006 126.59 128.276C126.55 127.716 126.5 127.156 126.47 126.596C126.44 125.936 126.13 125.706 125.45 125.766C122.65 126.006 119.85 126.196 117.05 126.426C114.62 126.626 112.19 126.846 109.69 127.066Z" fill="#CBA2B2" stroke="#CBA2B2" stroke-width="0.25" stroke-miterlimit="10"/>
<path d="M100.91 133.496C100.79 131.716 100.67 129.936 100.55 128.186C95.31 126.986 81.77 127.056 80.98 128.366C80.82 127.936 80.68 127.586 80.5 127.096C81.43 127.016 82.24 126.946 83.05 126.886C84.28 126.806 85.51 126.676 86.75 126.676C88.32 126.676 89.88 126.806 91.45 126.856C92.6 126.896 93.75 126.876 94.9 126.926C96.69 127.006 98.49 127.076 100.28 127.256C100.58 127.286 101.03 127.826 101.06 128.156C101.21 129.856 101.24 131.556 101.31 133.266C101.31 133.336 101.22 133.406 101.17 133.486C101.07 133.486 100.99 133.496 100.91 133.496Z" fill="#CBA2B2" stroke="#CBA2B2" stroke-width="0.5" stroke-miterlimit="10"/>
<path d="M93.8499 54.2156C93.7899 53.8956 93.7199 53.5656 93.6399 53.1756C91.6599 53.0956 89.6999 52.5956 87.7099 53.1756C87.0699 52.0056 87.2099 51.5956 88.4899 51.4756C89.4099 51.3856 90.3499 51.5556 91.2899 51.5456C92.1199 51.5256 92.9499 51.3956 93.7799 51.3556C93.9399 51.3456 94.1099 51.5456 94.2699 51.6456C93.9699 52.1056 94.5299 52.3556 94.5499 52.6356C94.5799 53.1656 94.3099 53.7156 94.1599 54.2656C94.0599 54.2456 93.9499 54.2356 93.8499 54.2156Z" stroke="#CBA2B2" stroke-width="0.5" stroke-miterlimit="10"/>
<path d="M84.9199 136.876C85.9699 135.306 86.3699 136.066 87.3199 135.806C87.6099 135.836 87.9799 135.906 88.1899 135.766C89.2899 135.036 90.4999 135.206 91.6999 135.146C92.4599 135.106 93.2099 134.766 93.9699 134.586C94.5899 134.436 95.2099 134.326 95.8399 134.216C96.2999 134.136 96.8899 134.226 97.1899 133.966C98.0499 133.236 98.9699 133.136 100.01 133.346C100.43 133.436 100.87 133.486 101.3 133.556C101.28 133.706 101.26 133.846 101.25 133.996C100.87 133.976 100.48 134.016 100.12 133.916C99.2599 133.676 98.5599 133.826 97.7899 134.316C97.2499 134.656 96.4799 134.636 95.8099 134.786C95.0999 134.956 94.3999 135.156 93.6899 135.316C93.0099 135.466 92.2999 135.746 91.6299 135.696C90.6199 135.616 89.7399 135.806 88.8199 136.186C87.8499 136.596 87.7299 136.466 87.1699 136.526C86.6599 136.676 85.6099 136.506 84.9199 136.876Z" fill="#CBA2B2" stroke="#CBA2B2" stroke-width="0.5" stroke-miterlimit="10"/>
<path d="M71.04 140.976C71.53 139.326 71.63 139.256 72.74 139.386C73 139.416 73.34 139.496 73.53 139.336C74.53 138.526 75.63 138.716 76.73 138.646C77.42 138.606 78.1 138.216 78.79 138.016C79.35 137.856 79.92 137.726 80.49 137.606C80.91 137.516 81.45 137.616 81.72 137.336C82.5 136.516 83.34 136.416 84.28 136.646C84.67 136.746 85.79 135.806 86.18 135.886C86.16 136.046 86.61 136.416 86.59 136.576C86.25 136.556 85.17 137.236 84.49 137.446C83.7 137.696 82.96 137.176 82.25 137.716C81.76 138.096 81.05 138.066 80.45 138.246C79.8 138.436 79.17 138.656 78.52 138.836C77.9 139.006 77.26 139.316 76.64 139.256C75.72 139.166 74.92 139.376 74.08 139.806C73.62 140.046 73.02 139.846 72.52 140.016C72.07 140.176 71.66 140.566 71.04 140.976Z" fill="#CBA2B2" stroke="#CBA2B2" stroke-width="0.5" stroke-miterlimit="10"/>
<path d="M12.8699 68.6556C12.3099 68.8656 11.7499 69.0756 11.0899 69.3356C10.8299 68.9156 10.4799 68.3656 9.93994 67.5156C10.7299 67.5156 11.2999 67.5356 11.8599 67.5156C13.0699 67.4656 14.2699 67.3656 15.4799 67.3256C16.5199 67.2856 16.8999 67.6756 16.8799 68.7156C16.8699 69.2756 16.4499 69.5556 16.0699 69.2056C15.3999 68.5856 14.7299 69.1356 14.0799 69.0256C13.6999 68.9556 13.2999 68.9656 12.9099 68.9456C12.8999 68.8356 12.8799 68.7456 12.8699 68.6556ZM13.3099 67.8956C13.2999 67.9756 13.2899 68.0556 13.2699 68.1356C14.0599 68.3656 14.8399 68.2356 15.6199 67.8956C14.8499 67.8956 14.0799 67.8956 13.3099 67.8956Z" stroke="#CBA2B2" stroke-width="0.5" stroke-miterlimit="10"/>
<path d="M144.13 130.136C144.65 129.896 145.05 129.606 145.48 129.526C147.22 129.206 148.96 128.926 150.71 128.666C151.15 128.596 151.6 128.586 152.04 128.636C152.2 128.656 152.39 128.886 152.44 129.066C152.47 129.156 152.24 129.426 152.1 129.446C149.56 129.776 147.01 130.076 144.46 130.376C144.43 130.376 144.38 130.316 144.13 130.136Z" fill="#CBA2B2"/>
<path d="M76.2299 117.156C76.7799 117.126 77.3199 117.096 77.8699 117.066C77.8899 117.126 77.9099 117.196 77.9399 117.256C77.7999 117.356 77.6699 117.466 77.5299 117.556C77.0599 117.856 76.5399 118.096 76.1299 118.456C75.1199 119.336 75.1399 119.356 73.7799 119.056C73.5399 119.696 73.2099 120.346 73.7599 120.986C74.1699 121.466 74.6199 121.896 75.1499 122.446C74.3499 122.636 73.9199 122.586 73.6999 121.846C73.5299 121.286 73.0799 120.816 72.9099 120.256C72.7599 119.776 72.8099 119.226 72.7699 118.706C72.7199 118.116 73.1799 118.086 73.4599 118.286C74.6999 119.176 75.4799 118.546 76.1899 117.566C76.2699 117.456 76.2599 117.276 76.2899 117.136C76.2499 117.146 76.2299 117.156 76.2299 117.156Z" fill="#CBA2B2" stroke="#CBA2B2" stroke-width="0.5" stroke-miterlimit="10"/>
<path d="M94.8598 64.0056C94.7998 64.5356 94.7398 65.1056 94.6498 65.8956C93.2098 65.5856 91.8498 65.3356 90.5198 64.9756C89.9698 64.8256 89.6298 64.8356 89.3498 65.3556C89.2698 65.5056 89.0598 65.5856 88.9098 65.7056C88.8098 65.5456 88.6798 65.3956 88.6198 65.2256C88.5298 64.9756 88.4498 64.7156 88.4598 64.4556C88.4698 64.3056 88.6498 64.0356 88.7498 64.0356C90.7598 63.9956 92.7598 64.0056 94.8598 64.0056Z" stroke="#CBA2B2" stroke-width="0.5" stroke-miterlimit="10"/>
<path d="M57.3999 133.096C58.4199 131.846 59.9599 132.166 62.3099 133.956C60.3699 134.866 59.1699 132.576 57.3999 133.096Z" stroke="#CBA2B2" stroke-width="0.5" stroke-miterlimit="10"/>
<path d="M22.8201 97.3256C22.8301 97.4556 22.8101 97.5956 22.8701 97.7156C23.0901 98.1456 22.5401 98.9456 23.9101 98.8556C23.9501 98.8556 23.9901 98.8856 24.0301 98.9056C24.3701 99.0456 24.7101 99.1956 25.0601 99.3256C25.3401 99.4356 25.5601 99.3956 25.6701 99.1656C25.8501 98.8056 26.0801 98.4556 26.1901 98.0856C26.3601 97.5256 26.1301 97.3756 25.3401 97.2356C24.4301 97.0856 23.4601 97.2656 22.5701 96.9956C22.4401 96.9556 22.3001 97.0056 22.1901 97.0756C21.6201 97.4556 21.5701 98.5556 22.1101 98.9856C22.2301 99.0856 22.3301 99.2456 22.5501 99.1556C22.7601 99.0656 22.6301 98.9156 22.5801 98.7956C22.3301 98.2856 22.4801 97.7956 22.8201 97.3256Z" stroke="#CBA2B2" stroke-width="0.5" stroke-miterlimit="10"/>
<path d="M54.2799 109.786C53.6999 109.636 53.3999 109.866 53.3699 110.486C53.3499 110.996 53.5799 111.446 53.7599 111.866C53.8499 112.076 54.0299 112.046 54.1699 111.946C54.3599 111.826 54.5799 111.736 54.7199 111.546C55.1699 110.946 55.6399 110.906 56.1699 111.256C56.6299 111.556 56.9399 111.286 57.1399 110.706C57.2399 110.426 57.2999 110.116 57.3599 109.806C57.4499 109.366 57.3599 109.096 57.0099 109.026C56.6199 108.946 56.2199 108.816 55.9099 108.446C55.6499 108.146 55.5199 108.256 55.3299 108.616C55.0299 109.166 54.7399 109.806 54.2799 109.786Z" stroke="#CBA2B2" stroke-width="0.5" stroke-miterlimit="10"/>
<path d="M23.2502 47.7056C23.1402 49.1856 23.7902 50.2956 24.9002 51.1756C25.1902 51.4056 25.4402 51.9056 25.8402 51.6756C26.2802 51.4156 26.2902 50.8656 26.1602 50.3956C26.0902 50.1456 25.9702 49.8856 25.8102 49.6856C25.1702 48.9456 24.5102 48.2256 23.8502 47.4956C23.7302 47.3656 23.6002 47.2156 23.4002 47.2756C23.1902 47.3356 23.2302 47.5456 23.2502 47.7056Z" stroke="#CBA2B2" stroke-width="0.5" stroke-miterlimit="10"/>
<path d="M15.5801 52.5056C14.9101 52.3756 14.5501 52.5656 14.5201 53.0756C14.5001 53.4956 14.7601 53.8656 14.9801 54.2156C15.0901 54.3856 15.2901 54.3656 15.4601 54.2856C15.6801 54.1856 15.9301 54.1156 16.1001 53.9556C16.6201 53.4656 17.1801 53.4256 17.8001 53.7156C18.3301 53.9656 18.7001 53.7456 18.9301 53.2556C19.0401 53.0256 19.1201 52.7656 19.1901 52.5156C19.2901 52.1556 19.1901 51.9256 18.7701 51.8756C18.3101 51.8156 17.8501 51.6956 17.4801 51.3956C17.1801 51.1456 17.0201 51.2456 16.8001 51.5356C16.4601 51.9956 16.1201 52.5256 15.5801 52.5056Z" stroke="#CBA2B2" stroke-width="0.5" stroke-miterlimit="10"/>
<path d="M126.18 109.466C126.11 110.396 126.52 111.106 127.22 111.666C127.4 111.816 127.56 112.126 127.82 111.976C128.1 111.816 128.1 111.466 128.02 111.166C127.98 111.006 127.9 110.846 127.8 110.716C127.4 110.246 126.98 109.786 126.56 109.326C126.49 109.246 126.4 109.146 126.27 109.186C126.14 109.236 126.17 109.366 126.18 109.466Z" stroke="#CBA2B2" stroke-width="0.5" stroke-miterlimit="10"/>
<path d="M124.22 113.116C123.33 113.036 122.65 113.346 122.1 113.886C121.96 114.026 121.65 114.146 121.79 114.346C121.94 114.566 122.27 114.586 122.56 114.526C122.71 114.496 122.87 114.446 122.99 114.366C123.45 114.056 123.89 113.746 124.34 113.426C124.42 113.366 124.51 113.306 124.48 113.206C124.44 113.096 124.31 113.116 124.22 113.116Z" stroke="#CBA2B2" stroke-width="0.5" stroke-miterlimit="10"/>
<path d="M58.15 115.696C57.89 115.346 57.51 115.026 57.4 114.626C57.35 114.426 57.78 114.096 58 113.826C58.11 113.846 58.22 113.866 58.33 113.886C58.43 114.406 58.53 114.936 58.64 115.456C58.47 115.546 58.31 115.616 58.15 115.696Z" stroke="#CBA2B2" stroke-width="0.5" stroke-miterlimit="10"/>
<path d="M25.4898 95.1456C25.2298 94.7956 24.8498 94.4756 24.7398 94.0756C24.6898 93.8756 25.1198 93.5456 25.3398 93.2756C25.4498 93.2956 25.5598 93.3156 25.6698 93.3356C25.7698 93.8556 25.8699 94.3856 25.9799 94.9056C25.8099 94.9956 25.6498 95.0756 25.4898 95.1456Z" stroke="#CBA2B2" stroke-width="0.5" stroke-miterlimit="10"/>
<path d="M77.3399 68.2456C77.0799 67.8956 76.6999 67.5756 76.5899 67.1756C76.5399 66.9756 76.97 66.6456 77.19 66.3756C77.3 66.3956 77.4099 66.4156 77.5199 66.4356C77.6199 66.9556 77.72 67.4856 77.83 68.0056C77.66 68.0956 77.4999 68.1656 77.3399 68.2456Z" stroke="#CBA2B2" stroke-width="0.25" stroke-miterlimit="10"/>
<path d="M12.0198 52.0656C11.4398 51.7556 10.6198 51.4756 10.3898 51.1356C10.2698 50.9656 11.2198 50.6756 11.6898 50.4456C11.9298 50.4656 12.1698 50.4756 12.4098 50.4956C12.6298 50.9556 12.8598 51.4056 13.0798 51.8656C12.7198 51.9356 12.3698 52.0056 12.0198 52.0656Z" stroke="#CBA2B2" stroke-width="0.5" stroke-miterlimit="10"/>
<path d="M112.06 70.9656C112.06 70.6956 112.07 70.5456 112.06 70.3956C112.04 70.2256 111.9 70.1056 111.69 70.2056C111.09 70.4856 110.46 70.7456 109.95 71.0956C109.63 71.3156 109.98 71.6756 109.94 71.9756C109.92 72.1156 109.96 72.2556 109.94 72.3856C109.87 72.9556 110.34 73.4056 110.62 73.8856C110.75 74.1056 110.96 74.1056 111.13 73.8556C111.77 72.9156 112.04 71.9056 112.06 70.9656Z" stroke="#CBA2B2" stroke-width="0.25" stroke-miterlimit="10"/>
<path d="M74.9102 60.9856C74.9202 61.5856 76.5102 63.8756 77.0502 63.9856C78.0302 64.1756 78.0302 63.1656 78.5102 62.7356C78.7002 62.5656 78.9302 62.4356 79.1502 62.2856C79.3902 62.1256 79.6002 61.8956 79.4302 61.6356C78.9502 60.9056 78.5302 60.1056 77.8902 59.5456C77.1302 58.8856 76.3302 59.7156 75.5402 59.8256C74.9502 59.9156 74.9202 60.4856 74.9102 60.9856Z" stroke="#CBA2B2" stroke-width="0.25" stroke-miterlimit="10"/>
<path d="M122.67 80.1156C122.09 79.9656 121.79 80.1956 121.76 80.8156C121.74 81.3256 121.97 81.7756 122.15 82.1956C122.24 82.4056 122.42 82.3756 122.56 82.2756C122.75 82.1556 122.97 82.0656 123.11 81.8756C123.56 81.2756 124.03 81.2356 124.56 81.5856C125.02 81.8856 125.33 81.6156 125.53 81.0356C125.63 80.7556 125.69 80.4456 125.75 80.1356C125.84 79.6956 125.75 79.4256 125.4 79.3556C125.01 79.2756 124.61 79.1456 124.3 78.7756C124.04 78.4756 123.91 78.5856 123.72 78.9456C123.42 79.4956 123.13 80.1456 122.67 80.1156Z" stroke="#CBA2B2" stroke-width="0.25" stroke-miterlimit="10"/>
<path d="M50.2501 61.2856C49.6701 61.1356 49.3701 61.3656 49.3401 61.9856C49.3201 62.4956 49.5501 62.9456 49.7301 63.3656C49.8201 63.5756 50.0001 63.5456 50.1401 63.4456C50.3301 63.3256 50.5501 63.2356 50.6901 63.0456C51.1401 62.4456 51.6101 62.4056 52.1401 62.7556C52.6001 63.0556 52.9101 62.7856 53.1101 62.2056C53.2101 61.9256 53.2701 61.6156 53.3301 61.3056C53.4201 60.8656 53.3301 60.5956 52.9801 60.5256C52.5901 60.4456 52.1901 60.3156 51.8801 59.9456C51.6201 59.6456 51.4901 59.7556 51.3001 60.1156C51.0001 60.6656 50.7101 61.3056 50.2501 61.2856Z" stroke="#CBA2B2" stroke-width="0.5" stroke-miterlimit="10"/>
<path d="M49.0699 135.126L48.6199 132.746C48.3099 131.076 48.5799 130.726 49.6499 131.056C49.8999 131.136 50.1799 131.216 50.3899 131.096C50.9399 130.796 51.2799 131.026 51.4599 132.046C51.5999 132.806 51.9299 132.976 52.3699 132.956C52.9299 132.926 52.8299 132.516 52.5699 131.906C52.5299 131.806 52.5899 131.466 52.6699 131.426C53.5199 130.936 53.2099 129.826 53.1999 128.626C53.1899 126.856 54.1799 125.866 55.1099 125.206C55.8099 124.706 56.4899 125.586 57.0899 126.536C58.0599 128.056 58.7299 128.116 59.4599 126.836C59.7199 126.376 59.9999 126.236 60.2899 126.966C60.6599 127.886 60.9199 128.246 61.2499 127.166C61.4899 126.396 61.8899 126.656 62.2099 127.406C62.3599 127.756 62.4299 128.176 62.5399 128.566C62.7199 129.216 62.9599 129.856 63.4399 129.986C63.9399 130.126 63.8199 129.316 63.9599 128.916C64.4399 127.566 65.3199 126.876 66.0399 125.926C66.1399 125.796 66.3699 125.746 66.4799 125.846C67.6299 126.886 69.0099 127.306 69.8299 129.286C70.1999 130.186 70.4799 130.456 70.7599 129.546C70.9599 128.926 71.2899 128.636 71.6899 128.406C72.0699 128.196 72.5399 128.006 72.5799 127.236C72.6199 126.206 73.0799 125.906 73.5799 125.766C74.1999 125.596 74.8499 125.456 75.4999 125.556C76.1699 125.656 76.7499 126.336 77.0099 127.456C77.2199 128.366 77.4399 129.136 78.1599 129.076C78.8499 129.016 78.8099 128.246 78.7499 127.386C78.7199 127.046 78.7199 126.616 78.8299 126.406" stroke="#CBA2B2" stroke-miterlimit="10"/>
<path d="M103.67 142.436C103.98 142.136 103.97 141.536 103.96 140.336C103.95 138.446 103.94 136.576 103.26 134.756C102.94 133.896 103.38 133.016 103.71 132.206C104.03 131.436 104.5 130.736 104.69 129.906C104.79 129.456 105.09 129.046 105.63 129.186C106.19 129.336 106 129.796 105.88 130.166C105.76 130.536 105.79 130.896 106.12 131.116C107.72 132.186 107.37 133.896 107.26 135.316C107.14 136.896 106.84 138.546 105.9 139.956C105.71 140.236 105.64 140.606 105.56 140.946C105.29 142.006 105.27 142.446 105.77 142.626" fill="#F4A079"/>
<path d="M155.56 131.856C155.61 131.256 155.63 130.386 154.96 130.186C153.97 129.886 153.98 129.356 154.09 128.546C154.2 127.726 154.12 126.886 154.11 126.046C154.11 125.826 154.14 125.576 153.8 125.516C152.92 125.366 152.96 124.656 153.01 124.036C153.08 123.236 153.34 122.476 153.85 121.826C154.32 121.226 154.86 120.676 155.12 119.926C155.3 119.416 155.85 119.356 156 119.836C156.43 121.176 157.55 122.086 158.09 123.346C158.3 123.826 158.38 124.296 157.98 124.626C156.86 125.556 156.89 126.846 156.79 128.086C156.69 129.246 156.77 130.416 156.5 131.566C156.45 131.756 156.46 131.896 156.49 131.996" fill="#F4A079"/>
<path d="M10.8298 56.7756C10.4598 58.4256 9.8998 58.0056 9.0498 55.6456C9.7498 54.4356 10.1798 57.4556 10.8298 56.7756Z" stroke="#CBA2B2" stroke-width="0.5" stroke-miterlimit="10"/>
<path d="M72.3501 149.966C73.0601 149.786 73.7701 149.566 74.4801 149.426C75.6301 149.196 76.7901 149.026 77.9401 148.786C78.9701 148.576 79.9901 148.326 81.0101 148.046C82.1101 147.736 83.1901 147.156 84.2901 147.096C86.5301 146.976 88.6601 146.636 90.7801 145.846C92.2501 145.296 93.8801 145.156 95.4301 144.826C97.6801 144.356 99.9301 143.876 102.18 143.396C106.17 142.556 110.15 141.666 114.14 140.886C116.69 140.386 119.28 140.056 121.84 139.606C124.31 139.176 126.77 138.686 129.24 138.226C131.62 137.786 134 137.336 136.39 136.916C139.06 136.436 141.75 136.086 144.4 135.506C148.43 134.616 152.43 133.586 156.44 132.596C157.81 132.256 159.16 131.836 160.53 131.506C160.75 131.456 161.03 131.666 161.28 131.746C161.16 131.886 161.06 132.106 160.92 132.146C158.67 132.766 156.41 133.326 154.16 133.956C149.11 135.356 143.94 136.066 138.79 136.936C133.96 137.756 129.16 138.746 124.34 139.646C121.76 140.126 119.19 140.816 116.58 141.016C112.94 141.296 109.62 142.946 106 143.166C103.78 143.306 101.74 144.086 99.6201 144.576C98.6201 144.806 97.5901 145.026 96.5701 145.076C94.4701 145.166 92.4701 145.626 90.5401 146.406C89.0001 147.026 87.3901 147.106 85.7901 147.346C84.3501 147.566 82.9401 148.036 81.5201 148.406C80.5801 148.646 79.6601 148.916 78.7201 149.136C77.4301 149.426 76.1301 149.676 74.8401 149.946C73.9201 150.136 72.9901 150.326 72.0701 150.486C71.8701 150.526 71.6301 150.476 71.4301 150.416C71.3801 150.406 71.3701 150.056 71.4201 150.036C71.6201 149.946 71.8501 149.926 72.0701 149.886C72.1601 149.876 72.2501 149.886 72.3401 149.886C72.3401 149.886 72.3501 149.926 72.3501 149.966Z" stroke="#CBA2B2" stroke-width="1.5" stroke-miterlimit="10"/>
</g>
<defs>
<clipPath id="clip0_5398_8671">
<rect width="163" height="150" fill="white" transform="translate(0 0.5)"/>
</clipPath>
</defs>
</svg>
