<svg width="163" height="151" viewBox="0 0 163 151" fill="none" xmlns="http://www.w3.org/2000/svg">
<g clip-path="url(#clip0_5398_8834)">
<path d="M112.85 140.85C112.85 140.85 113.53 140.43 113.48 139.6C113.43 138.77 113.53 134.69 113.48 134.61C113.43 134.54 113.38 130.94 113.17 130.48C112.96 130.02 112.08 125.75 111.92 125.04C111.77 124.32 111.74 123.61 111.74 123.08C111.74 122.56 111.77 121.42 111.74 121.29C111.71 121.16 111.43 120.34 111.47 120.08C111.51 119.82 111.81 118.63 111.77 118.38C111.74 118.13 110.43 114.71 110.43 114.71C110.43 114.71 110.23 114.05 110.43 113.37C110.63 112.69 112.84 108.32 112.84 108.32C112.84 108.32 113.2 107.75 113.92 107.58C114.64 107.41 116.57 107.07 116.95 107.18C117.33 107.29 117.7 106.68 118.01 107.87C118.32 109.06 118.35 109.49 118.87 110.21C119.39 110.93 119.69 111.84 120.45 113.18C121.21 114.52 121.64 114.74 121.79 115.02C121.93 115.3 121.87 115.39 121.79 115.85C121.71 116.31 120.54 118.18 120.21 118.82C119.88 119.46 119.81 120.18 119.42 120.83C119.03 121.48 118.54 122.2 118.54 122.79C118.54 123.38 118.87 123.09 118.57 123.98C118.28 124.87 117.98 125.32 117.85 125.83C117.72 126.34 117.59 126.5 117.43 127.71C117.27 128.92 117.39 128.74 117.57 129.89C117.75 131.04 117.75 131.09 117.79 132.15C117.83 133.21 118 135.83 118 135.83C118 135.83 117.8 136.97 118.14 137.46C118.48 137.95 118.74 137.95 118.48 138.7C118.22 139.45 118.07 140.33 118.01 140.53C117.95 140.73 112.85 140.85 112.85 140.85Z" fill="#F4A079"/>
<path d="M135 69.1L134.63 78.57L117.46 79.72L117.37 75.83L95.2098 75.68L72.8298 74.58L50.2898 74.02L50.3098 78.29L20.8998 77.86L20.0298 68.15L42.9998 67.83L65.9898 68.27L88.9898 69.42L112.01 67.95L135 69.1Z" stroke="#CBA2B2" stroke-width="1.5" stroke-miterlimit="10"/>
<path d="M22.3999 149.98L48.9699 150.09L48.9399 147.02L71.4299 148.06L93.8999 147.36L116.46 146.43L116.43 149.74L132.92 150.5L131.85 117.39L128.84 117.31L129.88 141.67L102.87 141.83L76.4299 141.78L49.9799 140.98L23.5399 140.03L18.0799 141.15L17.8799 150.15L22.3999 149.98Z" stroke="#CBA2B2" stroke-width="1.75" stroke-miterlimit="10"/>
<path d="M154.94 106.6C149.59 103.88 143.68 105.27 137.94 105.51C129.12 106.88 119.16 108.98 110.07 111.26C80.4697 119.15 54.3297 120.15 24.6597 111.55L24.4897 111.5L24.2897 111.35C23.3597 110.59 21.9597 109.8 20.8797 109.25C15.2897 106.65 8.85969 107.33 2.92969 108.58C8.80969 106.54 15.5397 105.32 21.6297 107.47C23.0097 107.97 24.4397 108.87 25.5697 109.81L25.1997 109.62C54.5597 118.13 80.2897 117.12 109.59 109.3C118.93 107.14 128.35 104.6 137.92 103.66C143.57 104 150.01 103.21 154.94 106.6Z" fill="#CBA2B2"/>
<path d="M154.94 108.6C135.43 107.33 116.85 114.18 98.0399 118.28C91.7099 119.7 85.2099 120.78 78.7399 121.07C57.7399 122.57 36.1099 120.14 16.7699 111.38C12.4099 109.53 7.49994 108.65 2.93994 110.59C8.70994 107.07 16.1999 108.77 21.9499 111.32C45.1699 120.73 73.2399 121.56 97.5999 116.32C108.61 113.89 119.5 110.51 130.65 108.55C138.69 107.48 146.97 107.18 154.94 108.6Z" fill="#CBA2B2"/>
<path d="M159.44 97.3C160.37 97.56 161.22 95.49 160.35 95.05C151.95 90.81 151.58 91.55 142.79 88.2C134 84.85 134.29 83.8 125.24 81.25C124.43 81.02 123.87 83.17 124.63 83.54C133.01 87.69 133.5 86.56 142.06 90.32C150.65 94.09 150.43 94.82 159.44 97.3Z" stroke="#CBA2B2" stroke-miterlimit="10"/>
<path d="M151.06 101.7C152.28 101.18 153.05 101.73 153.75 102.3C155.02 103.34 156.24 104.47 157.44 105.64C158.67 106.83 158.67 107.87 157.36 108.86C155.23 110.48 153.2 112.41 150.61 112.74C150.44 112.76 150.26 112.74 150.02 112.74C150.12 111.32 150.92 110.78 151.71 110.24C152.9 109.43 154.11 108.67 155.31 107.87C155.56 107.7 155.79 107.46 155.97 107.31C154.61 106.02 153.23 104.79 151.92 103.45C151.56 103.07 151.39 102.37 151.06 101.7Z" fill="#CBA2B2" stroke="#CBA2B2" stroke-width="0.25" stroke-miterlimit="10"/>
<path d="M8.56983 114.26C7.31983 114.81 6.52983 114.23 5.81983 113.62C4.51983 112.51 3.26983 111.31 2.03983 110.07C0.789827 108.81 0.779825 107.7 2.11982 106.64C4.28982 104.92 6.36983 102.86 9.01983 102.51C9.19983 102.49 9.37982 102.51 9.61982 102.51C9.51982 104.02 8.69983 104.6 7.88983 105.17C6.66983 106.03 5.42982 106.84 4.20983 107.69C3.94983 107.87 3.71983 108.12 3.53983 108.29C4.92983 109.66 6.33983 110.97 7.67983 112.4C8.05983 112.8 8.22983 113.54 8.56983 114.26Z" fill="#CBA2B2" stroke="#CBA2B2" stroke-width="0.25" stroke-miterlimit="10"/>
<path d="M114.76 106.45L115.29 103.52C115.29 103.52 115.42 102.82 114.93 102.95C114.44 103.07 114.12 102.86 113.98 103.4C113.83 103.94 113.83 103.97 113.83 104.49C113.83 105 113.81 105.14 113.95 105.63C114.1 106.12 114.12 106.38 114.22 106.46C114.32 106.54 114.48 106.99 114.76 106.45Z" fill="#F4A079"/>
<path d="M131.45 117.29C131.45 108.04 131.21 108.04 131.21 98.79C131.21 89.54 131.02 89.54 131.02 80.29" stroke="#CBA2B2" stroke-width="0.5" stroke-miterlimit="10"/>
<path d="M129.85 117.29C129.85 108.04 129.81 108.04 129.81 98.79C129.81 89.54 128.96 89.54 128.96 80.29" stroke="#CBA2B2" stroke-width="0.5" stroke-miterlimit="10"/>
<path d="M25.1201 140.28C24.9601 130.29 26.0801 130.27 25.9201 120.27C25.7601 110.27 25.1501 110.28 24.9901 100.29C24.8301 90.3 24.7201 90.3 24.5601 80.3" stroke="#CBA2B2" stroke-width="0.5" stroke-miterlimit="10"/>
<path d="M23.6099 140.27C23.7599 130.18 23.8099 130.18 23.9699 120.09C24.1199 110 24.2199 110 24.3699 99.9C24.5199 89.8 23.6799 89.79 23.8299 79.7" stroke="#CBA2B2" stroke-width="0.5" stroke-miterlimit="10"/>
<path d="M32.6099 84.26C32.6099 84.26 40.6799 83.21 43.2699 83.57C45.8599 83.92 46.7199 83.88 46.7199 83.88C46.7199 83.88 46.1599 86.43 46.4499 87.4C46.7399 88.37 46.8899 91.92 46.9299 92.85C46.9699 93.78 47.1599 96.57 47.0799 97.18C46.9999 97.78 47.3199 99.43 47.0799 100.06C46.8399 100.68 46.6199 101.21 46.6499 102.1C46.6899 103 46.7199 104.72 46.7199 104.72L47.0799 106.32C47.0799 106.32 37.2499 105.93 35.8899 106.07C34.5299 106.21 33.5099 106.15 33.5099 106.15C33.5099 106.15 33.6199 102.71 33.5099 101.86C33.3999 101.01 33.8199 99.2 33.5099 98.07C33.1999 96.94 32.8399 96.94 32.9999 94.91C33.1599 92.89 32.8499 91.86 32.9999 90.48C33.1499 89.1 33.2999 87.71 33.1499 86.45C32.9999 85.18 32.6099 84.26 32.6099 84.26Z" stroke="#CBA2B2" stroke-width="0.7" stroke-miterlimit="10"/>
<path d="M98.25 79.7C98.25 79.7 98.45 85.08 98.58 86.41C98.71 87.75 98.81 88.63 98.81 88.63" stroke="#CBA2B2" stroke-width="0.5" stroke-miterlimit="10"/>
<path d="M94.8696 89.38C94.8696 89.38 95.6396 89.11 97.1396 88.9C98.6396 88.69 98.3496 88.34 99.5196 88.76C100.69 89.18 101.51 89.29 102.18 89.34C102.85 89.39 114.94 89.02 115.98 89.07C117.02 89.12 118.91 89.09 119.01 89.07C119.11 89.05 119.47 89.49 119.53 89.73C119.59 89.97 119.82 91.05 119.79 91.6C119.76 92.15 119.59 92.34 119.04 92.28C118.49 92.21 114.18 91.37 112.62 91.24C111.06 91.11 108.97 91.3 106.92 91.08C104.87 90.85 102.62 90.37 102.52 90.43C102.42 90.49 103.09 89.73 103.09 89.73L102.85 89.4" stroke="#CBA2B2" stroke-width="0.75" stroke-miterlimit="10"/>
<path d="M102.68 91.68C102.68 91.68 99.75 92.77 98.8 92.77C97.85 92.77 97.0699 92.93 96.3999 92.64C95.7299 92.35 94.46 92.01 94.46 92.01" stroke="#CBA2B2" stroke-width="0.75" stroke-miterlimit="10"/>
<path d="M94.6596 90.69C94.6596 90.69 92.9296 90.23 91.4296 89.96C89.9296 89.69 89.8697 89.97 88.6297 89.72C87.3897 89.47 85.4396 89.53 84.3896 89.33C83.3496 89.14 80.9996 88.99 80.2496 88.89C79.4996 88.78 79.4696 88.91 78.8796 88.62C78.2896 88.33 77.8396 87.84 77.8696 88.62C77.8996 89.4 77.6296 89.88 78.2096 90.73C78.7796 91.58 78.1996 91.88 79.7596 91.75C81.3196 91.62 83.2496 90.97 86.1196 91.23C88.9896 91.49 91.7296 91.73 92.5096 91.59C93.2896 91.45 94.3396 91.42 94.3396 91.42C94.3396 91.42 95.8396 90.99 94.6596 90.69Z" stroke="#CBA2B2" stroke-width="0.75" stroke-miterlimit="10"/>
<path d="M99.6098 74.6C99.6098 74.6 100.17 78.29 99.6098 78.78C99.0498 79.27 98.3898 79.49 98.0598 79.59C97.7298 79.69 97.1698 79.45 96.8998 79.22C96.6298 78.99 96.3598 78.09 96.2598 77.79C96.1598 77.49 95.8198 75.29 95.8198 75.29V73.58" stroke="#CBA2B2" stroke-width="0.5" stroke-miterlimit="10"/>
<path d="M54.2197 88.57C54.2197 88.57 55.1597 86.08 55.4097 86.63C55.6597 87.18 54.4597 89.01 56.2597 88.03C58.0497 87.05 60.2197 87.07 60.2197 87.07C60.2197 87.07 60.7997 86.48 59.9197 87.56C59.0397 88.64 57.4797 89.08 58.9697 89.12C60.4597 89.17 60.7997 89.28 60.6597 89.34C60.5097 89.41 59.5797 89.94 59.6297 90.14C59.6797 90.34 60.1697 90.34 59.8297 90.97C59.4797 91.61 58.5297 92.25 58.2897 92.25C58.0497 92.25 58.2097 92.09 58.6397 93.1C59.0797 94.11 60.5997 95.48 58.9597 94.6C57.3197 93.72 57.0397 93.06 56.6897 93.1C56.3397 93.14 55.7997 93.76 55.4097 93.71C55.0197 93.67 54.4497 93.65 54.4897 92.85" stroke="#CBA2B2" stroke-width="0.6" stroke-miterlimit="10"/>
<path d="M52 88.21C51.45 86.74 51.93 85.9 51.35 86.55C50.76 87.2 50.97 87.26 50.63 87.75C50.29 88.24 50.6 88.89 50.17 88.56C49.75 88.24 49.62 88.07 49.36 87.85C49.1 87.62 49.02 87 48.9 87.85C48.78 88.7 48.69 88.7 47.97 88.56C47.25 88.43 46.48 88.2 46.48 88.2C46.48 88.2 47.22 88.78 47.53 89.34C47.84 89.9 48.05 89.89 48.05 89.89" stroke="#CBA2B2" stroke-width="0.6" stroke-miterlimit="10"/>
<path d="M59.2697 97.02C59.2697 97.02 58.5597 97.31 58.8097 98.77C59.0597 100.23 59.2397 100.29 59.2697 100.41C59.2897 100.53 59.6197 100.28 59.9097 99.98C60.1997 99.68 60.1797 99.37 60.3697 100.41C60.5497 101.45 60.2997 102.13 60.3697 102.34C60.4397 102.55 60.8897 102.12 61.0497 101.57C61.2097 101.02 60.2597 99.81 61.3097 100.56C62.3597 101.31 62.1997 101.24 62.4897 101.45C62.7797 101.66 63.1397 102.34 63.1697 101.97C63.1997 101.6 63.1597 100.69 63.2697 100.41C63.3797 100.13 63.2997 100.4 63.5297 100.76C63.7597 101.12 63.2797 101.32 63.8097 100.76C64.3397 100.2 64.8897 99.52 64.8897 99.52C64.8897 99.52 65.3097 99.36 64.8897 99.03C64.4697 98.7 64.4097 98.73 63.8097 98.08C63.2097 97.44 62.6097 96.74 62.8497 96.74C63.0997 96.74 63.0297 97.1 64.1697 96.74C65.3097 96.38 66.0497 96.87 65.1397 95.88C64.2297 94.88 63.3197 94.2 63.3197 94.2C63.3197 94.2 61.2697 93.65 62.9297 93.49C64.5897 93.33 65.0197 92.3 65.0197 92.3C65.5697 93.92 64.8997 94.14 65.7797 94.63C66.6497 95.13 66.6497 95.22 66.9897 95.43C67.3197 95.64 68.1497 95.8 68.1497 95.8C68.1497 95.8 67.8897 95.8 67.7297 94.87C67.5697 93.94 66.8497 93.19 67.8897 93.71C68.9297 94.23 69.1597 94.35 69.1597 94.35C69.1597 94.35 68.6997 93.65 68.2097 93.1C67.7197 92.54 67.7497 92.64 67.2297 92.25C66.7097 91.86 69.4497 93.23 69.7697 93.1C70.0997 92.97 71.5997 93.64 69.7697 92.18C67.9397 90.72 67.3597 90.26 67.3597 90.26C67.3597 90.26 68.9597 89.92 68.9597 89.73C68.9597 89.54 69.5097 89.44 68.5697 89.38C67.6197 89.32 67.0997 89.19 66.8097 89.09C66.5197 88.99 66.1897 88.7 66.6497 88.63C67.1097 88.56 67.9497 88.24 67.7197 88.21C67.4897 88.18 65.6297 88.53 64.8797 88.37C64.1297 88.21 63.9197 87.71 64.3997 87.42C64.8797 87.13 65.2497 87.07 65.3697 87C65.4997 86.93 64.7797 86.43 64.6397 85.99C64.4997 85.55 65.9897 86.48 66.1197 85.99C66.2497 85.5 67.7597 85.19 66.3997 84.82C65.0497 84.45 64.5997 84.37 64.5797 84.17C64.5597 83.97 63.8397 83.74 64.6297 83.5C65.4197 83.26 65.9097 83.26 66.0097 83.19C66.1097 83.12 65.1297 82.9 64.2497 83.19C63.3697 83.48 62.6897 83.71 62.3897 83.71C62.0997 83.71 62.7797 83.9 61.6697 83.5C60.5597 83.1 60.5597 83.1 60.5597 83.1C60.5597 83.1 60.9797 81.98 60.8797 82.04C60.7797 82.1 59.3397 83.58 58.9197 83.5C58.4997 83.42 58.3397 83.01 58.2497 82.76C58.1497 82.51 58.2397 83.7 57.7197 84.6C57.1997 85.5 57.1997 85.5 57.1997 85.5" stroke="#CBA2B2" stroke-width="0.5" stroke-miterlimit="10"/>
<path d="M46.9199 97.07C47.1999 97.56 47.0699 99.48 47.6299 97.84C48.1799 96.19 47.6299 95.57 48.2199 96.03C48.8099 96.49 48.6099 96.84 49.0299 96.75C49.4499 96.65 49.5799 96.49 50.0099 96.49C50.4299 96.49 50.4299 96.91 50.1399 97.4C49.8499 97.89 49.5499 98.25 49.6799 98.77C49.8099 99.29 49.3899 99.29 50.0999 99.19C50.8199 99.09 51.7999 98.57 51.3599 99.24C50.9199 99.91 50.3999 101.02 50.7199 101.05C51.0499 101.08 51.4999 100.98 51.4699 101.05C51.4399 101.12 51.5099 102.64 51.7299 102.72C51.9599 102.81 51.4699 103.1 52.2199 103.07C52.9699 103.04 52.8999 103.4 52.8399 103.95C52.7799 104.5 52.6799 103.15 53.2299 102.48C53.7799 101.81 53.8799 101.87 54.0799 102.34C54.2799 102.81 54.8599 102.44 55.0899 101.97C55.3199 101.5 55.0899 101.52 55.4199 101.97C55.7499 102.42 55.7299 102.57 56.1099 102.53C56.4899 102.49 56.3599 103.14 56.4899 102.48C56.6199 101.82 56.5899 101.27 56.4899 101.01C56.3899 100.75 56.0999 99.96 56.0999 99.96L55.7399 98.6L54.5299 97.83C54.5299 97.83 56.3199 98.6 56.3599 98.34C56.3899 98.08 56.0999 97.43 56.0999 96.97C56.0999 96.51 56.2299 95.86 56.8199 96.38C57.4099 96.9 57.7299 97.19 58.0899 97.26C58.4499 97.33 59.2699 97.01 59.2699 97.01" stroke="#CBA2B2" stroke-width="0.6" stroke-miterlimit="10"/>
<path d="M47.3296 86.94C47.3296 86.94 49.7096 83.68 50.1696 83.03C50.6296 82.38 51.0496 82.02 50.8496 81.86C50.6496 81.69 51.8096 82.84 52.7396 83.5C53.6696 84.16 55.7396 86.55 55.7396 86.55L56.6896 87.23" stroke="#CBA2B2" stroke-width="0.5" stroke-miterlimit="10"/>
<path d="M77.2996 139.7C76.7796 136.24 77.3396 132.63 76.8496 129.17C76.7696 128.6 76.4296 128.09 76.4896 127.5C76.6296 126.13 76.2996 124.82 76.0496 123.53C75.1196 118.75 73.7096 114.38 71.7896 110.49C71.9296 108.77 71.9796 107.48 71.8696 106.08C71.8296 105.56 70.4396 104.82 70.1896 104.93C69.5096 105.23 67.8696 105.66 67.7796 106.3C67.6196 107.44 68.0696 108.62 68.1896 109.65C67.5296 110.96 67.7196 112.33 67.3596 113.58C66.5596 116.3 65.9896 119.06 65.3396 121.82C65.0596 122.99 64.1796 124.5 65.2996 125.41C65.6796 125.72 66.0896 125.97 66.1296 126.54C66.3196 129.47 66.1896 132.42 66.3496 135.36C66.4296 136.84 67.5196 138.21 67.6196 139.69C67.7496 139.71 67.5596 140 67.6896 140.02C67.8296 139.63 68.2396 139.13 68.2796 138.73C68.5096 136.47 67.9596 134.13 68.1596 131.87C68.2396 130.92 68.9996 130.08 69.2196 129.15C69.6796 127.2 69.8696 127.17 71.4296 128.42C73.2396 129.88 73.8596 131.68 74.5296 133.84C75.1596 135.87 77.0396 137.52 77.6596 139.55C77.7896 139.97 77.2196 139.91 77.4196 140.31C77.6896 139.79 77.3596 140.1 77.2996 139.7Z" fill="#F4A079"/>
<path d="M28.5697 88.68C28.9097 88.91 29.1097 88.06 28.8097 87.79C25.1797 84.51 25.1497 84.48 21.1097 81.74C20.7997 81.53 20.7697 82.24 21.0097 82.53C24.1797 86.25 24.5197 85.94 28.5697 88.68Z" stroke="#CBA2B2" stroke-miterlimit="10"/>
<path d="M28.6397 96.75C28.9797 96.98 29.0897 96.26 28.7897 95.98C25.1597 92.7 24.9997 92.88 20.9497 90.13C20.6397 89.92 20.8097 90.36 21.0497 90.64C24.2997 94.29 24.5997 94 28.6397 96.75Z" stroke="#CBA2B2" stroke-miterlimit="10"/>
<path d="M28.5601 105.03C28.9001 105.26 29.1101 104.4 28.8001 104.13C25.1701 100.85 25.0601 100.95 21.0101 98.2C20.7001 97.99 20.5801 98.73 20.8201 99.01C23.9901 102.74 24.5201 102.28 28.5601 105.03Z" stroke="#CBA2B2" stroke-miterlimit="10"/>
<path d="M28.56 121.37C28.9 121.6 29.1 120.75 28.79 120.48C25.16 117.2 25.07 117.27 21.02 114.52C20.71 114.31 20.58 115.06 20.82 115.34C23.99 119.08 24.52 118.63 28.56 121.37Z" stroke="#CBA2B2" stroke-miterlimit="10"/>
<path d="M28.4998 129.62C28.8398 129.85 29.0198 129 28.7198 128.73C25.0898 125.45 25.1698 125.3 21.1198 122.56C20.8098 122.35 20.7598 123.09 20.9998 123.38C24.0998 127.17 24.4598 126.88 28.4998 129.62Z" stroke="#CBA2B2" stroke-miterlimit="10"/>
<path d="M28.5098 137.78C28.8498 138.01 28.9698 137.23 28.6698 136.95C25.0398 133.67 25.0598 133.62 21.0098 130.88C20.6998 130.67 20.6898 131.31 20.9298 131.59C24.0398 135.38 24.4698 135.04 28.5098 137.78Z" stroke="#CBA2B2" stroke-miterlimit="10"/>
</g>
<defs>
<clipPath id="clip0_5398_8834">
<rect width="163" height="150" fill="white" transform="translate(0 0.5)"/>
</clipPath>
</defs>
</svg>
