<svg width="192" height="124" viewBox="0 0 192 124" fill="none" xmlns="http://www.w3.org/2000/svg">
<g clip-path="url(#clip0_5868_77)">
<path d="M26.97 101.04C25.02 102.31 23.22 103.76 21.69 105.45C21.39 105.79 21.13 105.86 20.67 105.88C15.84 106.06 11.02 106.02 6.19999 105.83C5.24999 105.79 4.99999 106.18 5.02999 106.96C5.15999 109.51 5.24999 112.07 5.35999 114.62C5.40999 115.71 5.43999 116.79 5.48999 117.88C5.50999 118.29 5.33999 118.58 4.97999 118.84C3.71999 119.76 2.48999 120.71 1.23999 121.63C1.01999 121.8 0.789985 122.21 0.459985 121.91C0.139985 121.61 0.559986 121.38 0.779986 121.21C1.79999 120.42 2.81999 119.64 3.86999 118.88C4.53999 118.4 4.81999 117.8 4.80999 117.02C4.75999 113.21 4.52999 109.41 4.21999 105.62C4.09999 104.2 4.60999 102.76 4.55999 101.29C4.39999 96.85 4.32999 92.41 4.33999 87.97C4.33999 85.89 4.27999 83.81 4.43999 81.72C4.65999 78.78 4.70999 75.8 4.24999 72.85C3.99999 71.25 4.30999 69.68 4.24999 68.09C4.15999 65.84 4.46999 63.61 4.55999 61.36C4.65999 59.07 4.48998 56.76 4.29998 54.47C3.87998 49.61 4.25999 44.75 4.06999 39.89C3.88999 35.25 3.84998 30.6 3.95998 25.96C4.03998 22.94 3.71998 19.94 3.87998 16.92C3.94998 15.51 4.31999 15.25 5.55999 16.13C7.27999 17.36 9.37999 17.97 11.11 19.16C11.8 19.64 12.43 19.75 12.42 18.67C12.41 17.86 11.96 16.79 12.37 16.31C12.88 15.72 14.09 16.51 14.99 16.21C15.07 16.18 15.15 16.13 15.39 16C11.41 13.25 7.47998 10.55 3.37998 7.72C4.65998 7.37 5.15999 9.35 6.42999 8.05C6.48999 9.53 7.67999 10.13 8.71999 10.83C11.09 12.42 13.47 14 15.84 15.6C16.22 15.85 16.59 16.09 17.08 16.09C19.7 16.09 22.32 16.09 25.08 16.09" stroke="#C9A0B0" stroke-miterlimit="10"/>
<path d="M82.36 78.85C81.7 81.98 81.93 85.11 82.09 88.23C82.19 90.05 81.94 91.88 82.24 93.68C82.45 94.92 81.82 94.99 80.51 94.79C81.68 94.27 81.54 93.49 81.54 92.69C81.53 89.64 81.04 86.6 81.23 83.54C81.24 83.34 81.24 82.99 81.13 82.95C79.76 82.4 79.32 81.12 78.45 80.19C78.23 79.96 77.89 79.83 77.57 79.92C76.56 80.21 75.56 80.52 74.58 80.87C74.25 80.99 73.92 81.3 74.01 81.66C74.14 82.17 74.6 81.86 74.93 81.87C75.64 81.89 76.32 81.51 77.24 81.7C76.16 82.6 74.18 81.93 73.89 83.75C73.53 82.31 72.32 82.35 71.21 82.25C69.2 82.07 67.15 82.22 65.16 81.76C65.03 81.73 64.89 81.75 64.75 81.74C64.3 81.72 63.56 82.51 63.47 81.61C63.4 80.93 62.98 79.83 64.4 79.59L68.66 77.57L82.36 78.18V78.85Z" stroke="#C9A0B0" stroke-width="0.75" stroke-miterlimit="10"/>
<path d="M121.6 92.89C122.93 94.32 124.17 95.58 125.81 96.47C128.23 98.67 131.07 100.4 133.69 102.37C134.39 102.89 135.52 103.45 135.19 104.25C134.9 104.95 133.7 104.45 132.91 104.45C130.06 104.44 127.2 104.69 124.37 104.28C121.7 103.89 119.05 104.49 116.41 104.46C112.5 104.42 108.59 104.29 104.67 104.31C104.37 104.31 103.96 104.37 103.87 103.98C103.48 102.3 102.31 100.97 101.47 99.5C101.39 99.37 101.39 99.2 101.31 98.82C102.67 99.89 103.09 101.24 103.79 102.4C104.43 103.46 105.23 103.83 106.55 103.79C109.17 103.7 111.8 103.69 114.42 103.95C116.44 104.15 118.43 103.55 120.46 103.56C118.41 103.56 116.36 103.51 114.31 103.57C111.55 103.66 108.8 103.08 106.04 103.46C105.33 103.56 104.93 103.14 104.66 102.62C103.29 99.99 101.35 97.7 99.4 95.44C98.73 94.66 97.92 93.98 97.34 93.12C96.85 92.39 97.27 92.22 97.96 92.22C101.36 92.2 104.76 92.19 108.16 92.18C108.73 92.18 109.37 92.01 109.65 92.92" stroke="#C9A0B0" stroke-width="0.75" stroke-miterlimit="10"/>
<path d="M116.2 92.23C118.24 91.85 120.31 92.57 122.32 92.14C123.63 91.86 124.42 92.58 125.28 93.14C125.94 93.57 126.44 94.2 127.02 94.74" stroke="#C9A0B0" stroke-width="0.75" stroke-miterlimit="10"/>
<path d="M169.19 60.75C169.08 57.7 169.25 54.65 169.1 51.6C169.02 50.03 168.8 48.43 169.11 46.85C169.45 45.14 169.08 43.43 169.08 41.71C169.08 37.03 169 32.34 168.99 27.66C168.98 25.41 169.18 23.15 168.95 20.9C168.88 20.23 169.1 19.73 169.84 19.53C174.38 18.29 178.11 15.5 182.53 14.03C182.83 13.93 183.13 13.82 183.43 13.74C183.49 13.72 183.58 13.81 183.71 13.87C183.47 14.33 182.94 14.49 182.53 14.62C180.25 15.35 178.18 16.41 176.13 17.55C174.4 18.51 172.48 19.15 170.6 19.83C169.84 20.1 169.56 20.54 169.61 21.27C169.98 26.7 169.61 32.13 169.76 37.56C169.97 45.04 169.83 52.53 169.77 60.02" stroke="#C9A0B0" stroke-width="0.75" stroke-miterlimit="10"/>
<path d="M108.54 37.94C107.29 37.16 106.17 37.5 105.11 37.38C104.58 37.32 104.36 37.61 104.81 38.09C105.45 38.75 105.98 39.49 106.64 40.12C106.97 40.44 107.05 41.6 108.02 40.61C108.19 40.44 108.37 40.75 108.5 40.92C108.83 41.37 109.18 41.81 109.52 42.26C109.21 42.59 108.8 41.86 108.59 42.29C108.49 42.49 108.71 42.84 108.83 43.1C109.09 43.7 109.65 44.1 110.09 44.58C111.46 46.07 112.13 47.9 112.26 49.75C112.45 52.58 112.51 55.44 112.32 58.28C112.31 58.48 112.21 60.37 112.21 60.37C112.35 62.07 112.71 63.77 112.21 65.45C112.02 66.08 112.6 66.41 112.67 66.95C112.95 69.19 112.29 71.31 112.09 73.48C111.97 73.47 111.84 73.46 111.72 73.46" stroke="#C9A0B0" stroke-width="0.75" stroke-miterlimit="10"/>
<path d="M5.32998 26C5.17998 25.89 4.95998 25.96 4.74998 26.06C4.48998 26.19 4.47998 26.24 4.47998 28C4.48998 33.31 4.49998 38.61 4.50998 43.92C4.51998 47.15 4.47998 50.38 4.52998 53.6C4.58998 58.23 4.55998 62.86 4.53998 67.49C4.52998 69.5 4.49998 71.51 4.54998 73.51C4.60998 76.05 4.59998 78.63 4.56998 81.13C4.52998 84.47 4.54998 87.81 4.53998 91.14C4.52998 95.19 4.56998 99.25 4.55998 103.3C4.55998 105.22 4.57998 105.48 4.87998 105.42C5.42998 105.31 5.97998 105.74 6.52998 105.29C6.82998 105.05 6.82998 105.21 6.80998 103.33C6.79998 102.79 6.79998 102.24 6.80998 101.7C6.85998 98.4 6.79998 95.1 6.82998 91.8C6.83998 90.43 6.77998 89.04 6.78998 87.67C6.81998 83.15 6.79998 78.63 6.78998 74.12C6.78998 70.69 6.76998 67.26 6.76998 63.84C6.77998 60.2 6.78998 56.56 6.79998 52.91C6.80998 47.38 6.71998 41.86 6.75998 36.33C6.77998 33.37 6.78998 30.4 6.76998 27.43C6.75998 26.55 6.70998 26.05 6.56998 26.1C6.16998 26.24 5.77998 26.03 5.32998 26Z" stroke="#C9A0B0" stroke-miterlimit="10"/>
<path d="M9.42001 26C9.27001 25.89 9.05001 25.96 8.84001 26.06C8.58001 26.19 8.57001 26.24 8.57001 28C8.58001 33.31 8.59001 38.61 8.60001 43.92C8.61001 47.15 8.57001 50.38 8.62001 53.6C8.68001 58.23 8.65001 62.86 8.63001 67.49C8.62001 69.5 8.59001 71.51 8.64001 73.51C8.70001 76.05 8.69001 78.63 8.66001 81.13C8.62001 84.47 8.64001 87.81 8.63001 91.14C8.62001 95.19 8.66001 99.25 8.65001 103.3C8.65001 105.22 8.67001 105.48 8.97001 105.42C9.52001 105.31 10.07 105.74 10.62 105.29C10.92 105.05 10.92 105.21 10.9 103.33C10.89 102.79 10.89 102.24 10.9 101.7C10.95 98.4 10.89 95.1 10.92 91.8C10.93 90.43 10.87 89.04 10.88 87.67C10.91 83.15 10.89 78.63 10.88 74.12C10.88 70.69 10.86 67.26 10.86 63.84C10.87 60.2 10.88 56.56 10.89 52.91C10.9 47.38 10.81 41.86 10.85 36.33C10.87 33.37 10.88 30.4 10.86 27.43C10.85 26.55 10.8 26.05 10.66 26.1C10.26 26.24 9.87001 26.03 9.42001 26Z" stroke="#C9A0B0" stroke-miterlimit="10"/>
<path d="M13.93 26C13.78 25.89 13.56 25.96 13.35 26.06C13.09 26.19 13.08 26.24 13.08 28C13.09 33.31 13.1 38.61 13.11 43.92C13.12 47.15 13.08 50.38 13.13 53.6C13.19 58.23 13.16 62.86 13.14 67.49C13.13 69.5 13.1 71.51 13.15 73.51C13.21 76.05 13.2 78.63 13.17 81.13C13.13 84.47 13.15 87.81 13.14 91.14C13.13 95.19 13.17 99.25 13.16 103.3C13.16 105.22 13.18 105.48 13.48 105.42C14.03 105.31 14.58 105.74 15.13 105.29C15.43 105.05 15.43 105.21 15.41 103.33C15.4 102.79 15.4 102.24 15.41 101.7C15.46 98.4 15.4 95.1 15.43 91.8C15.44 90.43 15.38 89.04 15.39 87.67C15.42 83.15 15.4 78.63 15.39 74.12C15.39 70.69 15.37 67.26 15.37 63.84C15.38 60.2 15.39 56.56 15.4 52.91C15.41 47.38 15.32 41.86 15.36 36.33C15.38 33.37 15.39 30.4 15.37 27.43C15.36 26.55 15.31 26.05 15.17 26.1C14.78 26.24 14.39 26.03 13.93 26Z" stroke="#C9A0B0" stroke-miterlimit="10"/>
<path d="M18.44 26C18.29 25.89 18.07 25.96 17.86 26.06C17.6 26.19 17.59 26.24 17.59 28C17.6 33.31 17.61 38.61 17.62 43.92C17.63 47.15 17.59 50.38 17.64 53.6C17.7 58.23 17.67 62.86 17.65 67.49C17.64 69.5 17.61 71.51 17.66 73.51C17.72 76.05 17.71 78.63 17.68 81.13C17.64 84.47 17.66 87.81 17.65 91.14C17.64 95.19 17.68 99.25 17.67 103.3C17.67 105.22 17.69 105.48 17.99 105.42C18.54 105.31 19.09 105.74 19.64 105.29C19.94 105.05 19.94 105.21 19.92 103.33C19.91 102.79 19.91 102.24 19.92 101.7C19.97 98.4 19.91 95.1 19.94 91.8C19.95 90.43 19.89 89.04 19.9 87.67C19.93 83.15 19.91 78.63 19.9 74.12C19.9 70.69 19.88 67.26 19.88 63.84C19.89 60.2 19.9 56.56 19.91 52.91C19.92 47.38 19.83 41.86 19.87 36.33C19.89 33.37 19.9 30.4 19.88 27.43C19.87 26.55 19.82 26.05 19.68 26.1C19.29 26.24 18.89 26.03 18.44 26Z" stroke="#C9A0B0" stroke-miterlimit="10"/>
<path d="M27.57 98.46C27.57 94.87 27.59 91.27 27.52 87.68C27.49 86.19 27.27 84.69 27.13 83.22C27.01 81.87 27.34 80.42 27.17 79.02C27.07 78.16 27.32 77.72 28.21 77.4C30.79 76.49 33.33 75.51 35.9 74.57C36.15 74.48 36.63 74.34 36.66 74.4C37.44 75.69 37.87 74.84 38.79 74.4C40.16 73.74 40.19 72.8 40.32 71.77C40.42 71.03 40.34 70.26 40.33 69.51" stroke="#C9A0B0" stroke-width="0.75" stroke-miterlimit="10"/>
<path d="M28.81 98.46C28.81 94.87 28.83 91.27 28.76 87.68C28.73 86.19 28.52 84.69 28.4 83.22C28.28 81.87 28.59 80.42 28.44 79.02C28.35 78.16 28.58 77.72 29.41 77.4C31.81 76.49 34.18 75.51 36.57 74.57C36.8 74.48 37.25 74.34 37.28 74.4C38.01 75.69 38.4 74.84 39.26 74.4C40.54 73.74 40.56 72.8 40.68 71.77C40.77 71.03 40.7 70.26 40.69 69.51" stroke="#C9A0B0" stroke-width="0.75" stroke-miterlimit="10"/>
<path d="M40.32 69.5C40.31 68.1 40.27 68.1 38.72 68.47C35.6 69.21 32.47 69.89 29.36 70.61C28.63 70.78 28.29 70.78 28.35 69.89C28.48 68.14 28.46 66.37 28.44 64.61C28.38 58.57 28.32 52.54 28.19 46.5C28.13 43.65 28.71 40.81 28.05 37.8L27.75 30.12C26.63 30.04 26.19 29.57 25.7 29.23C24.74 28.57 23.75 27.98 22.63 27.55C21.81 27.23 21.47 27.3 21.47 28.18C21.45 31.02 21.46 33.87 21.32 36.7C21.05 42.45 21.66 48.18 21.61 53.92C21.57 57.73 21.1 61.55 21.39 65.35C21.77 70.33 21.49 75.3 21.49 80.27C21.49 85.45 21.73 90.63 21.67 95.81C21.64 98.18 21.85 100.57 21.67 102.95C21.64 103.4 21.72 103.84 22.1 104.23C23.04 103.43 24 102.75 24.76 101.92C25.42 101.2 27.08 101.14 26.66 99.67C27.36 99.51 27.57 99.02 27.56 98.44" stroke="#C9A0B0" stroke-miterlimit="10"/>
<path d="M131.76 102.18C130.64 102.54 129.59 102.31 129.34 101.73C128.95 100.85 127.96 100.64 127.57 99.99C126.9 98.87 125.5 98.76 124.71 97.96C123.54 96.78 122.27 95.69 121.08 94.53C120.89 94.34 120.49 93.74 120.21 94.53C120.13 94.75 119.96 94.79 119.84 94.6C118.82 92.93 117.15 93.91 115.76 93.79C115.32 93.75 115 94.17 115.3 94.47C116.46 95.64 116.6 97.69 118.85 97.92C119.38 97.97 119.78 98.18 119.9 98.77C119.69 98.77 119.54 98.81 119.44 98.76C118.86 98.52 118.2 98 117.67 98.43C117.23 98.78 118.06 99.27 118.04 99.77C118.04 99.84 117.97 99.91 117.93 99.98C117.52 99.97 117.44 99.63 117.27 99.41C116.13 97.97 114.31 97.73 112.83 98.16C111.2 98.63 109.68 98.34 108.11 98.58C108.16 97.98 108.89 98.02 108.96 97.56C108.1 96.99 107 97.51 105.96 97.08C106.63 96.52 107.82 96.77 107.85 95.73C107.97 95.76 108.1 95.76 108.21 95.81C108.88 96.12 109.33 95.62 109.26 95.26C109.15 94.73 109.63 93.68 108.46 93.74C106.65 93.83 104.76 93.23 103.04 94.27C102.58 94.54 101.9 94.58 101.54 94.09C101.2 93.62 100.69 93.53 100.4 93.81C100.1 94.1 100.96 93.76 100.86 94.17C100.84 94.25 100.87 94.35 100.83 94.42C100.29 95.18 100.86 95.77 101.22 96.37C102.18 97.99 103.6 99.41 104.44 101.03C105.32 102.75 106.62 102.79 108.21 102.75C108.84 102.74 109.51 102.88 109.82 102.12C109.94 101.83 110.33 101.84 110.67 101.94C111.28 102.12 111.95 102.19 112.52 102.43C114.1 103.11 115.34 102.78 116.38 101.56C116.45 101.48 116.6 101.46 116.74 101.4C116.53 102.41 117.09 103.14 118.23 103C119.67 102.82 121.04 103.03 122.43 103.17C122.93 103.22 123.44 103.19 123.92 103.01C125.72 102.33 127.57 102.78 129.32 103.09C130.45 103.32 131 103.11 131.76 102.18Z" stroke="#C9A0B0" stroke-width="0.75" stroke-miterlimit="10"/>
<path d="M96.95 72.56C96.9 71.49 96.89 70.42 97.16 69.37C97.21 69.17 97.27 68.92 97.54 68.91C97.78 68.9 97.78 69.15 97.86 69.3C98.36 70.2 98.58 71.19 98.89 72.14C99.2 73.07 99.17 74.07 99.62 74.96C99.71 75.14 99.82 75.29 100.05 75.22C100.26 75.16 100.17 75 100.16 74.85C99.92 72.53 99.69 70.21 99.48 67.89C99.41 67.15 99.58 66.45 99.96 65.78C100.87 64.18 99.99 61.25 98.35 60.31C97.5 59.83 97.23 59.25 97.76 58.5C98.24 57.82 97.73 57.54 97.42 57.24C97.03 56.86 96.51 57.1 96.11 57.33C95.8 57.5 95.72 57.79 95.93 58.19C96.16 58.64 96.21 59.18 96.35 59.68C96.43 59.94 96.4 60.2 96.17 60.34C95.09 61.04 94.79 62.2 94.28 63.24C93.73 64.35 93.75 64.38 94.94 64.75C95.34 64.87 95.48 65.11 95.57 65.46C95.68 65.86 95.41 65.92 95.11 65.98C94.87 66.03 94.85 66.27 94.91 66.43C95.21 67.22 95.03 68.07 95.27 68.86C95.82 70.65 96.16 72.48 96.02 74.36C95.99 74.72 96.04 74.96 96.5 74.95C96.96 74.93 96.96 74.65 96.95 74.32C96.94 73.72 96.95 73.14 96.95 72.56Z" fill="#D07850"/>
<path d="M34.92 67.62C34.62 67.93 34.34 67.87 34.06 67.87C32.73 67.89 31.39 67.92 30.06 67.94C29.01 67.96 29.08 68.65 29.12 69.28C29.17 70.17 29.81 69.83 30.32 69.72C32.65 69.21 34.96 68.65 37.3 68.2C38.37 68 38.79 67.55 38.65 66.58C38.24 63.71 37.83 60.84 36.08 58.31C35.74 57.82 35.26 57.23 36.05 56.78C37.5 55.96 37.44 54.9 36.88 53.65C36.4 52.56 35.5 52.02 34.33 52.23C32.94 52.48 33.06 53.54 33.27 54.33C33.65 55.79 32.97 56.77 31.9 57.65C30.63 58.68 30.18 59.96 30.19 61.47C30.2 63.1 30.81 64.56 31.37 66.08C31.73 67.06 32.19 67.33 33.2 67.28C33.75 67.24 34.4 67.07 34.92 67.62Z" fill="#D07850"/>
<path d="M25.06 16.7C20.99 16.82 17.63 16.55 14.28 16.96C13.9 17.01 13.35 16.84 13.24 17.35C13.06 18.17 12.77 19.08 13.24 19.81C13.66 20.47 14.6 20.17 15.3 20.12C19.33 19.8 23.38 19.86 27.42 19.74C32.34 19.59 37.27 19.56 42.2 19.52C43.18 19.51 43.42 19.07 43.32 18.34C43.23 17.68 43.73 16.63 42.31 16.71C40.73 16.8 39.19 16.49 37.62 16.51C33.19 16.57 28.77 16.89 25.06 16.7Z" stroke="#C9A0B0" stroke-miterlimit="10"/>
<path d="M146.55 66.63C147.07 65.04 147 63.65 146.82 62.29C146.69 61.34 146.87 60.79 148 60.57C148.79 60.42 149.06 60.19 148.43 59.3C147.71 58.27 146.52 57.11 147.44 55.62C147.58 55.39 147.61 55.09 147.32 54.95C146.88 54.72 146.77 55.1 146.64 55.35C146.34 55.96 145.82 56.38 145.16 56.59C144.16 56.91 143.99 57.78 143.47 58.43C142.66 59.43 143.31 59.93 143.97 60.54C144.18 60.73 144.13 61.01 144.08 61.26C143.82 62.42 144.52 63.51 144.28 64.68C144.48 64.55 144.56 64.41 144.64 64.27C144.81 63.96 144.67 63.4 145.24 63.41C145.74 63.42 145.82 63.9 145.93 64.25C146.15 64.97 146.31 65.7 146.55 66.63Z" fill="#D07850"/>
<path d="M156.8 67.32C156.84 65.73 157.24 64.44 157.17 63.09C157.12 62.18 157.12 61.29 157.67 60.42C158.09 59.77 158.19 58.96 157.64 58.27C157.1 57.6 156.75 56.92 156.88 56.06C156.92 55.79 156.94 55.4 156.45 55.43C156.08 55.46 155.92 55.76 155.95 56.08C156 56.5 156.19 56.97 155.8 57.27C154.18 58.53 153.91 59.91 155.16 61.53C155.3 61.71 155.2 62.03 155.27 62.27C155.78 63.85 155.41 65.63 156.8 67.32Z" fill="#D07850"/>
<path d="M14.01 21.23C23.58 21.23 33.16 21.23 42.73 21.23C42.73 21.01 42.72 20.8 42.72 20.58C33.15 20.47 23.58 20.95 14.01 21.23Z" stroke="#C9A0B0" stroke-width="0.75" stroke-miterlimit="10"/>
<path d="M28.37 30.05C32.85 30.05 37.33 30.05 41.81 30.05C41.81 29.83 41.81 29.62 41.81 29.4C37.33 29.3 32.85 29.77 28.37 30.05Z" stroke="#C9A0B0" stroke-width="0.75" stroke-miterlimit="10"/>
<path d="M21.73 26.55C28.06 26.55 34.39 26.55 40.72 26.55C40.72 26.25 40.72 25.94 40.71 25.64C34.39 25.5 28.06 26.16 21.73 26.55Z" stroke="#C9A0B0" stroke-width="0.75" stroke-miterlimit="10"/>
<path d="M64.12 80.5C64.39 80.88 64.44 81.03 64.53 81.06C67.19 81.91 69.99 81.43 72.7 81.77C73.06 81.82 73.26 81.5 73.2 81.16C73.14 80.78 72.84 80.81 72.49 80.79C70.96 80.69 69.44 80.99 67.91 80.79C66.75 80.65 65.57 80.61 64.12 80.5Z" stroke="#C9A0B0" stroke-width="0.75" stroke-miterlimit="10"/>
<path d="M49.94 66.91C49.84 66.47 49.44 66.31 48.88 66.4C46.5 66.78 44.12 67.17 41.75 67.58C41.07 67.7 40.6 68.01 40.76 68.55C40.95 69.24 41.66 69.05 42.26 68.92C44.53 68.44 46.8 67.94 49.06 67.44C49.43 67.35 49.9 67.3 49.94 66.91Z" stroke="#C9A0B0" stroke-width="0.75" stroke-miterlimit="10"/>
<path d="M133.01 43.17C133.01 42.66 133.01 42.16 133 41.65C133 41.42 133.01 41.06 132.62 41.12C132.27 41.17 132.32 41.5 132.42 41.74C132.82 42.67 132.49 43.39 131.64 43.93C130.86 44.42 130.39 44.33 129.05 43.53C129.19 43.35 129.38 43.42 129.55 43.46C131.72 43.9 132.13 43.57 131.82 41.64C131.75 41.23 131.8 40.77 132.15 40.61C133.27 40.07 132.92 39.26 132.84 38.43C132.7 37.1 133.02 35.79 133.29 34.48C133.75 35.24 133.54 36.04 133.5 36.83C133.45 37.83 133.36 38.84 133.34 39.84C133.31 41.15 134.51 40.69 135.17 40.71C135.98 40.74 135.63 40.08 135.59 39.66C135.54 39.22 135.12 38.66 135.58 38.36C136.13 38.01 136.54 38.64 137.02 38.84C137.35 38.98 137.68 39.62 138.01 39.13C138.4 38.56 139.71 38.75 139.36 37.54C138.99 36.26 139.64 35.88 141.04 36.41C142.71 37.03 144.73 35.8 144.67 34.2C144.66 33.85 144.54 33.61 144.2 33.51C143.64 33.34 144 33.79 143.89 33.91C143.58 34.23 143.45 33.83 143.3 33.7C143 33.45 143.03 33.17 143.37 32.97C143.72 32.75 144.07 32.87 144.42 33.01C144.69 33.13 144.96 33.49 145.27 33.24C145.64 32.94 145.41 32.54 145.27 32.18C144.86 31.13 143.79 30.08 142.56 29.56C142.9 29.23 143.22 29.03 143.39 28.75C143.89 27.96 144.53 27.59 145.56 27.88C146.13 28.04 146.61 27.8 146.72 27.27C146.85 26.65 146.45 26.17 145.84 26C144.88 25.73 145.56 27.01 144.67 26.98C144.39 26.44 144.41 25.79 144.95 25.4C145.43 25.05 146 25.47 146.44 25.77C147.05 26.18 147.61 26.68 147.35 27.45C147.12 28.11 146.52 28.51 145.77 28.44C145.13 28.38 144.54 28.03 144.12 28.79C143.72 29.52 144.39 29.88 144.74 30.31C146.51 32.43 146.31 34.51 144.09 36.25C143.49 36.72 143.37 37.78 142.13 37.49C141.6 37.37 141.28 37.01 140.81 36.85C140.51 36.75 140.21 36.55 139.92 36.82C139.69 37.04 139.84 37.29 139.91 37.53C140.11 38.22 140.61 38.78 139.14 39.03C137.45 39.32 137.5 39.58 136.1 38.96C136.19 39.72 136.32 40.39 136.32 41.07C136.32 41.72 136.15 42.28 135.16 41.85C134.37 41.51 133.85 41.51 133.58 41.87" stroke="#C9A0B0" stroke-miterlimit="10"/>
<path d="M73.89 89.39C74.52 89.84 74.35 90.45 74.38 91C74.45 92.54 74.25 94.09 74.46 95.63C74.54 96.2 74.7 96.22 75.22 96.09C76.54 95.75 77.35 94.81 77.5 93.28C77.52 93.09 77.35 92.85 77.65 92.76C77.89 92.69 78.15 92.78 78.25 92.98C78.64 93.79 79.51 94.27 80.06 95.12C79.42 95.19 78.96 95.07 78.54 94.82C78.3 94.68 78.16 94.25 77.78 94.58C77.52 94.8 77.49 95.11 77.67 95.39C78.06 96 77.9 96.19 77.14 96.07C76.94 96.04 76.69 96.16 76.5 96.27C74.53 97.39 72.49 96.81 70.43 96.55C69.52 96.43 69.55 95.8 69.3 95.31C68.7 94.17 68.55 94.13 67.69 95.1C67 95.88 66.25 96.15 65.17 95.65C64.41 95.3 63.54 95.14 62.5 94.83C63.65 94.46 63.73 93.75 63.71 92.95C63.61 89.65 63.53 86.34 63.46 83.04C63.46 82.93 63.57 82.82 63.66 82.65C64.26 82.84 64.15 83.3 64.15 83.68C64.12 86.99 64.6 90.28 64.43 93.59C64.4 94.25 64.48 94.8 65.3 95.11C66.12 95.42 66.46 94.91 66.95 94.55C67.75 93.97 68.17 92.96 69.34 92.81C68.83 94.38 69.92 95.91 71.73 96.16C72.05 96.2 72.37 96.24 72.67 96.33C73.38 96.56 73.75 96.33 73.76 95.66C73.78 94.91 73.95 94.1 73.72 93.41C73.23 92.02 74.16 90.75 73.89 89.39Z" stroke="#C9A0B0" stroke-width="0.75" stroke-miterlimit="10"/>
<path d="M143.06 26.18C141.36 24.79 141.55 24.48 144.38 23.56C144.38 23.28 144.13 23.26 143.92 23.2C143.47 23.08 142.95 22.94 142.95 22.44C142.95 21.8 143.59 22.01 144 21.92C145.26 21.64 146.05 20.65 146.42 19.78C146.7 19.13 147.35 19.07 147.57 18.57C147.76 18.14 148.31 19.13 148.41 18.44C148.51 17.77 147.93 17.52 147.27 17.33C148.34 16.8 149.86 16.74 149.57 15.09C150.33 15.78 150.4 16.14 149.66 16.68C149.06 17.13 148.87 17.49 149.22 18.15C149.42 18.54 149.22 18.98 148.97 19.34C148.29 20.3 149.01 20.47 149.79 20.41C150.54 20.36 151.27 20.12 152.1 19.94C151.31 21.34 149.27 21.59 148.19 20.43C147.63 19.83 147.47 20.06 146.95 20.41C145.98 21.08 145.47 22.27 143.96 22.58C144.63 22.75 145.22 22.93 145.09 23.59C144.97 24.19 144.43 24.16 143.91 24.23C142.58 24.4 142.48 24.62 143.06 26.18Z" stroke="#C9A0B0" stroke-miterlimit="10"/>
<path d="M146.22 13.01C146.61 13.21 147 13.42 147.4 13.62C147.92 13.88 148.45 13.98 148.93 13.57C149.38 13.18 149.42 12.66 149.22 12.17C148.98 11.58 148.61 11.03 148.03 10.66C147.17 10.12 147.59 9.80001 148.24 9.53001C148.87 9.27001 149.52 9.05001 150.15 8.81001C150.67 8.61001 151.65 8.83001 150.97 7.70001C150.75 7.33001 151.74 6.70001 152.33 6.34001C153.65 5.54001 154.74 3.58 153.97 2.38C154.9 2.69 155.26 3.25001 154.76 4.14001C154.23 5.09001 154.2 6.37001 152.76 6.85001C152.44 6.96001 151.83 7.43001 152.11 8.03001C152.45 8.78001 151.97 9.01001 151.3 9.12001C150.98 9.17001 150.66 9.20001 150.35 9.28001C148.42 9.75001 148.4 9.81001 149.41 11.31C150.01 12.2 150.22 13.14 149.3 13.95C148.59 14.59 147.19 14.2 146.22 13.01Z" stroke="#C9A0B0" stroke-miterlimit="10"/>
<path d="M114.78 49.66C113.99 50.63 113.48 49.9 113.44 49.31C113.25 46.64 111.79 44.28 111.31 41.68C111.15 40.8 110.47 40.04 110.56 39.04C110.63 38.21 111.12 37.86 111.84 37.59C112.45 37.36 112.99 37.12 113.33 37.98C113.42 38.2 114.18 38.58 114.51 38.28C114.88 37.93 115.47 37.37 115.11 36.85C114.67 36.21 114.29 35.89 115.44 35.56C115.76 35.47 115.78 34.58 115.98 34.07C116.06 33.85 116.09 33.55 116.5 33.55C116.96 33.9 116.59 34.21 116.4 34.51C116.15 34.92 115.99 35.35 115.96 35.82C115.95 36.03 115.95 36.26 116.22 36.35C116.49 36.44 116.66 36.27 116.77 36.09C117.23 35.39 117.5 34.63 117.47 33.82C117.45 33.28 117.1 32.83 116.5 32.72C115.7 32.57 115.69 33.33 115.44 33.81C114.89 33.27 115.07 32.92 115.47 32.63C115.89 32.32 116.38 32.2 116.89 32.44C117.54 32.76 118.15 33.32 117.97 33.92C117.62 35.07 117.92 36.62 116.07 37.04C115.69 37.13 115.67 37.47 115.6 37.75C115.19 39.31 115.13 40.83 116.25 42.22C116.62 42.68 116.95 42.58 117.2 42.18C117.43 41.82 117.43 41.28 117.73 41.04C118.17 40.71 117.47 39.29 118.97 39.93C119.13 40 119.29 39.47 119.34 39.19C119.56 38.04 120.26 37.02 120.56 35.87C120.79 36.69 120.72 37.5 120.26 38.23C119.59 39.28 119.46 40.45 119.26 41.6C119.15 42.26 119.53 42.99 120.15 42.92C120.74 42.85 121.79 43.2 122.01 42.02C122.31 40.44 123.37 39.05 123.46 37.47C123.81 37.38 123.91 37.53 123.88 37.63C123.16 39.83 125.28 41.4 125.44 43.42C125.47 43.81 125.96 44.17 126.36 43.97C127.59 43.37 128.19 44.66 129.22 44.57" stroke="#C9A0B0" stroke-miterlimit="10"/>
<path d="M114.76 49.65C114.78 49.89 114.64 50.26 114.92 50.34C115.53 50.52 114.95 51.87 114.42 51.69C113.68 52.45 113.8 53.18 114.54 53.8C115.07 54.24 115.11 54.61 114.88 55.22C114.26 56.88 114.42 58.6 114.55 60.32C114.69 62.14 115.2 63.99 114.64 65.79C113.82 68.42 114.84 70.92 115.13 73.48C115.13 73.48 115.1 74.96 115.15 75.96C115.2 76.96 115.2 77.87 115.2 78.32C115.2 78.77 114.64 81.59 114.64 81.59C115.03 83.92 114.43 86.18 114.32 88.46C114.28 89.22 114.74 89.91 114.43 90.69C113.66 92.64 114.27 94.36 115.68 95.91C116.2 96.48 116.29 97.21 116.55 97.97C114.8 97.67 113.22 96.99 111.57 97.91C110.99 98.23 110.08 98.03 110.17 97.29C110.37 95.73 110.55 92.65 110.49 92.03C110.45 91.66 110.67 91.12 110.98 90.9C111.56 90.48 110.55 88.52 110.89 88.01C111.67 86.83 111.03 85.67 111.15 84.52C111.18 84.22 111.02 83.88 111.34 83.62C112.03 84.26 111.4 82.81 111.61 81.21C111.83 79.55 111.05 77.88 111.86 76.23L112.06 73.48" stroke="#C9A0B0" stroke-width="0.75" stroke-miterlimit="10"/>
<path d="M80.5 78.07C80.66 77.27 81.83 75.46 81.67 74.72C80.68 70.12 77.61 66.26 75.58 62.52C75.72 60.86 75.51 59.55 75.39 58.2C75.35 57.7 74.44 56.43 74.18 56.53C73.47 56.82 72.49 57.79 72.4 58.41C72.23 59.51 72.92 60.74 73.05 61.73C72.36 62.99 71.01 63.91 70.62 65.11C69.77 67.72 69.17 70.43 68.48 73.09C68.19 74.21 68.61 75.19 69.79 76.07C70.19 76.37 70.46 77.25 70.49 77.79" fill="#D07850"/>
<path d="M46.48 12.15C46.59 11.75 46.71 11.35 46.82 10.95C46.96 10.42 46.93 9.93 46.37 9.62C45.84 9.32 45.28 9.42 44.81 9.73C44.25 10.1 43.76 10.56 43.52 11.17C43.17 12.06 42.72 11.78 42.27 11.28C41.83 10.8 41.43 10.28 41.01 9.78C40.67 9.38 40.64 8.45 39.62 9.35C39.29 9.64 38.36 8.94 37.83 8.51C36.64 7.56 34.27 7.11 33.21 8.1C33.29 7.21 33.8 6.74 34.87 6.95C36.02 7.17 37.38 6.86 38.26 8C38.46 8.26 39.11 8.66 39.68 8.26C40.39 7.76 40.75 8.13 41.05 8.69C41.19 8.95 41.3 9.23 41.46 9.48C42.47 11.06 42.52 11.06 43.86 9.78C44.65 9.02 45.59 8.59 46.68 9.19C47.54 9.66 47.49 10.99 46.48 12.15Z" stroke="#C9A0B0" stroke-miterlimit="10"/>
<path d="M108.29 47.88C107.45 47.87 107.4 48.04 106.72 47.5C106.04 46.96 105.04 47.66 104.7 47.01C104.36 46.36 104.71 46.45 103.92 46.25C103.13 46.05 102.92 45.35 102.84 45.99C102.76 46.63 103.28 47.89 103.48 48.32C103.67 48.74 103.92 48.99 103.69 49.22C103.46 49.45 103.61 50.05 102.59 49.57C101.57 49.09 101.86 48.99 101.1 49.26C100.33 49.54 99.33 50.08 98.97 50.07C98.61 50.06 98.16 49.95 98.23 50.63C98.3 51.31 98.6 52.61 98.6 52.61C98.6 52.61 97.59 54.07 96.93 54C96.26 53.93 95.37 54.66 95.6 53.68C95.83 52.7 96.45 50.96 95.99 50.56C95.53 50.16 95.53 49.6 94.47 49.63C93.41 49.66 91.04 49.65 90.65 48.8C90.27 47.95 89.45 47.66 89.75 46.46C90.05 45.26 89.95 45.23 90.72 45.14C91.49 45.04 92.33 44.87 92.55 44.64C92.77 44.41 93.79 44.19 93.57 43.14C93.35 42.09 93.23 41.78 92.52 41.33C91.81 40.87 90.8 41.1 90.9 40.37C91.01 39.64 91.35 38.12 91.13 37.59C90.91 37.07 88.86 36.38 88.49 36C88.12 35.63 88.46 32.5 89.29 30.91C90.12 29.32 88.71 29.73 88.16 29.46C87.61 29.18 86.28 27.79 85.77 28.84C85.26 29.89 84.11 32.09 83.9 32.11C83.7 32.13 83.54 32.31 83.1 33.05C82.66 33.79 81.15 33.78 81 34.38C80.85 34.98 81.03 37.22 81.04 37.72C81.05 38.22 81.67 38.67 80.9 38.86C80.13 39.05 79.55 39.34 79.55 39.34C79.55 39.34 78.09 38.73 77.55 39.26C77 39.79 76.58 40.53 76.14 40.57C75.7 40.6 74.92 40.7 74.55 40.18C74.19 39.67 73.73 39.48 73.53 39.08C73.33 38.68 73.35 38.49 72.72 38.08C72.09 37.67 71.98 37.37 72.03 36.71C71.96 35.45 72.36 30.2 70.86 30.36C70.21 30.56 69.54 30.96 69.27 31.32C69.01 31.68 68.31 32.43 67.56 32.04C66.81 31.64 66.58 31.59 66.13 31.13C65.67 30.67 64.64 30.56 64.19 30.59C63.75 30.62 63.78 30.77 62.34 30.42C60.9 30.07 60.88 30.14 60.76 29.61C60.64 29.08 59.59 28.48 59.59 28.48C59.59 28.48 59.61 27.64 59.7 26.65" stroke="#C9A0B0" stroke-linecap="round" stroke-linejoin="round"/>
<path d="M108.93 47.3C108.09 47.29 108.04 47.46 107.36 46.92C106.68 46.38 105.68 47.08 105.34 46.43C105 45.78 105.35 45.87 104.56 45.67C103.77 45.47 103.56 44.77 103.48 45.41C103.4 46.05 103.93 47.31 104.12 47.74C104.31 48.16 104.56 48.41 104.33 48.64C104.1 48.87 104.25 49.47 103.23 48.99C102.21 48.51 102.5 48.41 101.74 48.68C100.97 48.96 99.97 49.5 99.61 49.49C99.24 49.48 98.8 49.37 98.87 50.05C98.94 50.73 99.24 52.03 99.24 52.03C99.24 52.03 98.23 53.49 97.57 53.42C96.9 53.35 96.01 54.08 96.24 53.1C96.47 52.12 97.09 50.38 96.62 49.98C96.16 49.58 96.16 49.02 95.1 49.05C94.04 49.08 91.67 49.07 91.28 48.22C90.9 47.37 90.08 47.08 90.38 45.88C90.68 44.68 90.58 44.65 91.35 44.56C92.12 44.47 92.96 44.29 93.18 44.06C93.41 43.83 94.42 43.61 94.2 42.56C93.98 41.51 93.86 41.2 93.15 40.75C92.44 40.29 91.43 40.52 91.53 39.79C91.64 39.06 91.98 37.54 91.76 37.01C91.54 36.49 89.49 35.8 89.12 35.42C88.75 35.04 89.09 31.92 89.92 30.33C90.75 28.74 89.34 29.15 88.79 28.88C88.24 28.6 86.91 27.21 86.4 28.26C85.89 29.31 84.74 31.51 84.53 31.53C84.33 31.55 84.17 31.73 83.73 32.47C83.29 33.21 81.78 33.2 81.63 33.8C81.48 34.4 81.66 36.64 81.67 37.14C81.68 37.64 82.3 38.09 81.53 38.28C80.76 38.47 80.18 38.76 80.18 38.76C80.18 38.76 78.72 38.15 78.18 38.68C77.63 39.21 77.21 39.95 76.77 39.99C76.33 40.02 75.55 40.12 75.18 39.6C74.82 39.09 74.36 38.9 74.16 38.5C73.96 38.1 73.98 37.91 73.35 37.5C72.72 37.09 72.61 36.79 72.66 36.13C72.59 34.87 72.99 29.62 71.49 29.78C70.84 29.98 70.17 30.38 69.9 30.74C69.63 31.1 68.94 31.85 68.19 31.46C67.44 31.06 67.21 31.01 66.76 30.55C66.3 30.09 65.27 29.98 64.82 30.01C64.38 30.04 64.41 30.19 62.97 29.84C61.53 29.49 61.51 29.56 61.39 29.03C61.27 28.5 60.22 27.9 60.22 27.9C60.22 27.9 60.24 27.06 60.33 26.07" stroke="#C9A0B0" stroke-linecap="round" stroke-linejoin="round"/>
<path d="M96.19 36.66C95.93 36.46 95.57 36.28 95.46 36.05C95.41 35.94 95.83 35.75 96.04 35.6C96.15 35.61 96.25 35.62 96.36 35.63C96.46 35.93 96.56 36.23 96.66 36.53C96.5 36.57 96.35 36.61 96.19 36.66Z" stroke="#C9A0B0" stroke-width="0.5" stroke-miterlimit="10" stroke-linecap="round" stroke-linejoin="round"/>
<path d="M96.61 45.82C95.53 45.15 96.05 44.31 98.1 43.13C98.72 44.28 96.34 44.78 96.61 45.82Z" stroke="#C9A0B0" stroke-width="0.5" stroke-miterlimit="10" stroke-linecap="round" stroke-linejoin="round"/>
<path d="M75.08 27.79C74.82 27.59 74.46 27.41 74.35 27.18C74.3 27.07 74.72 26.88 74.93 26.73C75.04 26.74 75.14 26.75 75.25 26.76C75.35 27.06 75.45 27.36 75.55 27.66C75.4 27.7 75.24 27.75 75.08 27.79Z" stroke="#C9A0B0" stroke-width="0.5" stroke-miterlimit="10" stroke-linecap="round" stroke-linejoin="round"/>
<path d="M75.5 36.94C74.42 36.27 74.94 35.43 76.99 34.25C77.62 35.41 75.24 35.9 75.5 36.94Z" stroke="#C9A0B0" stroke-width="0.5" stroke-miterlimit="10" stroke-linecap="round" stroke-linejoin="round"/>
<path d="M78.71 28.8C79.09 28.53 79.45 28.14 79.84 28.06C80.04 28.02 80.28 28.55 80.51 28.83C80.47 28.95 80.44 29.08 80.4 29.2C79.88 29.26 79.37 29.32 78.85 29.39C78.81 29.19 78.76 29 78.71 28.8Z" stroke="#C9A0B0" stroke-width="0.5" stroke-miterlimit="10" stroke-linecap="round" stroke-linejoin="round"/>
<path d="M66.44 27.37C66.83 25.87 67.32 26.39 68 28.85C67.33 29.85 67.04 26.86 66.44 27.37Z" stroke="#C9A0B0" stroke-width="0.5" stroke-miterlimit="10" stroke-linecap="round" stroke-linejoin="round"/>
<path d="M49.01 67.77C49.01 71.11 49.09 71.11 49.09 74.46C49.09 77.8 48.52 77.8 48.52 81.15" stroke="#C9A0B0" stroke-width="0.75" stroke-miterlimit="10"/>
<path d="M55.34 57.64C55.49 61.12 55.55 64.6 55.72 68.08C55.77 69.07 55.87 70.06 55.87 71.06C55.87 71.75 55.85 73.9 55.85 74.61" stroke="#C9A0B0" stroke-width="0.5" stroke-miterlimit="10"/>
<path d="M66.6 52.89C65.21 51.51 63.19 50.95 61.03 51.35C60.17 51.51 59.75 51.79 59.82 52.63C59.85 52.96 60.08 53.57 59.46 53.57C58.97 53.56 59.14 52.98 59.13 52.64C59.11 51.96 59.13 51.28 59.11 50.6C59.1 50.3 59.2 49.92 58.76 49.79C58.27 49.65 58.15 50.07 57.93 50.33C57.48 50.86 57.3 51.51 57.04 52.11C56.27 53.9 55.24 55.61 55.32 57.64" stroke="#C9A0B0" stroke-width="0.5" stroke-miterlimit="10"/>
<path d="M70.81 49.65C70.81 50.01 70.74 50.38 70.62 50.75C70.52 51.04 70.38 51.29 70.01 51.34C69.01 51.48 67.98 52.08 67.4 52.75" stroke="#C9A0B0" stroke-width="0.5" stroke-miterlimit="10"/>
<path d="M73.47 39.07C73.48 39.43 73.35 39.77 73.17 40.08C72.95 40.45 72.79 40.87 72.48 41.2C72.35 41.35 72.27 41.52 72.24 41.7" stroke="#C9A0B0" stroke-width="0.5" stroke-miterlimit="10"/>
<path d="M53.45 54.71C52.97 53.34 52.24 52.05 51.28 50.83C50.94 50.4 50.74 49.61 50.11 49.69C49.5 49.77 49.74 50.57 49.53 51.03C49.29 51.56 48.95 52.06 48.29 52.14C47.45 52.23 46.56 52.34 45.87 51.71C45.59 51.46 45.58 51.19 45.76 50.88C45.88 50.67 45.9 50.44 45.62 50.31C45.34 50.18 45.17 50.36 45 50.52C44.65 50.86 44.28 51.16 44.07 51.62C43.85 52.12 43.4 52.24 42.88 51.93C42.27 51.57 41.62 51.28 40.92 51.05C40.06 50.77 39.84 49.52 40.47 48.88C41.04 48.31 41.1 47.53 40.65 46.89C40.4 46.54 40.13 46.64 39.91 46.88C39.58 47.24 39.31 47.64 39 48.01C38.51 48.6 38.06 48.56 37.71 47.89C37.49 47.48 37.44 47.05 37.61 46.61C37.75 46.25 37.9 45.88 37.97 45.5C38.1 44.78 37.63 44.28 36.85 44.38C36.23 44.46 36.19 44.21 36.18 43.8C36.16 42.64 36.41 41.56 37.17 40.6C37.42 40.29 37.62 39.95 37.84 39.61C38.48 38.59 38.67 37.58 37.88 36.52C37.42 35.89 37.38 35.26 38.05 34.59C38.89 33.75 38.76 32.96 37.85 32.13C37.56 31.86 37.33 31.58 37.16 31.27" stroke="#C9A0B0" stroke-width="0.5" stroke-miterlimit="10"/>
<path d="M52.86 76.85C52.86 76.85 53.6 74.51 53.69 74.17C53.78 73.83 53.78 71.06 53.79 70.1C53.81 66.23 54.21 62.36 54.12 58.49C54.09 57.18 53.87 55.92 53.44 54.71" stroke="#C9A0B0" stroke-width="0.5" stroke-miterlimit="10"/>
<path d="M43.32 45.55C43.06 45.35 42.7 45.17 42.59 44.94C42.54 44.83 42.96 44.64 43.17 44.49C43.28 44.5 43.38 44.51 43.49 44.52C43.59 44.82 43.69 45.12 43.79 45.42C43.64 45.46 43.48 45.51 43.32 45.55Z" stroke="#C9A0B0" stroke-width="0.5" stroke-miterlimit="10" stroke-linecap="round" stroke-linejoin="round"/>
<path d="M68.79 39.86C68.53 39.66 68.17 39.48 68.06 39.25C68.01 39.14 68.43 38.95 68.64 38.8C68.75 38.81 68.85 38.82 68.96 38.83C69.06 39.13 69.16 39.43 69.26 39.73C69.11 39.78 68.95 39.82 68.79 39.86Z" stroke="#C9A0B0" stroke-width="0.5" stroke-miterlimit="10" stroke-linecap="round" stroke-linejoin="round"/>
<path d="M45.15 42.89C45.53 42.62 45.89 42.23 46.28 42.15C46.48 42.11 46.72 42.64 46.95 42.92C46.91 43.04 46.88 43.17 46.84 43.29C46.32 43.35 45.81 43.41 45.29 43.48C45.24 43.27 45.2 43.08 45.15 42.89Z" stroke="#C9A0B0" stroke-width="0.5" stroke-miterlimit="10" stroke-linecap="round" stroke-linejoin="round"/>
<path d="M155.03 71.17C152.99 66.55 149.54 73.36 149.01 68.98C148.38 69.74 147.79 69.78 147.26 69.68C145.31 69.42 143.77 68.74 142.66 69.25C142.42 68.19 143.02 67.96 144.55 68.44C145.48 68.86 147.04 69.29 148.85 68.49C149.19 68.03 149.85 68.23 149.98 68.94C150.05 70.08 150.71 69.59 151.34 69.4C152.77 68.88 154.13 68.56 154.86 69.73C155.61 70 155.96 69.99 155.8 69.9C158.04 69.51 158.7 70.58 158.53 71.56C158.1 71.32 157.19 69.17 155.03 71.17Z" fill="#C9A0B0"/>
<path d="M132.42 67.35C135.39 63.65 136.1 71.12 137.78 67.15C138.06 68.07 138.51 68.29 138.95 68.35C140.57 68.72 141.98 68.55 142.68 69.37C143.2 68.46 142.79 68.05 141.43 68.03C140.59 68.15 139.24 68.07 138.04 66.75C137.92 66.22 137.34 66.21 137.02 66.82C136.65 67.88 136.27 67.21 135.82 66.84C134.87 65.92 133.89 65.2 132.97 66.07C132.32 66.1 132.04 65.98 132.18 65.94C130.56 64.89 129.72 65.69 129.55 66.66C129.98 66.55 131.32 64.81 132.42 67.35Z" fill="#C9A0B0"/>
<path d="M157.29 71.24C157.82 71.19 157.82 71.12 158.35 71.26C158.88 71.4 159.38 71.09 159.71 71.29C160.04 71.49 159.8 71.48 160.33 71.49C160.86 71.5 161.12 71.73 161.06 71.5C161 71.28 160.45 70.89 160.25 70.75C160.05 70.62 159.86 70.55 159.96 70.46C160.06 70.37 159.87 70.17 160.59 70.27C161.32 70.36 161.15 70.42 161.58 70.27C162.01 70.12 162.55 69.87 162.78 69.85C163.01 69.83 163.31 69.83 163.15 69.61C162.99 69.38 162.57 68.96 162.57 68.96C162.57 68.96 162.95 68.4 163.38 68.37C163.81 68.35 164.25 68.04 164.27 68.39C164.29 68.74 164.21 69.37 164.57 69.47C164.93 69.57 165.03 69.76 165.69 69.68C166.36 69.6 167.85 69.44 168.24 69.7C168.63 69.96 169.19 70 169.22 70.43C169.24 70.86 169.31 70.86 168.84 70.95C168.37 71.04 167.87 71.15 167.77 71.25C167.67 71.35 167.07 71.49 167.39 71.83C167.71 72.17 167.84 72.27 168.37 72.37C168.9 72.47 169.5 72.33 169.56 72.58C169.62 72.83 169.67 73.37 169.9 73.54C170.13 73.7 171.55 73.8 171.84 73.9C172.13 74 172.48 75.09 172.23 75.68C171.98 76.27 172.8 76.04 173.2 76.1C173.6 76.16 174.68 76.54 174.82 76.15C174.96 75.76 175.3 74.93 175.42 74.91C175.54 74.89 175.61 74.82 175.76 74.54C175.91 74.26 176.86 74.16 176.85 73.94C176.84 73.73 176.34 72.98 176.24 72.81C176.14 72.64 175.68 72.53 176.13 72.41C176.58 72.29 176.9 72.16 176.9 72.16C176.9 72.16 177.93 72.27 178.18 72.05C178.43 71.83 178.57 71.55 178.84 71.51C179.54 71.33 180.15 71.59 180.75 71.83C180.95 71.95 180.97 72.02 181.44 72.11C181.91 72.21 182.03 72.3 182.11 72.53C182.31 72.95 182.88 74.01 183.18 74.28C183.18 74.28 183.58 74.72 183.96 74.6C184.34 74.49 184.69 74.31 184.79 74.17C184.89 74.03 185.2 73.73 185.74 73.81C186.28 73.89 186.43 73.9 186.8 74.02C187.17 74.14 187.84 74.11 188.12 74.07C188.39 74.03 188.35 73.98 189.32 74C190.29 74.02 190.29 74 190.46 74.17C190.63 74.34 191.4 74.47 191.4 74.47C191.4 74.47 191.54 74.76 191.65 75.1" stroke="#C9A0B0" stroke-miterlimit="10"/>
<path d="M127.85 85.78C127.19 80.82 121.94 86.6 122.65 82.25C121.84 82.83 121.26 82.72 120.76 82.52C118.96 81.8 117.66 80.78 116.44 81.03C116.52 79.93 117.16 79.85 118.49 80.69C119.29 81.3 120.67 82.08 122.63 81.75C123.11 81.37 123.68 81.72 123.6 82.44C123.36 83.54 124.14 83.22 124.78 83.21C126.32 83.03 127.73 83.04 128.08 84.36C128.74 84.79 129.09 84.85 128.94 84.75C131.23 84.88 131.56 86.07 131.11 86.99C130.79 86.63 130.52 84.33 127.85 85.78Z" fill="#C9A0B0"/>
<path d="M127.85 85.78C127.19 80.82 121.94 86.6 122.65 82.25C121.84 82.83 121.26 82.72 120.76 82.52C118.96 81.8 117.66 80.78 116.44 81.03C116.52 79.93 117.16 79.85 118.49 80.69C119.29 81.3 120.67 82.08 122.63 81.75C123.11 81.37 123.68 81.72 123.6 82.44C123.36 83.54 124.14 83.22 124.78 83.21C126.32 83.03 127.73 83.04 128.08 84.36C128.74 84.79 129.09 84.85 128.94 84.75C131.23 84.88 131.56 86.07 131.11 86.99C130.79 86.63 130.52 84.33 127.85 85.78Z" stroke="#C9A0B0" stroke-width="0.25" stroke-linejoin="round"/>
<path d="M39.01 89.39C43.56 90.87 39.98 84.7 43.58 86.93C43.32 86.11 43.57 85.72 43.88 85.42C45.04 84.37 46.3 83.82 46.41 82.81C47.37 83.3 47.26 83.82 46.12 84.46C45.37 84.81 44.29 85.53 44.02 87.11C44.23 87.62 43.76 87.9 43.14 87.55C42.25 86.94 42.32 87.64 42.13 88.12C41.87 89.33 41.46 90.37 40.19 90.11C39.65 90.43 39.49 90.66 39.61 90.59C38.86 92.23 37.72 92.01 37.03 91.31C37.45 91.23 39.54 91.94 39.01 89.39Z" fill="#C9A0B0"/>
<path d="M39.01 89.39C43.56 90.87 39.98 84.7 43.58 86.93C43.32 86.11 43.57 85.72 43.88 85.42C45.04 84.37 46.3 83.82 46.41 82.81C47.37 83.3 47.26 83.82 46.12 84.46C45.37 84.81 44.29 85.53 44.02 87.11C44.23 87.62 43.76 87.9 43.14 87.55C42.25 86.94 42.32 87.64 42.13 88.12C41.87 89.33 41.46 90.37 40.19 90.11C39.65 90.43 39.49 90.66 39.61 90.59C38.86 92.23 37.72 92.01 37.03 91.31C37.45 91.23 39.54 91.94 39.01 89.39Z" stroke="#C9A0B0" stroke-width="0.25" stroke-linejoin="round"/>
<path d="M48.76 80.33C53.93 81.34 50.16 75.26 54.18 77.18C53.93 76.35 54.24 75.91 54.62 75.55C56.02 74.31 57.51 73.57 57.69 72.49C58.77 72.9 58.61 73.45 57.26 74.27C56.38 74.74 55.09 75.62 54.68 77.32C54.9 77.83 54.34 78.2 53.63 77.89C52.65 77.36 52.68 78.1 52.44 78.62C52.07 79.94 51.54 81.08 50.08 80.96C49.43 81.37 49.24 81.63 49.38 81.54C48.42 83.37 47.12 83.28 46.36 82.62C46.85 82.47 49.22 82.97 48.76 80.33Z" fill="#C9A0B0"/>
<path d="M29.19 97.57C33.73 99.07 30.19 92.88 33.77 95.13C33.51 94.31 33.77 93.92 34.08 93.63C35.24 92.59 36.51 92.04 36.62 91.03C37.57 91.53 37.46 92.04 36.32 92.68C35.57 93.03 34.49 93.74 34.2 95.32C34.41 95.83 33.94 96.11 33.31 95.76C32.43 95.15 32.49 95.85 32.3 96.33C32.03 97.54 31.62 98.58 30.35 98.31C29.8 98.63 29.64 98.86 29.76 98.79C29 100.43 27.86 100.2 27.17 99.5C27.61 99.4 29.7 100.12 29.19 97.57Z" fill="#C9A0B0"/>
<path d="M29.19 97.57C33.73 99.07 30.19 92.88 33.77 95.13C33.51 94.31 33.77 93.92 34.08 93.63C35.24 92.59 36.51 92.04 36.62 91.03C37.57 91.53 37.46 92.04 36.32 92.68C35.57 93.03 34.49 93.74 34.2 95.32C34.41 95.83 33.94 96.11 33.31 95.76C32.43 95.15 32.49 95.85 32.3 96.33C32.03 97.54 31.62 98.58 30.35 98.31C29.8 98.63 29.64 98.86 29.76 98.79C29.01 100.43 27.86 100.2 27.17 99.5C27.61 99.4 29.7 100.12 29.19 97.57Z" stroke="#C9A0B0" stroke-width="0.25" stroke-linejoin="round"/>
<path d="M142.29 92.08C141.63 87.12 136.38 92.9 137.09 88.55C136.28 89.13 135.7 89.02 135.2 88.82C133.4 88.1 132.1 87.08 130.88 87.33C130.96 86.23 131.6 86.15 132.93 86.99C133.73 87.6 135.11 88.38 137.07 88.05C137.55 87.67 138.12 88.02 138.04 88.74C137.8 89.84 138.58 89.52 139.22 89.51C140.76 89.33 142.17 89.34 142.52 90.66C143.18 91.09 143.53 91.15 143.38 91.05C145.67 91.18 146 92.37 145.55 93.29C145.23 92.93 144.96 90.64 142.29 92.08Z" fill="#C9A0B0"/>
<path d="M142.29 92.08C141.63 87.12 136.38 92.9 137.09 88.55C136.28 89.13 135.7 89.02 135.2 88.82C133.4 88.1 132.1 87.08 130.88 87.33C130.96 86.23 131.6 86.15 132.93 86.99C133.73 87.6 135.11 88.38 137.07 88.05C137.55 87.67 138.12 88.02 138.04 88.74C137.8 89.84 138.58 89.52 139.22 89.51C140.76 89.33 142.17 89.34 142.52 90.66C143.18 91.09 143.53 91.15 143.38 91.05C145.67 91.18 146 92.37 145.55 93.29C145.23 92.93 144.96 90.64 142.29 92.08Z" stroke="#C9A0B0" stroke-width="0.25" stroke-linejoin="round"/>
<path d="M33.38 112.96C33.61 112.94 33.76 112.92 33.94 112.91C33.87 112.71 33.8 112.51 33.69 112.23C34.2 112.42 34.65 112.55 35.05 112.75C35.17 112.81 35.27 113.12 35.21 113.25C35 113.66 33.72 113.67 33.46 113.29C33.42 113.22 33.42 113.12 33.38 112.96Z" fill="#C9A0B0"/>
<path d="M90.54 104.97C90.77 104.95 90.92 104.93 91.1 104.92C91.03 104.72 90.96 104.52 90.85 104.24C91.36 104.43 91.81 104.56 92.21 104.76C92.33 104.82 92.43 105.13 92.37 105.26C92.16 105.67 90.88 105.68 90.62 105.3C90.57 105.22 90.57 105.13 90.54 104.97Z" fill="#C9A0B0"/>
<path d="M71.93 109.45C72.16 109.43 72.31 109.41 72.49 109.4C72.42 109.2 72.35 109 72.24 108.72C72.75 108.91 73.2 109.04 73.6 109.24C73.72 109.3 73.82 109.61 73.76 109.74C73.55 110.15 72.27 110.16 72.01 109.78C71.97 109.7 71.97 109.6 71.93 109.45Z" fill="#C9A0B0"/>
<path d="M82.87 112.3C83.1 112.28 83.25 112.26 83.43 112.25C83.36 112.05 83.29 111.85 83.18 111.57C83.69 111.76 84.14 111.89 84.54 112.09C84.66 112.15 84.76 112.46 84.7 112.59C84.49 113 83.21 113.01 82.95 112.63C82.91 112.55 82.91 112.45 82.87 112.3Z" fill="#C9A0B0"/>
<path d="M109.62 117.9C109.85 117.88 110 117.86 110.18 117.85C110.11 117.65 110.04 117.45 109.93 117.17C110.44 117.36 110.89 117.49 111.29 117.69C111.41 117.75 111.51 118.06 111.45 118.19C111.24 118.6 109.96 118.61 109.7 118.23C109.66 118.15 109.66 118.06 109.62 117.9Z" fill="#C9A0B0"/>
<path d="M142.09 111.63C142.32 111.61 142.47 111.59 142.65 111.58C142.58 111.38 142.51 111.18 142.4 110.9C142.91 111.09 143.36 111.22 143.76 111.42C143.88 111.48 143.98 111.79 143.92 111.92C143.71 112.33 142.43 112.34 142.17 111.96C142.13 111.88 142.13 111.79 142.09 111.63Z" fill="#C9A0B0"/>
<path d="M147.85 103.28C148.08 103.26 148.23 103.24 148.41 103.23C148.34 103.03 148.27 102.83 148.16 102.55C148.67 102.74 149.12 102.87 149.52 103.07C149.64 103.13 149.74 103.44 149.68 103.57C149.47 103.98 148.19 103.99 147.93 103.61C147.89 103.53 147.89 103.43 147.85 103.28Z" fill="#C9A0B0"/>
<path d="M172.28 56.45C171.98 52.54 171.38 51.12 171.53 47.43C171.68 43.74 172.28 39.43 172.28 35.42C172.28 31.41 172.16 28.85 171.92 27.66C171.68 26.47 171.51 21.06 171.51 21.06V19.51L169.68 20.77L169.85 53.54C169.85 53.54 169.82 57.86 169.81 59.28C169.8 60.7 172.58 60.36 172.28 56.45Z" fill="#C9A0B0"/>
<path d="M59.69 26.63L58.27 23.5C58.27 23.5 57.56 21.9 56.12 22.96C54.94 23.83 53.78 21.11 53.44 20.97C53.11 20.84 52.45 20.22 52.45 20.22C52.45 20.22 49.91 19.54 50.2 19C50.49 18.45 51.79 17.7 51.79 17.22C51.79 16.94 51.38 16.54 50.6 16.2C49.83 15.86 48.44 15.09 48.44 15.09L48.75 13.06L48.44 11.49" stroke="#C9A0B0" stroke-miterlimit="10" stroke-linecap="round" stroke-linejoin="round"/>
<path d="M40.72 26.18L41.81 29.4" stroke="#C9A0B0" stroke-width="0.75" stroke-miterlimit="10"/>
<path d="M40.07 49.36L44.21 49.81L48.44 49.74L52.66 49.21L56.89 49.58L61.12 50.07L65.35 49.57L69.59 49.79L73.82 49.41L78.05 49.44L82.28 49.81L86.52 50.07L90.76 49.67L86.83 47.29L82.36 46.18L78.18 44.4L74.14 42.23L69.8 40.85L65.37 39.85L61.27 39.4L57.18 39.44L53.51 41.37L50.27 43.69L46.75 45.53L43.34 47.56L40.07 49.36Z" stroke="#C9A0B0" stroke-miterlimit="10" stroke-linecap="round" stroke-linejoin="round"/>
<path d="M67.68 49.65C67.68 49.65 66.72 49.3 67.68 55.08C68.64 60.86 69.44 63.89 69.44 66.59C69.44 69.29 69.44 69.63 69.44 69.63" stroke="#C9A0B0" stroke-width="0.8" stroke-miterlimit="10" stroke-linecap="round" stroke-linejoin="round"/>
<path d="M65.93 49.79C65.93 49.79 66.21 49.27 66.81 55.07C67.41 60.87 68.03 63.93 67.86 66.63C67.69 69.33 67.15 78.13 67.15 78.13" stroke="#C9A0B0" stroke-width="0.8" stroke-miterlimit="10" stroke-linecap="round" stroke-linejoin="round"/>
<path d="M50.11 49.69C50.11 49.69 52.67 47.51 52.86 47.17C53.05 46.83 56.72 43.42 57.54 42.81C58.36 42.2 60.97 39.87 60.97 39.87C60.97 39.87 61.54 40.8 63.36 41.7C65.18 42.6 67.45 43.66 67.89 44.49C68.33 45.33 70 46.55 70.81 47.37C71.62 48.19 73.21 49.65 73.21 49.65" stroke="#C9A0B0" stroke-width="0.8" stroke-miterlimit="10" stroke-linecap="round" stroke-linejoin="round"/>
</g>
<defs>
<clipPath id="clip0_5868_77">
<rect width="192" height="124" fill="white"/>
</clipPath>
</defs>
</svg>
