<svg width="245" height="151" viewBox="0 0 245 151" fill="none" xmlns="http://www.w3.org/2000/svg">
<g clip-path="url(#clip0_5398_8969)">
<path d="M44.3398 71.231C44.5698 71.061 44.4898 71.391 44.3098 71.291C44.4198 71.271 44.4298 71.291 44.3498 71.341C44.3498 71.301 44.3398 71.271 44.3398 71.231ZM181.58 94.641C181.4 94.661 181.23 94.671 181.05 94.661C181.23 94.721 181.41 94.701 181.59 94.651C181.79 95.621 182.86 94.831 181.58 94.641ZM147.09 85.701C147.91 86.001 147.78 85.361 147.05 85.731C147.01 85.351 146.69 85.171 146.37 85.381C146.54 85.591 146.84 85.601 147.09 85.701ZM158.05 88.941C158.34 88.941 158.63 88.941 159 88.941C158.62 88.741 158.33 88.871 158.04 88.941C157.96 88.541 157.64 88.441 157.28 88.531C157.47 88.781 157.78 88.811 158.05 88.941ZM134.12 84.241L134.19 84.161L134.07 84.241C133.57 83.861 133.57 83.861 133.11 84.081C133.47 84.141 133.79 84.191 134.12 84.241ZM162.73 92.831C162.33 92.831 161.93 92.831 161.53 92.831C161.95 93.051 162.35 92.981 162.74 92.831C164.59 94.541 165.04 93.031 162.73 92.831ZM181.48 101.381C181.73 101.381 182.01 101.421 182.24 101.401C182.24 101.121 181.69 101.391 181.47 101.371C180.39 100.011 178.33 101.121 181.48 101.381ZM158.28 89.791L158.3 89.851C157.65 89.491 156.65 89.141 156.04 89.451C156.52 90.041 157.58 89.801 158.28 89.791ZM41.5998 73.281C40.2798 73.251 38.9898 73.861 38.0298 74.971C25.8398 80.001 13.6598 87.521 2.94979 94.991C10.5098 91.901 17.6598 85.541 25.4698 82.061C29.1098 79.491 34.2598 78.391 37.1898 75.151C37.5098 75.311 37.7698 75.201 37.9898 74.941C39.3198 74.751 40.4298 73.841 41.6198 73.241L41.5598 73.161L41.5998 73.281ZM160.73 90.381C160.54 90.351 160.36 90.341 160.18 90.411C160.39 90.481 160.58 90.451 160.77 90.361C161.78 91.221 162.65 91.401 163.85 90.991C162.87 90.381 161.75 90.841 160.73 90.381ZM203.07 98.811L203.14 98.731L203.02 98.811C201.94 98.381 200.45 97.761 199.4 97.941C200.25 98.761 201.92 98.451 203.07 98.811ZM188.41 98.171C190.51 98.161 185.91 97.221 185.37 97.361C183.98 98.291 187.89 99.131 188.43 98.171C188.42 98.161 188.41 98.171 188.41 98.171ZM151.25 93.561C151.75 93.531 152.26 93.841 152.88 93.541C152.23 93.371 151.72 93.361 151.21 93.581C150.46 92.801 145.04 91.571 144.42 92.341C146.52 93.081 149.02 93.011 151.25 93.561ZM175.71 97.771C175.75 97.761 175.78 97.741 175.82 97.731C175.77 97.751 175.72 97.771 175.67 97.791C173.82 96.151 170.49 96.481 168.29 96.391C170.56 97.461 173.26 97.241 175.71 97.771ZM121.81 122.931L121.86 122.901L121.79 122.991C122.15 120.021 116.44 116.801 115.14 120.091C115.14 120.331 115.35 120.371 115.49 120.341C118.08 119.771 119.66 122.071 121.81 122.931ZM170.52 100.801C171.55 100.871 179.45 101.831 175.61 99.971C173.44 98.971 170.25 100.451 168.63 98.771C168.42 98.241 167.6 98.221 167.29 98.661C167.03 100.071 169.66 100.171 170.58 100.841C169.63 100.921 168.19 100.181 167.48 100.801C168.35 101.691 170.36 101.151 171.86 101.521C171.26 101.201 170.89 101.001 170.52 100.801ZM126.91 68.301H126.93C127.38 66.531 139.34 68.291 138.75 66.871C133.66 62.841 114.94 71.591 128.95 68.221C128.06 68.101 127.48 68.091 126.91 68.301ZM197.55 115.901C197.28 115.241 197.78 114.291 196.89 113.881C196.8 113.841 196.86 113.711 197 113.661C197.63 113.441 197.59 112.951 197.47 112.381C196.72 109.261 197.49 106.041 197.09 102.881C197.82 101.461 191 100.311 191.48 101.851C191.9 103.511 190.03 114.451 192.31 112.871V112.861C192.11 113.211 192.66 113.941 191.8 113.961C190.96 114.111 191.41 117.521 190.13 116.141C190.12 115.351 189.82 114.951 189.04 115.201C187.89 115.051 187.31 115.571 186.05 115.341C185.67 115.481 185.35 115.541 185.37 116.121C185.39 116.721 184.77 117.041 184.73 117.701C184.67 118.751 184.61 118.741 183.85 118.101C182.6 117.511 183.77 113.851 182.99 113.551C182.82 113.481 182.75 113.241 182.9 113.151C183.55 112.761 183.54 112.121 183.53 111.461C184 108.631 179.49 110.421 181.81 109.141C180.78 108.521 179.16 108.631 179.08 110.161C179.15 110.711 178.71 112.111 179.43 112.191C180.11 111.911 180.65 112.561 181.31 112.451C181.9 112.581 181.37 113.641 180.84 113.581C180.36 113.701 178.92 113.861 179.05 115.421C179.07 116.521 180.12 115.711 180.55 116.091C180.64 116.281 180.51 116.461 180.35 116.441C178.6 116.091 179.23 118.701 177.62 119.031C176.58 116.201 176.51 116.031 176.79 115.571C176.92 113.781 176.9 111.761 176.72 109.931C174.74 108.131 170.97 108.611 168.44 107.861C164.84 106.801 167.71 120.801 169.56 126.391C169.88 127.351 174.46 127.931 174.73 128.811C173.89 128.781 173.47 129.761 174.08 130.281C175.07 129.071 180.01 127.951 180.61 130.301C181.51 132.691 185.12 130.851 183.74 134.671C185.26 136.181 189.19 134.791 191.5 135.241C192.43 135.341 193.11 133.361 192.31 132.901C191.1 132.671 189.15 130.751 188.21 131.561C188.24 132.351 188.06 133.281 189.08 133.581C189.44 133.791 190.17 134.111 190.03 134.631C189.82 135.121 189.48 134.801 189.23 134.641C188.35 134.261 187.22 134.441 187.14 133.131C187.39 131.811 185.96 132.481 186.26 133.441C186.57 134.031 186.13 134.521 185.58 134.101C184.94 133.921 184.78 135.301 184.13 134.851C183.84 134.611 184 134.321 184.18 134.081C187.62 129.551 188.49 130.311 193.14 132.291C194.91 132.841 196.52 131.271 198.33 131.981C199.83 132.241 201.32 133.561 202.83 132.831C202.06 133.661 203.02 134.631 202.72 135.461C202.65 135.521 202.46 135.581 202.44 135.541C201.96 134.881 200.98 134.781 200.8 133.791C200.46 133.121 199.36 133.741 198.96 134.131C197.84 138.061 202.99 135.751 204.99 136.391C205.2 136.511 205.42 136.271 205.39 136.011C205.47 134.451 203.95 133.831 203.45 132.511C203.68 132.251 203.91 131.941 204.19 132.471C206.08 135.831 204.97 130.751 205.56 129.641C205.82 133.481 206.3 137.381 206.93 140.801C205.96 141.871 207.66 143.231 208.03 142.121C207.65 137.151 207.1 132.461 206.76 127.361C206.22 125.381 207.87 120.571 205.68 119.961C205.21 120.151 205.31 120.961 205.71 121.281C205.85 121.471 206 121.681 205.79 121.891C204.81 123.631 205.77 125.891 205.27 127.831C205.41 125.551 204.6 124.871 202.29 124.371C204.37 124.521 205.4 124.421 204.51 122.271C202.47 121.871 200.02 121.551 197.82 122.031C194.7 122.911 191.02 121.251 188.06 122.851C187.68 123.071 187.45 122.281 187 122.251C185.85 121.901 184.63 122.501 183.68 122.371C182.49 121.181 180.76 122.391 179.6 121.241C179.88 120.951 179.95 120.651 180.17 120.271C181.2 121.641 183.28 120.671 184.57 119.931C186.89 118.031 189.99 118.041 192.81 118.181C195.84 117.871 198.77 117.061 201.77 116.841C202.42 116.351 202.45 114.871 201.85 114.211C201.54 113.901 201.8 113.911 201.97 113.801C203.45 112.751 200.94 112.371 202.88 109.781C202.29 111.541 203.59 113.231 202.78 114.671C201.93 115.981 202.83 117.151 204.25 116.351C205.38 113.041 204.28 108.111 204.19 104.291C204.29 102.431 202.3 102.701 201.02 102.591C200.44 102.551 199.83 102.041 199.29 102.431C198.26 106.191 198.52 110.781 198.8 114.791C199.02 115.621 198.18 115.771 197.55 115.901ZM49.4198 69.081C50.0698 77.621 48.6798 86.481 49.5798 95.141C49.9598 96.371 62.6498 95.541 64.4998 95.671C65.0998 95.551 70.9498 96.451 70.9498 96.451C73.8798 96.291 83.1798 96.311 83.6698 96.311C84.1598 96.311 88.3598 96.421 88.5798 96.421C88.7898 96.421 91.7898 96.371 92.3198 96.371C92.8498 96.371 94.1398 96.371 94.7298 96.321C95.3198 96.271 96.4598 96.471 96.4598 96.471C96.7698 96.681 97.1398 96.581 97.4998 95.901C97.8198 94.421 97.1098 92.091 98.3998 91.091C98.3998 91.091 99.1498 91.191 100.39 91.011C101.63 90.831 102.27 90.741 103.48 90.381C104.68 90.021 105.53 89.701 106.41 89.381C107.29 89.061 109.18 88.491 109.46 88.491C109.74 88.491 111.22 87.891 111.55 87.831C111.87 87.771 113.57 87.121 113.57 87.121C114.84 86.651 115.9 85.831 117.29 85.821C117.95 85.661 118.06 85.621 118.07 84.981C118.35 83.021 117.1 83.311 115.77 82.631C115.77 82.631 113.83 82.111 112.88 81.791C111.93 81.471 109.84 80.831 108.8 80.671C107.76 80.511 103.35 79.551 101.9 79.311C100.45 79.071 91.3098 77.141 90.3498 76.981C89.3898 76.821 82.9698 75.541 81.5298 75.141C80.0898 74.741 62.9998 71.531 61.1598 71.331C59.3198 71.131 55.1398 69.801 53.9398 69.701C52.6998 69.611 49.4198 69.081 49.4198 69.081ZM7.94979 110.311C8.25979 111.821 8.71979 112.911 9.38979 112.881L8.15979 113.221C8.15979 113.221 7.08979 112.851 6.97979 112.521C6.86979 112.201 7.30979 110.391 7.30979 110.391C7.87979 109.671 7.03979 103.781 6.91979 102.731C6.75979 101.341 2.52979 101.891 2.52979 101.891C2.02979 101.901 1.60979 101.821 1.24979 101.351C0.289789 99.261 0.179789 96.141 0.679789 93.921L0.649788 93.931C8.01979 90.841 14.6098 85.431 21.7698 81.691C30.1998 77.071 39.5098 73.431 47.2098 67.661C47.7898 66.661 48.2998 66.441 49.0198 67.481C68.0198 71.631 87.1598 76.161 106.4 79.341C112.54 80.951 118.71 82.041 124.99 80.981C126.41 80.391 126.9 78.121 128.04 76.971C130 78.141 126.2 79.261 126.52 80.861C126.58 82.701 127.79 81.871 128.06 80.711C128.07 79.511 133.87 75.911 133.2 78.201C132.27 79.041 127.83 80.931 129.63 82.201C131.09 81.861 132.5 81.161 134.05 81.621C136.28 78.901 137.99 74.531 141.05 71.971C139.12 70.541 129.41 74.931 127.76 77.481C127.09 77.111 125.41 78.711 125.64 77.241C128.27 72.891 133.33 71.561 137.41 69.101C137.7 68.971 137.66 68.531 137.3 68.531C130.65 67.601 124.29 71.001 118.14 72.031C122.51 65.551 134.79 62.541 141.87 66.521C145.27 68.811 141.17 63.521 140.23 62.751C138.52 60.111 135.65 59.351 133.26 57.791C124.9 52.361 132.66 56.111 136.77 58.481C137.06 58.641 137.66 59.051 137.94 59.281C143.36 63.561 143.91 63.711 148.38 52.811C149.54 49.991 148.8 57.471 147.84 57.791L147.88 57.771C147.88 57.911 147.88 58.061 147.88 58.201L147.84 58.181C148.61 59.301 146.95 59.421 147.37 60.521C147.5 60.981 147.38 61.591 146.81 61.851C146.57 61.961 146.55 62.181 146.62 62.441C146.98 63.841 144.99 64.511 145.93 65.961C146.65 68.831 149.47 64.751 151.22 64.621C153.09 64.151 155.36 64.081 156.76 62.611C156.94 62.621 157.49 62.881 157.39 62.541C154.04 62.981 163.97 59.141 163.88 61.291C160.68 63.651 155.2 63.871 151.49 66.311C150.82 66.541 149.78 67.501 151.14 67.491C155.89 67.791 159.75 69.481 162.85 72.671L162.88 72.631C158.63 71.791 153.9 68.391 149.45 70.391C155.34 73.541 158.16 83.221 151.47 74.521C152.27 74.451 152.67 75.891 153.36 75.521C153.17 73.731 149.49 70.981 148.17 71.591C149.41 72.491 150.87 73.081 151.53 74.581C142.02 68.481 147.44 75.161 147.92 81.151C147.38 85.101 149.96 84.981 153.01 85.981C153.84 86.241 154.57 85.341 155.23 86.331C155.39 86.531 155.71 86.611 155.97 86.661C170.15 89.541 184.13 93.051 198.25 95.921C201.28 96.801 204.56 96.731 207.51 97.601C208.28 97.871 208.38 97.841 208.44 97.021C208.22 95.871 210.18 95.031 208.92 94.151C208.45 92.771 211.59 92.701 210.53 91.361C209.61 89.631 211.44 90.011 212.24 90.881C214.06 92.151 215.77 88.991 217.6 89.461C217.39 90.471 215.62 90.741 215.1 91.741C215.22 93.211 218.85 91.931 218.8 93.811C218.09 94.251 214.11 92.151 214.62 94.141C215.13 94.831 215.77 95.491 215.85 96.391C215.29 98.091 213.3 92.721 212.42 96.661C211.87 97.721 210.83 111.151 212.39 107.051C212.8 107.741 213.13 108.331 213.96 108.001C214.41 107.941 215.49 108.581 215.02 109.061C213.51 109.111 214.34 110.261 213.46 110.431C212.94 110.341 213.05 109.311 212.45 109.151C211.13 108.681 211.99 110.871 211.31 111.291C210.33 111.091 210.86 109.281 210.15 108.621C210.12 107.341 211.19 100.691 208.9 101.801C208.65 102.181 208.9 103.111 208.2 102.921C207.64 102.681 208.24 101.791 208.18 101.301C208.47 100.361 207.63 100.681 207.1 100.311C206.92 99.951 207.33 99.701 207.58 99.521C208.43 98.431 205.62 97.651 205.61 99.211C206.01 101.941 204.92 113.491 207.03 114.081C217.54 111.491 228.44 111.691 239.26 111.991C241.08 111.401 238.57 109.111 238.98 108.121C240.43 107.001 239.17 105.921 238.61 104.791C238.2 104.431 238.68 103.151 239.04 103.951C239.12 104.211 239.03 104.871 239.42 104.811C240.48 104.351 240.21 105.491 240.79 105.991C241.34 104.661 240.93 101.701 243.2 102.901C243.8 104.041 243.63 105.731 243.62 107.021C243.45 108.581 242.34 110.231 242.33 111.631C243.15 112.341 242.15 112.481 241.77 112.941C241.05 114.051 240.9 114.271 240.18 112.991C238.65 111.611 206.15 111.981 215.06 114.511C214.55 114.771 214.02 114.601 213.73 115.061C213.56 115.331 213.37 115.261 213.26 114.981C212.22 113.611 209.7 114.511 208.17 114.661C206.99 114.991 208.06 116.761 206.49 116.691C203.39 117.671 199.94 117.701 197.06 118.701C196.19 118.381 192.97 119.071 191.73 118.821C190.23 118.461 186.48 119.281 188.23 121.311C190.19 121.701 192.36 121.651 194.36 121.231C196.72 120.331 205.11 122.871 204.75 119.511C204.72 118.221 205.94 119.231 206.65 118.711C208.2 118.571 207.46 121.771 209.04 121.741C217.96 121.841 226.84 122.951 235.7 123.471C231.41 123.621 226.76 123.451 222.75 123.151C220.19 122.941 217.21 122.081 214.8 122.901C213.15 122.571 207.2 121.181 208 124.311C208.44 125.171 209.45 124.351 209.95 125.131C209.4 125.651 208.13 125.101 208.17 126.171C208.46 128.951 208.03 131.731 208.36 134.491C209.66 136.421 209.18 131.001 210.94 131.871C212.93 132.791 215.41 132.421 217.06 133.961C217.3 134.271 217.64 134.251 217.95 134.071C222.04 131.311 221 133.551 224.89 133.671C225.73 133.811 225.94 132.971 225.27 132.571C224.67 131.711 227.64 129.571 228.49 130.221C227.41 130.341 225.48 131.611 226.46 132.841C227.48 134.441 227.3 136.031 226.7 137.801C230.6 137.811 234.46 137.001 238.42 137.741C233.75 138.351 228.66 138.271 223.85 138.851C222.86 138.501 220.62 139.721 220.36 138.551C219.02 138.291 207.22 136.591 208.72 139.161C208.73 140.381 209.65 143.451 208 143.631C207.51 143.371 207.05 143.121 206.46 143.351C206.18 143.461 205.95 143.201 205.9 142.881C205.94 141.661 206.14 140.131 205.9 139.171C205.92 137.071 205.75 137.411 204.36 137.271C197.13 136.991 174.64 135.901 170.76 135.331C168.83 135.471 170.4 138.681 169.74 139.941C166.52 143.491 165.51 139.241 165.88 136.241C166.11 134.761 165.94 134.311 165.76 132.211C165.54 129.961 165.63 121.671 164.34 121.841C158.86 122.561 154.09 122.261 154.05 121.001C153.98 118.751 154.2 116.551 153.89 114.331C153.77 108.351 153.36 102.401 153.88 96.421C153.91 95.501 153.72 95.261 152.88 95.141C139.36 93.031 145.07 92.811 144.02 106.831C144.23 111.231 144.02 123.461 142.94 123.061C142.25 122.811 142.22 122.781 142.28 122.151C142.69 116.481 142.21 110.791 142.17 105.111C141.76 103.141 143.6 93.011 141.22 93.411C137.62 94.101 139.51 113.211 139.32 117.271C139.54 119.081 140.07 123.941 139.01 123.951C134.72 124.011 136.58 108.731 134.16 106.431C133.57 110.511 133.43 116.401 135.49 120.401C134.54 123.491 135.86 127.001 136.18 130.141C136.96 132.961 140.27 130.371 141.83 132.341H141.84C133.77 129.871 136.59 134.571 136.37 139.931C135.88 139.841 136.06 139.231 135.73 139.001C135.24 138.661 135.74 138.261 135.74 137.891C136.42 134.001 133.43 110.701 133.61 127.261C133.16 129.521 135.86 139.151 133.67 139.341C130.61 138.801 133 135.221 132.11 133.051C130.8 130.701 121.24 131.591 118.13 130.241C117.25 129.951 114.21 128.941 115.62 127.781C117.12 127.461 119.05 125.481 120.43 126.531C124.96 127.971 118.5 122.121 117.09 121.981C114.39 120.561 111.77 118.831 108.54 119.551C106.09 123.351 109.42 129.091 108.17 133.551C107.56 131.011 108.55 128.081 107.31 125.591C106.35 124.331 107.5 121.871 106.44 120.991C105.61 123.361 107.15 126.841 106.91 129.591C107.6 131.431 105.52 136.661 107.99 136.751C106.29 138.011 106.29 138.011 104.33 137.331C105.56 132.261 103.63 127.021 103.78 121.881C103.68 121.321 103.89 119.891 102.99 120.131C101.78 120.291 101.04 123.291 99.7498 121.881C99.6798 120.851 99.0698 120.821 98.3598 120.941L98.3698 120.931C100.5 118.931 98.2898 119.301 96.6498 119.491C92.9298 120.421 88.6098 119.491 85.2298 121.131C83.8898 120.431 82.1898 120.461 80.6698 120.651C78.9198 121.111 79.7698 123.791 79.9298 125.121C79.7298 127.461 79.7598 129.841 79.7998 132.161C80.2698 133.711 79.5798 134.901 77.9098 134.881C74.7098 133.901 77.4098 126.361 76.3798 123.511C75.8898 122.901 76.3398 122.351 76.2398 121.681C74.1198 119.361 61.0898 122.161 58.7798 121.261C58.7098 122.421 58.8198 129.201 59.0398 131.111C58.9498 135.841 57.7498 131.031 56.6398 133.721C56.2298 133.661 56.3298 133.141 56.0698 132.951C55.5698 132.661 55.0298 132.421 55.0298 131.751C55.0198 130.461 54.5698 129.181 54.8598 127.921C54.8798 127.181 54.6798 120.781 52.4998 121.111C49.9998 121.111 42.4698 119.961 41.7198 119.851C40.0398 120.091 37.7398 119.461 38.0698 122.021C37.4898 125.481 38.6098 130.141 38.0098 132.201C37.1798 131.691 38.7598 125.561 36.3998 127.881C35.7798 129.301 37.7498 133.281 35.1098 132.121C33.8898 131.061 35.4898 125.411 34.2898 125.391C33.1398 126.171 23.4798 125.771 25.1298 127.401C24.2898 127.791 23.4798 126.841 22.6098 127.181C20.3098 127.721 20.1198 127.121 20.7598 129.941C20.8098 130.341 21.1698 130.991 20.7098 131.231C14.3798 134.671 17.0398 123.671 16.4398 121.451L16.8398 114.451L18.4998 114.011L19.2198 114.171C19.2198 114.171 19.5698 114.921 19.6198 115.011C19.6698 115.101 19.7298 117.191 19.7298 117.191C19.7298 117.191 20.0998 121.661 20.0998 122.091C20.0998 122.521 20.8698 125.401 20.8698 125.401C20.8698 125.401 23.6798 125.131 23.9798 125.081C24.2798 125.031 29.2998 124.551 29.8398 124.391C30.3798 124.241 33.3598 123.801 33.3598 123.801L33.5198 119.381L33.8898 116.851C33.8898 116.851 33.8398 114.441 33.8398 114.231C33.8398 114.021 35.0198 114.021 35.3298 114.021C35.6398 114.021 36.0798 114.901 36.0798 114.901L36.2198 117.791C35.9898 120.371 36.3998 125.431 36.5098 126.311C36.8698 127.511 38.1898 126.331 37.5098 125.481C37.2998 124.361 37.9598 123.201 37.5798 122.011C37.6398 121.071 36.6798 118.141 38.4898 118.871C39.2298 119.171 43.2198 119.161 45.1098 119.271C46.8698 119.101 51.0298 121.211 51.3498 118.741C50.6398 111.701 50.7698 104.551 50.2798 97.491C49.6398 96.201 45.6198 98.011 45.9898 96.141C47.5198 94.661 46.4898 91.601 46.5098 89.581C44.9298 87.051 48.7298 69.211 43.4398 73.941C30.5398 81.131 17.2398 87.561 4.90979 95.721C2.63979 97.401 2.89979 96.851 3.21979 99.881C3.91979 101.261 6.64979 100.021 8.04979 100.351C10.2098 100.531 8.60979 97.041 8.63979 95.731C9.11979 95.141 9.86979 95.391 10.4198 95.021L10.4098 95.031C8.88979 97.031 9.25979 99.691 9.52979 102.351C9.52979 102.351 9.30979 102.581 8.82979 102.621C8.34979 102.661 7.54979 102.461 7.54979 102.461C7.36979 104.091 7.43979 107.791 7.94979 110.311ZM76.3198 115.861C77.6998 114.851 80.3498 116.851 79.8798 118.461C79.5798 119.901 82.1298 119.421 82.9798 119.161C87.6798 119.151 92.4898 118.781 97.2498 118.061C101 117.941 98.4598 110.651 98.9498 107.961C98.2298 105.291 99.8798 99.141 97.4498 97.881C95.8798 97.941 94.3098 97.841 92.7398 97.751C92.0998 97.711 86.8098 98.371 84.8998 98.001C84.0698 98.021 77.7298 98.031 75.5998 98.031C73.0798 98.201 66.1498 97.561 65.8298 97.521C63.2598 97.791 51.5898 95.581 51.9198 98.621C52.2398 101.711 51.6498 127.761 53.4598 117.291C53.6698 116.051 54.9798 114.781 55.6598 114.571C56.7198 114.321 56.7998 116.051 57.6098 116.411C58.0398 116.691 58.1898 117.101 58.2698 117.571C58.5198 118.781 57.9598 120.641 59.6998 120.501C64.8998 119.661 70.6998 120.541 75.5298 118.981C76.6498 118.971 75.9898 116.641 76.3198 115.861ZM112.7 94.141C116.74 93.801 120.21 91.651 124.06 90.641C128.18 83.491 123.26 86.761 120.52 90.691C119.26 91.421 121.37 87.791 120.99 87.311C115.59 88.211 109.68 90.981 104.05 92.351C103.79 92.431 103.42 92.431 103.36 92.741C101.91 94.701 99.4598 91.731 100.16 96.851C100.52 103.351 100.52 109.961 101.13 116.481C101.43 118.131 104 117.021 105.21 117.261C106.65 116.881 106.98 120.391 108.48 118.561C108.98 118.041 108.98 118.041 109.44 118.571C110.1 119.331 111.51 119.251 112.49 119.241C113.36 119.131 113.73 117.861 113.36 117.141C113.54 109.631 113.83 101.751 112.7 94.141ZM128.83 100.621C128.74 99.331 129.46 96.561 128.1 95.971C124.52 95.861 120.89 95.621 117.33 95.031C114 93.951 114.64 97.401 114.91 99.531C116.08 102.661 113.1 119.881 117.29 118.261C118 118.131 117.64 117.081 118.35 116.901C119.37 116.131 120.71 117.051 121.59 116.181C121.71 115.991 121.84 116.031 121.99 116.151C124.35 117.791 126.85 115.651 128.78 114.311C129.84 110.141 128.94 105.131 128.83 100.621ZM156.04 121.271C156.81 120.791 159 122.191 165.19 120.431C165.38 120.381 165.64 119.451 165.83 119.371C165.91 119.331 165.96 117.581 165.96 117.421C165.67 113.931 165.86 110.381 165.66 106.831C165.83 97.001 166.78 96.951 156.61 95.811C154.91 96.161 156.08 99.211 155.56 100.531C155.43 106.411 154.61 114.881 155.77 120.381L156.04 121.271ZM130.83 122.301C131.03 120.781 130.14 116.441 131.58 116.031C133.46 116.321 131.93 112.071 132.39 110.761C132.97 107.771 130.4 88.531 129.87 100.951C130.04 107.021 130.69 113.101 130.05 119.061C129.4 119.721 129.04 118.151 128.84 117.711C128.27 116.141 124.85 120.561 124.92 121.391C125.87 121.691 127.06 120.291 128.11 120.041C130.5 119.301 128.87 121.601 127.8 122.081C125.66 123.231 125.63 126.021 123.83 127.471C122.83 129.161 120.89 126.891 119.5 128.201C118.49 129.051 117.7 127.861 116.75 128.091C116.53 128.231 116.24 128.441 116.55 128.701C120.8 130.901 126.1 130.941 130.82 131.291C131.21 131.241 131.45 130.981 131.4 130.591C131.23 127.831 130.82 125.091 130.83 122.301ZM144.15 73.271C142.54 75.851 142.47 79.141 141.68 82.051C141.93 83.881 145.13 83.331 146.55 83.821C148.09 83.251 145.46 74.321 144.15 73.271ZM136.03 105.021C135.57 103.031 138.46 91.491 135.5 92.871C130.63 94.641 134.58 101.811 136.03 105.021ZM166.47 135.681C167.49 150.431 168.34 122.681 166.84 120.821C164.62 113.821 166.81 134.251 166.47 135.681ZM133.12 123.621C133.31 119.651 131.55 113.121 131.4 122.001C131.37 127.141 132.9 132.141 132.68 137.311C135.1 142.791 132.31 124.911 133.12 123.621ZM118.06 94.571C119.24 95.661 120.7 95.091 122.1 95.191C124.14 94.811 126.25 96.141 128.2 95.281C129.7 94.611 129.89 94.831 129.23 92.901C129 92.371 128.76 91.591 128.07 91.591C126.04 91.401 126.9 93.761 126.02 94.771C125.27 94.551 125.22 93.791 124.98 93.161C124.58 91.501 119.19 93.881 118.06 94.571ZM190.1 110.251C188.53 111.061 185.71 108.381 184.93 110.411C185.18 111.681 184.32 115.141 186.33 114.801C186.87 114.821 187.22 113.731 187.63 114.491C188.25 115.011 189.14 114.431 189.72 114.111C189.89 112.921 190.21 111.711 190.1 110.251ZM137.97 82.311V82.321C139.09 82.621 139.55 81.901 139.7 80.871C140.08 78.381 141.63 75.911 141.79 73.561C139.22 74.831 137.9 78.331 136.28 80.731C135.21 82.351 136.89 82.211 137.97 82.311ZM169.59 106.091C163.59 106.201 175.13 109.251 176.2 108.071C176.12 106.991 173.9 107.681 173.7 106.771C183.54 106.741 160.64 102.511 169.59 106.091ZM57.8898 119.751C57.0098 113.111 55.8698 119.381 56.7098 122.051C57.5198 125.021 55.9598 129.621 57.5798 131.891C59.2598 128.531 57.6898 123.551 57.8898 119.751ZM105.23 134.141C106.63 144.861 106.35 122.851 104.98 120.871C103.07 119.201 105.54 132.311 105.23 134.141ZM169.48 103.221C164.54 103.661 169.87 104.071 171.35 104.431C172.9 104.591 175.58 106.381 176.62 104.741C177.62 101.801 169.6 101.951 167.71 102.191C168.38 102.291 168.92 102.611 169.48 103.221ZM175.65 94.291C173.8 92.801 170.82 92.881 168.52 92.231C167.31 91.731 166.73 92.191 167.37 93.371C167.42 94.381 167.45 94.391 168.05 94.531C170.8 94.801 173.44 95.831 176.21 95.881C177.27 94.571 172.22 95.131 172.15 93.921C173.31 94.041 174.47 94.161 175.65 94.291ZM168.09 123.221C167.99 128.781 168.23 134.461 168.35 139.921C170.26 139.661 168.9 125.241 168.09 123.221ZM129.73 74.221C130.84 74.441 131.62 73.411 132.65 73.171C134.58 71.911 139.42 71.991 139.85 69.711C136.4 70.291 132.58 72.091 129.73 74.221ZM172.02 134.571C173.07 134.591 173.94 134.671 173.88 133.351C173.9 132.711 173.75 131.861 172.97 132.121C172.47 132.181 171.86 132.691 171.5 132.131C171.31 131.851 171.64 131.601 171.83 131.431C172.74 130.441 171.19 129.821 170.47 130.011C168.43 134.451 172.65 132.201 172.99 133.841C172.43 134.641 171.09 133.351 170.49 133.941C170.61 134.671 171.66 134.551 172.02 134.571ZM167.97 97.441C170.8 98.281 173.91 99.711 176.6 99.031C174.55 97.321 170.66 97.761 167.97 97.441ZM77.9198 133.811C78.4098 122.501 76.5898 118.831 77.2798 132.841C77.2998 133.191 77.3298 133.561 77.9198 133.811ZM118.21 84.301C118.06 86.241 119.66 85.241 120.57 84.781C121.18 84.611 122.34 84.781 122.57 84.101C121.65 83.601 118.08 82.201 118.21 84.301ZM78.6298 123.311C78.4498 124.251 78.2798 136.901 79.3398 132.231C78.9798 129.271 79.7598 126.101 78.6298 123.311ZM158.39 93.511C160.39 94.431 162.86 95.811 164.85 95.191C163.58 93.731 160.36 93.641 158.39 93.511ZM176.38 92.861C173.84 91.501 170.15 91.421 167.27 90.401C165.95 91.391 175.58 93.111 176.38 92.861ZM209.63 98.411C210.12 98.021 211 97.811 211.31 97.201C211.36 96.531 212.55 94.511 211.27 94.711C210.33 95.281 208.35 97.481 209.63 98.411ZM188.13 101.281C188.65 101.301 189.52 101.731 189.71 101.001C189.33 99.651 186.52 99.871 185.32 100.041C184.83 101.201 187.37 101.131 188.13 101.281ZM181.53 107.581C185.14 107.331 181.02 105.801 179.6 106.301C178.29 107.391 180.71 107.641 181.53 107.581ZM131.62 90.121C131.61 90.121 131.6 90.121 131.59 90.121C131.99 89.061 130.39 86.221 129.5 87.571C129.57 88.971 131.05 89.521 131.01 90.941C131.4 91.771 131.77 90.551 131.62 90.121ZM186.08 121.571C187.05 121.731 188.11 120.941 187.27 119.931C186.19 119.111 182.14 121.841 186.08 121.571ZM56.0098 124.861C55.5298 126.191 54.7798 128.561 56.0698 129.541C56.9098 128.461 56.3298 126.271 56.0098 124.861ZM46.1098 70.171C47.8698 71.061 46.6698 72.791 47.2098 74.351C48.1098 75.101 47.5398 70.761 47.7498 69.971C47.6198 68.921 46.6798 69.821 46.1098 70.171ZM55.5398 121.571C55.6798 119.891 56.1798 117.651 55.4398 116.191C54.6598 117.681 55.3598 119.871 55.5398 121.571ZM101.51 119.011C101.26 120.771 103.95 119.411 103.3 118.171C102.83 117.061 101.24 117.861 101.51 119.011ZM241.76 105.261C241.1 108.381 243.51 105.131 243.08 103.991C242.33 102.521 241.69 104.591 241.76 105.261ZM145.28 91.161C147.35 91.511 149.41 92.001 151.48 92.291C151.59 92.271 151.82 92.371 151.74 92.011C149.64 91.281 147.47 91.051 145.28 91.161ZM177.86 130.411C177.01 130.301 175.85 131.081 176.74 131.861C177.61 132.731 179.35 130.711 177.86 130.411ZM185.45 101.891C186.52 102.441 188.93 103.361 189.76 102.641C189.29 101.611 186.86 101.891 185.45 101.891ZM189.87 106.391C188.05 106.211 187.18 105.101 185.5 105.751C184.89 106.991 188.72 106.491 189.87 106.391ZM79.0198 118.321C78.0698 114.471 77.7698 121.181 78.7298 121.541C79.1798 120.631 78.5798 119.341 79.0198 118.321ZM186.05 104.531C186.86 105.401 188.65 105.131 189.74 105.211C189.68 103.721 187.13 104.331 186.05 104.531ZM179.83 95.961C178.03 96.301 182.07 97.751 182.44 97.281C183.02 96.341 180.45 96.371 179.83 95.961ZM172.46 96.081C170.05 95.041 169.46 94.951 168.32 95.401C169.58 95.991 170.85 96.431 172.46 96.081ZM182.75 105.691C182.19 104.881 180.14 104.531 179.47 105.261C180.13 106.031 181.62 105.841 182.75 105.691ZM181.61 100.211C184.72 100.191 179.92 98.641 179.38 99.431C179.51 100.371 180.95 100.081 181.61 100.211ZM185.74 107.441C188 108.011 192.76 108.081 187.24 107.031C186.8 106.841 186.31 107.061 185.74 107.441ZM35.0998 115.981C34.9898 117.191 34.5798 118.991 35.2898 119.941C35.9998 119.181 35.5098 117.641 35.0998 115.981ZM114.33 114.691C114.18 112.581 114.65 109.871 114.11 108.151C114.06 110.481 114.05 112.591 114.33 114.691ZM193.24 98.511C194.16 99.111 195.39 99.701 196.32 99.181C196.19 98.461 194.09 98.401 193.24 98.511ZM196.36 101.131C194.91 100.321 193.76 100.471 192.31 100.311C193.4 100.991 194.73 101.171 196.36 101.131ZM179.68 103.141C180.53 103.361 182.21 104.161 182.77 103.401C182.02 102.711 180.67 102.861 179.68 103.141ZM119.67 117.011C118.55 117.201 120.08 118.431 120.71 118.131C122.35 117.461 120.47 116.981 119.67 117.011ZM160.86 89.321C162.27 89.851 163.37 90.051 164.52 89.961C163.48 89.401 162.48 89.231 160.86 89.321ZM188.23 103.681C188.21 103.581 188.2 103.471 188.18 103.371C187.23 103.321 186.12 102.651 185.27 103.261C185.92 104.171 187.26 103.491 188.23 103.681ZM147.55 86.701C146.46 86.581 145.14 85.761 144.13 86.101C144.66 86.921 146.56 86.821 147.55 86.701ZM176.52 102.151C175.11 101.831 174.44 101.291 173.22 101.711C173.39 102.331 175.45 102.281 176.52 102.151ZM123.64 117.601C123.67 117.081 122.68 117.031 122.65 117.431C122.91 117.951 122.59 118.171 122.32 118.451C122.03 120.041 123.55 118.221 123.64 117.601ZM194.81 97.691C194.29 97.341 192.59 96.791 192.2 97.331C192.75 97.711 194.28 98.051 194.81 97.691ZM211.13 99.491C211.18 99.101 210.78 98.671 210.6 99.141C210.85 99.871 209.78 100.211 210.25 100.851C211.03 101.621 211.03 99.911 211.13 99.491ZM186.88 109.151C187.09 109.651 187.85 109.531 188.3 109.721C190.03 109.461 187.46 108.721 186.88 109.151ZM131.49 85.351C131.38 84.951 131.45 83.851 130.83 84.351C129.89 84.941 131.16 86.551 131.49 85.351ZM181.72 102.001C181.04 102.051 180.02 101.431 179.54 102.001C179.84 102.591 181.1 102.241 181.72 102.001ZM156.31 90.611C156.99 91.111 157.64 91.211 158.32 91.021C157.68 90.701 157.02 90.541 156.31 90.611ZM133.93 90.721C134.91 90.901 135.6 91.101 136.53 90.971C135.35 90.451 135.35 90.451 133.93 90.721ZM113.86 97.601C113.9 97.601 113.94 97.601 113.98 97.591C114.37 95.151 113.05 95.261 113.86 97.601ZM172.21 128.611C172.23 128.101 171.23 128.301 171.37 128.821C171.52 129.601 172.14 129.181 172.21 128.611ZM77.6698 121.551C77.7698 121.091 77.2298 120.351 77.0098 121.101C76.8798 121.721 77.5098 122.611 77.6698 121.551ZM134.77 92.511C134.39 92.231 133.7 92.081 133.47 92.541C133.43 93.311 134.53 93.081 134.77 92.511ZM179.71 98.291C180.77 98.821 180.77 98.811 181.64 98.481C180.99 98.291 180.46 98.211 179.71 98.291ZM137.04 88.041C136.78 87.671 136.07 87.351 135.82 87.731C135.93 88.111 136.67 88.231 137.04 88.041ZM173.22 130.931C173.4 130.641 173.16 129.761 172.77 129.971C172.59 130.291 172.9 130.801 173.22 130.931ZM133.39 86.451C134.36 86.361 133.33 85.611 133.03 86.221C133.14 86.321 133.22 86.471 133.39 86.451ZM141.08 91.931C140.1 91.901 140.82 92.641 141.41 92.481C142 92.251 141.44 91.931 141.08 91.931ZM180.23 93.591C180.03 93.151 179.4 92.911 179.08 93.231C179.11 93.701 179.84 93.821 180.23 93.591ZM135.39 89.291C135.38 88.851 134.45 88.721 134.53 89.231C134.71 89.471 135.3 89.501 135.39 89.291ZM180.15 104.131C180.15 104.171 180.15 104.201 180.16 104.241C180.46 104.241 180.76 104.241 181.05 104.241C181.05 104.201 181.05 104.171 181.04 104.131C180.75 104.131 180.45 104.131 180.15 104.131ZM147.88 90.061C147.55 89.941 147.23 89.731 146.93 90.061C147.26 90.061 147.57 90.061 147.88 90.061ZM76.9898 118.211C76.9698 118.441 76.9498 118.621 77.1698 118.741C77.3998 118.491 77.1098 117.441 76.9898 118.211ZM149.1 68.961C149.14 69.131 149.36 69.091 149.48 69.061C149.73 68.861 149.22 68.891 149.1 68.961ZM141.87 86.251C142 85.991 141.65 85.911 141.49 86.021C141.33 86.271 141.68 86.541 141.87 86.251ZM185.54 94.621C185.12 94.781 185.59 95.071 185.86 95.001C185.96 94.821 185.63 94.731 185.54 94.621ZM195.19 99.821C195.09 99.851 195 99.891 194.9 99.921C195.05 100.341 195.91 99.881 195.19 99.821ZM182.49 93.991C182.57 93.731 182.01 93.761 181.93 93.881C181.85 94.121 182.41 94.101 182.49 93.991ZM127.6 88.991C127.56 89.091 127.52 89.191 127.48 89.291C127.89 89.601 128.1 89.071 127.6 88.991ZM159.78 92.511C159.68 92.351 159.53 92.451 159.38 92.471C159.48 92.631 159.63 92.531 159.78 92.511ZM125.25 123.371C125.12 123.201 125.07 123.411 124.98 123.501C125.11 123.681 125.15 123.461 125.25 123.371ZM194.91 96.721C194.79 96.641 194.34 96.691 194.62 96.841C194.73 96.851 194.93 96.891 194.91 96.721ZM126.13 118.131C126.25 117.951 126.01 117.841 125.95 118.051C125.95 118.191 126.04 118.201 126.13 118.131ZM136.7 85.691L136.57 85.721L136.67 85.781L136.7 85.691ZM135.33 85.461C135.37 85.441 135.4 85.431 135.44 85.411C135.37 85.401 135.31 85.391 135.24 85.381C135.27 85.411 135.3 85.441 135.33 85.461ZM140.89 90.291C140.6 90.361 140.91 90.621 141 90.361C140.96 90.341 140.92 90.311 140.89 90.291ZM121.5 119.001C121.48 118.781 121.34 118.611 121.15 118.791C121.02 119.061 121.32 119.261 121.5 119.001ZM241.75 109.181C241.72 109.211 241.67 109.241 241.67 109.281C241.66 109.601 242.04 109.221 241.75 109.181ZM206.18 115.321C206.11 115.441 205.91 115.611 206.13 115.681C206.37 115.641 206.47 115.311 206.18 115.321ZM140.88 67.651L140.94 67.561H140.82L140.88 67.651ZM193.71 99.621C193.65 99.511 193.57 99.501 193.47 99.581C193.55 99.681 193.61 99.681 193.71 99.621ZM188.32 95.671L188.41 95.721L188.43 95.651L188.32 95.671ZM161.05 95.621C161.01 95.641 160.98 95.661 160.94 95.681C161.02 95.751 161.08 95.751 161.15 95.681C161.12 95.661 161.09 95.641 161.05 95.621ZM126.03 122.551C126.05 122.511 126.07 122.471 126.09 122.441C125.99 122.361 125.96 122.391 125.93 122.501C125.96 122.521 126 122.531 126.03 122.551ZM131.42 92.301L131.52 92.311L131.48 92.201L131.42 92.301ZM104.69 118.841C104.68 118.701 104.62 118.731 104.52 118.761C104.54 118.901 104.59 118.881 104.69 118.841ZM241.8 107.411L241.89 107.481L241.91 107.371L241.8 107.411Z" fill="#CBA2B2" stroke="#CBA2B2" stroke-width="0.5" stroke-miterlimit="10"/>
<path d="M119.84 116.501C120.05 116.181 120.09 115.641 120.01 114.751C119.79 112.321 120.05 109.771 119.22 107.481C118.97 106.781 119.16 106.041 119.53 105.511C119.95 104.901 120.21 104.191 120.3 103.331C120.37 102.681 120.58 102.301 121.04 102.371C121.48 102.441 121.52 102.971 121.49 103.441C121.41 104.831 122.11 105.311 122.71 105.811C123.23 106.241 123.45 105.521 123.62 104.921C123.8 104.301 123.75 103.291 124.38 103.341C125.01 103.391 124.87 104.411 125.05 105.031C126.04 108.481 125.05 111.861 124.89 115.251C124.86 115.811 124.85 116.221 124.88 116.501" fill="#F4A079"/>
<path d="M89.7797 119.671C90.0697 119.291 90.0597 118.531 90.0497 117.001C90.0397 114.601 90.0297 112.221 89.3997 109.911C89.0997 108.811 89.5097 107.701 89.8197 106.671C90.1197 105.691 90.5597 104.811 90.7397 103.751C90.8397 103.181 91.1097 102.661 91.6197 102.831C92.1397 103.021 91.9697 103.601 91.8597 104.081C91.7497 104.551 91.7697 105.011 92.0797 105.291C93.5797 106.651 93.2497 108.831 93.1497 110.621C93.0297 112.621 92.7497 114.721 91.8697 116.511C91.6897 116.871 91.6297 117.341 91.5497 117.771C91.2897 119.111 91.2797 119.671 91.7497 119.901" fill="#F4A079"/>
<path d="M43.7298 119.461C43.7798 118.681 43.7998 117.541 43.0998 117.281C42.0698 116.891 42.0698 116.201 42.1898 115.131C42.2998 114.061 42.2198 112.961 42.2198 111.871C42.2198 111.581 42.2598 111.261 41.8998 111.181C40.9798 110.981 41.0198 110.051 41.0698 109.251C41.1398 108.201 41.4098 107.221 41.9498 106.361C42.4398 105.581 43.0098 104.861 43.2798 103.871C43.4698 103.201 44.0498 103.131 44.2098 103.751C44.6598 105.511 45.8298 106.691 46.3998 108.341C46.6198 108.971 46.7098 109.581 46.2798 110.021C45.1098 111.231 45.1398 112.931 45.0298 114.551C44.9298 116.071 44.9998 117.601 44.7198 119.101C44.6698 119.351 44.6698 119.531 44.7098 119.661" fill="#F4A079"/>
<path d="M160.84 121.161C160.9 120.791 160.91 120.431 160.69 120.291C159.45 119.461 160.08 118.151 160.01 117.021C159.99 116.661 160.03 116.301 160.04 115.941C160.04 115.741 160.03 115.471 159.88 115.421C159.26 115.181 159.19 114.611 159.28 113.951C159.39 113.091 159.6 112.271 160.24 111.801C160.6 111.541 160.86 111.241 160.97 110.731C161.03 110.441 161.17 110.171 161.46 110.201C161.78 110.241 161.8 110.581 161.78 110.871C161.75 111.491 162.01 111.911 162.34 112.311C162.77 112.831 163.03 113.451 163.05 114.211C163.06 114.511 163.08 114.891 162.87 115.031C162.06 115.581 162.2 116.561 162.13 117.431C162.03 118.661 162.02 119.911 161.88 121.131" fill="#F4A079"/>
<path d="M163.99 88.211C164.11 87.821 164.43 87.721 164.95 87.861C165.11 87.901 165.29 87.921 165.45 87.901C165.67 87.881 165.89 87.791 165.87 87.591C165.86 87.401 165.62 87.391 165.44 87.351C165.17 87.301 164.92 87.231 164.85 86.981C164.78 86.751 164.97 86.641 165.14 86.491C165.54 86.141 166.06 86.081 166.66 86.101C167.1 86.111 167.57 85.881 167.97 86.061C168.64 86.371 168.06 85.091 167.69 84.671C167.48 84.441 167.3 84.251 166.91 84.181C166.43 84.101 166.45 83.781 166.38 83.521C166.33 83.331 166.32 83.191 165.99 83.101C165.55 82.971 165.68 82.671 165.73 82.431C165.78 82.171 166 82.091 166.34 82.181C166.66 82.271 166.85 82.201 167.04 82.001C167.36 81.661 167.92 81.671 168.41 81.611C168.72 81.571 168.96 81.431 169.2 81.371C169.8 81.231 170.07 80.891 170.45 80.601C170.79 80.341 171.37 80.311 171.92 80.391C172.39 80.451 172.6 80.351 172.47 79.971C172.38 79.691 172.52 79.481 172.9 79.551C173.43 79.651 173.85 79.511 174.28 79.381C174.97 79.171 175.71 79.341 176.43 79.331C176.79 79.331 177.02 79.651 177.32 79.811C177.67 79.991 177.95 80.201 178.18 79.731C178.32 79.431 178.55 79.191 178.41 78.831C178.33 78.621 178.49 78.571 178.73 78.661C179.08 78.791 179.43 78.901 179.81 78.981C180.11 79.051 180.37 79.091 180.67 79.021C181.24 78.901 181.75 79.241 181.73 79.681C181.72 79.881 181.59 81.431 181.93 81.471C182.25 81.511 183.4 80.841 183.48 80.831C183.59 80.811 184.82 81.111 185.22 80.931C185.38 80.861 186.46 80.891 186.51 81.231C186.53 81.381 187.4 81.181 187.57 81.251C188.04 81.451 188.64 81.521 188.88 81.991C189.03 82.281 189.18 82.631 189.76 82.511C189.79 82.501 190.05 82.971 190.07 82.991C190.07 82.991 189.96 83.721 190.6 84.191C191.24 84.661 192.2 83.491 192.3 84.311C192.32 84.491 192.94 84.991 193.06 85.511C193.18 86.031 192.93 86.591 193.23 87.191C193.53 87.791 193.54 88.051 194.02 88.181C194.5 88.311 194.77 88.471 194.77 88.471C194.77 88.471 194.9 89.101 194.9 89.261C194.9 89.431 194.93 90.261 195.18 90.321C195.42 90.391 195.87 90.561 196.07 90.551C196.27 90.541 196.49 90.941 196.49 90.941C196.49 90.941 196.89 91.321 197.01 91.601C197.13 91.881 195.65 92.541 195.61 92.691C195.43 93.351 195.19 93.661 197.17 93.661C197.3 93.661 198.25 93.891 198.25 93.891L198.87 94.611L199.07 94.981L199.71 95.311V95.931V96.821" stroke="#CBA2B2" stroke-width="0.75" stroke-miterlimit="10"/>
<path d="M56.7097 69.261L57.2197 66.611C57.5897 64.761 58.1197 64.521 59.4097 65.361C59.7097 65.561 60.0597 65.771 60.3997 65.751C61.2897 65.701 61.6397 66.091 61.4097 67.221C61.2397 68.071 61.6197 68.401 62.2197 68.581C62.9897 68.801 63.0497 68.351 62.9897 67.601C62.9797 67.471 63.2297 67.161 63.3497 67.151C64.7397 67.041 64.8397 65.761 65.3897 64.531C66.2097 62.711 68.0197 62.161 69.5997 61.921C70.7997 61.731 71.2997 62.961 71.6697 64.211C72.2697 66.221 73.1597 66.601 74.7597 65.631C75.3397 65.281 75.7697 65.271 75.8197 66.151C75.8897 67.271 76.0797 67.751 77.0297 66.811C77.7097 66.141 78.1397 66.591 78.2197 67.501C78.2597 67.931 78.1497 68.391 78.1197 68.841C78.0697 69.601 78.0897 70.361 78.6697 70.721C79.2897 71.101 79.4997 70.211 79.8797 69.871C81.1697 68.711 82.6897 68.411 84.1197 67.781C84.3097 67.701 84.6497 67.751 84.7597 67.911C85.8397 69.521 87.5297 70.601 87.7097 73.001C87.7897 74.091 88.0397 74.501 88.8597 73.701C89.4197 73.151 90.0097 73.011 90.6597 72.971C91.2797 72.931 92.0097 72.961 92.4197 72.181C92.9597 71.151 93.7197 71.051 94.4797 71.151C95.4097 71.261 96.3597 71.431 97.1997 71.841C98.0697 72.261 98.5397 73.231 98.3697 74.491C98.2697 75.261 98.1997 75.961 98.5997 76.371L99.3397 76.961L100.04 78.241" stroke="#CBA2B2" stroke-miterlimit="10"/>
<path d="M115.41 142.571C115.65 142.541 115.82 142.531 116.01 142.511C115.93 142.271 115.86 142.041 115.75 141.711C116.3 141.931 116.78 142.081 117.21 142.321C117.34 142.391 117.45 142.761 117.38 142.901C117.16 143.381 115.78 143.391 115.5 142.941C115.45 142.871 115.45 142.761 115.41 142.571Z" fill="#CBA2B2"/>
<path d="M82.6797 149.801C82.9197 149.771 83.0897 149.761 83.2797 149.741C83.1997 149.501 83.1297 149.271 83.0197 148.941C83.5697 149.161 84.0497 149.311 84.4797 149.551C84.6097 149.621 84.7197 149.991 84.6497 150.131C84.4297 150.611 83.0497 150.621 82.7697 150.171C82.7197 150.101 82.7197 149.981 82.6797 149.801Z" fill="#CBA2B2"/>
<path d="M87.3098 141.791C87.5498 141.761 87.7198 141.751 87.9098 141.731C87.8298 141.491 87.7598 141.261 87.6498 140.931C88.1998 141.151 88.6798 141.301 89.1098 141.541C89.2398 141.611 89.3498 141.981 89.2798 142.121C89.0598 142.601 87.6798 142.611 87.3998 142.161C87.3498 142.091 87.3498 141.971 87.3098 141.791Z" fill="#CBA2B2"/>
<path d="M176.44 149.801C176.68 149.771 176.85 149.761 177.04 149.741C176.96 149.501 176.89 149.271 176.78 148.941C177.33 149.161 177.81 149.311 178.24 149.551C178.37 149.621 178.48 149.991 178.41 150.131C178.19 150.611 176.81 150.621 176.53 150.171C176.47 150.101 176.48 149.981 176.44 149.801Z" fill="#CBA2B2"/>
<path d="M68.0698 146.791C68.3098 146.761 68.4798 146.751 68.6698 146.731C68.5898 146.491 68.5198 146.261 68.4098 145.931C68.9598 146.151 69.4398 146.301 69.8698 146.541C69.9998 146.611 70.1098 146.981 70.0398 147.121C69.8198 147.601 68.4398 147.611 68.1598 147.161C68.1098 147.091 68.1098 146.971 68.0698 146.791Z" fill="#CBA2B2"/>
<path d="M113.18 83.861C113.18 83.861 94.2697 80.591 90.3297 80.101C86.3897 79.611 81.8997 78.631 78.8297 77.801C75.7597 76.971 69.3097 75.121 64.7297 74.811C60.1497 74.491 54.1197 73.311 53.3097 73.081C52.4997 72.851 50.9697 72.111 50.9697 72.111" stroke="#CBA2B2" stroke-width="0.5" stroke-miterlimit="10"/>
<path d="M111.26 86.101C111.26 86.101 93.0398 83.641 89.2498 83.301C85.4598 82.961 81.1298 82.191 78.1598 81.501C75.1898 80.811 68.9498 79.271 64.5598 79.131C60.1698 78.991 54.3498 78.061 53.5698 77.871C52.7898 77.681 51.2898 77.031 51.2898 77.031" stroke="#CBA2B2" stroke-width="0.5" stroke-miterlimit="10"/>
<path d="M106.11 88.171C106.11 88.171 89.2897 86.351 85.7897 86.131C82.2997 85.911 78.2897 85.311 75.5497 84.751C72.7997 84.191 67.0297 82.941 62.9797 82.911C58.9297 82.881 53.5597 82.171 52.8397 82.021C52.1197 81.871 50.7297 81.311 50.7297 81.311" stroke="#CBA2B2" stroke-width="0.5" stroke-miterlimit="10"/>
<path d="M96.5398 90.751C96.5398 90.751 82.7298 89.751 79.8698 89.691C77.0098 89.631 73.7198 89.231 71.4498 88.841C69.1798 88.441 64.4098 87.541 61.1098 87.661C57.8098 87.781 53.3898 87.351 52.7998 87.241C52.1998 87.131 51.0398 86.681 51.0398 86.681" stroke="#CBA2B2" stroke-width="0.5" stroke-miterlimit="10"/>
<path d="M95.7998 94.331C95.7998 94.331 82.1798 93.811 79.3698 93.871C76.5598 93.921 73.2998 93.631 71.0398 93.281C68.7798 92.931 64.0098 92.111 60.7898 92.401C57.5698 92.691 53.1998 92.401 52.5998 92.301C51.9998 92.201 50.8198 91.741 50.8198 91.741" stroke="#CBA2B2" stroke-width="0.5" stroke-miterlimit="10"/>
</g>
<defs>
<clipPath id="clip0_5398_8969">
<rect width="245" height="150" fill="white" transform="translate(0 0.5)"/>
</clipPath>
</defs>
</svg>
