<?xml version="1.0" standalone="no"?>
<!DOCTYPE svg PUBLIC "-//W3C//DTD SVG 20010904//EN"
 "http://www.w3.org/TR/2001/REC-SVG-20010904/DTD/svg10.dtd">
<svg version="1.0" xmlns="http://www.w3.org/2000/svg"
 width="225.000000pt" height="225.000000pt" viewBox="0 0 225.000000 225.000000"
 preserveAspectRatio="xMidYMid meet">

<g transform="translate(0.000000,225.000000) scale(0.100000,-0.100000)"
fill="#000000" stroke="none">
<path d="M1090 1781 c-5 -11 -10 -84 -10 -163 l0 -143 -134 -117 -134 -118
-179 0 c-126 0 -183 -4 -191 -12 -17 -17 -17 -749 0 -766 9 -9 176 -12 689
-12 608 0 677 2 683 16 3 9 6 181 6 383 0 272 -3 370 -12 379 -8 8 -66 12
-192 12 l-181 0 -85 78 c-47 42 -107 96 -133 119 -34 29 -49 51 -52 72 l-4 31
105 0 c147 0 144 -3 144 128 0 71 -4 112 -12 120 -8 8 -57 12 -155 12 -130 0
-143 -2 -153 -19z m240 -105 l0 -44 -77 -4 c-43 -3 -79 -4 -79 -4 -1 1 -4 22
-6 49 l-6 47 84 0 84 0 0 -44z m-130 -332 c25 -23 73 -66 107 -95 l62 -54 1
-322 c0 -178 0 -326 0 -330 0 -5 -19 -9 -42 -11 l-43 -3 0 126 c0 101 -3 128
-15 135 -8 5 -74 10 -147 10 -167 0 -163 4 -163 -157 l0 -113 -40 0 -40 0 0
333 1 332 122 107 c101 89 124 105 137 95 8 -7 35 -31 60 -53z m-410 -499 l0
-315 -140 0 -140 0 0 315 0 315 140 0 140 0 0 -315z m950 0 l0 -315 -140 0
-139 0 -3 311 c-2 171 -1 313 1 315 2 2 67 4 143 4 l138 0 0 -315z m-540 -220
l0 -95 -75 0 -75 0 0 95 0 95 75 0 75 0 0 -95z"/>
<path d="M965 1124 c-28 -28 -13 -84 22 -84 18 0 36 38 29 65 -7 29 -31 38
-51 19z"/>
<path d="M1105 1124 c-31 -31 -7 -95 30 -80 20 7 29 31 21 60 -7 30 -31 40
-51 20z"/>
<path d="M1234 1106 c-3 -13 -1 -34 6 -46 22 -41 69 -6 56 43 -9 36 -53 38
-62 3z"/>
<path d="M962 968 c-26 -26 -10 -78 24 -78 17 0 25 7 30 27 11 44 -26 79 -54
51z"/>
<path d="M1102 968 c-26 -26 -10 -78 24 -78 17 0 25 7 30 27 11 44 -26 79 -54
51z"/>
<path d="M1242 968 c-26 -26 -10 -78 24 -78 17 0 25 7 30 27 11 44 -26 79 -54
51z"/>
<path d="M573 1093 c-7 -2 -13 -20 -13 -38 0 -25 5 -35 21 -40 29 -9 41 6 37
46 -3 33 -18 44 -45 32z"/>
<path d="M684 1087 c-3 -9 -4 -28 -2 -44 2 -22 8 -28 28 -28 23 0 25 4 25 40
0 34 -3 40 -23 43 -13 2 -24 -3 -28 -11z"/>
<path d="M567 944 c-13 -13 -7 -61 8 -74 26 -22 47 -4 43 37 -2 29 -8 39 -23
41 -12 2 -24 0 -28 -4z"/>
<path d="M687 944 c-10 -10 -8 -56 3 -74 16 -25 45 1 45 41 0 27 -4 35 -20 37
-12 2 -24 0 -28 -4z"/>
<path d="M572 808 c-30 -30 -4 -96 32 -82 22 8 22 79 0 88 -20 8 -18 8 -32 -6z"/>
<path d="M693 813 c-7 -2 -13 -22 -13 -43 0 -39 16 -55 45 -44 21 8 20 80 -1
88 -9 3 -16 6 -17 5 -1 0 -8 -3 -14 -6z"/>
<path d="M572 661 c-8 -5 -12 -22 -10 -42 2 -29 7 -34 28 -34 22 0 25 4 25 40
0 41 -16 54 -43 36z"/>
<path d="M684 656 c-3 -8 -4 -27 -2 -43 2 -22 8 -28 28 -28 20 0 26 6 28 28 5
45 -40 80 -54 43z"/>
<path d="M1514 1087 c-3 -9 -4 -28 -2 -44 2 -22 8 -28 28 -28 23 0 25 4 25 40
0 34 -3 40 -23 43 -13 2 -24 -3 -28 -11z"/>
<path d="M1634 1086 c-12 -31 0 -71 23 -74 25 -4 38 26 29 64 -7 27 -43 34
-52 10z"/>
<path d="M1517 944 c-10 -10 -9 -56 2 -73 5 -8 16 -11 30 -6 18 6 22 13 19 43
-2 28 -8 38 -23 40 -12 2 -24 0 -28 -4z"/>
<path d="M1637 944 c-14 -14 -7 -74 8 -80 25 -10 46 16 43 50 -2 22 -9 32 -23
34 -12 2 -24 0 -28 -4z"/>
<path d="M1522 808 c-7 -7 -12 -26 -12 -44 0 -33 18 -48 45 -38 21 8 20 80 -1
88 -20 8 -18 8 -32 -6z"/>
<path d="M1643 813 c-20 -7 -16 -80 3 -87 36 -14 62 52 32 82 -13 13 -16 13
-35 5z"/>
<path d="M1514 646 c-10 -41 -1 -61 26 -61 22 0 25 4 25 40 0 34 -4 40 -22 43
-17 3 -24 -3 -29 -22z"/>
<path d="M1634 656 c-3 -8 -4 -27 -2 -43 2 -22 8 -28 28 -28 27 0 36 20 26 61
-7 27 -43 34 -52 10z"/>
</g>
</svg>
