<svg width="272" height="151" viewBox="0 0 272 151" fill="none" xmlns="http://www.w3.org/2000/svg">
<g clip-path="url(#clip0_5398_8888)">
<path d="M75.23 140.55C74.9 138.96 74.73 137.34 74.31 135.78C73.79 133.87 74.36 132.2 75.18 130.56C75.48 129.96 75.9 129.41 76.11 128.76C76.23 128.4 76.42 128.03 76.87 128.02C77.28 128.01 77.44 128.37 77.56 128.68C77.86 129.46 78.15 129.72 78.86 128.96C79.45 128.32 79.99 128.57 80.24 129.41C80.98 131.97 81.12 134.51 80.38 137.11C80.07 138.19 80.01 139.34 79.83 140.45C79.71 141.19 79.93 141.63 80.77 141.61L75.31 141.44L75.23 140.55Z" fill="#F4A079"/>
<path d="M252.12 141.12C252.42 140.82 252.47 140.31 252.36 139.47C252.05 137.18 252.42 134.77 251.22 132.61C250.85 131.95 251.14 131.25 251.67 130.75C252.28 130.18 252.64 129.51 252.77 128.7C252.87 128.09 253.17 127.72 253.83 127.79C254.46 127.85 254.52 128.35 254.48 128.8C254.36 130.11 255.37 130.57 256.24 131.04C256.99 131.45 257.3 130.76 257.55 130.2C257.81 129.61 257.74 128.66 258.65 128.71C259.55 128.76 259.35 129.72 259.61 130.3C261.03 133.55 259.61 136.74 259.38 139.94C259.34 140.47 259.32 140.85 259.37 141.12" fill="#F4A079"/>
<path d="M236.7 141.12C236.96 140.86 236.96 140.35 236.95 139.31C236.94 137.69 236.93 136.08 236.35 134.52C236.08 133.78 236.45 133.03 236.73 132.33C237 131.67 237.4 131.07 237.57 130.36C237.66 129.98 237.91 129.62 238.37 129.74C238.85 129.87 238.69 130.26 238.59 130.59C238.49 130.91 238.51 131.22 238.79 131.41C240.16 132.33 239.86 133.8 239.77 135.01C239.66 136.36 239.41 137.78 238.61 138.99C238.45 139.23 238.39 139.55 238.32 139.84C238.09 140.75 238.07 141.12 238.5 141.28" fill="#F4A079"/>
<path d="M221.33 140.95C221.38 140.27 221.41 139.29 220.65 139.06C219.54 138.72 219.54 138.12 219.67 137.2C219.79 136.27 219.7 135.32 219.7 134.37C219.7 134.12 219.74 133.84 219.35 133.77C218.36 133.59 218.4 132.79 218.46 132.1C218.54 131.19 218.83 130.34 219.41 129.59C219.94 128.91 220.55 128.29 220.84 127.43C221.04 126.85 221.66 126.79 221.84 127.33C222.32 128.85 223.59 129.88 224.2 131.3C224.43 131.84 224.53 132.37 224.07 132.76C222.81 133.81 222.84 135.28 222.73 136.68C222.62 137.99 222.7 139.32 222.4 140.62C222.35 140.84 222.35 141 222.39 141.11L221.33 140.95Z" fill="#F4A079"/>
<path d="M212.26 141.07C212.39 140.5 212.72 139.62 212.22 139.35C210.43 138.39 211.33 136.87 211.24 135.56C211.21 135.15 211.27 134.73 211.28 134.32C211.28 134.09 211.27 133.78 211.05 133.71C210.15 133.43 210.06 132.77 210.18 132.01C210.34 131.02 210.64 130.07 211.57 129.53C212.09 129.22 212.47 128.88 212.63 128.29C212.72 127.95 212.92 127.64 213.34 127.68C213.8 127.72 213.83 128.12 213.81 128.45C213.77 129.17 214.14 129.65 214.62 130.11C215.24 130.71 215.62 131.43 215.65 132.31C215.66 132.65 215.69 133.09 215.39 133.26C214.21 133.89 214.42 135.03 214.32 136.04C214.18 137.46 214.16 138.91 213.96 140.32L213.91 140.68C213.9 140.69 212.15 141.54 212.26 141.07Z" fill="#F4A079"/>
<path d="M203.1 141.42C205.82 141.39 208.55 141.4 211.27 141.38L214.9 141.4C216.64 141.37 218.38 141.41 220.12 141.37C220.38 141.36 220.75 141.48 221.02 141.41L223.38 141.39C227.2 141.39 231.03 141.38 234.85 141.38C235.91 141.38 236.44 141.38 236.7 141.12L239.48 141.39C243.15 141.43 246.82 141.49 250.49 141.51C250.9 141.51 251.24 141.49 251.51 141.43L259.51 141.48C259.73 141.69 260.17 141.64 261.01 141.4C262.58 140.95 264.11 140.45 265.78 140.69C266.59 140.81 266.64 140.18 266.69 139.58C266.75 138.97 266.52 137.88 267.13 137.9C267.85 137.93 267.44 138.97 267.44 139.54C267.45 140.6 268.14 140.54 268.83 140.54C274.54 140.54 280.26 140.53 285.97 140.53C291.19 140.53 296.42 140.54 301.64 140.55C302.01 140.55 302.64 140.34 302.66 140.92C302.68 141.54 302.03 141.46 301.6 141.45C296.08 141.32 290.56 141.53 285.04 141.33C280.24 141.16 275.44 141.28 270.43 141.29" stroke="#CBA2B2" stroke-width="1.5" stroke-miterlimit="10"/>
<path d="M174.43 114.51C173.69 114.13 172.94 113.77 172.21 113.38C170.61 112.52 170.21 111.38 170.92 109.72C171.18 109.12 170.97 108.82 170.33 108.92C169.29 109.09 168.26 109.31 167.22 109.51C166.98 109.56 166.67 109.79 166.55 109.41C166.46 109.13 166.79 109.09 166.97 108.98C167.3 108.8 167.64 108.63 167.94 108.4C168.51 107.95 168.91 107.49 167.99 106.94C167.37 106.57 167.55 106.26 168.15 106.03C168.64 105.85 169.2 106 169.72 105.64C169.35 105.06 168.79 105.22 168.3 105.16C167.75 105.09 166.97 105.14 167 104.4C167.03 103.69 167.27 102.9 168.22 102.71C169.66 102.41 170.03 102.44 171.79 103.14C171.54 102.41 170.97 101.99 169.87 101.84C169.39 101.77 168.89 101.8 168.4 101.78C168.06 101.77 167.71 101.75 167.44 101.52C167.07 101.2 166.91 100.6 167.27 100.45C168.24 100.05 167.27 98.1 168.96 98.43C170.26 98.69 170.46 98.55 170.8 96.91C171.02 95.83 170.62 95.21 169.58 95.02C169.54 95.01 169.5 95.01 169.47 95.01C168.69 94.92 167.64 95.2 167.77 93.83C167.9 92.45 168.57 91.77 169.83 91.85C170.43 91.89 170.65 91.7 170.7 91.13C170.79 90.05 171.4 89.63 172.47 89.76C172.8 89.8 173.17 89.75 173.47 89.63C173.9 89.46 174.29 89.14 174.2 88.61C174.11 88.12 173.63 88.19 173.27 88.18C172.71 88.16 172.2 88.11 171.97 87.49C171.75 86.91 172.08 86.53 172.36 86.05C173.03 84.94 174.04 84.51 175.23 84.28C176.11 84.11 176.94 83.26 177.8 83.55C179.23 84.04 179.89 83.15 180.69 82.37C180.97 82.1 181.2 81.77 180.93 81.37C180.63 80.93 180.32 81.43 180.07 81.4C178.86 81.21 177.62 80.93 176.74 80C176.25 79.48 175.81 79.06 175.03 79.08C174.06 79.1 173.97 78.24 173.74 77.6C173.57 77.12 173.5 76.76 172.83 76.67C171.92 76.54 172.06 75.68 172.08 75.02C172.09 74.32 172.49 73.99 173.19 74.07C173.85 74.15 174.21 73.86 174.51 73.26C175.02 72.22 176.13 71.98 177.09 71.59C177.68 71.35 178.11 70.84 178.56 70.58C179.7 69.93 180.1 68.9 180.76 67.95C181.35 67.11 182.48 66.75 183.58 66.69C184.52 66.63 184.91 66.27 184.52 65.31C184.24 64.62 184.44 63.98 185.21 63.99C186.3 64 187.08 63.43 187.88 62.89C189.17 62.01 190.7 62.09 192.11 61.73C192.82 61.55 193.39 62.3 194.05 62.57C194.8 62.87 195.43 63.29 195.71 61.95C195.89 61.1 196.26 60.34 195.85 59.46C195.62 58.95 195.92 58.75 196.42 58.87C197.16 59.05 197.9 59.16 198.66 59.2C199.27 59.23 199.8 59.21 200.38 58.9C201.46 58.31 202.58 58.97 202.7 60.15C202.75 60.67 202.83 61.18 203.51 61.13C204.15 61.08 204.21 60.68 204.02 60.16C203.97 60.01 203.98 59.85 204.15 59.77C204.35 59.68 204.56 59.78 204.65 59.93C205.33 61.09 206.33 61.61 207.68 61.47C207.81 61.46 208.03 61.54 208.08 61.65C208.67 62.89 209.32 62.44 210.06 61.78C210.36 61.52 210.81 61.44 211.19 61.26C211.98 60.89 212.5 61.07 212.73 61.95C212.83 62.34 212.85 62.85 213.38 62.91C213.95 62.97 214 62.48 214.11 62.08C214.21 61.71 214.48 61.39 214.83 61.5C215.83 61.81 217.03 61.69 217.68 62.83C218.08 63.53 218.5 64.38 219.6 63.8C219.65 63.77 219.77 63.79 219.82 63.83C221.09 64.97 222.97 65.05 224.17 66.31C224.36 66.51 224.51 66.74 224.5 67.01C224.41 69.23 225.24 71.52 223.94 73.66C223.71 74.04 223.46 74.61 223.85 75.04C224.2 75.42 224.7 75.24 225.14 75.15C225.8 75.02 226.45 74.85 227.14 74.8C226.32 75.71 225.16 75.8 224.06 75.82C222.16 75.85 220.04 77.39 219.67 79.18C219.64 79.32 219.66 79.59 219.7 79.6C220.63 79.83 220.64 81.05 221.62 81.28C222.41 81.47 222.9 82.18 223.5 82.7C223.78 82.95 223.69 83.22 223.56 83.52C223.23 84.27 223.55 84.68 224.31 84.79C225.19 84.92 225.8 85.2 226.01 86.25C226.17 87.07 227.1 86.92 227.64 86.65C228.65 86.14 229.34 86.21 230.22 87.04C230.95 87.73 232.12 87.88 233.01 88.48C233.98 89.14 234.02 89.2 233.03 89.86C232.87 89.96 232.67 90.04 232.69 90.26C232.73 90.59 233.02 90.64 233.27 90.72C233.9 90.92 234.63 90.84 235.04 91.56C235.63 92.58 235.44 93.59 235.07 94.75C236.18 94.4 236.77 95 237.3 95.78C237.54 96.14 237.94 96.37 238.38 96.24C239.35 95.96 240.13 96.27 240.92 96.82C241.48 97.21 242.21 97.2 242.89 97.28C243.78 97.4 244.35 98.24 244.16 99.08C243.98 99.89 243.4 100.17 242.67 99.78C242.12 99.49 241.5 98.95 241.62 100.22C241.65 100.48 241.47 100.63 241.3 100.78C241.02 101.04 240.71 101.3 240.9 101.74C241.1 102.21 241.51 102.4 241.99 102.41C242.78 102.43 243.58 102.4 244.37 102.46C245.96 102.59 246.21 102.89 246.18 104.46C246.18 104.68 246.23 104.91 246.27 105.13C246.42 106.11 246.01 106.54 245 106.39C244.33 106.29 243.67 106.12 243 105.98C242.07 105.78 241.73 106.07 241.82 107.03C241.84 107.29 241.92 107.55 241.95 107.81C241.98 108.04 241.99 108.29 241.79 108.44C241.56 108.62 241.36 108.46 241.2 108.3C240.64 107.75 240.26 107.98 239.8 108.49C239.12 109.24 238.25 109.19 237.58 108.42C237.05 107.82 236.41 107.59 235.66 107.73C235.24 107.8 235.22 108.2 235.22 108.55C235.21 109.31 235.38 109.99 236.18 110.3C236.55 110.44 236.95 110.58 236.97 111.02C237.01 112.08 237.7 112.18 238.53 112.19C239.13 112.2 239.73 112.32 240.33 112.4C240.56 112.43 240.91 112.46 240.88 112.69C240.76 113.8 241.63 113.93 242.32 114.27C243.01 114.61 242.96 115.24 242.88 115.85C242.8 116.45 242.3 116.46 241.84 116.48C241.42 116.49 240.91 116.47 240.69 116.84C239.99 118.03 238.87 117.86 237.78 117.85C237.04 117.85 236.3 117.85 235.57 117.85C235.54 117.33 235.88 117.3 236.07 117.16C236.7 116.7 236.55 116.26 236.01 115.91C235.47 115.56 234.95 115.2 234.47 114.76C234.04 114.36 233.59 114.46 233.14 114.81C231.32 116.25 229.11 116.42 226.93 116.63C226.54 116.67 226.09 116.53 225.72 116.35C223.49 115.3 221.09 115.42 218.72 115.29C217.85 115.24 216.97 115.42 216.11 115.34C213.26 115.08 210.48 115.9 207.64 115.84C206.63 115.82 205.98 116.53 205.58 117.4C204.57 119.62 204.12 122.01 203.76 124.38C203.57 125.64 203.56 127.28 203.56 128.66C203.7 131.88 204.03 132.41 203.12 135.43C202.23 136.88 202.48 138.48 202.15 140.21C201.98 141.08 202.26 141.39 203.12 141.38" stroke="#CBA2B2" stroke-width="1.5" stroke-miterlimit="10"/>
<path d="M164.51 142.88C163.07 139.97 164.18 136.26 164.09 133.28C163.97 129.62 164.06 125.96 164.07 122.29C164.07 121.57 164.13 120.89 163.06 121.01C162.7 121.05 162.44 120.82 162.31 120.44C161.89 119.2 162.4 117.91 163.58 117.28C163.78 117.17 164.04 117.12 164.17 116.95C166 114.62 168.55 115.14 170.96 115.27C172.11 115.34 173.22 115.07 174.35 115.12C174.47 115.13 174.66 115.02 174.71 114.91C174.81 114.69 174.61 114.59 174.44 114.5" stroke="#CBA2B2" stroke-width="0.75" stroke-miterlimit="10"/>
<path d="M138.52 143.24C139.15 143.24 139.16 142.86 139.17 142.33C139.23 140.41 138.67 138.51 139.06 136.59C139.16 136.08 138.73 136.09 138.44 135.95C138.22 135.85 138.05 135.69 138.12 135.43C138.17 135.23 138.37 135.14 138.56 135.14C139.51 135.16 139.97 134.61 140.28 133.79C140.61 132.94 141.38 132.65 142.21 132.63C144.67 132.59 147.13 132.61 149.59 132.59C150.51 132.58 150.87 133.2 151.04 133.92C151.28 134.9 151.69 135.54 152.83 135.25C153.01 135.2 153.24 135.18 153.34 135.37C153.49 135.63 153.28 135.83 153.08 135.91C152.32 136.21 152.39 136.79 152.49 137.42C152.72 138.92 152.49 140.43 152.47 141.93C152.46 142.35 152.53 142.66 152.68 142.89" stroke="#CBA2B2" stroke-width="0.75" stroke-miterlimit="10"/>
<path d="M112.37 142.77C112.4 142.63 112.4 142.47 112.38 142.26C112.23 140.99 112.2 139.7 112.43 138.42C112.54 137.8 112.33 137.3 111.92 136.88C111.34 136.28 111.4 135.84 112.27 135.8C113.18 135.75 113.58 135.4 113.76 134.47C113.97 133.38 114.77 132.65 115.92 132.63C118.19 132.58 120.46 132.45 122.72 132.79C123.58 132.92 124.1 133.32 124.31 134.15C124.58 135.22 124.89 136.25 126.38 135.84C126.44 135.82 126.52 135.88 126.59 135.92C126.65 135.96 126.7 136.02 126.88 136.17C125.36 136.61 125.76 137.8 125.74 138.83C125.72 139.96 125.75 141.1 125.73 142.23C125.73 142.49 125.76 142.71 125.85 142.89" stroke="#CBA2B2" stroke-width="0.75" stroke-miterlimit="10"/>
<path d="M96.25 130.68C95.25 128.25 94.32 125.77 92.59 123.72C92.06 123.09 91.36 123.01 90.63 123.14C89.89 123.27 89.91 123.93 89.81 124.47C89.72 124.99 89.62 125.51 89.6 126.04C89.54 127.45 89.37 127.69 88 127.83C86.98 127.93 85.95 127.93 85.07 127.25C84.55 126.85 84.12 127 83.63 127.34C82.53 128.12 80.44 127.17 80.26 125.84C80.15 125.02 79.95 124.24 80.55 123.47C80.85 123.09 80.88 122.48 80.37 122.16C79.89 121.87 79.63 122.33 79.37 122.65C79.08 123.01 78.78 123.41 78.25 123.2C77.72 123 77.78 122.48 77.77 122.03C77.76 121.5 77.78 120.97 77.77 120.44C77.76 120.04 77.66 119.66 77.24 119.53C76.29 119.23 76.33 118.52 76.52 117.79C76.69 117.14 77.01 116.52 77.16 115.86C77.36 114.99 77.66 114.08 76.8 113.34C76.64 113.2 76.55 113.02 76.7 112.85C77.14 112.34 76.86 111.85 76.69 111.36C76.49 110.79 76.48 110.24 76.83 109.74C77.13 109.32 77.38 108.74 78.01 108.82C78.6 108.89 78.5 109.52 78.63 109.92C79.27 111.85 79.84 112.45 81.09 112.44C81.73 112.43 82.35 112.37 82.49 111.6C82.62 110.87 82.44 110.13 81.71 109.89C80.64 109.54 80.43 108.84 80.5 107.89C80.56 107.03 80.5 106.29 79.45 105.92C78.76 105.67 78.85 104.21 79.5 103.4C79.79 103.04 80.18 102.82 80.6 102.63C81.49 102.22 82.12 101.58 82.42 100.59C82.72 99.61 82.91 98.55 84.05 98.02C84.58 97.77 84.34 97.06 84.36 96.55C84.38 95.83 84.28 95.04 85.25 94.84C86.11 94.66 86.6 95.12 86.84 95.92C86.9 96.13 86.99 96.39 87.28 96.34C87.55 96.29 87.55 96 87.58 95.79C87.72 94.9 87.77 93.98 88 93.12C88.45 91.44 89.02 91.05 90.76 91.15C91.51 91.19 91.98 90.79 92.36 90.25C92.79 89.63 93.27 89.5 93.88 89.96C94.44 90.38 94.62 90.8 94.19 91.49C93.61 92.42 93.66 93.73 92.42 94.26C92.21 94.35 92.27 94.66 92.36 94.88C93.01 96.5 93.44 98.23 94.59 99.7C94.93 99.29 94.79 98.84 94.69 98.44C94.22 96.54 95.05 94.98 95.96 93.43C96.16 93.09 96.4 93.14 96.57 93.4C96.94 93.96 97.53 94.1 98.11 94.27C99.32 94.63 99.67 95.62 99.78 96.72C99.86 97.55 100.29 98.07 101.09 97.92C102.84 97.6 103.54 98.63 104.04 99.98C104.35 100.84 104.67 101.66 105.4 102.28C105.88 102.69 105.72 103.34 105.7 103.89C105.67 104.82 106.05 105.39 106.97 105.63C107.68 105.81 108.24 106.11 108.06 107.04C107.94 107.68 108.33 108.06 108.95 108.11C109.85 108.18 110.44 108.55 110.67 109.46C110.84 110.12 111.33 110.21 111.92 110.06C112.72 109.85 113.03 110.12 113.64 110.83C114.63 111.99 114.23 112.94 113.95 114C113.58 115.39 113.88 116.77 113.88 118.16C113.88 118.98 113.99 120.07 113.17 120.4C112.24 120.77 111.82 119.7 111.31 119.08C111.24 118.99 111.18 118.9 111.1 118.82C110.81 118.52 110.64 117.82 110.1 118.16C109.56 118.51 109.46 119.16 109.8 119.77C110.44 120.93 111.62 121.56 112.49 122.5C113.57 123.67 113.91 125.22 113.26 126.58C113.04 127.04 112.53 127.12 112.12 127.24C111.32 127.48 110.67 127.84 110.3 128.63C110.04 129.19 109.48 129.39 109.14 128.86C107.77 126.7 105.65 126.9 103.57 126.99C102.56 127.04 102.17 126.74 101.98 125.65C101.76 124.32 101.6 123.08 102.01 121.77C102.2 121.16 102.11 120.17 101.48 120.12C100.75 120.07 100.9 121.05 100.98 121.56C101.43 124.68 99.6 127.18 98.72 129.91C98.08 131.9 98.25 133.73 98.89 135.62" stroke="#CBA2B2" stroke-width="1.5" stroke-miterlimit="10"/>
<path d="M96.2501 130.68C96.5001 131.28 96.3601 133.25 96.4001 133.79C96.4901 135.07 95.0601 136.66 93.6001 136.58C92.6301 136.53 91.7601 136.99 90.8101 136.83C90.5401 136.78 90.2401 136.88 90.2401 137.22C90.2401 137.53 90.4901 137.67 90.7801 137.68C90.9701 137.69 91.1601 137.64 91.3501 137.65C91.8201 137.67 92.1801 137.89 92.2001 138.38C92.2301 138.89 91.8701 139.11 91.4001 139.15C91.0201 139.18 90.6401 139.17 90.2701 139.16C90.2701 139.16 89.5701 139.5 89.0101 139.52C88.4401 139.55 88.1301 139.9 88.1301 139.9C88.0101 140.01 87.8801 140.11 87.7201 140.21C87.5201 140.33 87.3801 140.55 87.4401 140.79C87.6001 141.36 87.2701 141.42 86.8301 141.43C84.9801 141.46 83.1301 141.5 81.2801 141.55L74.8101 141.57C73.6001 141.54 72.3601 141.28 71.1901 141.63C69.4601 142.15 67.6801 141.14 66.0401 142.08C65.8401 141.54 66.1801 141.38 66.3401 141.15C66.5701 140.84 66.6301 140.54 66.3701 140.22C66.1301 139.93 65.8001 139.8 65.4601 139.96C64.6001 140.35 63.7501 140.77 62.9201 141.2C62.4101 141.47 62.3801 141.91 62.4501 142.46C62.5901 143.54 62.0801 144.1 60.9901 144.14C60.5001 144.15 60.0001 144.11 59.5301 144.01C58.8601 143.87 58.2501 143.99 57.6801 144.33C56.5001 145.03 55.6301 146.2 54.0501 146.5C54.5101 146.95 54.8501 146.83 55.1301 146.92C55.3601 146.99 55.5801 147.08 55.5401 147.37C55.5101 147.58 55.3401 147.71 55.1401 147.71C54.3601 147.73 53.6801 148.04 53.0001 148.37C52.6901 148.52 52.2501 148.53 52.0601 148.21C51.5101 147.27 50.9901 147.73 50.4001 148.14C49.9701 148.43 49.7401 148.85 49.4601 149.25C49.2201 149.6 48.7701 149.72 48.4501 149.49L47.9501 149L47.3101 149.84C47.2001 150.19 47.1901 150.51 46.6401 150.49C46.1301 150.47 45.6601 150.51 45.6201 149.77C45.5801 148.96 45.1401 148.42 44.3801 148.03" stroke="#CBA2B2" stroke-width="1.5" stroke-miterlimit="10"/>
<path d="M39.0802 148.14C40.3502 147.18 40.3102 145.84 40.3202 144.45C40.3502 138.87 40.8702 133.3 40.7602 127.71C40.6802 123.78 39.4802 120.16 37.1902 116.93C36.7702 116.34 36.5202 115.25 35.7402 115.37C34.9902 115.48 35.2802 116.58 35.0302 117.21C34.7402 117.94 34.3202 118.63 33.5002 118.73C32.4702 118.86 31.3702 119.01 30.5002 118.14C30.1602 117.79 30.1402 117.43 30.3602 117.01C30.5102 116.72 30.5402 116.41 30.1902 116.23C29.8502 116.05 29.6402 116.29 29.4202 116.52C28.9902 116.99 28.5202 117.4 28.2702 118.03C28.0002 118.72 27.4402 118.88 26.8002 118.46C26.0402 117.96 25.2402 117.56 24.3802 117.25C23.3202 116.87 23.0402 115.15 23.8202 114.28C24.5202 113.49 24.6002 112.42 24.0402 111.55C23.7302 111.06 23.3902 111.21 23.1302 111.53C22.7202 112.02 22.3902 112.57 22.0002 113.09C21.4002 113.9 20.8402 113.84 20.4002 112.93C20.1302 112.37 20.0702 111.78 20.2702 111.17C20.4402 110.67 20.6302 110.17 20.7102 109.65C20.8702 108.67 20.2902 107.97 19.3302 108.11C18.5702 108.22 18.5102 107.88 18.5002 107.31C18.4702 105.72 18.7902 104.24 19.7302 102.92C20.0302 102.49 20.2902 102.03 20.5502 101.57C21.3502 100.17 21.5702 98.79 20.6002 97.32C20.0302 96.45 19.9902 95.59 20.8102 94.67C21.8502 93.51 21.6902 92.43 20.5602 91.29C19.1102 89.83 18.9902 87.89 18.8102 86.05C18.7102 85.03 19.6402 84.28 20.5802 83.89C21.3302 83.58 21.3702 84.34 21.3802 84.77C21.4102 86.27 22.2202 87.41 23.0402 88.54C23.5402 89.22 24.9902 89.34 25.9702 88.84C26.5802 88.53 27.2402 86.98 27.0202 86.36C26.8402 85.85 26.4202 85.61 25.9202 85.48C25.3402 85.32 24.7502 85.17 24.1702 84.99C23.5802 84.81 23.1702 84.41 23.1102 83.79C22.9702 82.46 22.5102 81.22 22.1502 79.95C21.8902 78.99 21.9602 78.09 22.2402 77.17C22.4002 76.62 22.6802 76.23 23.2402 76.04C25.3102 75.34 26.4902 73.91 26.6502 71.71C26.7402 70.56 27.0502 69.73 28.4702 69.84C29.1502 69.89 29.2102 69.31 29.1702 68.79C29.1102 68.04 29.0202 67.29 28.9602 66.54C28.9202 66.03 29.0602 65.58 29.4002 65.18C30.3702 64.02 30.7802 64.06 31.4702 65.38C31.7802 65.96 31.9502 66.95 32.6902 66.83C33.4602 66.7 33.0002 65.74 33.0902 65.16C33.3102 63.78 33.4802 62.4 34.0702 61.11C34.5402 60.08 35.1602 59.28 36.4802 59.5C37.2402 59.62 37.6402 59.11 38.0302 58.57C38.3302 58.15 38.4302 57.33 39.2102 57.65C40.0202 57.98 40.6102 58.58 40.4402 59.58C40.2602 60.71 40.0102 61.77 39.1002 62.62C37.5502 64.08 37.4902 65.65 38.9802 67.27C39.8302 68.19 40.0802 69.12 39.5702 70.24C39.9002 70.52 40.0702 70.19 40.2802 70.09C41.4002 69.6 42.4102 69.81 43.1802 70.77C43.7302 71.46 44.4502 71.73 45.2802 71.65C46.8702 71.49 48.3202 71.76 49.6702 72.67C50.5802 73.28 50.7202 73.94 49.7502 74.31C48.3202 74.87 48.2702 75.95 48.2702 77.14C48.2902 80.4 47.9702 80.04 51.1802 80.09C52.3102 80.11 53.3302 80.08 53.5102 78.6C53.5702 78.06 54.0602 78.07 54.4902 78.04C55.9102 77.97 57.1902 77.75 57.6702 76.07C57.8702 75.35 58.4102 75.54 58.7702 76.02C59.2102 76.6 59.3602 77.32 59.5702 78.01C59.9502 79.29 60.6602 80.03 62.1202 80.15C64.4902 80.34 64.8802 81.33 63.3802 83.24C62.6802 84.13 62.6402 84.72 63.5402 85.48C64.8802 86.61 65.9602 87.98 66.7002 89.58C66.9202 90.05 67.3202 90.3 67.7602 90.55C69.0402 91.28 69.7202 93.9 68.9802 95.18C68.7102 95.64 68.2602 95.81 67.7602 95.91C66.2102 96.24 65.5102 97.31 66.0102 98.79C66.4002 99.96 66.0902 100.99 65.5302 101.93C65.0502 102.73 64.7102 103.62 64.0602 104.33C63.4802 104.96 63.4502 105.78 63.4902 106.58C63.5502 107.67 63.2502 108.67 62.7902 109.64C62.5202 110.21 62.3202 110.34 61.7302 109.82C60.3502 108.62 59.7402 107.01 59.1202 105.4C58.8402 104.67 58.5302 104.42 57.8002 104.94C56.9902 105.51 56.0902 105.9 55.0802 105.98C54.2902 106.04 53.6502 106.43 53.1602 107.06C52.9402 107.34 52.7802 107.64 52.9602 108C53.1502 108.37 53.4902 108.37 53.8502 108.32C54.7402 108.19 55.5702 108.07 56.2302 107.26C56.9202 106.41 57.2002 106.55 57.5602 107.59C58.1102 109.17 58.7502 110.58 60.4602 111.39C62.4502 112.33 63.1102 114.47 62.4402 116.61C62.3102 117.03 62.1202 117.38 61.6402 117.46C60.0102 117.71 58.9202 118.74 58.0902 120.05C57.5302 120.92 57.1702 120.59 56.6602 120.03C54.8302 118.05 52.6902 116.91 49.8502 117.48C48.7202 117.71 48.1702 118.12 48.2602 119.33C48.3002 119.8 48.6002 120.69 47.7802 120.68C47.1402 120.67 47.3602 119.84 47.3502 119.34C47.3202 118.36 47.3502 117.38 47.3302 116.4C47.3202 115.97 47.4502 115.42 46.8802 115.24C46.2302 115.04 46.0702 115.65 45.7902 116.02C45.2002 116.79 44.9702 117.72 44.6302 118.59C43.6202 121.17 42.2602 123.64 42.3802 126.56C42.5802 131.57 42.6602 136.59 42.8802 141.6C42.9402 143.03 43.0702 144.45 43.0802 145.89C43.0802 146.89 43.5502 147.67 44.4102 148.11" stroke="#CBA2B2" stroke-width="1.5" stroke-miterlimit="10"/>
<path d="M1.33008 150.5V148.69C1.34008 147.43 1.74008 147.21 2.95008 147.59C3.23008 147.68 3.56008 147.78 3.83008 147.72C4.56008 147.57 4.91008 147.79 4.90008 148.56C4.89008 149.14 5.26008 149.31 5.79008 149.35C6.47008 149.4 6.44008 149.09 6.27008 148.61C6.24008 148.53 6.40008 148.29 6.50008 148.27C7.63008 148.02 7.51008 147.17 7.77008 146.29C8.16008 144.99 9.57008 144.4 10.8401 144.04C11.8001 143.77 12.4101 144.51 12.9201 145.28C13.7401 146.53 14.5301 146.66 15.7001 145.82C16.1201 145.52 16.4801 145.45 16.6601 146.03C16.8901 146.76 17.1301 147.05 17.7701 146.31C18.2301 145.78 18.6601 146.02 18.8701 146.61C18.9701 146.89 18.9601 147.2 19.0001 147.5C19.0801 148 19.2101 148.5 19.7601 148.66C20.3301 148.83 20.3601 148.22 20.6301 147.95C21.5101 147.02 22.7201 146.64 23.8001 146.04C23.9401 145.96 24.2301 145.95 24.3501 146.04C25.5001 146.96 27.0701 147.46 27.6001 149.01C27.8401 149.72 28.1101 149.95 28.6601 149.33C29.0401 148.9 29.5001 148.73 30.0401 148.62C30.5501 148.52 31.1601 148.44 31.3701 147.88C31.6501 147.13 32.2701 146.98 32.9101 146.94C33.7001 146.9 34.5101 146.89 35.2701 147.05C36.0501 147.22 36.6001 147.79 36.6601 148.65C36.7101 149.34 36.7901 149.94 37.6801 149.99C38.5301 150.04 38.6501 149.47 38.7701 148.83C38.8201 148.58 38.9001 148.26 39.0901 148.12" stroke="#CBA2B2" stroke-width="1.5" stroke-miterlimit="10"/>
<path d="M180.56 115.25C181.07 115.19 181.61 115.33 182.14 115.39C183.9 115.57 184.77 116.52 184.77 118.27C184.77 124.05 184.68 129.82 184.8 135.6C184.85 137.77 185.27 139.92 184.38 142.03C184.23 142.38 184.25 142.66 184.4 142.88" stroke="#CBA2B2" stroke-width="0.75" stroke-miterlimit="10"/>
<path d="M98.9001 135.6C99.1301 136.27 99.4901 136.92 99.4401 137.66C99.3801 138.56 99.9901 138.97 100.68 139.21C101.37 139.44 101.89 139.08 102.29 138.47C102.79 137.71 103.15 137.79 103.7 138.56C104.48 139.64 105.19 140.68 105.28 142.11C105.33 142.95 106.01 143.52 107.07 143.44C108.54 143.33 110.01 143.33 111.49 143.29L126.62 143.26C130.59 143.25 134.56 143.25 138.53 143.24L153.79 143.32C157.15 143.29 160.52 143.27 163.89 143.25L185.31 143.35C186.76 143.57 188.17 143.22 189.61 143.2C189.97 143.2 190.12 142.91 190.15 142.58C190.21 141.93 190.66 141.64 191.22 141.6C191.46 141.58 191.65 141.54 191.79 141.46L194.57 141.53H195.05C195.45 141.54 195.85 141.51 196.25 141.43C196.59 141.36 196.55 141.02 196.74 140.75C197.93 139.08 197.93 138.58 198.37 137.31C198.37 137.31 200 135.01 199.73 129C199.73 125.56 199.85 122.12 199.65 118.7C199.56 117.11 198.89 115.55 197.16 114.83C196.82 114.69 196.69 114.38 196.57 114.04C195.79 111.88 193.7 110.84 191.93 110.56C188.89 110.08 185.74 109.75 182.59 110.36C181.41 110.59 180.47 111.13 179.91 111.95C179.91 111.95 179.62 112.47 179.45 112.93C179.45 112.93 179.06 113.75 179.05 114.75" stroke="#CBA2B2" stroke-width="1.5" stroke-miterlimit="10"/>
<path d="M191.77 141.46C192.2 141.24 192.24 140.79 192.26 140.16C192.32 137.18 191.85 134.2 192.09 131.22C192.2 129.83 192.17 128.43 192.2 127.04C192.24 125.2 191.7 123.27 193.73 121.83C195.03 120.91 195.72 120.74 196.58 122.2C196.75 122.48 196.78 123.03 197.35 122.77C198.19 122.39 198.03 122.93 198.08 123.46C198.19 124.64 197.68 125.07 196.54 124.96C195.79 124.89 195.03 124.92 194.28 124.85C192.94 124.73 192.73 124.88 192.72 126.21C192.71 129.08 192.71 131.95 192.72 134.82C192.72 136.67 192.67 138.52 192.93 140.36C192.98 140.73 192.88 141.24 193.33 141.33" stroke="#CBA2B2" stroke-width="0.75" stroke-miterlimit="10"/>
<path d="M174.68 130.55C176.27 130.55 177.63 130.56 178.99 130.55C180.81 130.53 181.07 130.28 181.31 128.52C181.59 126.51 181.87 124.49 182.2 122.49C182.59 120.15 181.71 119.05 179.34 119.01C177.23 118.98 175.11 119.05 173.01 118.93C171.57 118.85 170.15 118.75 168.72 119C167.12 119.28 166.52 119.91 166.59 121.49C166.71 124.17 167.38 126.78 167.79 129.42C167.88 130.02 168.31 130.25 168.91 130.35C170.91 130.68 172.92 130.49 174.68 130.55Z" stroke="#CBA2B2" stroke-width="0.75" stroke-miterlimit="10"/>
<path d="M223.02 100.22C222.8 99.94 222.48 100.01 222.19 99.99C220.28 99.86 218.37 100.43 216.44 100.02C215.83 99.89 215.46 100.28 215.4 100.93C215.35 101.48 215.12 101.77 214.5 101.53C213.47 101.13 212.44 101.37 211.53 101.81C209.98 102.56 208.42 103.3 206.86 104.03C205.49 104.67 204.6 105.87 204.73 107.58C204.8 108.59 204.75 109.61 204.75 110.63C204.75 114.08 204.84 114.17 208.33 114.26C210.27 114.31 212.7 112.69 213.28 110.82C213.57 109.91 214.03 109.33 214.92 108.97C215.78 108.63 216.47 106.98 216.16 106.32C215.6 105.13 216.3 103.85 217.51 103.32C219.33 102.52 221.19 102.28 223.14 102.45C223.5 102.48 224.05 102.55 224.14 102.15C224.25 101.7 223.67 101.64 223.35 101.5C222.29 101.04 222.28 101.05 223.02 100.22Z" stroke="#CBA2B2" stroke-width="0.75" stroke-miterlimit="10"/>
<path d="M219.91 114.2C222.38 114.4 223.84 113.35 225.15 112.05C225.7 111.5 225.85 110.7 225.44 110.06C225 109.37 225.14 108.91 225.6 108.36C226.05 107.83 225.94 107.52 225.2 107.43C223.74 107.24 222.29 106.98 220.81 107.03C220.09 107.05 219.37 107 218.69 106.74C217.23 106.2 217.22 106.19 216.87 107.78C216.73 108.41 216.67 109.21 215.96 109.35C214.33 109.67 213.87 110.85 213.45 112.2C213.06 113.47 213.2 113.72 214.53 114.03C216.47 114.49 218.45 113.76 219.91 114.2Z" stroke="#CBA2B2" stroke-width="0.75" stroke-miterlimit="10"/>
<path d="M39.19 112.46C39.19 112.93 39.18 113.27 39.19 113.61C39.23 116.14 39.8 118.53 41.16 120.7C41.69 121.55 42.27 121.7 42.56 120.97C43.18 119.43 44.27 118.1 44.77 116.53C45.44 114.43 45.52 112.21 45.81 110.03C45.87 109.58 46.04 109.07 45.52 108.82C44.97 108.56 44.74 109.11 44.43 109.41C43.27 110.58 41.49 110.89 40.13 110.1C39.62 109.8 39.47 110 39.34 110.44C39.15 111.15 39.21 111.87 39.19 112.46Z" stroke="#CBA2B2" stroke-width="0.75" stroke-miterlimit="10"/>
<path d="M201.06 113.06C201.19 110.93 200.27 109.23 199.73 107.43C199.4 106.34 198.69 105.77 197.6 105.75C197 105.74 196.69 105.48 196.46 105C196.17 104.39 195.86 103.78 195.61 103.15C195.34 102.48 195.16 101.79 194.89 101.12C194.63 100.48 194.08 100.33 193.48 100.57C192.77 100.85 192.96 101.39 193.21 101.89C193.43 102.33 193.74 102.73 193.91 103.18C194.14 103.82 193.94 104.23 193.16 104.11C192.69 104.04 192.34 103.82 192.07 103.4C191.25 102.14 189.56 102.17 188.72 103.42C188.55 103.67 188.58 103.87 188.83 103.96C189.99 104.38 191.01 105.17 192.33 105.19C194.01 105.22 194.11 105.32 194.57 106.96C194.81 107.83 194.95 108.74 195.29 109.56C196.21 111.74 198.4 112.7 199.98 114.26C200.47 114.74 200.98 114.54 201.06 113.78C201.09 113.49 201.06 113.19 201.06 113.06Z" stroke="#CBA2B2" stroke-width="0.75" stroke-miterlimit="10"/>
<path d="M212.02 90.72C211.13 90.68 210.62 90.89 210.17 91.27C208.61 92.58 207.06 93.89 205.48 95.17C205 95.56 204.97 95.95 205.23 96.45C205.42 96.82 205.67 97.21 205.35 97.61C204.88 98.19 205.04 98.66 205.39 99.24C206.01 100.29 205.74 101.46 204.9 101.93C204.59 102.1 204.36 102.13 204.14 101.78C203.28 100.43 203.27 100.44 201.89 101.13C201.62 101.26 201.33 101.37 201.04 101.44C200.23 101.63 200.19 102.01 200.82 102.46C201.43 102.89 202.08 103.28 202.79 103.57C204.85 104.42 206.31 102.99 207.94 102.24C208.29 102.08 208.27 101.68 208.13 101.33C207.59 99.99 207.92 98.51 207.43 97.14C207.24 96.61 207.52 95.97 208.07 95.68C208.8 95.3 209.48 94.8 210.34 94.72C210.83 94.68 211.47 94.61 211.65 94.18C212.08 93.15 212.82 92.62 213.8 92.19C214.3 91.97 214.51 91.36 213.82 91.08C213.17 90.84 212.43 90.8 212.02 90.72Z" stroke="#CBA2B2" stroke-width="0.75" stroke-miterlimit="10"/>
<path d="M216.68 74.61C216.81 74.75 216.71 74.89 216.66 75.02C215.99 76.81 216.84 78.17 218.72 78.37C219.02 78.4 219.25 78.31 219.41 78.08C220.38 76.74 221.59 75.6 221.36 73.62C221.15 71.83 221.28 71.73 219.56 71.24C219.03 71.09 218.71 71.21 218.65 71.72C218.53 72.75 217.86 73.04 216.99 73.03C214.94 73.02 213.37 74.33 211.55 74.94C211.18 75.07 211.09 75.41 211.09 75.77C211.09 76.42 211.56 76.65 212.05 76.9C212.42 77.09 213.02 77.16 212.67 77.83C212.56 78.05 212.26 78.29 212.57 78.52C212.92 78.78 213.21 78.49 213.45 78.25C214.09 77.61 214.76 77.38 215.54 78.04C215.8 78.26 216.12 78.57 216.43 78.32C216.82 77.99 216.34 77.74 216.19 77.47C215.55 76.32 215.74 75.13 216.68 74.61Z" stroke="#CBA2B2" stroke-width="0.75" stroke-miterlimit="10"/>
<path d="M199.19 73.03C198.93 72.61 198.84 72.19 198.86 71.73C198.92 70.22 198.51 69.92 197 70.24C195.7 70.51 194.83 71.58 193.59 71.98C193.02 72.16 193.11 72.77 193.48 73.21C193.94 73.76 194.43 74.28 194.9 74.83C195.75 75.83 196.15 75.84 197.01 74.86C197.19 74.66 197.34 74.42 197.66 74.53C197.95 74.62 198.04 74.89 198.09 75.15C198.19 75.63 198.25 76.12 198.34 76.6C198.4 76.92 198.4 77.36 198.83 77.39C199.32 77.43 199.25 76.96 199.35 76.66C199.47 76.27 199.45 75.76 199.9 75.6C201.04 75.2 201.22 73.87 202.18 73.3C202.44 73.15 202.41 72.82 202.2 72.6C201.74 72.12 201.53 71.51 201.24 70.95C200.9 70.29 200.45 70.19 199.93 70.82C199.4 71.46 199.21 72.2 199.19 73.03Z" stroke="#CBA2B2" stroke-width="0.75" stroke-miterlimit="10"/>
<path d="M190.06 109.25C190.06 109.27 190.06 109.29 190.06 109.31C190.89 109.27 191.73 109.29 192.54 109.16C193.38 109.03 194.1 107.97 194.01 107.13C193.91 106.15 193.35 105.64 192.35 105.65C191.11 105.66 189.96 105.17 188.86 104.77C187.74 104.36 187.03 104.47 186.28 105.33C185.7 106 185.25 105.76 184.94 105.02C184.78 104.64 184.65 104.23 184.41 103.91C184.07 103.44 183.54 103.21 183.03 103.58C182.55 103.92 182.79 104.44 183.03 104.8C183.57 105.63 184.22 106.38 185.29 106.54C186 106.65 186.46 107.14 186.42 107.76C186.31 109.13 187.21 109.17 188.13 109.23C188.77 109.29 189.42 109.25 190.06 109.25Z" stroke="#CBA2B2" stroke-width="0.75" stroke-miterlimit="10"/>
<path d="M99.0002 120.65C99.0002 120.12 99.0202 119.82 99.0002 119.52C98.9702 119.19 98.7702 118.95 98.4502 119.14C97.5702 119.69 96.6502 120.21 95.8902 120.91C95.4202 121.34 95.9402 122.06 95.8802 122.65C95.8502 122.92 95.9002 123.2 95.8802 123.47C95.7702 124.61 96.4602 125.5 96.8702 126.46C97.0502 126.89 97.3702 126.9 97.6202 126.41C98.5802 124.53 98.9702 122.52 99.0002 120.65Z" stroke="#CBA2B2" stroke-width="0.75" stroke-miterlimit="10"/>
<path d="M150.08 136.27C150.99 136.43 151.23 136.14 151.16 135.57C150.95 133.82 150.11 133.04 148.28 133.11C146.78 133.16 145.28 133.35 143.77 133.3C143.13 133.28 142.49 133.28 141.85 133.33C141.05 133.39 140.08 134.62 140.18 135.57C140.3 136.64 141.22 136.22 141.8 136.22C144.66 136.22 147.52 136.1 150.08 136.27Z" stroke="#CBA2B2" stroke-width="0.75" stroke-miterlimit="10"/>
<path d="M32.77 75.01C32.79 75.3 32.75 75.62 32.85 75.89C33.21 76.88 32.31 78.7 34.53 78.49C34.59 78.48 34.66 78.56 34.72 78.6C35.28 78.92 35.83 79.25 36.39 79.56C36.84 79.81 37.19 79.71 37.37 79.2C37.66 78.38 38.03 77.58 38.21 76.74C38.49 75.46 38.12 75.11 36.83 74.81C35.35 74.46 33.79 74.89 32.35 74.26C32.14 74.17 31.91 74.27 31.73 74.44C30.81 75.31 30.73 77.8 31.6 78.8C31.79 79.02 31.96 79.39 32.31 79.19C32.66 78.99 32.45 78.64 32.36 78.37C31.98 77.2 32.22 76.09 32.77 75.01Z" stroke="#CBA2B2" stroke-width="0.75" stroke-miterlimit="10"/>
<path d="M174.39 141.47C172.2 141.46 170.01 141.47 167.82 141.46C167.18 141.46 166.58 141.47 166.59 142.37C166.6 143.28 167.23 143.24 167.85 143.25C169.93 143.27 172 143.13 174.07 143.07C176.36 143 178.67 143.17 180.97 143.23C181.57 143.24 182.26 143.33 182.23 142.39C182.21 141.53 181.61 141.48 180.97 141.48C178.77 141.47 176.58 141.47 174.39 141.47Z" stroke="#CBA2B2" stroke-width="0.75" stroke-miterlimit="10"/>
<path d="M29.7302 95.6C28.5802 95.38 27.9702 95.71 27.9202 96.59C27.8802 97.31 28.3402 97.94 28.7002 98.55C28.8802 98.85 29.2302 98.8 29.5202 98.67C29.9002 98.5 30.3302 98.37 30.6202 98.1C31.5102 97.25 32.4602 97.19 33.5302 97.69C34.4402 98.11 35.0702 97.73 35.4602 96.91C35.6502 96.51 35.7802 96.07 35.9002 95.63C36.0802 95.01 35.9002 94.62 35.1902 94.52C34.4002 94.41 33.6202 94.22 32.9902 93.7C32.4702 93.27 32.2102 93.43 31.8302 93.94C31.2302 94.72 30.6502 95.63 29.7302 95.6Z" stroke="#CBA2B2" stroke-width="0.75" stroke-miterlimit="10"/>
<path d="M59.1701 86.28C59.1701 84.78 58.3301 83.87 56.9001 83.69C56.5001 83.64 56.3101 83.84 56.2701 84.17C56.1801 85.17 55.6101 85.5 54.6701 85.5C54.1201 85.5 53.3401 85.55 53.4401 86.31C53.5501 87.12 53.6401 88.17 54.6201 88.43C55.2401 88.59 55.8501 88.74 56.4401 88.98C56.8401 89.14 57.2801 89.18 57.6301 88.9C58.4901 88.19 59.3101 87.44 59.1701 86.28Z" stroke="#CBA2B2" stroke-width="0.75" stroke-miterlimit="10"/>
<path d="M228.67 115.38C229.96 115.34 231.06 114.96 232.12 114.44C232.76 114.12 232.83 113.19 232.31 112.73C232 112.46 231.61 112.51 231.24 112.45C229.77 112.21 228.16 113.11 226.8 111.9C226.72 111.83 226.41 111.9 226.28 112C225.54 112.58 224.75 113.1 224.24 113.92C223.97 114.35 224.12 114.56 224.54 114.64C225.94 114.91 227.35 115.15 228.67 115.38Z" stroke="#CBA2B2" stroke-width="0.75" stroke-miterlimit="10"/>
<path d="M119.06 135.54C120.16 135.55 121.25 135.58 122.35 135.53C122.96 135.51 123.75 135.58 123.82 134.67C123.89 133.78 123.17 133.48 122.5 133.41C120.21 133.17 117.9 133.23 115.6 133.36C114.84 133.4 114.63 134 114.62 134.65C114.6 135.35 115.08 135.54 115.67 135.54C116.8 135.54 117.93 135.54 119.06 135.54Z" stroke="#CBA2B2" stroke-width="0.75" stroke-miterlimit="10"/>
<path d="M145.53 142.78C145.53 142.77 145.53 142.77 145.53 142.76C147 142.76 148.47 142.77 149.94 142.75C150.25 142.74 150.7 142.71 150.68 142.25C150.67 141.88 150.37 141.66 150.01 141.58C149.83 141.54 149.64 141.52 149.45 141.52C146.77 141.52 144.1 141.51 141.42 141.52C140.98 141.52 140.38 141.48 140.36 142.09C140.34 142.77 140.99 142.76 141.45 142.77C142.81 142.8 144.17 142.78 145.53 142.78Z" stroke="#CBA2B2" stroke-width="0.75" stroke-miterlimit="10"/>
<path d="M195.54 100.81C195.84 101.55 195.8 102.74 196.64 103.25C197.5 103.77 198.59 103.95 199.56 104.38C199.97 104.56 200.29 104.34 200.32 103.83C200.35 103.02 198.34 100.81 197.53 100.9C196.89 100.97 196.78 100.64 196.56 100.22C196.26 99.65 196.65 98.53 195.91 98.56C195.42 98.58 195.8 99.77 195.61 100.4C195.58 100.48 195.57 100.55 195.54 100.81Z" stroke="#CBA2B2" stroke-width="0.75" stroke-miterlimit="10"/>
<path d="M186.61 89.05C186.58 89.86 187.46 90.88 188.25 90.84C189.01 90.81 189.27 90.98 189.17 91.77C189.08 92.43 189.56 92.73 190.18 92.67C190.85 92.6 190.87 92.11 190.75 91.57C190.51 90.41 189.94 89.4 189.34 88.4C188.99 87.82 188.62 87.42 187.91 87.6C187.13 87.8 186.71 88.34 186.61 89.05Z" stroke="#CBA2B2" stroke-width="0.75" stroke-miterlimit="10"/>
<path d="M191.2 90.33C191.22 91.14 191.89 92.87 192.31 93.33C192.51 93.55 192.73 93.84 193.07 93.65C193.41 93.46 193.29 93.14 193.18 92.85C193.17 92.82 193.15 92.78 193.13 92.75C192.55 91.31 192.61 91.22 194.22 90.9C194.6 90.82 195.3 90.69 194.89 90.22C194.37 89.62 194.03 88.91 193.53 88.32C193.25 87.98 192.84 87.99 192.51 88.24C191.75 88.8 191.49 89.67 191.2 90.33Z" stroke="#CBA2B2" stroke-width="0.75" stroke-miterlimit="10"/>
<path d="M28.5801 77.44C28.4401 79.31 29.2601 80.72 30.6601 81.85C31.0201 82.14 31.3401 82.78 31.8501 82.48C32.4101 82.15 32.4201 81.46 32.2601 80.85C32.1801 80.53 32.0301 80.2 31.8101 79.95C31.0101 79.01 30.1701 78.09 29.3401 77.17C29.1901 77.01 29.0201 76.81 28.7701 76.89C28.4901 76.97 28.5501 77.24 28.5801 77.44Z" stroke="#CBA2B2" stroke-width="0.75" stroke-miterlimit="10"/>
<path d="M106.66 119C107.02 119.02 107.37 118.83 107.65 118.48C108.16 117.83 108.67 117.18 108.99 116.41C109.15 116.03 109.47 115.67 109.1 115.28C108.76 114.91 108.26 114.86 107.83 115.03C106.65 115.49 105.76 116.3 105.39 117.52C105.14 118.37 105.71 119.02 106.66 119Z" stroke="#CBA2B2" stroke-width="0.75" stroke-miterlimit="10"/>
<path d="M84.6201 104.91C84.6301 105.42 85.9901 107.39 86.4501 107.48C87.2901 107.64 87.2901 106.78 87.7001 106.41C87.8601 106.26 88.0601 106.15 88.2501 106.03C88.4501 105.89 88.6301 105.7 88.4901 105.48C88.0801 104.86 87.7201 104.16 87.1701 103.69C86.5201 103.12 85.8401 103.84 85.1601 103.93C84.6501 103.99 84.6201 104.48 84.6201 104.91Z" stroke="#CBA2B2" stroke-width="0.75" stroke-miterlimit="10"/>
<path d="M207.02 91.22C206.91 90.71 206.85 90.26 206.72 89.83C206.6 89.41 206.24 89.27 205.93 89.52C205.2 90.1 204.33 90.55 203.85 91.39C203.47 92.05 203.43 92.78 204.26 93.09C205.85 93.68 206.21 93.75 206.59 92.68C206.77 92.18 206.89 91.67 207.02 91.22Z" stroke="#CBA2B2" stroke-width="0.75" stroke-miterlimit="10"/>
<path d="M124.2 142.48C124.21 142.38 124.22 142.28 124.23 142.18C124.07 142.09 123.92 141.96 123.75 141.92C120.68 141.33 117.57 141.7 114.48 141.67C114.24 141.67 114.03 141.81 114.04 142.09C114.05 142.37 114.29 142.46 114.52 142.48C115.2 142.54 115.88 142.58 116.55 142.63C119.11 142.83 121.64 142.45 124.2 142.48Z" stroke="#CBA2B2" stroke-width="0.75" stroke-miterlimit="10"/>
<path d="M56.93 102.32C56.57 102.41 56.16 102.48 55.88 102.84C55.69 103.08 55.51 103.38 55.18 103.36C53.71 103.25 53.88 104.72 53.24 105.4C53.01 105.65 53.39 105.91 53.67 105.79C54.97 105.22 56.5 105.22 57.64 104.24C58.01 103.93 58.34 103.61 58.12 103.1C57.92 102.6 57.55 102.3 56.93 102.32Z" stroke="#CBA2B2" stroke-width="0.75" stroke-miterlimit="10"/>
<path d="M37.7701 110.12C37.6601 110.4 37.5501 110.56 37.5301 110.74C37.3901 111.75 37.2901 112.74 36.1301 113.22C35.7201 113.39 35.6901 113.99 36.0401 114.3C36.6501 114.83 37.0601 115.5 37.5501 116.12C37.6801 116.29 37.8401 116.52 38.1001 116.41C38.3001 116.33 38.2601 116.1 38.2901 115.92C38.5501 114.51 38.3101 113.08 38.3801 111.66C38.4001 111.19 38.3901 110.59 37.7701 110.12Z" stroke="#CBA2B2" stroke-width="0.75" stroke-miterlimit="10"/>
<path d="M183.84 109.28C184.4 109.24 185.06 109.39 185.3 108.69C185.56 107.91 184.9 107.57 184.46 107.13C183.51 106.17 182.73 107.09 181.9 107.34C181.54 107.45 181.35 107.79 181.47 108.15C181.75 109.03 182.57 109.08 183.3 109.23C183.48 109.27 183.67 109.26 183.84 109.28Z" stroke="#CBA2B2" stroke-width="0.75" stroke-miterlimit="10"/>
<path d="M212.43 99.71C212.42 99.43 212.36 99.1 212.06 98.89C211.72 98.65 211.4 98.8 211.13 99.01C210.66 99.39 210.12 99.62 209.56 99.86C208.96 100.12 208.9 101 209.46 101.31C210.22 101.74 210.9 101.19 211.59 100.99C212.12 100.83 212.41 100.37 212.43 99.71Z" stroke="#CBA2B2" stroke-width="0.75" stroke-miterlimit="10"/>
<path d="M46.47 111.75C46.49 112.15 46.4 112.99 47.13 113C47.67 113.01 48.1 112.2 47.92 111.62C47.67 110.78 47.47 110.01 47.71 109.13C47.8 108.81 47.54 108.33 47.1 108.33C46.62 108.33 46.71 108.79 46.68 109.11C46.6 109.92 46.55 110.74 46.47 111.75Z" stroke="#CBA2B2" stroke-width="0.75" stroke-miterlimit="10"/>
<path d="M182.04 135.3C182.02 135.3 182.01 135.3 181.99 135.3C182.04 135.78 182.04 136.28 182.16 136.75C182.26 137.15 182.62 137.35 183.04 137.3C183.47 137.26 183.57 136.93 183.58 136.56C183.6 135.88 183.69 135.2 183.49 134.54C183.34 134.06 183.09 133.55 182.5 133.62C181.86 133.7 182.08 134.31 182.03 134.72C182.02 134.92 182.04 135.11 182.04 135.3Z" stroke="#CBA2B2" stroke-width="0.75" stroke-miterlimit="10"/>
<path d="M208.4 89.15C207.53 89.17 207.39 89.73 207.48 90.32C207.57 90.96 207.04 91.84 208.02 92.16C208.45 92.31 209.71 91 209.66 90.48C209.58 89.72 209.04 89.34 208.4 89.15Z" stroke="#CBA2B2" stroke-width="0.75" stroke-miterlimit="10"/>
<path d="M144.46 139.8C145.36 139.52 146.42 139.71 147.47 139.59C147.84 139.55 148.3 139.48 148.25 138.97C148.2 138.51 147.78 138.59 147.44 138.62C146.17 138.73 144.9 138.85 143.63 138.5C142.92 138.31 142.95 138.8 143.1 139.22C143.29 139.8 143.81 139.82 144.46 139.8Z" stroke="#CBA2B2" stroke-width="0.75" stroke-miterlimit="10"/>
<path d="M166.8 135.49C166.79 135.15 166.8 134.82 166.79 134.48C166.78 134.15 166.83 133.75 166.41 133.64C165.96 133.51 165.72 133.86 165.54 134.19C165.06 135.03 165.11 135.91 165.42 136.78C165.55 137.16 165.88 137.37 166.31 137.28C166.73 137.19 166.78 136.84 166.79 136.5C166.81 136.16 166.8 135.83 166.8 135.49Z" stroke="#CBA2B2" stroke-width="0.75" stroke-miterlimit="10"/>
<path d="M221.76 73.96C221.84 74.39 221.54 75.03 222.21 75.18C222.75 75.3 222.93 74.73 223.18 74.38C223.64 73.75 223.64 72.96 223.83 72.25C223.97 71.71 223.59 71.73 223.21 71.86C222.23 72.21 221.6 72.81 221.76 73.96Z" stroke="#CBA2B2" stroke-width="0.75" stroke-miterlimit="10"/>
<path d="M51.22 104.86C51.31 105.19 51.02 105.75 51.58 105.88C52.05 105.99 52.29 105.52 52.51 105.18C52.92 104.55 53.31 103.9 53.69 103.25C53.85 102.98 54.01 102.63 53.48 102.61C52.64 102.58 51.22 104 51.22 104.86Z" stroke="#CBA2B2" stroke-width="0.75" stroke-miterlimit="10"/>
<path d="M89.4901 103.88C89.5701 102.53 88.4901 102.15 87.6001 101.62C87.3801 101.49 87.1101 101.36 86.8801 101.6C86.6601 101.84 86.7701 102.12 86.9301 102.32C87.4701 102.99 88.0201 103.64 88.5801 104.29C88.7301 104.46 88.9301 104.62 89.1701 104.52C89.4601 104.41 89.5101 104.14 89.4901 103.88Z" stroke="#CBA2B2" stroke-width="0.75" stroke-miterlimit="10"/>
<path d="M25.33 108.51C24.37 108.27 23.36 108.15 22.46 107.76C21.98 107.55 21.66 106.92 21.36 106.42C21.29 106.31 21.55 105.89 21.75 105.76C21.91 105.66 22.22 105.78 22.47 105.8C22.44 106.04 22.46 106.3 22.37 106.52C22.14 107.09 22.25 107.36 22.91 107.42C23.52 107.47 24.14 107.57 24.73 107.74C25.01 107.82 25.22 108.11 25.47 108.3C25.41 108.37 25.37 108.44 25.33 108.51Z" stroke="#CBA2B2" stroke-width="0.75" stroke-miterlimit="10"/>
<path d="M27.9202 111.73C28.7902 110.66 30.1102 110.93 32.1202 112.47C30.4602 113.25 29.4302 111.29 27.9202 111.73Z" stroke="#CBA2B2" stroke-width="0.75" stroke-miterlimit="10"/>
<path d="M26.1001 115.06C25.8701 114.76 25.5501 114.48 25.4601 114.14C25.4101 113.97 25.7901 113.69 25.9701 113.46C26.0601 113.48 26.1601 113.49 26.2501 113.51C26.3401 113.96 26.4201 114.41 26.5101 114.86C26.3801 114.93 26.2401 115 26.1001 115.06Z" stroke="#CBA2B2" stroke-width="0.75" stroke-miterlimit="10"/>
<path d="M26.1001 105.86C25.8701 105.56 25.5501 105.28 25.4601 104.94C25.4101 104.77 25.7901 104.49 25.9701 104.26C26.0601 104.28 26.1601 104.29 26.2501 104.31C26.3401 104.76 26.4201 105.21 26.5101 105.66C26.3801 105.73 26.2401 105.79 26.1001 105.86Z" stroke="#CBA2B2" stroke-width="0.75" stroke-miterlimit="10"/>
<path d="M57.4401 111.86C57.2101 111.56 56.8901 111.28 56.8001 110.94C56.7501 110.77 57.1301 110.49 57.3101 110.26C57.4001 110.28 57.5001 110.29 57.5901 110.31C57.6801 110.76 57.7601 111.21 57.8501 111.66C57.7101 111.72 57.5701 111.79 57.4401 111.86Z" stroke="#CBA2B2" stroke-width="0.75" stroke-miterlimit="10"/>
<path d="M52.1101 115.06C51.8801 114.76 51.5601 114.48 51.4701 114.14C51.4201 113.97 51.8001 113.69 51.9801 113.46C52.0701 113.48 52.1701 113.49 52.2601 113.51C52.3501 113.96 52.4301 114.41 52.5201 114.86C52.3901 114.93 52.2501 115 52.1101 115.06Z" stroke="#CBA2B2" stroke-width="0.75" stroke-miterlimit="10"/>
<path d="M83.4401 124.69C83.2101 124.39 82.8901 124.11 82.8001 123.77C82.7501 123.6 83.1301 123.32 83.3101 123.09C83.4001 123.11 83.5001 123.12 83.5901 123.14C83.6801 123.59 83.7601 124.04 83.8501 124.49C83.7201 124.56 83.5801 124.63 83.4401 124.69Z" stroke="#CBA2B2" stroke-width="0.75" stroke-miterlimit="10"/>
<path d="M86.6901 120.68C86.4601 120.38 86.1401 120.1 86.0501 119.76C86.0001 119.59 86.3801 119.31 86.5601 119.08C86.6501 119.1 86.7501 119.11 86.8401 119.13C86.9301 119.58 87.0101 120.03 87.1001 120.48C86.9701 120.55 86.8301 120.62 86.6901 120.68Z" stroke="#CBA2B2" stroke-width="0.75" stroke-miterlimit="10"/>
<path d="M103.36 113.56C103.13 113.26 102.81 112.98 102.72 112.64C102.67 112.47 103.05 112.19 103.23 111.96C103.32 111.98 103.42 111.99 103.51 112.01C103.6 112.46 103.68 112.91 103.77 113.36C103.63 113.43 103.5 113.49 103.36 113.56Z" stroke="#CBA2B2" stroke-width="0.75" stroke-miterlimit="10"/>
<path d="M104.41 123.6C104.18 123.3 103.86 123.02 103.77 122.68C103.72 122.51 104.1 122.23 104.28 122C104.37 122.02 104.47 122.03 104.56 122.05C104.65 122.5 104.73 122.95 104.82 123.4C104.69 123.47 104.55 123.53 104.41 123.6Z" stroke="#CBA2B2" stroke-width="0.75" stroke-miterlimit="10"/>
<path d="M173.66 110.08C173.43 109.78 173.11 109.5 173.02 109.16C172.97 108.99 173.35 108.71 173.53 108.48C173.62 108.5 173.72 108.51 173.81 108.53C173.9 108.98 173.98 109.43 174.07 109.88C173.93 109.95 173.79 110.01 173.66 110.08Z" stroke="#CBA2B2" stroke-width="0.75" stroke-miterlimit="10"/>
<path d="M222.38 105.62C222.15 105.32 221.83 105.04 221.74 104.7C221.69 104.53 222.07 104.25 222.25 104.02C222.34 104.04 222.44 104.05 222.53 104.07C222.62 104.52 222.7 104.97 222.79 105.42C222.66 105.49 222.52 105.56 222.38 105.62Z" stroke="#CBA2B2" stroke-width="0.75" stroke-miterlimit="10"/>
<path d="M178.89 103.85C178.66 103.55 178.34 103.27 178.25 102.93C178.2 102.76 178.58 102.48 178.76 102.25C178.85 102.27 178.95 102.28 179.04 102.3C179.13 102.75 179.21 103.2 179.3 103.65C179.17 103.71 179.03 103.78 178.89 103.85Z" stroke="#CBA2B2" stroke-width="0.75" stroke-miterlimit="10"/>
<path d="M230.96 108.78C230.73 108.48 230.41 108.2 230.32 107.86C230.27 107.69 230.65 107.41 230.83 107.18C230.92 107.2 231.02 107.21 231.11 107.23C231.2 107.68 231.28 108.13 231.37 108.58C231.24 108.65 231.1 108.72 230.96 108.78Z" stroke="#CBA2B2" stroke-width="0.75" stroke-miterlimit="10"/>
<path d="M174.19 100.37C173.96 100.07 173.64 99.79 173.55 99.45C173.5 99.28 173.88 99 174.06 98.77C174.15 98.79 174.25 98.8 174.34 98.82C174.43 99.27 174.51 99.72 174.6 100.17C174.46 100.23 174.32 100.3 174.19 100.37Z" stroke="#CBA2B2" stroke-width="0.75" stroke-miterlimit="10"/>
<path d="M176.48 113.33C175.54 112.32 175.99 111.05 177.79 109.27C178.33 111.02 176.25 111.77 176.48 113.33Z" stroke="#CBA2B2" stroke-width="0.75" stroke-miterlimit="10"/>
<path d="M181.67 101.19C182.12 100.36 182.81 100.57 183.86 101.76C182.99 102.37 182.46 100.85 181.67 101.19Z" stroke="#CBA2B2" stroke-width="0.75" stroke-miterlimit="10"/>
<path d="M227.71 109.94C228.3 109.21 229.19 109.4 230.56 110.44C229.43 110.97 228.74 109.64 227.71 109.94Z" stroke="#CBA2B2" stroke-width="0.75" stroke-miterlimit="10"/>
<path d="M173.45 114.12C173.45 114.12 175.53 115.08 176.69 115.38C177.78 115.66 179.05 115.76 179.06 114.76" stroke="#CBA2B2" stroke-width="1.5" stroke-miterlimit="10"/>
</g>
<defs>
<clipPath id="clip0_5398_8888">
<rect width="272" height="150" fill="white" transform="translate(0 0.5)"/>
</clipPath>
</defs>
</svg>
