<svg width="253" height="91" viewBox="0 0 253 91" fill="none" xmlns="http://www.w3.org/2000/svg">
<path d="M94.9214 51.4201L97.4114 52.4201L102.251 53.1901L106.261 53.5101H108.141L107.331 19.6701L106.331 17.1301L103.771 17.4701L98.2414 16.6801L91.7614 16.8601V23.8501L91.7214 27.4101L91.4414 31.8501V34.5401C91.4414 34.5401 92.1114 40.1601 91.6514 40.8701C91.1914 41.5801 91.6514 47.1301 91.6514 47.1301L93.0914 51.1601L94.9214 51.4201Z" stroke="#CBA2B2" stroke-width="2" stroke-miterlimit="10"/>
<path d="M49.5312 44.7L51.7412 37.25L58.4813 31.3V24.93L59.5513 23.85H61.3512L62.1613 25.39L62.5912 30.87H67.4813L71.1012 27.27L72.9113 27.23L68.7613 35.21L65.8313 39.7L68.8213 45.18L66.5113 47.15L56.5212 44.89L52.2213 44.71L49.5312 44.7Z" fill="#F4A079"/>
<path d="M35.1699 35.62L34.5499 30.63L35.1699 26.93L36.5899 26.17L38.2699 27.52C38.2699 27.52 39.0699 29.36 39.1099 29.7C39.1499 30.04 39.0599 31.77 38.8999 32.27C38.7399 32.77 38.7899 34.09 38.7899 34.09L40.6599 35.21L41.5699 36.27C41.5699 36.27 42.7799 37.77 42.6799 38.47C42.5699 39.17 43.0099 40.44 43.0099 40.44L46.1699 39.77V41.8L46.4099 44.4C46.4099 44.4 39.6899 43.79 38.9899 43.83C38.2899 43.87 34.9499 43.93 34.9499 43.93C34.9499 43.93 31.4099 43.29 31.1199 43.29C30.8399 43.29 31.6099 38.96 31.6099 38.96C31.6099 38.96 34.0199 37.62 34.3699 36.95C34.7399 36.28 35.1699 35.62 35.1699 35.62Z" fill="#F4A079"/>
<path d="M13.1907 34.4699C13.1907 34.4699 11.9607 33.4999 11.9107 33.1899C11.8607 32.8799 11.5507 29.2099 11.5507 29.2099L13.2207 27.4399L14.8007 28.8599L15.6207 35.2199L16.7307 37.7699L18.3207 39.9999L19.3407 43.4099C19.3407 43.4099 15.4307 43.6399 15.3607 43.6399C15.2907 43.6399 11.0307 44.4199 11.0307 44.4199L10.2207 39.4399L10.7507 37.7299L11.1307 35.6299L13.1907 34.4699Z" fill="#F4A079"/>
<path d="M86.4013 36.6L85.5413 31.04L85.9713 28.7L87.1513 27.42L89.9413 28.55C89.9413 28.55 90.5313 30.25 90.5313 30.46C90.5313 30.67 90.5313 33.72 90.5313 33.72L91.3613 35.61L91.6413 36.06L93.5513 36.59L98.0513 34.08L101.061 30.1L101.981 30.74L101.271 32.75C101.271 32.75 98.7313 36.93 98.6513 37.27C98.5713 37.61 95.5313 41.32 95.5313 41.32L91.8813 43.59L92.7813 51.17L93.2913 58.3C93.2913 58.3 93.9613 61.49 94.0313 61.77C94.1013 62.05 94.3013 66.09 94.3013 66.09L93.1813 66.44C93.1813 66.44 90.5013 62.97 90.3513 62.76C90.2013 62.55 89.5313 59.93 89.3313 59.57C89.1313 59.21 88.2113 58.22 88.2113 58.22C88.2113 58.22 85.4013 59.94 85.0913 60.03C84.7813 60.12 83.1713 61.42 83.1713 61.42C83.1713 61.42 81.3013 63.29 81.0913 63.5C80.8813 63.71 78.3613 67.6 78.3613 67.6L76.9113 68.12C76.9113 68.12 76.6913 65.72 76.7313 65.43C76.7713 65.14 77.7913 59.7 77.8613 58.99C77.9313 58.28 78.7113 54.45 78.7113 54.45L80.9113 49.28L82.4013 45.14L82.1713 43.05L80.0213 44.37L76.6413 44.67L73.6113 44.37V43.18L78.7813 41.29L82.4713 39.78L83.9513 37.85L86.4013 36.6Z" fill="#F4A079" stroke="#CBA2B2" stroke-width="1.5" stroke-miterlimit="10"/>
<path d="M45.2596 68.1499L45.3896 63.6699L45.1596 61.7999L43.0096 62.9799L39.6296 63.2499L36.5996 62.9799L37.2196 61.1399L41.7696 60.2199L46.9396 57.1399L49.7396 56.1799L48.0296 53.2299L48.9196 48.9199L50.4496 48.4399L52.8996 48.7999C52.8996 48.7999 53.4896 50.3199 53.4896 50.5099C53.4896 50.6999 53.4896 53.4299 53.4896 53.4299L53.5696 55.4399L54.6996 56.0499L56.6396 56.8099L60.6596 54.8699L63.7296 51.2299L65.1496 51.5099L64.2996 53.4999C64.2996 53.4999 62.1296 57.6399 61.2196 58.3599C60.9696 58.5499 58.5096 60.2299 58.5096 60.2299L54.8896 62.9899L55.1396 70.0099L57.1996 80.7999L53.4496 80.3499L51.6496 79.7399L46.5796 77.6499L43.3296 75.9599L43.5696 74.8299C43.7696 73.9299 44.0696 72.1399 44.0696 72.1399L45.2596 68.1499Z" fill="#F4A079" stroke="#CBA2B2" stroke-width="1.5" stroke-miterlimit="10"/>
<path d="M204.08 83.86C209.75 88.73 226.74 87.76 219.95 75.63C221.38 70.8 221.35 64.4 215.69 70.19C223.75 54.79 236.7 43.2 250.23 30.17C178.06 33.8 226.08 7.50003 168.16 54.2C179.52 43.96 189.49 34.88 199.95 23.95C203.91 23.66 207.56 25.73 209.34 20.77C195.38 22.21 179.46 17.52 166.88 22.43C171.39 36.78 156.95 58.39 187.16 37.6C174.96 51 163.11 62.45 151.46 76.42C169.21 77.62 186.92 84.18 204.08 83.86ZM165.18 57.4C164.11 49.29 165.81 42.58 162.97 34.78C162.02 33.25 165.25 22.81 162.69 19.8C170.1 14.08 186.28 17.77 195.63 16.54C200.32 17 206.37 16.24 211.42 16.56V21.72C214.37 21.39 218.5 21.92 218.99 25.65C241.36 30.96 271.7 16.98 236.52 47.9C200.52 80.97 257.05 94.33 178.5 89.48C179.34 87.66 181.11 85.8 178.01 83.91C174.75 84.76 171.16 80.19 167.99 84.14C139.11 75.67 138.81 85.06 165.18 57.4Z" fill="#CBA2B2"/>
<path d="M144.03 38.25V28.39C146.56 27.14 145.63 31.38 147.82 30.47C149.96 35.03 154.54 37.38 157.46 41.3C153.39 46.03 148.81 50.2 146.48 56.53C142.63 55.77 147 49.55 143.41 47.02C135.28 45.55 126.72 49.97 119.26 47.51C124.28 47.11 144.9 42.46 146.29 48.15C146.51 47.93 146.73 47.71 146.96 47.49C146.87 49.76 147.5 52.94 148.17 48.94C156.14 42.05 152.87 38.76 146.26 33.2V40.89C140.64 38.17 119.74 44.83 119.72 39.68C123.12 40.47 126.14 38.03 129.62 38.62C134.57 39.09 138.63 40.33 144.03 38.25Z" fill="#CBA2B2"/>
<path d="M188.46 54.43C185.42 57.1 185.02 57.79 183.99 60.62C187.76 61.66 195.71 53.18 188.46 54.43ZM177.68 63.88C179.83 60.73 175.94 60.23 175.68 58.01C180.13 57.48 181.7 52.18 187.61 53.38C183.56 46.93 189.37 50.58 192.05 47C192.31 48.32 192.82 49.62 194.58 49.16C190.55 52.94 195.29 53.26 199.06 56.11C193.38 55.97 192.79 58.87 189.64 61.6C201.57 65.44 201.41 44.35 209.48 51.9C208.38 52.6 207.32 53.28 206.26 53.96C207.87 56.73 210.89 54.81 213.59 54.42C213.21 57.53 206.9 56.24 204.98 56.47C202.13 59.61 193.2 61.68 197.51 66.4C196.6 70.65 197.29 78.94 190.42 77.33C203.96 71.57 186.01 56.19 177.68 63.88Z" fill="#CBA2B2"/>
<path d="M191.41 67.04C191.82 67.9 192.23 68.75 192.8 69.96C188.77 68.75 187.51 72.91 184.15 73.39C184.37 71.53 188.26 69.54 184.11 68.71C184.28 68.52 184.46 68.33 184.63 68.15H181.25C179.18 72.64 175.5 71.1 179.94 67.29C175.64 65.59 167.64 74.58 174.79 66.23C172.06 65.73 168.49 67.11 169.39 63.25C171.83 63.74 173.79 64.08 176.57 64.52C179.21 64.12 181.86 68.04 185.05 63.89C184.38 66.53 186.88 68.14 189.05 68.89C189.38 67.35 189.86 66.76 191.41 67.04Z" fill="#CBA2B2"/>
<path d="M213.59 72.29C214.08 82.92 214.05 81.82 204.09 83.86C204.84 81.04 206.05 79.12 209.39 78.06C208.68 75.1 211.73 74.11 213.59 72.29Z" fill="#CBA2B2"/>
<path d="M206.19 43.9001C204.43 44.2501 202.67 44.6001 200.91 44.9501C204.77 41.7101 199.59 39.8701 201.35 35.1801C204.52 44.5401 203.84 41.2201 210.5 38.7301C208.91 40.6401 207.55 42.2701 206.19 43.9001Z" fill="#CBA2B2"/>
<path d="M68.7409 47.01C62.1909 45.52 38.5609 43.72 32.0109 43.9C28.2809 44 27.8309 43.53 24.9509 43.44C23.3109 43.39 21.5009 43.61 19.8709 43.9C18.2409 44.19 16.9909 43.92 14.6809 44.01C9.77086 44.21 4.59086 44.45 2.13086 44.7C2.77086 43.62 4.79086 43.53 11.2409 43.53C9.44086 42.09 10.4109 38.09 10.8009 36.2C11.4209 35.8 12.2409 35.26 13.1009 34.71C12.5109 34.12 12.0409 33.65 11.5809 33.19C11.4009 32.06 11.2309 30.95 11.0009 29.44C11.3209 29.1 12.0109 28.36 12.8809 27.43C16.7009 30.44 14.1309 35.75 17.3909 39.77L18.8609 41.89C19.8409 42.78 20.8309 43.74 20.3609 37.39C19.1409 31.3 22.7909 25.94 23.7709 24.21C24.5009 22.91 25.1109 21.54 25.8109 20.21C27.0509 17.83 29.2309 16.25 30.8809 14.23C31.5709 13.38 31.5209 13.57 33.2909 12.06C37.6309 8.37001 43.2909 5.1 48.7109 2.92C49.7609 2.45 50.1209 2.57 52.0709 2.18C53.0109 1.99 64.1809 1.63 67.0009 1.63C69.9409 2.24 72.9509 2.81 75.6809 3.98C76.9709 4.54 77.4609 4.43 80.1509 5.87C81.9609 6.84 86.3009 9.22001 86.3009 9.22001C87.9309 11.41 89.7009 13.78 91.7209 16.48C95.0309 16.74 99.2809 15.78 102.621 17.22C103.241 17.55 104.311 17.06 105.591 16.89C105.801 17.19 106.311 17.91 107.281 19.29C106.941 30.32 108.411 42.06 108.091 53.13C106.031 54.54 104.151 52.64 102.191 52.81C100.051 53 98.1609 52.18 95.7909 51.65L93.0809 51.2L92.8909 54.74C95.5109 58.47 94.0709 62.55 94.3009 66.48H93.1609C92.6309 65.43 92.0909 64.37 91.3109 62.82V65.55C76.3509 87.53 47.6709 91.24 29.9209 71.71C27.8609 71.26 27.6409 69.29 26.6009 67.96C25.6609 66.75 24.3809 65.84 24.2309 64.21C21.2609 64.5 18.4709 64.78 15.7709 65.05C14.7109 62.73 17.2909 63.57 17.4109 62.47C20.1009 62.34 22.9709 63.1 25.0609 60.47C26.9909 61.41 28.6609 62.23 29.9009 62.84C32.6309 62.54 34.3409 61.85 36.9209 61.45L36.5909 62.76C34.1909 63.05 32.6709 64.17 29.9309 64.3C31.1209 65.27 31.7909 66.69 31.6109 66.92C36.6209 74.12 44.6509 76.78 52.3209 80.14M52.3409 80.12C68.2809 83.74 79.0609 73.06 89.4809 62.91C89.3009 61.13 91.3709 59.47 89.6509 57.25C89.4109 57.56 86.3309 58.79 83.2109 61.45C82.0009 62.48 80.7909 63.79 79.7109 65.03C78.3509 66.59 77.2109 68.04 76.5509 68.71C76.6609 70.09 76.8809 61.47 77.9409 57.24C76.2009 57.16 75.0709 57.57 73.5309 58.3C70.1009 60.01 68.8209 60.72 64.8309 61.57C59.2309 62.76 59.3409 62.57 55.2509 62.72M49.5309 44.7C49.4909 43.83 51.8009 38.42 51.7409 37.25C54.7209 34.9 55.1809 33.65 58.1609 31.3V24.93C58.5509 24.54 58.9309 24.15 59.2309 23.86H61.0309C62.7509 26.05 61.9209 28.51 62.2809 30.88H66.4909C67.8309 29.54 69.8809 27.23 70.9309 26.18C73.8009 22.77 72.7509 19.77 74.1909 19.77C79.2909 20.1 88.9209 22.34 89.0709 22.23C89.9209 23.08 90.4509 23.9 91.9209 25.8C91.9209 25.8 87.9909 19.95 85.1709 15.85C78.3209 5.42 65.1209 5.61 53.9509 6.01C45.7309 6.15 39.1909 12.43 33.2909 17.42C30.0809 20.13 28.6809 22.31 27.0509 25.66C24.5409 30.83 23.7709 33.67 23.2909 36.03L23.3009 43.2C25.4209 42.92 28.3909 44.57 30.0909 43.02C30.6609 42.5 31.3709 40.67 31.4709 39.42C33.2509 37.88 34.7409 36.2 36.3809 34.64C33.7009 32.51 33.5609 28.98 35.1409 26.19H36.7909C39.1709 28.46 39.3509 31.06 37.9209 33.86C39.0509 34.38 40.0709 34.85 40.8709 35.22C41.5309 37.13 42.1309 38.89 42.6709 40.46C43.9509 40.19 44.8609 40 45.8309 39.79C45.9909 40.79 45.8609 43.51 46.0009 44.43C47.7209 44.7 49.5309 44.7 49.5309 44.7Z" stroke="#CBA2B2" stroke-width="2" stroke-miterlimit="10"/>
<path d="M91.7209 25.28L90.1209 23.85L89.0509 22.22L79.2309 20.37L77.3309 20.12L73.6309 19.76L72.5109 25.52C72.5109 25.52 72.0909 28.29 72.0009 28.95C71.9109 29.61 70.1509 35.91 70.1509 35.91L69.2109 47L79.2309 48.77L81.4909 49.06" stroke="#CBA2B2" stroke-width="2" stroke-miterlimit="10"/>
<path d="M1.56055 47.07C1.56055 47.07 18.7505 47.34 19.3205 47.07C19.8905 46.8 27.4505 46.27 29.4305 46.45C31.4105 46.63 42.9406 46.44 45.8706 46.8C48.8006 47.16 68.7205 49.41 70.2705 49.74C72.6105 50.24 75.2606 50.66 76.5106 50.94C81.2306 52 77.6005 53.9 77.5705 53.92C75.0105 55.36 73.9006 55.58 71.7606 56.53C68.8506 57.82 67.0406 58.54 65.1506 58.98C63.2606 59.42 58.0905 61.01 58.1005 60.54" stroke="#CBA2B2" stroke-width="2" stroke-miterlimit="10"/>
<path d="M69.2201 45.91L65.8301 39.7L71.6201 31.13" stroke="#CBA2B2" stroke-width="2" stroke-miterlimit="10"/>
<path d="M95.3008 22.3199C95.3008 22.3199 99.7508 22.7499 99.7908 22.8899C99.8308 23.0299 103.231 22.8899 103.231 22.8899" stroke="#CBA2B2" stroke-miterlimit="10"/>
<path d="M95.3008 26.1801C95.3008 26.1801 99.7508 26.6101 99.7908 26.7501C99.8308 26.8901 103.231 26.7501 103.231 26.7501" stroke="#CBA2B2" stroke-miterlimit="10"/>
<path d="M77.3203 25.55C77.3203 25.55 81.7703 25.98 81.8103 26.12C81.8503 26.26 85.2503 26.12 85.2503 26.12" stroke="#CBA2B2" stroke-miterlimit="10"/>
<path d="M74.9707 29.0699C74.9707 29.0699 79.4207 29.4999 79.4607 29.6399C79.5007 29.7799 82.9007 29.6399 82.9007 29.6399" stroke="#CBA2B2" stroke-miterlimit="10"/>
<path d="M73.9297 34.41C73.9297 34.41 78.3797 34.84 78.4197 34.98C78.4597 35.12 81.8597 34.98 81.8597 34.98" stroke="#CBA2B2" stroke-miterlimit="10"/>
</svg>
